<svg width="825" height="476" viewBox="0 0 825 476" fill="none" xmlns="http://www.w3.org/2000/svg">
<path d="M15.0083 499.78C35.1097 489.617 73.0015 479.282 111.495 450.998C149.989 422.714 156.247 388.573 199.778 364.017C243.31 339.462 277.665 358.984 320.446 333.13C363.228 307.276 361.225 263.823 405.131 239.917C449.037 216.01 486.666 241.203 531.197 218.378C575.728 195.554 575.224 154.698 618.88 130.359C662.536 106.019 696.716 125.239 740.748 101.549C784.779 77.8587 811.588 34.334 830.23 16.6459" stroke="white" stroke-width="6" stroke-linecap="round"/>
<path d="M144.378 723.855C164.479 713.692 202.371 703.357 240.865 675.073C279.358 646.789 285.616 612.649 329.148 588.093C372.679 563.537 407.034 583.06 449.816 557.205C492.598 531.351 490.594 487.899 534.5 463.992C578.407 440.086 616.035 465.278 660.566 442.454C705.097 419.629 704.593 378.774 748.249 354.434C791.906 330.095 826.086 349.314 870.117 325.624C914.148 301.934 940.957 258.409 959.599 240.721" stroke="white" stroke-width="6" stroke-linecap="round"/>
<path d="M101.255 649.163C121.356 639 159.248 628.665 197.742 600.381C236.235 572.098 242.493 537.957 286.025 513.401C329.556 488.845 363.911 508.368 406.693 482.513C449.475 456.659 447.471 413.207 491.378 389.3C535.284 365.394 572.912 390.586 617.443 367.762C661.974 344.937 661.47 304.082 705.127 279.742C748.783 255.403 782.963 274.623 826.994 250.932C871.026 227.242 897.834 183.718 916.477 166.03" stroke="white" stroke-width="6" stroke-linecap="round"/>
<path d="M58.1318 574.472C78.2332 564.309 116.125 553.974 154.619 525.69C193.112 497.406 199.37 463.265 242.902 438.709C286.433 414.154 320.788 433.676 363.57 407.822C406.352 381.968 404.348 338.515 448.255 314.609C492.161 290.702 529.789 315.895 574.32 293.07C618.851 270.246 618.347 229.39 662.004 205.051C705.66 180.711 739.84 199.931 783.871 176.241C827.902 152.551 854.711 109.026 873.354 91.3379" stroke="white" stroke-width="6" stroke-linecap="round"/>
</svg>
