<svg width="40" height="40" viewBox="0 0 40 40" fill="none" xmlns="http://www.w3.org/2000/svg">
<g clip-path="url(#clip0_433_28598)">
<path d="M0 19.2C0 12.4794 0 9.11905 1.30792 6.55211C2.4584 4.29417 4.29417 2.4584 6.55211 1.30792C9.11905 0 12.4794 0 19.2 0H20.8C27.5206 0 30.8809 0 33.4479 1.30792C35.7058 2.4584 37.5416 4.29417 38.6921 6.55211C40 9.11905 40 12.4794 40 19.2V20.8C40 27.5206 40 30.8809 38.6921 33.4479C37.5416 35.7058 35.7058 37.5416 33.4479 38.6921C30.8809 40 27.5206 40 20.8 40H19.2C12.4794 40 9.11905 40 6.55211 38.6921C4.29417 37.5416 2.4584 35.7058 1.30792 33.4479C0 30.8809 0 27.5206 0 20.8V19.2Z" fill="url(#paint0_linear_433_28598)"/>
<path d="M28.3332 19.7791V23.7558C28.3332 25.7045 26.7377 27.2907 24.7775 27.2907H15.284L12.4046 29.3352C12.2509 29.4439 12.0695 29.5 11.8881 29.5C11.7492 29.5 11.6094 29.4672 11.4818 29.4016C11.1858 29.2497 11 28.9468 11 28.6163V16.686C11 14.7374 12.5956 13.1512 14.5557 13.1512H21.6671C22.1584 13.1512 22.556 13.5464 22.556 14.0349C22.556 14.5233 22.1584 14.9186 21.6671 14.9186H14.5548C13.5747 14.9186 12.777 15.7117 12.777 16.686V26.899L14.4828 25.6882C14.6338 25.5812 14.8144 25.5233 14.9993 25.5233H24.7775C25.7575 25.5233 26.5553 24.7302 26.5553 23.7559V19.7792C26.5553 19.2907 26.9529 18.8954 27.4442 18.8954C27.9356 18.8954 28.3332 19.2906 28.3332 19.7791ZM30.1111 13.1512H28.3332V11.3837C28.3332 10.8953 27.9356 10.5 27.4443 10.5C26.953 10.5 26.5554 10.8953 26.5554 11.3837V13.1512H24.7775C24.2862 13.1512 23.8886 13.5464 23.8886 14.0349C23.8886 14.5233 24.2862 14.9186 24.7775 14.9186H26.5554V16.686C26.5554 17.1745 26.953 17.5698 27.4443 17.5698C27.9356 17.5698 28.3332 17.1745 28.3332 16.686V14.9186H30.1111C30.6024 14.9186 31 14.5233 31 14.0349C31 13.5464 30.6024 13.1512 30.1111 13.1512ZM14.9993 20.2209C14.9993 20.8311 15.4968 21.3256 16.1105 21.3256C16.7242 21.3256 17.2217 20.8311 17.2217 20.2209C17.2217 19.6108 16.7242 19.1163 16.1105 19.1163C15.4968 19.1163 14.9993 19.6108 14.9993 20.2209ZM18.555 20.2209C18.555 20.8311 19.0525 21.3256 19.6662 21.3256C20.2799 21.3256 20.7774 20.8311 20.7774 20.2209C20.7774 19.6108 20.2799 19.1163 19.6662 19.1163C19.0525 19.1163 18.555 19.6108 18.555 20.2209ZM22.1107 20.2209C22.1107 20.8311 22.6082 21.3256 23.2219 21.3256C23.8356 21.3256 24.3331 20.8311 24.3331 20.2209C24.3331 19.6108 23.8356 19.1163 23.2219 19.1163C22.6082 19.1163 22.1107 19.6108 22.1107 20.2209Z" fill="white"/>
</g>
<defs>
<linearGradient id="paint0_linear_433_28598" x1="0" y1="20" x2="40" y2="20" gradientUnits="userSpaceOnUse">
<stop stop-color="#2A1AD8"/>
<stop offset="0.25" stop-color="#4E26E2"/>
<stop offset="0.5" stop-color="#7231EC"/>
<stop offset="0.75" stop-color="#953DF5"/>
<stop offset="1" stop-color="#B948FF"/>
</linearGradient>
<clipPath id="clip0_433_28598">
<path d="M0 19.2C0 12.4794 0 9.11905 1.30792 6.55211C2.4584 4.29417 4.29417 2.4584 6.55211 1.30792C9.11905 0 12.4794 0 19.2 0H20.8C27.5206 0 30.8809 0 33.4479 1.30792C35.7058 2.4584 37.5416 4.29417 38.6921 6.55211C40 9.11905 40 12.4794 40 19.2V20.8C40 27.5206 40 30.8809 38.6921 33.4479C37.5416 35.7058 35.7058 37.5416 33.4479 38.6921C30.8809 40 27.5206 40 20.8 40H19.2C12.4794 40 9.11905 40 6.55211 38.6921C4.29417 37.5416 2.4584 35.7058 1.30792 33.4479C0 30.8809 0 27.5206 0 20.8V19.2Z" fill="white"/>
</clipPath>
</defs>
</svg>
