<svg width="20" height="20" viewBox="0 0 20 20" fill="none" xmlns="http://www.w3.org/2000/svg">
<path d="M17.3332 9.77907V13.7558C17.3332 15.7045 15.7377 17.2907 13.7775 17.2907H4.28402L1.40457 19.3352C1.25092 19.4439 1.06949 19.5 0.888059 19.5C0.749164 19.5 0.609403 19.4672 0.481798 19.4016C0.185785 19.2497 0 18.9468 0 18.6163V6.68604C0 4.73737 1.59555 3.15116 3.5557 3.15116H10.6671C11.1584 3.15116 11.556 3.54643 11.556 4.03488C11.556 4.52333 11.1584 4.9186 10.6671 4.9186H3.55481C2.57473 4.9186 1.77696 5.7117 1.77696 6.68604V16.899L3.48277 15.6882C3.63381 15.5812 3.81438 15.5233 3.99928 15.5233H13.7775C14.7575 15.5233 15.5553 14.7302 15.5553 13.7559V9.77916C15.5553 9.2907 15.9529 8.89544 16.4442 8.89544C16.9356 8.89544 17.3332 9.29062 17.3332 9.77907ZM19.1111 3.15116H17.3332V1.38372C17.3332 0.895266 16.9356 0.5 16.4443 0.5C15.953 0.5 15.5554 0.895266 15.5554 1.38372V3.15116H13.7775C13.2862 3.15116 12.8886 3.54643 12.8886 4.03488C12.8886 4.52334 13.2862 4.9186 13.7775 4.9186H15.5554V6.68605C15.5554 7.1745 15.953 7.56977 16.4443 7.56977C16.9356 7.56977 17.3332 7.1745 17.3332 6.68605V4.9186H19.1111C19.6024 4.9186 20 4.52334 20 4.03488C20 3.54643 19.6024 3.15116 19.1111 3.15116ZM3.99934 10.2209C3.99934 10.8311 4.49676 11.3256 5.1105 11.3256C5.72424 11.3256 6.22166 10.8311 6.22166 10.2209C6.22166 9.61079 5.72424 9.11628 5.1105 9.11628C4.49676 9.11628 3.99934 9.61079 3.99934 10.2209ZM7.55504 10.2209C7.55504 10.8311 8.05246 11.3256 8.6662 11.3256C9.27994 11.3256 9.77736 10.8311 9.77736 10.2209C9.77736 9.61079 9.27994 9.11628 8.6662 9.11628C8.05246 9.11628 7.55504 9.61079 7.55504 10.2209ZM11.1107 10.2209C11.1107 10.8311 11.6082 11.3256 12.2219 11.3256C12.8356 11.3256 13.3331 10.8311 13.3331 10.2209C13.3331 9.61079 12.8356 9.11628 12.2219 9.11628C11.6082 9.11628 11.1107 9.61079 11.1107 10.2209Z" fill="white"/>
</svg>
