<svg width="399" height="230" viewBox="0 0 399 230" fill="none" xmlns="http://www.w3.org/2000/svg">
<path d="M-66.7144 113.614C-56.9574 108.681 -38.5654 103.664 -19.8811 89.9357C-1.19691 76.2072 1.8405 59.6358 22.97 47.7168C44.0995 35.7978 60.7748 45.2737 81.5404 32.7245C102.306 20.1752 101.334 -0.91575 122.645 -12.5196C143.956 -24.1235 162.221 -11.8955 183.835 -22.9742C205.45 -34.0529 205.205 -53.8834 226.395 -65.6973C247.586 -77.5113 264.176 -68.1824 285.548 -79.6812C306.92 -91.1801 319.933 -112.306 328.981 -120.892" stroke="white" stroke-width="3" stroke-linecap="round"/>
<path d="M-3.9214 222.376C5.83552 217.443 24.2276 212.427 42.9118 198.698C61.5961 184.97 64.6335 168.398 85.763 156.479C106.892 144.56 123.568 154.036 144.333 141.487C165.099 128.938 164.127 107.847 185.438 96.2429C206.749 84.639 225.014 96.8671 246.628 85.7884C268.243 74.7097 267.998 54.8792 289.188 43.0652C310.378 31.2513 326.969 40.5802 348.341 29.0813C369.713 17.5825 382.726 -3.54369 391.774 -12.1292" stroke="white" stroke-width="3" stroke-linecap="round"/>
<path d="M-24.8526 186.122C-15.0956 181.189 3.29643 176.173 21.9807 162.444C40.6649 148.716 43.7023 132.144 64.8318 120.225C85.9613 108.306 102.637 117.782 123.402 105.233C144.168 92.6838 143.195 71.5928 164.507 59.9889C185.818 48.385 204.082 60.6131 225.697 49.5344C247.312 38.4557 247.067 18.6252 268.257 6.81122C289.447 -5.00275 306.038 4.32615 327.41 -7.1727C348.782 -18.6715 361.795 -39.7977 370.843 -48.3833" stroke="white" stroke-width="3" stroke-linecap="round"/>
<path d="M-45.7837 149.868C-36.0268 144.935 -17.6347 139.919 1.04951 126.19C19.7338 112.462 22.7712 95.8901 43.9007 83.9711C65.0302 72.0521 81.7055 81.528 102.471 68.9788C123.237 56.4295 122.264 35.3385 143.576 23.7346C164.887 12.1307 183.151 24.3588 204.766 13.2801C226.381 2.20141 226.136 -17.6291 247.326 -29.4431C268.516 -41.257 285.107 -31.9281 306.479 -43.427C327.851 -54.9258 340.863 -76.052 349.912 -84.6375" stroke="white" stroke-width="3" stroke-linecap="round"/>
</svg>
