<svg width="16" height="16" viewBox="0 0 16 16" fill="none" xmlns="http://www.w3.org/2000/svg">
<path d="M13.0583 5.09178L5.92498 1.52511C1.13331 -0.874888 -0.833358 1.09178 1.56664 5.88345L2.29164 7.33345C2.49998 7.75845 2.49998 8.25011 2.29164 8.67511L1.56664 10.1168C-0.833358 14.9084 1.12498 16.8751 5.92498 14.4751L13.0583 10.9084C16.2583 9.30845 16.2583 6.69178 13.0583 5.09178ZM10.3666 8.62511H5.86664C5.52498 8.62511 5.24164 8.34178 5.24164 8.00011C5.24164 7.65845 5.52498 7.37511 5.86664 7.37511H10.3666C10.7083 7.37511 10.9916 7.65845 10.9916 8.00011C10.9916 8.34178 10.7083 8.62511 10.3666 8.62511Z" fill="#DADAE1"/>
</svg>
