<svg width="13" height="14" viewBox="0 0 13 14" fill="none" xmlns="http://www.w3.org/2000/svg">
<path d="M1.4 14C1.02522 14 0.698167 13.8603 0.418833 13.581C0.139611 13.3018 0 12.9748 0 12.6V2.46667C0 2.09189 0.139611 1.76489 0.418833 1.48567C0.698167 1.20633 1.02522 1.06667 1.4 1.06667H1.98883V0.716667C1.98883 0.519444 2.05972 0.350722 2.2015 0.2105C2.34317 0.0701668 2.51372 0 2.71317 0C2.91561 0 3.08811 0.0701668 3.23067 0.2105C3.37311 0.350722 3.44433 0.519444 3.44433 0.716667V1.06667H9.26667V0.716667C9.26667 0.519444 9.3375 0.350722 9.47917 0.2105C9.62094 0.0701668 9.7915 0 9.99083 0C10.1934 0 10.3659 0.0701668 10.5083 0.2105C10.6509 0.350722 10.7222 0.519444 10.7222 0.716667V1.06667H11.311C11.6858 1.06667 12.0128 1.20633 12.2922 1.48567C12.5714 1.76489 12.711 2.09189 12.711 2.46667V12.6C12.711 12.9748 12.5714 13.3018 12.2922 13.581C12.0128 13.8603 11.6858 14 11.311 14H1.4ZM1.4 12.6H11.311V5.33333H1.4V12.6ZM6.35333 8.4C6.15111 8.4 5.97867 8.328 5.836 8.184C5.69344 8.04 5.62217 7.86683 5.62217 7.6645C5.62217 7.46228 5.69417 7.28983 5.83817 7.14717C5.98217 7.00461 6.15533 6.93333 6.35767 6.93333C6.55989 6.93333 6.73233 7.00533 6.875 7.14933C7.01756 7.29333 7.08883 7.4665 7.08883 7.66883C7.08883 7.87106 7.01683 8.0435 6.87283 8.18617C6.72883 8.32872 6.55567 8.4 6.35333 8.4ZM3.68667 8.4C3.48444 8.4 3.312 8.328 3.16933 8.184C3.02678 8.04 2.9555 7.86683 2.9555 7.6645C2.9555 7.46228 3.0275 7.28983 3.1715 7.14717C3.3155 7.00461 3.48867 6.93333 3.691 6.93333C3.89322 6.93333 4.06567 7.00533 4.20833 7.14933C4.35089 7.29333 4.42217 7.4665 4.42217 7.66883C4.42217 7.87106 4.35017 8.0435 4.20617 8.18617C4.06217 8.32872 3.889 8.4 3.68667 8.4ZM9.02 8.4C8.81778 8.4 8.64533 8.328 8.50267 8.184C8.36011 8.04 8.28883 7.86683 8.28883 7.6645C8.28883 7.46228 8.36083 7.28983 8.50483 7.14717C8.64883 7.00461 8.822 6.93333 9.02433 6.93333C9.22656 6.93333 9.399 7.00533 9.54167 7.14933C9.68422 7.29333 9.7555 7.4665 9.7555 7.66883C9.7555 7.87106 9.6835 8.0435 9.5395 8.18617C9.3955 8.32872 9.22233 8.4 9.02 8.4ZM6.35333 11.0667C6.15111 11.0667 5.97867 10.9947 5.836 10.8507C5.69344 10.7067 5.62217 10.5335 5.62217 10.3312C5.62217 10.1289 5.69417 9.9565 5.83817 9.81383C5.98217 9.67128 6.15533 9.6 6.35767 9.6C6.55989 9.6 6.73233 9.672 6.875 9.816C7.01756 9.96 7.08883 10.1332 7.08883 10.3355C7.08883 10.5377 7.01683 10.7102 6.87283 10.8528C6.72883 10.9954 6.55567 11.0667 6.35333 11.0667ZM3.68667 11.0667C3.48444 11.0667 3.312 10.9947 3.16933 10.8507C3.02678 10.7067 2.9555 10.5335 2.9555 10.3312C2.9555 10.1289 3.0275 9.9565 3.1715 9.81383C3.3155 9.67128 3.48867 9.6 3.691 9.6C3.89322 9.6 4.06567 9.672 4.20833 9.816C4.35089 9.96 4.42217 10.1332 4.42217 10.3355C4.42217 10.5377 4.35017 10.7102 4.20617 10.8528C4.06217 10.9954 3.889 11.0667 3.68667 11.0667ZM9.02 11.0667C8.81778 11.0667 8.64533 10.9947 8.50267 10.8507C8.36011 10.7067 8.28883 10.5335 8.28883 10.3312C8.28883 10.1289 8.36083 9.9565 8.50483 9.81383C8.64883 9.67128 8.822 9.6 9.02433 9.6C9.22656 9.6 9.399 9.672 9.54167 9.816C9.68422 9.96 9.7555 10.1332 9.7555 10.3355C9.7555 10.5377 9.6835 10.7102 9.5395 10.8528C9.3955 10.9954 9.22233 11.0667 9.02 11.0667Z" fill="white"/>
</svg>
