<svg width="14" height="15" viewBox="0 0 14 15" fill="none" xmlns="http://www.w3.org/2000/svg">
	<path d="M2.1 13.8C1.7134 14.1866 1.0866 14.1866 0.7 13.8C0.313401 13.4134 0.313401 12.7866 0.7 12.4L4.89289 8.20711C5.28342 7.81658 5.28342 7.18342 4.89289 6.79289L0.7 2.6C0.3134 2.2134 0.313401 1.5866 0.7 1.2C1.0866 0.813401 1.7134 0.813401 2.1 1.2L6.29289 5.39289C6.68342 5.78342 7.31658 5.78342 7.70711 5.39289L11.9 1.2C12.2866 0.8134 12.9134 0.813401 13.3 1.2C13.6866 1.5866 13.6866 2.2134 13.3 2.6L9.10711 6.79289C8.71658 7.18342 8.71658 7.81658 9.10711 8.20711L13.3 12.4C13.6866 12.7866 13.6866 13.4134 13.3 13.8C12.9134 14.1866 12.2866 14.1866 11.9 13.8L7.70711 9.60711C7.31658 9.21658 6.68342 9.21658 6.29289 9.60711L2.1 13.8Z" fill="#DADAE1" />
</svg>
