<svg width="10" height="10" viewBox="0 0 10 10" fill="none" xmlns="http://www.w3.org/2000/svg">
<path d="M0.556899 0.555961C-0.340529 1.45292 -0.119896 3.16525 0.978312 4.99826C-0.10058 6.7971 -0.352108 8.53365 0.556899 9.44282C1.45433 10.3409 3.16693 10.1197 4.99879 9.02137C6.79746 10.1004 8.53385 10.3519 9.44293 9.44282C10.3404 8.54585 10.1203 6.83353 9.02152 5.00052C10.1004 3.20168 10.3519 1.46512 9.44293 0.555961C8.85384 -0.033187 7.90789 -0.143507 6.79209 0.174785C6.60456 0.227742 6.49588 0.423569 6.54939 0.611121C6.60289 0.798122 6.79815 0.906803 6.98568 0.853281C7.87979 0.598425 8.5676 0.678411 8.94377 1.05518C9.8583 1.96979 8.94212 4.55146 6.74733 6.74698C6.5791 6.91522 6.407 7.0774 6.23216 7.23296C6.08654 7.3626 6.07385 7.58546 6.20347 7.73108C6.3331 7.87671 6.55594 7.88995 6.70155 7.76032C6.88688 7.59593 7.06835 7.42438 7.24651 7.2462C7.75783 6.73484 8.20792 6.20086 8.58796 5.66357C9.38664 7.12433 9.508 8.37919 8.94373 8.94364C8.0292 9.85826 5.44777 8.94199 3.25246 6.74699C3.08423 6.57875 2.92207 6.40663 2.76652 6.23177C2.63689 6.08615 2.4135 6.0729 2.26789 6.20254C2.12228 6.33217 2.10959 6.55558 2.23921 6.70121C2.40359 6.88601 2.57512 7.06805 2.75328 7.24623C3.2646 7.75759 3.79852 8.20772 4.33577 8.5878C2.87684 9.38545 1.62082 9.50847 1.056 8.9436C0.141468 8.02898 1.05765 5.44732 3.25244 3.2518C3.4328 3.07142 3.61703 2.89876 3.80402 2.73326L4.10242 2.48503C4.44992 2.19542 4.94966 2.17887 5.31535 2.44476L5.63858 2.67921C5.73676 2.75037 5.87411 2.72831 5.94526 2.63011C5.99766 2.5573 6.00097 2.46021 5.95299 2.38408L5.73015 2.03214C5.49849 1.66585 5.53214 1.19145 5.81289 0.861568L6.07047 0.559827C6.15321 0.46274 6.14163 0.316551 6.04455 0.233811C5.97395 0.173683 5.87467 0.161547 5.79192 0.202368L5.2122 0.48921C4.89174 0.64808 4.51058 0.62105 4.21549 0.418601L3.78968 0.126788C3.68763 0.0567308 3.54864 0.0826571 3.47914 0.18471C3.42839 0.258629 3.42674 0.355711 3.47472 0.431291L3.68101 0.755104C3.92812 1.14235 3.87572 1.64875 3.5547 1.97697L3.30704 2.23072C3.11895 2.39732 2.93417 2.57163 2.75325 2.75256C2.24193 3.26393 1.79184 3.7979 1.4118 4.3352C0.613666 2.875 0.491764 1.61957 1.05603 1.05512C1.35279 0.758338 1.84094 0.644149 2.48348 0.737932C2.67598 0.765513 2.85524 0.632018 2.88337 0.438945C2.9115 0.245871 2.77746 0.0671456 2.58441 0.039015C1.73993 -0.0834479 1.03064 0.0815498 0.556899 0.555961ZM6.61332 2.62735C6.47708 2.76746 6.48039 2.99087 6.62049 3.12658C6.66297 3.16796 6.70544 3.20988 6.74736 3.2518C7.01377 3.51824 7.26475 3.79405 7.49806 4.07539C7.62272 4.22543 7.845 4.24584 7.99503 4.12172C8.14506 3.99706 8.16602 3.7742 8.04136 3.62416C7.79426 3.32627 7.52839 3.03446 7.24654 2.75257C7.20186 2.70789 7.15718 2.66376 7.1125 2.62018C6.9724 2.48448 6.74902 2.48778 6.61332 2.62735Z" fill="#D9D9D9"/>
<path d="M0.556899 0.555961C-0.340529 1.45292 -0.119896 3.16525 0.978312 4.99826C-0.10058 6.7971 -0.352108 8.53365 0.556899 9.44282C1.45433 10.3409 3.16693 10.1197 4.99879 9.02137C6.79746 10.1004 8.53385 10.3519 9.44293 9.44282C10.3404 8.54585 10.1203 6.83353 9.02152 5.00052C10.1004 3.20168 10.3519 1.46512 9.44293 0.555961C8.85384 -0.033187 7.90789 -0.143507 6.79209 0.174785C6.60456 0.227742 6.49588 0.423569 6.54939 0.611121C6.60289 0.798122 6.79815 0.906803 6.98568 0.853281C7.87979 0.598425 8.5676 0.678411 8.94377 1.05518C9.8583 1.96979 8.94212 4.55146 6.74733 6.74698C6.5791 6.91522 6.407 7.0774 6.23216 7.23296C6.08654 7.3626 6.07385 7.58546 6.20347 7.73108C6.3331 7.87671 6.55594 7.88995 6.70155 7.76032C6.88688 7.59593 7.06835 7.42438 7.24651 7.2462C7.75783 6.73484 8.20792 6.20086 8.58796 5.66357C9.38664 7.12433 9.508 8.37919 8.94373 8.94364C8.0292 9.85826 5.44777 8.94199 3.25246 6.74699C3.08423 6.57875 2.92207 6.40663 2.76652 6.23177C2.63689 6.08615 2.4135 6.0729 2.26789 6.20254C2.12228 6.33217 2.10959 6.55558 2.23921 6.70121C2.40359 6.88601 2.57512 7.06805 2.75328 7.24623C3.2646 7.75759 3.79852 8.20772 4.33577 8.5878C2.87684 9.38545 1.62082 9.50847 1.056 8.9436C0.141468 8.02898 1.05765 5.44732 3.25244 3.2518C3.4328 3.07142 3.61703 2.89876 3.80402 2.73326L4.10242 2.48503C4.44992 2.19542 4.94966 2.17887 5.31535 2.44476L5.63858 2.67921C5.73676 2.75037 5.87411 2.72831 5.94526 2.63011C5.99766 2.5573 6.00097 2.46021 5.95299 2.38408L5.73015 2.03214C5.49849 1.66585 5.53214 1.19145 5.81289 0.861568L6.07047 0.559827C6.15321 0.46274 6.14163 0.316551 6.04455 0.233811C5.97395 0.173683 5.87467 0.161547 5.79192 0.202368L5.2122 0.48921C4.89174 0.64808 4.51058 0.62105 4.21549 0.418601L3.78968 0.126788C3.68763 0.0567308 3.54864 0.0826571 3.47914 0.18471C3.42839 0.258629 3.42674 0.355711 3.47472 0.431291L3.68101 0.755104C3.92812 1.14235 3.87572 1.64875 3.5547 1.97697L3.30704 2.23072C3.11895 2.39732 2.93417 2.57163 2.75325 2.75256C2.24193 3.26393 1.79184 3.7979 1.4118 4.3352C0.613666 2.875 0.491764 1.61957 1.05603 1.05512C1.35279 0.758338 1.84094 0.644149 2.48348 0.737932C2.67598 0.765513 2.85524 0.632018 2.88337 0.438945C2.9115 0.245871 2.77746 0.0671456 2.58441 0.039015C1.73993 -0.0834479 1.03064 0.0815498 0.556899 0.555961ZM6.61332 2.62735C6.47708 2.76746 6.48039 2.99087 6.62049 3.12658C6.66297 3.16796 6.70544 3.20988 6.74736 3.2518C7.01377 3.51824 7.26475 3.79405 7.49806 4.07539C7.62272 4.22543 7.845 4.24584 7.99503 4.12172C8.14506 3.99706 8.16602 3.7742 8.04136 3.62416C7.79426 3.32627 7.52839 3.03446 7.24654 2.75257C7.20186 2.70789 7.15718 2.66376 7.1125 2.62018C6.9724 2.48448 6.74902 2.48778 6.61332 2.62735Z" fill="url(#paint0_linear_652_13672)"/>
<defs>
<linearGradient id="paint0_linear_652_13672" x1="0" y1="5" x2="10" y2="5" gradientUnits="userSpaceOnUse">
<stop stop-color="#2A1AD8"/>
<stop offset="0.25" stop-color="#4E26E2"/>
<stop offset="0.5" stop-color="#7231EC"/>
<stop offset="0.75" stop-color="#953DF5"/>
<stop offset="1" stop-color="#B948FF"/>
</linearGradient>
</defs>
</svg>
