<svg width="14" height="13" viewBox="0 0 14 13" fill="none" xmlns="http://www.w3.org/2000/svg">
<path d="M9.05032 6.37849C7.09779 6.6537 5.50578 8.10786 5.05036 10.0201C5.03318 10.0923 4.92778 10.0888 4.91531 10.0156C4.5875 8.09148 3.11076 6.54184 1.19419 6.12854C1.11962 6.11247 1.12353 6.00368 1.19903 5.99305C3.15205 5.71785 4.74409 4.26366 5.19954 2.35148C5.21673 2.27929 5.32212 2.28278 5.3346 2.35591C5.66241 4.28004 7.13908 5.82971 9.05517 6.24297C9.12973 6.25906 9.12586 6.36786 9.05032 6.37849Z" stroke="#B948FF" stroke-width="0.97492" stroke-miterlimit="10" stroke-linecap="round"/>
<path d="M12.8931 2.87972C11.793 3.03476 10.896 3.8541 10.6395 4.93148C10.6298 4.97213 10.5704 4.97018 10.5634 4.92895C10.3786 3.84485 9.54662 2.97177 8.46679 2.73891C8.42478 2.72984 8.42697 2.66859 8.46952 2.66259C9.56991 2.50753 10.4669 1.68819 10.7235 0.610812C10.7332 0.570157 10.7925 0.572112 10.7996 0.613308C10.9843 1.69741 11.8163 2.57052 12.8958 2.80337C12.9378 2.81244 12.9357 2.87372 12.8931 2.87972Z" stroke="#291AD8" stroke-width="0.97492" stroke-miterlimit="10" stroke-linecap="round"/>
<path d="M11.2721 10.5506C10.3884 10.6751 9.66795 11.3332 9.46185 12.1986C9.45406 12.2313 9.40635 12.2297 9.40072 12.1966C9.25237 11.3259 8.58405 10.6245 7.71672 10.4375C7.68297 10.4302 7.68475 10.381 7.71894 10.3762C8.60279 10.2516 9.32327 9.59355 9.52937 8.72818C9.53716 8.69549 9.58484 8.69709 9.59047 8.7302C9.73882 9.60096 10.4071 10.3022 11.2743 10.4893C11.308 10.4966 11.3062 10.5458 11.2721 10.5506Z" stroke="#7231EC" stroke-width="0.97492" stroke-miterlimit="10" stroke-linecap="round"/>
</svg>
