<svg width="18" height="18" viewBox="0 0 18 18" fill="none" xmlns="http://www.w3.org/2000/svg">
<path d="M4.33343 13.6667L7.2501 10.7501M7.2501 10.7501L4.94243 8.44241C4.87507 8.37497 4.82526 8.29205 4.79736 8.20091C4.76947 8.10976 4.76433 8.01317 4.7824 7.91958C4.80048 7.82598 4.84121 7.73825 4.90104 7.66404C4.96087 7.58984 5.03797 7.53143 5.1256 7.49391L8.19451 6.1785C8.26499 6.14833 8.32882 6.10457 8.38237 6.04972C8.43592 5.99487 8.47813 5.93001 8.5066 5.85883L9.25501 3.98808C9.29087 3.89851 9.34838 3.81922 9.4224 3.75733C9.49643 3.69544 9.58464 3.65288 9.67915 3.63346C9.77366 3.61403 9.87151 3.61836 9.96394 3.64604C10.0564 3.67373 10.1405 3.7239 10.2088 3.79208L14.2081 7.79141C14.2763 7.85969 14.3265 7.94381 14.3541 8.03624C14.3818 8.12866 14.3861 8.22652 14.3667 8.32103C14.3473 8.41554 14.3047 8.50375 14.2428 8.57777C14.181 8.6518 14.1017 8.70931 14.0121 8.74516L12.1413 9.49358C12.0702 9.52205 12.0053 9.56426 11.9505 9.61781C11.8956 9.67136 11.8518 9.73519 11.8217 9.80566L10.5063 12.8746C10.4688 12.9622 10.4103 13.0393 10.3361 13.0991C10.2619 13.159 10.1742 13.1997 10.0806 13.2178C9.98701 13.2358 9.89042 13.2307 9.79927 13.2028C9.70813 13.1749 9.62521 13.1251 9.55776 13.0577L7.2501 10.7501Z" stroke="#B948FF" stroke-width="1.2" stroke-linecap="round" stroke-linejoin="round"/>
</svg>
