<svg width="18" height="18" viewBox="0 0 18 18" fill="none" xmlns="http://www.w3.org/2000/svg">
<path d="M6.89429 12.7859V6.85925C6.89429 6.62592 6.96429 6.39842 7.09262 6.20592L8.68512 3.83759C8.93595 3.45842 9.56012 3.19009 10.091 3.38842C10.6626 3.58092 11.0418 4.22259 10.9193 4.79425L10.616 6.70175C10.5926 6.87675 10.6393 7.03425 10.7385 7.15675C10.8376 7.26759 10.9835 7.33759 11.141 7.33759H13.5385C13.9993 7.33759 14.396 7.52425 14.6293 7.85092C14.851 8.16592 14.8918 8.57425 14.746 8.98842L13.311 13.3576C13.1301 14.0809 12.3426 14.6701 11.561 14.6701H9.28595C8.89512 14.6701 8.34679 14.5359 8.09595 14.2851L7.34929 13.7076C7.06345 13.4918 6.89429 13.1476 6.89429 12.7859Z" fill="#B948FF"/>
<path d="M5.03925 5.72168H4.43841C3.53425 5.72168 3.16675 6.07168 3.16675 6.93501V12.8033C3.16675 13.6667 3.53425 14.0167 4.43841 14.0167H5.03925C5.94341 14.0167 6.31091 13.6667 6.31091 12.8033V6.93501C6.31091 6.07168 5.94341 5.72168 5.03925 5.72168Z" fill="#B948FF"/>
</svg>
