<svg width="18" height="18" viewBox="0 0 18 18" fill="none" xmlns="http://www.w3.org/2000/svg">
<path d="M11.2051 3.16675H6.79508C4.59008 3.16675 4.04175 3.75591 4.04175 6.10675V12.6751C4.04175 14.2267 4.89341 14.5942 5.92591 13.4859L5.93175 13.4801C6.41008 12.9726 7.13925 13.0134 7.55341 13.5676L8.14258 14.3551C8.61508 14.9792 9.37925 14.9792 9.85175 14.3551L10.4409 13.5676C10.8609 13.0076 11.5901 12.9667 12.0684 13.4801C13.1067 14.5884 13.9526 14.2209 13.9526 12.6692V6.10675C13.9584 3.75591 13.4101 3.16675 11.2051 3.16675ZM10.6567 7.82758L10.3651 8.12508H10.3592L8.59175 9.89258C8.51591 9.96841 8.35841 10.0501 8.24758 10.0617L7.46008 10.1784C7.17425 10.2192 6.97591 10.0151 7.01675 9.73508L7.12758 8.94175C7.14508 8.83091 7.22091 8.67925 7.29675 8.59758L9.07008 6.83008L9.36175 6.53258C9.55425 6.34008 9.77008 6.20008 10.0034 6.20008C10.2017 6.20008 10.4176 6.29341 10.6567 6.53258C11.1817 7.05758 11.0126 7.47175 10.6567 7.82758Z" fill="#B948FF"/>
</svg>
