<svg width="18" height="18" viewBox="0 0 18 18" fill="none" xmlns="http://www.w3.org/2000/svg">
<path d="M11.3334 8.47492V6.02492C11.3334 3.98325 10.5167 3.16659 8.47508 3.16659H6.02508C3.98341 3.16659 3.16675 3.98325 3.16675 6.02492V8.47492C3.16675 10.5166 3.98341 11.3333 6.02508 11.3333H8.47508C10.5167 11.3333 11.3334 10.5166 11.3334 8.47492Z" fill="#B948FF"/>
<path d="M11.9751 14.8333H9.52511C7.89748 14.8333 7.05203 14.3105 6.77585 13.0676C6.65505 12.5239 7.1276 12.0624 7.68451 12.0624H8.47511C10.9251 12.0624 12.0626 10.9249 12.0626 8.47492V7.68432C12.0626 7.12741 12.5241 6.65487 13.0678 6.77567C14.3107 7.05185 14.8334 7.89729 14.8334 9.52492V11.9749C14.8334 14.0166 14.0168 14.8333 11.9751 14.8333Z" fill="#B948FF"/>
</svg>
