<svg width="18" height="18" viewBox="0 0 18 18" fill="none" xmlns="http://www.w3.org/2000/svg">
<path d="M6.50329 3.1083H8.71996C9.04662 3.1083 9.75829 3.20746 10.1375 3.58663L11.905 4.95163L11.3683 5.6458L9.55996 4.2458C9.41412 4.1058 9.04662 3.98913 8.71996 3.98913H6.50329C5.97829 3.98913 5.41246 4.40913 5.29579 4.88163L3.88412 9.16913C3.79079 9.4258 3.80829 9.65913 3.93079 9.8283C4.05912 10.0091 4.29246 10.1141 4.57829 10.1141H6.91162C7.21496 10.1141 7.49496 10.2425 7.68746 10.4641C7.88579 10.6916 7.97329 10.995 7.92662 11.31L7.63496 13.1825C7.56496 13.5091 7.78662 13.8766 8.10162 13.9816C8.38746 14.0866 8.75496 13.935 8.88329 13.7483L11.275 10.19L11.9983 10.6741L9.60662 14.2325C9.23912 14.7808 8.43412 15.0433 7.80412 14.8041C7.07496 14.565 6.60829 13.76 6.77162 13.0133L7.05746 11.1758C7.06329 11.135 7.06329 11.0766 7.02246 11.03C6.99329 11.0008 6.95246 10.9833 6.90579 10.9833H4.57246C4.00079 10.9833 3.50496 10.7441 3.21329 10.33C2.92746 9.92746 2.86912 9.39663 3.05579 8.8833L4.44996 4.63663C4.66579 3.7908 5.56412 3.1083 6.50329 3.1083Z" fill="#B948FF"/>
<path d="M12.8616 3.75002H13.4449C14.5241 3.75002 15.0491 4.25752 15.0491 5.29585V11.0125C15.0491 12.0508 14.5241 12.5583 13.4449 12.5583H12.8616C11.7824 12.5583 11.2574 12.0508 11.2574 11.0125V5.29585C11.2574 4.25752 11.7824 3.75002 12.8616 3.75002ZM13.4449 11.6833C14.0807 11.6833 14.1741 11.5317 14.1741 11.0125V5.29585C14.1741 4.77668 14.0807 4.62502 13.4449 4.62502H12.8616C12.2257 4.62502 12.1324 4.77668 12.1324 5.29585V11.0125C12.1324 11.5317 12.2257 11.6833 12.8616 11.6833H13.4449Z" fill="#B948FF"/>
</svg>
