<svg width="38" height="38" viewBox="0 0 38 38" fill="none" xmlns="http://www.w3.org/2000/svg">
<path fill-rule="evenodd" clip-rule="evenodd" d="M18.8298 36.4317C28.5511 36.4317 36.4317 28.5511 36.4317 18.8298C36.4317 9.10863 28.5511 1.22803 18.8298 1.22803C9.10863 1.22803 1.22803 9.10863 1.22803 18.8298C1.22803 28.5511 9.10863 36.4317 18.8298 36.4317ZM18.8298 37.6597C29.2293 37.6597 37.6597 29.2293 37.6597 18.8298C37.6597 8.43041 29.2293 0 18.8298 0C8.43041 0 0 8.43041 0 18.8298C0 29.2293 8.43041 37.6597 18.8298 37.6597Z" fill="white"/>
<path d="M9.00586 12.6895H10.2339V24.9699H9.00586V12.6895Z" fill="white"/>
<path d="M18.5231 12.4849L20.0425 12.486L28.754 24.9702H27.2566L18.5231 12.4849Z" fill="white"/>
<path d="M28.7539 12.4849L27.2345 12.486L18.523 24.9702H20.0205L28.7539 12.4849Z" fill="white"/>
<path d="M9.00586 19.3414V18.1133H16.5787V19.3414H9.00586Z" fill="white"/>
<path d="M9.00586 13.9176V12.6895H16.9881V13.9176H9.00586Z" fill="white"/>
<path d="M9.00586 24.9699V23.7418H16.9881V24.9699H9.00586Z" fill="white"/>
</svg>
