<svg width="16" height="16" viewBox="0 0 16 16" fill="none" xmlns="http://www.w3.org/2000/svg">
<path d="M2.30711 15.2929C1.91658 15.6834 1.28342 15.6834 0.892893 15.2929L0.707107 15.1071C0.316583 14.7166 0.316583 14.0834 0.707107 13.6929L5.69289 8.70711C6.08342 8.31658 6.08342 7.68342 5.69289 7.29289L0.707107 2.30711C0.316583 1.91658 0.316583 1.28342 0.707107 0.892893L0.892893 0.707107C1.28342 0.316583 1.91658 0.316583 2.30711 0.707107L7.29289 5.69289C7.68342 6.08342 8.31658 6.08342 8.70711 5.69289L13.6929 0.707107C14.0834 0.316583 14.7166 0.316583 15.1071 0.707107L15.2929 0.892893C15.6834 1.28342 15.6834 1.91658 15.2929 2.30711L10.3071 7.29289C9.91658 7.68342 9.91658 8.31658 10.3071 8.70711L15.2929 13.6929C15.6834 14.0834 15.6834 14.7166 15.2929 15.1071L15.1071 15.2929C14.7166 15.6834 14.0834 15.6834 13.6929 15.2929L8.70711 10.3071C8.31658 9.91658 7.68342 9.91658 7.29289 10.3071L2.30711 15.2929Z" fill="#11101B"/>
</svg>
