<svg width="38" height="38" viewBox="0 0 38 38" fill="none" xmlns="http://www.w3.org/2000/svg">
<path d="M0.5 18.72C0.5 15.5782 0.500339 13.2499 0.641309 11.4029C0.781877 9.56121 1.06013 8.2391 1.59449 7.10354C2.73391 4.68214 4.68214 2.73391 7.10354 1.59449C8.2391 1.06013 9.56121 0.781877 11.4029 0.641309C13.2499 0.500339 15.5782 0.5 18.72 0.5H19.28C22.4218 0.5 24.7501 0.500339 26.5971 0.641309C28.4388 0.781877 29.7609 1.06013 30.8965 1.59449C33.3179 2.73391 35.2661 4.68214 36.4055 7.10354C36.9399 8.2391 37.2181 9.56121 37.3587 11.4029C37.4997 13.2499 37.5 15.5782 37.5 18.72V19.28C37.5 22.4218 37.4997 24.7501 37.3587 26.5971C37.2181 28.4388 36.9399 29.7609 36.4055 30.8965C35.2661 33.3179 33.3179 35.2661 30.8965 36.4055C29.7609 36.9399 28.4388 37.2181 26.5971 37.3587C24.7501 37.4997 22.4218 37.5 19.28 37.5H18.72C15.5782 37.5 13.2499 37.4997 11.4029 37.3587C9.56121 37.2181 8.2391 36.9399 7.10354 36.4055C4.68214 35.2661 2.73391 33.3179 1.59449 30.8965C1.06013 29.7609 0.781877 28.4388 0.641309 26.5971C0.500339 24.7501 0.5 22.4218 0.5 19.28V18.72Z" fill="#2C2A38"/>
<path d="M0.5 18.72C0.5 15.5782 0.500339 13.2499 0.641309 11.4029C0.781877 9.56121 1.06013 8.2391 1.59449 7.10354C2.73391 4.68214 4.68214 2.73391 7.10354 1.59449C8.2391 1.06013 9.56121 0.781877 11.4029 0.641309C13.2499 0.500339 15.5782 0.5 18.72 0.5H19.28C22.4218 0.5 24.7501 0.500339 26.5971 0.641309C28.4388 0.781877 29.7609 1.06013 30.8965 1.59449C33.3179 2.73391 35.2661 4.68214 36.4055 7.10354C36.9399 8.2391 37.2181 9.56121 37.3587 11.4029C37.4997 13.2499 37.5 15.5782 37.5 18.72V19.28C37.5 22.4218 37.4997 24.7501 37.3587 26.5971C37.2181 28.4388 36.9399 29.7609 36.4055 30.8965C35.2661 33.3179 33.3179 35.2661 30.8965 36.4055C29.7609 36.9399 28.4388 37.2181 26.5971 37.3587C24.7501 37.4997 22.4218 37.5 19.28 37.5H18.72C15.5782 37.5 13.2499 37.4997 11.4029 37.3587C9.56121 37.2181 8.2391 36.9399 7.10354 36.4055C4.68214 35.2661 2.73391 33.3179 1.59449 30.8965C1.06013 29.7609 0.781877 28.4388 0.641309 26.5971C0.500339 24.7501 0.5 22.4218 0.5 19.28V18.72Z" stroke="url(#paint0_linear_440_5066)"/>
<path d="M19 8L21.3152 13.4105L26.7782 11.2218L24.5895 16.6848L30 19L24.5895 21.3152L26.7782 26.7782L21.3152 24.5895L19 30L16.6848 24.5895L11.2218 26.7782L13.4105 21.3152L8 19L13.4105 16.6848L11.2218 11.2218L16.6848 13.4105L19 8Z" fill="#D9D9D9"/>
<path d="M19 8L21.3152 13.4105L26.7782 11.2218L24.5895 16.6848L30 19L24.5895 21.3152L26.7782 26.7782L21.3152 24.5895L19 30L16.6848 24.5895L11.2218 26.7782L13.4105 21.3152L8 19L13.4105 16.6848L11.2218 11.2218L16.6848 13.4105L19 8Z" fill="url(#paint1_linear_440_5066)"/>
<g filter="url(#filter0_dddddi_440_5066)">
<path d="M20.1988 14.9998H18.2501V19.8717H20.1988V14.9998Z" fill="#11101B"/>
<path d="M20.1988 14.9998H18.2501V19.8717H20.1988V14.9998Z" fill="url(#paint2_linear_440_5066)"/>
<path d="M19.2244 22.7955C19.7625 22.7955 20.1988 22.3592 20.1988 21.8211C20.1988 21.2829 19.7625 20.8467 19.2244 20.8467C18.6863 20.8467 18.25 21.2829 18.25 21.8211C18.25 22.3592 18.6863 22.7955 19.2244 22.7955Z" fill="#11101B"/>
<path d="M19.2244 22.7955C19.7625 22.7955 20.1988 22.3592 20.1988 21.8211C20.1988 21.2829 19.7625 20.8467 19.2244 20.8467C18.6863 20.8467 18.25 21.2829 18.25 21.8211C18.25 22.3592 18.6863 22.7955 19.2244 22.7955Z" fill="url(#paint3_linear_440_5066)"/>
</g>
<defs>
<filter id="filter0_dddddi_440_5066" x="17.2696" y="14.9243" width="3.23092" height="9.30397" filterUnits="userSpaceOnUse" color-interpolation-filters="sRGB">
<feFlood flood-opacity="0" result="BackgroundImageFix"/>
<feColorMatrix in="SourceAlpha" type="matrix" values="0 0 0 0 0 0 0 0 0 0 0 0 0 0 0 0 0 0 127 0" result="hardAlpha"/>
<feOffset dx="-0.0754158" dy="0.150832"/>
<feGaussianBlur stdDeviation="0.113124"/>
<feColorMatrix type="matrix" values="0 0 0 0 0 0 0 0 0 0 0 0 0 0 0 0 0 0 0.33 0"/>
<feBlend mode="normal" in2="BackgroundImageFix" result="effect1_dropShadow_440_5066"/>
<feColorMatrix in="SourceAlpha" type="matrix" values="0 0 0 0 0 0 0 0 0 0 0 0 0 0 0 0 0 0 127 0" result="hardAlpha"/>
<feOffset dx="-0.226247" dy="0.377079"/>
<feGaussianBlur stdDeviation="0.150832"/>
<feColorMatrix type="matrix" values="0 0 0 0 0 0 0 0 0 0 0 0 0 0 0 0 0 0 0.19 0"/>
<feBlend mode="normal" in2="effect1_dropShadow_440_5066" result="effect2_dropShadow_440_5066"/>
<feColorMatrix in="SourceAlpha" type="matrix" values="0 0 0 0 0 0 0 0 0 0 0 0 0 0 0 0 0 0 127 0" result="hardAlpha"/>
<feOffset dx="-0.377079" dy="0.678742"/>
<feGaussianBlur stdDeviation="0.150832"/>
<feColorMatrix type="matrix" values="0 0 0 0 0 0 0 0 0 0 0 0 0 0 0 0 0 0 0.06 0"/>
<feBlend mode="normal" in2="effect2_dropShadow_440_5066" result="effect3_dropShadow_440_5066"/>
<feColorMatrix in="SourceAlpha" type="matrix" values="0 0 0 0 0 0 0 0 0 0 0 0 0 0 0 0 0 0 127 0" result="hardAlpha"/>
<feOffset dx="-0.603327" dy="1.05582"/>
<feGaussianBlur stdDeviation="0.18854"/>
<feColorMatrix type="matrix" values="0 0 0 0 0 0 0 0 0 0 0 0 0 0 0 0 0 0 0.01 0"/>
<feBlend mode="normal" in2="effect3_dropShadow_440_5066" result="effect4_dropShadow_440_5066"/>
<feColorMatrix in="SourceAlpha" type="matrix" values="0 0 0 0 0 0 0 0 0 0 0 0 0 0 0 0 0 0 127 0" result="hardAlpha"/>
<feOffset dy="0.301663"/>
<feGaussianBlur stdDeviation="0.150832"/>
<feComposite in2="hardAlpha" operator="out"/>
<feColorMatrix type="matrix" values="0 0 0 0 0 0 0 0 0 0 0 0 0 0 0 0 0 0 0.25 0"/>
<feBlend mode="normal" in2="effect4_dropShadow_440_5066" result="effect5_dropShadow_440_5066"/>
<feBlend mode="normal" in="SourceGraphic" in2="effect5_dropShadow_440_5066" result="shape"/>
<feColorMatrix in="SourceAlpha" type="matrix" values="0 0 0 0 0 0 0 0 0 0 0 0 0 0 0 0 0 0 127 0" result="hardAlpha"/>
<feOffset dy="0.0754158"/>
<feGaussianBlur stdDeviation="0.0980406"/>
<feComposite in2="hardAlpha" operator="arithmetic" k2="-1" k3="1"/>
<feColorMatrix type="matrix" values="0 0 0 0 0.72549 0 0 0 0 0.282353 0 0 0 0 1 0 0 0 1 0"/>
<feBlend mode="normal" in2="shape" result="effect6_innerShadow_440_5066"/>
</filter>
<linearGradient id="paint0_linear_440_5066" x1="0" y1="19" x2="38" y2="19" gradientUnits="userSpaceOnUse">
<stop stop-color="#2A1AD8"/>
<stop offset="0.25" stop-color="#4E26E2"/>
<stop offset="0.5" stop-color="#7231EC"/>
<stop offset="0.75" stop-color="#953DF5"/>
<stop offset="1" stop-color="#B948FF"/>
</linearGradient>
<linearGradient id="paint1_linear_440_5066" x1="8" y1="19" x2="30" y2="19" gradientUnits="userSpaceOnUse">
<stop stop-color="#2A1AD8"/>
<stop offset="0.25" stop-color="#4E26E2"/>
<stop offset="0.5" stop-color="#7231EC"/>
<stop offset="0.75" stop-color="#953DF5"/>
<stop offset="1" stop-color="#B948FF"/>
</linearGradient>
<linearGradient id="paint2_linear_440_5066" x1="19.2811" y1="18.2208" x2="22.2164" y2="20.6913" gradientUnits="userSpaceOnUse">
<stop stop-color="#EAE8FB"/>
<stop offset="1" stop-color="#BDB8F3"/>
</linearGradient>
<linearGradient id="paint3_linear_440_5066" x1="19.2811" y1="22.1351" x2="20.205" y2="24.0792" gradientUnits="userSpaceOnUse">
<stop stop-color="#EAE8FB"/>
<stop offset="1" stop-color="#BDB8F3"/>
</linearGradient>
</defs>
</svg>
