<svg width="28" height="28" viewBox="0 0 28 28" fill="none" xmlns="http://www.w3.org/2000/svg">
<path d="M14 2.33301C7.57168 2.33301 2.33334 7.57134 2.33334 13.9997C2.33334 20.428 7.57168 25.6663 14 25.6663C20.4283 25.6663 25.6667 20.428 25.6667 13.9997C25.6667 7.57134 20.4283 2.33301 14 2.33301ZM17.92 16.683C18.2583 17.0213 18.2583 17.5813 17.92 17.9197C17.745 18.0947 17.5233 18.1763 17.3017 18.1763C17.08 18.1763 16.8583 18.0947 16.6833 17.9197L14 15.2363L11.3167 17.9197C11.1417 18.0947 10.92 18.1763 10.6983 18.1763C10.4767 18.1763 10.255 18.0947 10.08 17.9197C9.74168 17.5813 9.74168 17.0213 10.08 16.683L12.7633 13.9997L10.08 11.3163C9.74168 10.978 9.74168 10.418 10.08 10.0797C10.4183 9.74134 10.9783 9.74134 11.3167 10.0797L14 12.763L16.6833 10.0797C17.0217 9.74134 17.5817 9.74134 17.92 10.0797C18.2583 10.418 18.2583 10.978 17.92 11.3163L15.2367 13.9997L17.92 16.683Z" fill="#E72240"/>
</svg>
