<svg width="35" height="30" viewBox="0 0 35 30" fill="none" xmlns="http://www.w3.org/2000/svg">
<g filter="url(#filter0_dddd_652_14627)">
<path d="M22.3672 15.5494H23.6892V19.8928H22.3672V15.5494ZM8.77052 5.91839H16.4187C16.4937 5.91913 16.5654 5.94892 16.6189 6.00149L20.3958 9.77826C20.4234 9.8035 20.4452 9.83451 20.4595 9.86909C20.4739 9.90368 20.4805 9.94099 20.4788 9.9784V14.2274H21.8007V4.21883H8.77052V5.91839ZM20.4788 21.4035H21.8007V15.5494H20.4788V21.4035ZM15.4594 15.5494H19.9123V23.6697H6.8821V15.5494H11.335C11.4735 15.9877 11.7481 16.3705 12.1189 16.6421C12.4897 16.9138 12.9375 17.0602 13.3971 17.0602C13.8568 17.0602 14.3045 16.9138 14.6753 16.6421C15.0461 16.3705 15.3208 15.9877 15.4594 15.5494ZM8.91015 21.9247C8.91028 21.887 8.90255 21.8497 8.88744 21.8152C8.87347 21.7813 8.85293 21.7505 8.82701 21.7245C8.80108 21.6986 8.77029 21.6781 8.73639 21.6641C8.70181 21.6491 8.66454 21.6414 8.62687 21.6414C8.58919 21.6414 8.55192 21.6491 8.51734 21.6641C8.48287 21.677 8.45184 21.6977 8.42669 21.7246C8.40105 21.7507 8.38055 21.7815 8.36625 21.8152C8.35119 21.8497 8.34349 21.887 8.34363 21.9247C8.34356 21.9805 8.36003 22.035 8.39095 22.0814C8.42187 22.1278 8.46586 22.164 8.51734 22.1853C8.55199 22.2001 8.58922 22.2078 8.62687 22.208C8.66456 22.2082 8.70186 22.2004 8.73639 22.1853C8.78787 22.1639 8.83186 22.1278 8.86279 22.0814C8.89371 22.035 8.91019 21.9805 8.91015 21.9247ZM10.7457 21.9247C10.7453 21.8874 10.7389 21.8504 10.7268 21.8152C10.7111 21.7813 10.6894 21.7506 10.6626 21.7246C10.6374 21.6977 10.6064 21.677 10.572 21.6641C10.5381 21.6491 10.5014 21.6414 10.4643 21.6414C10.4273 21.6414 10.3906 21.6491 10.3567 21.6641C10.3217 21.6761 10.2905 21.6969 10.266 21.7246C10.2385 21.7501 10.2166 21.7811 10.2016 21.8155C10.1867 21.85 10.179 21.8872 10.1792 21.9247C10.1794 21.9624 10.1871 21.9996 10.2018 22.0343C10.2175 22.0682 10.2393 22.0989 10.266 22.1249C10.2915 22.1514 10.3224 22.172 10.3567 22.1853C10.39 22.2001 10.426 22.2078 10.4624 22.208C10.5001 22.2082 10.5374 22.2004 10.572 22.1853C10.6057 22.1711 10.6365 22.1505 10.6626 22.1249C10.6894 22.0989 10.7111 22.0682 10.7268 22.0343C10.7386 21.9989 10.7449 21.962 10.7457 21.9247ZM12.585 21.9247C12.5852 21.887 12.5774 21.8497 12.5624 21.8152C12.5445 21.7723 12.5164 21.7345 12.4804 21.7051C12.4444 21.6757 12.4018 21.6556 12.3562 21.6466C12.3106 21.6377 12.2635 21.6401 12.2191 21.6537C12.1747 21.6673 12.1343 21.6916 12.1016 21.7246C12.0748 21.7506 12.053 21.7813 12.0374 21.8152C12.0253 21.8504 12.0189 21.8874 12.0185 21.9247C12.0192 21.962 12.0256 21.9989 12.0374 22.0343C12.053 22.0682 12.0748 22.0989 12.1016 22.1249C12.1278 22.1512 12.159 22.1721 12.1934 22.1864C12.2277 22.2007 12.2646 22.208 12.3018 22.208C12.3767 22.2073 12.4485 22.1775 12.5019 22.1249C12.5275 22.0987 12.548 22.068 12.5624 22.0343C12.5771 21.9996 12.5847 21.9624 12.585 21.9247ZM16.4187 10.2619H19.9122V14.2275H15.4594C15.3208 13.7892 15.0462 13.4065 14.6754 13.1348C14.3046 12.8632 13.8569 12.7167 13.3972 12.7167C12.9375 12.7167 12.4898 12.8632 12.119 13.1348C11.7482 13.4065 11.4736 13.7892 11.335 14.2275H6.88214V12.1502H5.08813C4.92634 12.1493 4.76597 12.1804 4.61624 12.2416C4.4665 12.3029 4.33036 12.3932 4.21563 12.5073C4.10091 12.6213 4.00986 12.757 3.94774 12.9063C3.88561 13.0557 3.85363 13.2159 3.85363 13.3777C3.85363 13.5395 3.88561 13.6997 3.94774 13.8491C4.00986 13.9984 4.10091 14.1341 4.21563 14.2481C4.33036 14.3622 4.4665 14.4525 4.61624 14.5138C4.76597 14.575 4.92634 14.6061 5.08813 14.6052H11.6334C11.6988 14.1843 11.9126 13.8008 12.236 13.5237C12.5595 13.2467 12.9713 13.0944 13.3972 13.0944C13.8231 13.0944 14.235 13.2467 14.5584 13.5237C14.8819 13.8008 15.0956 14.1843 15.161 14.6052H19.9123V15.1717H15.161C15.0956 15.5925 14.8819 15.9761 14.5584 16.2532C14.235 16.5302 13.8231 16.6825 13.3972 16.6825C12.9713 16.6825 12.5595 16.5302 12.236 16.2532C11.9126 15.9761 11.6988 15.5925 11.6334 15.1717H5.08813C4.85182 15.1728 4.61763 15.1272 4.39899 15.0376C4.18035 14.9479 3.98158 14.8159 3.8141 14.6493C3.64661 14.4826 3.5137 14.2844 3.42302 14.0662C3.33233 13.848 3.28564 13.614 3.28564 13.3777C3.28564 13.1414 3.33233 12.9074 3.42302 12.6892C3.5137 12.471 3.64661 12.2729 3.8141 12.1062C3.98158 11.9395 4.18035 11.8075 4.39899 11.7178C4.61763 11.6282 4.85182 11.5826 5.08813 11.5837H6.8821V6.48491H16.1356V9.97844C16.136 10.0534 16.166 10.1252 16.219 10.1782C16.272 10.2313 16.3437 10.2613 16.4187 10.2619ZM12.1697 14.8885C12.1697 15.1313 12.2417 15.3686 12.3766 15.5705C12.5114 15.7724 12.7031 15.9297 12.9274 16.0226C13.1517 16.1155 13.3985 16.1398 13.6367 16.0924C13.8748 16.0451 14.0935 15.9282 14.2651 15.7565C14.4368 15.5848 14.5537 15.3661 14.6011 15.128C14.6484 14.8899 14.6241 14.6431 14.5312 14.4188C14.4383 14.1945 14.281 14.0028 14.0791 13.8679C13.8773 13.733 13.64 13.661 13.3972 13.661C13.0719 13.6617 12.76 13.7912 12.53 14.0212C12.2999 14.2512 12.1704 14.5632 12.1697 14.8885ZM13.3972 15.7385C13.5653 15.7385 13.7296 15.6887 13.8694 15.5954C14.0091 15.502 14.1181 15.3693 14.1825 15.2141C14.2468 15.0588 14.2637 14.8879 14.231 14.7231C14.1982 14.5582 14.1173 14.4067 13.9985 14.2879C13.8797 14.169 13.7283 14.088 13.5634 14.0552C13.3986 14.0223 13.2277 14.0391 13.0724 14.1034C12.9171 14.1677 12.7844 14.2765 12.6909 14.4163C12.5975 14.556 12.5476 14.7203 12.5476 14.8884C12.5479 15.1136 12.6375 15.3296 12.7968 15.4889C12.956 15.6482 13.1719 15.7381 13.3972 15.7385ZM25.4832 11.5837H23.6892V2.33032H11.0366V3.65223H22.084C22.1589 3.65278 22.2307 3.68281 22.2837 3.73583C22.3367 3.78884 22.3667 3.86058 22.3672 3.93555V14.2275H23.6892V12.1502H25.4832C25.6449 12.1493 25.8053 12.1804 25.9551 12.2416C26.1048 12.3029 26.2409 12.3932 26.3557 12.5073C26.4704 12.6213 26.5614 12.757 26.6236 12.9063C26.6857 13.0557 26.7177 13.2159 26.7177 13.3777C26.7177 13.5395 26.6857 13.6997 26.6236 13.8491C26.5614 13.9984 26.4704 14.1341 26.3557 14.2481C26.2409 14.3622 26.1048 14.4525 25.9551 14.5138C25.8053 14.575 25.6449 14.6061 25.4832 14.6052H22.3672V15.1717H25.4832C25.7195 15.1728 25.9537 15.1272 26.1723 15.0376C26.3909 14.9479 26.5897 14.8159 26.7572 14.6493C26.9247 14.4826 27.0576 14.2844 27.1483 14.0662C27.239 13.848 27.2856 13.614 27.2856 13.3777C27.2856 13.1414 27.239 12.9074 27.1483 12.6892C27.0576 12.471 26.9247 12.2729 26.7572 12.1062C26.5897 11.9395 26.3909 11.8075 26.1723 11.7178C25.9537 11.6282 25.7195 11.5826 25.4832 11.5837ZM20.4787 15.1717H21.8006V14.6052H20.4788L20.4787 15.1717ZM16.7019 9.69524H19.5119L16.7019 6.88523V9.69524Z" fill="white"/>
</g>
<defs>
<filter id="filter0_dddd_652_14627" x="0.285645" y="0.330322" width="49" height="52.3394" filterUnits="userSpaceOnUse" color-interpolation-filters="sRGB">
<feFlood flood-opacity="0" result="BackgroundImageFix"/>
<feColorMatrix in="SourceAlpha" type="matrix" values="0 0 0 0 0 0 0 0 0 0 0 0 0 0 0 0 0 0 127 0" result="hardAlpha"/>
<feOffset dx="1" dy="1"/>
<feGaussianBlur stdDeviation="1.5"/>
<feColorMatrix type="matrix" values="0 0 0 0 0 0 0 0 0 0 0 0 0 0 0 0 0 0 0.14 0"/>
<feBlend mode="normal" in2="BackgroundImageFix" result="effect1_dropShadow_652_14627"/>
<feColorMatrix in="SourceAlpha" type="matrix" values="0 0 0 0 0 0 0 0 0 0 0 0 0 0 0 0 0 0 127 0" result="hardAlpha"/>
<feOffset dx="3" dy="5"/>
<feGaussianBlur stdDeviation="3"/>
<feColorMatrix type="matrix" values="0 0 0 0 0 0 0 0 0 0 0 0 0 0 0 0 0 0 0.12 0"/>
<feBlend mode="normal" in2="effect1_dropShadow_652_14627" result="effect2_dropShadow_652_14627"/>
<feColorMatrix in="SourceAlpha" type="matrix" values="0 0 0 0 0 0 0 0 0 0 0 0 0 0 0 0 0 0 127 0" result="hardAlpha"/>
<feOffset dx="7" dy="11"/>
<feGaussianBlur stdDeviation="4"/>
<feColorMatrix type="matrix" values="0 0 0 0 0 0 0 0 0 0 0 0 0 0 0 0 0 0 0.07 0"/>
<feBlend mode="normal" in2="effect2_dropShadow_652_14627" result="effect3_dropShadow_652_14627"/>
<feColorMatrix in="SourceAlpha" type="matrix" values="0 0 0 0 0 0 0 0 0 0 0 0 0 0 0 0 0 0 127 0" result="hardAlpha"/>
<feOffset dx="13" dy="20"/>
<feGaussianBlur stdDeviation="4.5"/>
<feColorMatrix type="matrix" values="0 0 0 0 0 0 0 0 0 0 0 0 0 0 0 0 0 0 0.02 0"/>
<feBlend mode="normal" in2="effect3_dropShadow_652_14627" result="effect4_dropShadow_652_14627"/>
<feBlend mode="normal" in="SourceGraphic" in2="effect4_dropShadow_652_14627" result="shape"/>
</filter>
</defs>
</svg>
