<svg width="25" height="25" viewBox="0 0 25 25" fill="none" xmlns="http://www.w3.org/2000/svg">
<path d="M16.1016 13.5001V17.7001C16.1016 21.2001 14.7016 22.6001 11.2016 22.6001H7.00156C3.50156 22.6001 2.10156 21.2001 2.10156 17.7001V13.5001C2.10156 10.0001 3.50156 8.6001 7.00156 8.6001H11.2016C14.7016 8.6001 16.1016 10.0001 16.1016 13.5001Z" stroke="#898B94" stroke-width="1.8" stroke-linecap="round" stroke-linejoin="round"/>
<path d="M22.1016 7.5001V11.7001C22.1016 15.2001 20.7016 16.6001 17.2016 16.6001H16.1016V13.5001C16.1016 10.0001 14.7016 8.6001 11.2016 8.6001H8.10156V7.5001C8.10156 4.0001 9.50156 2.6001 13.0016 2.6001H17.2016C20.7016 2.6001 22.1016 4.0001 22.1016 7.5001Z" stroke="#898B94" stroke-width="1.8" stroke-linecap="round" stroke-linejoin="round"/>
</svg>
