<svg width="24" height="24" viewBox="0 0 24 24" fill="none" xmlns="http://www.w3.org/2000/svg">
<path d="M15.9999 11.1V6.9C15.9999 3.4 14.5999 2 11.0999 2H6.89988C3.39988 2 1.99988 3.4 1.99988 6.9V11.1C1.99988 14.6 3.39988 16 6.89988 16H11.0999C14.5999 16 15.9999 14.6 15.9999 11.1Z" fill="url(#paint0_linear_440_5108)"/>
<path d="M17.1 22H12.9C10.1098 22 8.66046 21.1039 8.187 18.9731C7.97992 18.0411 8.79 17.25 9.7447 17.25H11.1C15.3 17.25 17.25 15.3 17.25 11.1V9.7447C17.25 8.78999 18.0412 7.97991 18.9731 8.18699C21.1039 8.66045 22 10.1098 22 12.9V17.1C22 20.6 20.6 22 17.1 22Z" fill="url(#paint1_linear_440_5108)"/>
<defs>
<linearGradient id="paint0_linear_440_5108" x1="1.99988" y1="9" x2="15.9999" y2="9" gradientUnits="userSpaceOnUse">
<stop stop-color="#2A1AD8"/>
<stop offset="0.0688708" stop-color="#4E26E2"/>
<stop offset="0.278871" stop-color="#7231EC"/>
<stop offset="0.653871" stop-color="#953DF5"/>
<stop offset="1" stop-color="#B948FF"/>
</linearGradient>
<linearGradient id="paint1_linear_440_5108" x1="8.01001" y1="15.005" x2="22" y2="15.005" gradientUnits="userSpaceOnUse">
<stop stop-color="#2A1AD8"/>
<stop offset="0.0688708" stop-color="#4E26E2"/>
<stop offset="0.278871" stop-color="#7231EC"/>
<stop offset="0.653871" stop-color="#953DF5"/>
<stop offset="1" stop-color="#B948FF"/>
</linearGradient>
</defs>
</svg>
