<svg width="20" height="20" viewBox="0 0 20 20" fill="none" xmlns="http://www.w3.org/2000/svg">
<mask id="mask0_3067_31325" style="mask-type:alpha" maskUnits="userSpaceOnUse" x="0" y="0" width="20" height="20">
<rect width="20" height="20" fill="#D9D9D9"/>
</mask>
<g mask="url(#mask0_3067_31325)">
<path d="M9.99998 5.66602C9.80095 5.66602 9.63546 5.60004 9.50352 5.4681C9.37157 5.33615 9.3056 5.17067 9.3056 4.97164V2.36039C9.3056 2.16136 9.37157 1.99588 9.50352 1.86393C9.63546 1.73199 9.80095 1.66602 9.99998 1.66602C10.199 1.66602 10.3645 1.73199 10.4964 1.86393C10.6284 1.99588 10.6944 2.16136 10.6944 2.36039V4.97164C10.6944 5.17067 10.6284 5.33615 10.4964 5.4681C10.3645 5.60004 10.199 5.66602 9.99998 5.66602ZM14.25 7.49935C14.1157 7.36046 14.0497 7.19379 14.0521 6.99935C14.0544 6.8049 14.125 6.63824 14.2639 6.49935L16.0902 4.70081C16.2291 4.56192 16.3969 4.49359 16.5937 4.49581C16.7905 4.49817 16.9537 4.57345 17.0833 4.72164C17.2083 4.86053 17.2696 5.02254 17.2673 5.20768C17.265 5.39282 17.1991 5.55025 17.0694 5.67997L15.2569 7.50622C15.118 7.64511 14.9502 7.71345 14.7535 7.71122C14.5567 7.70886 14.3889 7.63824 14.25 7.49935ZM5.77768 7.48539C5.6481 7.63359 5.48727 7.70886 5.29518 7.71122C5.10296 7.71345 4.93741 7.64511 4.79852 7.50622L2.95831 5.69372C2.81942 5.55484 2.7488 5.39053 2.74643 5.20081C2.74421 5.01095 2.81018 4.84657 2.94435 4.70768C3.08324 4.56879 3.25109 4.49817 3.44789 4.49581C3.6447 4.49359 3.81255 4.56192 3.95143 4.70081L5.77768 6.54102C5.90741 6.6706 5.97109 6.82567 5.96873 7.00622C5.96636 7.18678 5.90268 7.3465 5.77768 7.48539ZM2.83331 16.9716L0.888934 15.041C0.750045 14.9021 0.682892 14.7401 0.687475 14.555C0.692059 14.3697 0.759212 14.203 0.888934 14.055C2.0556 12.7262 3.43754 11.7181 5.03477 11.0306C6.63199 10.3431 8.28706 9.99935 9.99998 9.99935C11.7129 9.99935 13.3669 10.3431 14.9619 11.0306C16.5567 11.7181 17.9398 12.7262 19.111 14.055C19.2407 14.203 19.3079 14.3697 19.3125 14.555C19.3171 14.7401 19.2499 14.9021 19.111 15.041L17.1666 16.9716C17.0416 17.0966 16.8762 17.1661 16.6702 17.18C16.4641 17.1939 16.2916 17.1475 16.1527 17.041L13.7639 15.2493C13.6713 15.1753 13.6019 15.092 13.5556 14.9993C13.5092 14.9067 13.486 14.8048 13.486 14.6937V11.9716C12.9213 11.7679 12.3449 11.6197 11.7569 11.5271C11.1689 11.4346 10.5833 11.3883 9.99998 11.3883C9.41664 11.3883 8.83102 11.4346 8.2431 11.5271C7.65505 11.6197 7.07866 11.7679 6.51393 11.9716V14.6937C6.51393 14.8048 6.49074 14.9067 6.44435 14.9993C6.3981 15.092 6.32866 15.1753 6.23602 15.2493L3.84727 17.041C3.6806 17.166 3.50581 17.2216 3.32289 17.2077C3.13998 17.1938 2.97678 17.1151 2.83331 16.9716Z" fill="#898B94"/>
</g>
</svg>
