<svg width="30" height="30" viewBox="0 0 30 30" fill="none" xmlns="http://www.w3.org/2000/svg">
<rect x="0.923529" y="1.22358" width="27.9529" height="27.9529" rx="3.69076" fill="#F5F5F8"/>
<rect x="0.923529" y="1.22358" width="27.9529" height="27.9529" rx="3.69076" stroke="#ECECF4" stroke-width="0.847059"/>
<path d="M7.21703 5.03601C6.9171 5.03601 6.67188 5.28104 6.67188 5.58136V24.8188C6.67188 25.1191 6.9171 25.3642 7.21703 25.3642H22.5937C22.8942 25.3642 23.1395 25.119 23.1395 24.8188V11.6353C23.1395 11.335 22.9661 10.9162 22.7542 10.7041L17.4714 5.42167C17.2591 5.20919 16.8403 5.03601 16.5402 5.03601H7.21703Z" fill="#898B94"/>
<path d="M7.67464 5.39917C7.37413 5.39917 7.12891 5.64497 7.12891 5.94452V24.6372C7.12891 24.937 7.37413 25.1828 7.67464 25.1828H22.4152C22.7148 25.1828 22.9606 24.9372 22.9606 24.6372V11.7259C22.9606 11.4261 22.7866 11.0072 22.5747 10.7945L17.5647 5.78502C17.3524 5.57312 16.9338 5.39917 16.6337 5.39917H7.67464Z" fill="url(#paint0_linear_340_27936)"/>
<path d="M17.4727 6.84766V9.57382C17.4727 10.1483 17.9392 10.6141 18.5125 10.6141H21.3458L17.4727 6.84766Z" fill="url(#paint1_linear_340_27936)"/>
<path d="M17.2578 10.2116L17.0067 5.7251L16.6211 10.848C16.6211 11.1478 16.8663 11.3934 17.1668 11.3934H22.1293L17.8029 10.7569C17.5032 10.7571 17.2578 10.5113 17.2578 10.2116Z" fill="url(#paint2_radial_340_27936)"/>
<path d="M22.9918 19.9082C22.9918 20.1692 22.7717 20.3829 22.5027 20.3829H7.64926C7.38034 20.3829 7.16016 20.1694 7.16016 19.9082V14.3723C7.16016 14.1113 7.38034 13.8978 7.64926 13.8978H22.5027C22.7717 13.8978 22.9918 14.1113 22.9918 14.3723V19.9082Z" fill="#B948FF"/>
<path d="M18.4554 18.8966C18.2304 18.8966 18.027 18.8565 17.8451 18.7764C17.6663 18.6962 17.5169 18.5837 17.3967 18.4389C17.2765 18.2909 17.1963 18.1214 17.1562 17.9303L17.6417 17.8055L17.6925 17.8147C17.7326 17.9288 17.7896 18.0305 17.8636 18.1199C17.9407 18.2062 18.0316 18.274 18.1364 18.3233C18.2412 18.3726 18.3537 18.3973 18.4739 18.3973C18.5972 18.3973 18.705 18.3788 18.7975 18.3418C18.89 18.3017 18.9624 18.2478 19.0148 18.18C19.0703 18.1091 19.098 18.0289 19.098 17.9396C19.098 17.8286 19.0626 17.7408 18.9917 17.676C18.9239 17.6082 18.8222 17.5558 18.6865 17.5188L18.104 17.3663C17.8297 17.2923 17.6201 17.1736 17.4753 17.0103C17.3335 16.8469 17.2626 16.6574 17.2626 16.4416C17.2626 16.2598 17.3088 16.1011 17.4013 15.9654C17.4937 15.8267 17.6232 15.7189 17.7896 15.6418C17.9561 15.5617 18.1487 15.5216 18.3675 15.5216C18.5771 15.5216 18.7651 15.5601 18.9316 15.6372C19.1011 15.7112 19.2413 15.816 19.3523 15.9516C19.4632 16.0872 19.5357 16.249 19.5696 16.437L19.1119 16.5387L19.061 16.5295C19.024 16.3692 18.9439 16.2444 18.8206 16.155C18.6973 16.0656 18.5448 16.0209 18.3629 16.0209C18.1965 16.0209 18.0639 16.061 17.9653 16.1411C17.8667 16.2182 17.8174 16.3183 17.8174 16.4416C17.8174 16.5433 17.8528 16.6296 17.9237 16.7005C17.9977 16.7714 18.1056 16.8254 18.2473 16.8623L18.8299 17.0149C19.098 17.0858 19.3014 17.1983 19.4401 17.3524C19.5819 17.5034 19.6528 17.6914 19.6528 17.9164C19.6528 18.1137 19.6035 18.2863 19.5049 18.4342C19.4062 18.5791 19.266 18.6931 19.0841 18.7764C18.9054 18.8565 18.6958 18.8966 18.4554 18.8966Z" fill="white"/>
<path d="M14.8203 18.8272V15.5909H15.352V18.8272H14.8203ZM15.0931 18.8272V18.3187H16.9146V18.8272H15.0931Z" fill="white"/>
<path d="M13.8911 18.8272L11.9078 15.6279V15.5909H12.5088L14.4921 18.7902V18.8272H13.8911ZM11.8477 18.8272V18.7902L12.9711 16.9779L13.2855 17.4449L12.4348 18.8272H11.8477ZM13.3363 17.4587L13.0266 16.9918L13.8449 15.5909H14.432V15.6279L13.3363 17.4587Z" fill="white"/>
<path d="M11.2661 18.8689C11.1675 18.8689 11.0828 18.835 11.0119 18.7672C10.9441 18.6994 10.9102 18.6161 10.9102 18.5175C10.9102 18.422 10.9441 18.3403 11.0119 18.2725C11.0828 18.2047 11.1675 18.1708 11.2661 18.1708C11.3617 18.1708 11.4434 18.2047 11.5112 18.2725C11.579 18.3403 11.6129 18.422 11.6129 18.5175C11.6129 18.6161 11.579 18.6994 11.5112 18.7672C11.4434 18.835 11.3617 18.8689 11.2661 18.8689Z" fill="white"/>
<defs>
<linearGradient id="paint0_linear_340_27936" x1="15.0447" y1="5.48398" x2="15.0447" y2="25.2674" gradientUnits="userSpaceOnUse">
<stop stop-color="white"/>
<stop offset="0.4837" stop-color="#FDFDFD"/>
<stop offset="0.7117" stop-color="#F5F6F6"/>
<stop offset="0.8856" stop-color="#E9E9EA"/>
<stop offset="1" stop-color="#DBDCDD"/>
</linearGradient>
<linearGradient id="paint1_linear_340_27936" x1="19.4358" y1="8.70425" x2="17.6993" y2="10.4408" gradientUnits="userSpaceOnUse">
<stop stop-color="white"/>
<stop offset="0.3511" stop-color="#F2F3F3"/>
<stop offset="0.998" stop-color="#D0D2D3"/>
<stop offset="1" stop-color="#D0D2D3"/>
</linearGradient>
<radialGradient id="paint2_radial_340_27936" cx="0" cy="0" r="1" gradientUnits="userSpaceOnUse" gradientTransform="translate(19.493 8.47219) scale(3.1736 3.1736)">
<stop stop-color="white"/>
<stop offset="0.486" stop-color="#FDFDFD"/>
<stop offset="0.661" stop-color="#F6F7F7"/>
<stop offset="0.7858" stop-color="#EBEBEC"/>
<stop offset="0.8866" stop-color="#DADBDC"/>
<stop offset="0.972" stop-color="#C4C6C7"/>
<stop offset="1" stop-color="#BBBDBF"/>
</radialGradient>
</defs>
</svg>
