<svg width="29" height="30" viewBox="0 0 29 30" fill="none" xmlns="http://www.w3.org/2000/svg">
<rect x="0.525092" y="1.22358" width="27.9529" height="27.9529" rx="3.69076" fill="#F5F5F8"/>
<rect x="0.525092" y="1.22358" width="27.9529" height="27.9529" rx="3.69076" stroke="#ECECF4" stroke-width="0.847059"/>
<path d="M6.8186 5.03601C6.51866 5.03601 6.27344 5.28104 6.27344 5.58136V24.8188C6.27344 25.1191 6.51866 25.3642 6.8186 25.3642H22.1953C22.4958 25.3642 22.741 25.119 22.741 24.8188V11.6353C22.741 11.335 22.5676 10.9162 22.3557 10.7041L17.0729 5.42167C16.8606 5.20919 16.4419 5.03601 16.1417 5.03601H6.8186Z" fill="#898B94"/>
<path d="M7.2723 5.39917C6.97179 5.39917 6.72656 5.64497 6.72656 5.94452V24.6372C6.72656 24.937 6.97179 25.1828 7.2723 25.1828H22.0129C22.3124 25.1828 22.5582 24.9372 22.5582 24.6372V11.7259C22.5582 11.4261 22.3843 11.0072 22.1724 10.7945L17.1624 5.78502C16.9501 5.57312 16.5315 5.39917 16.2314 5.39917H7.2723Z" fill="url(#paint0_linear_340_27921)"/>
<path d="M17.0742 6.84766V9.57382C17.0742 10.1483 17.5408 10.6141 18.1141 10.6141H20.9473L17.0742 6.84766Z" fill="url(#paint1_linear_340_27921)"/>
<path d="M16.8554 10.2116L16.6044 5.7251L16.2188 10.848C16.2188 11.1478 16.464 11.3934 16.7645 11.3934H21.7269L17.4006 10.7569C17.1008 10.7571 16.8554 10.5113 16.8554 10.2116Z" fill="url(#paint2_radial_340_27921)"/>
<path d="M22.5934 19.9082C22.5934 20.1692 22.3732 20.3829 22.1043 20.3829H7.25082C6.9819 20.3829 6.76172 20.1694 6.76172 19.9082V14.3723C6.76172 14.1113 6.9819 13.8978 7.25082 13.8978H22.1043C22.3732 13.8978 22.5934 14.1113 22.5934 14.3723V19.9082Z" fill="#D78B08"/>
<path d="M17.4506 18.8272V15.5909H17.9823V18.8272H17.4506ZM16.4844 16.0995V15.5909H18.9486V16.0995H16.4844Z" fill="white"/>
<path d="M15.7935 18.8272L13.8101 15.6279V15.5909H14.4111L16.3945 18.7902V18.8272H15.7935ZM13.75 18.8272V18.7902L14.8734 16.9779L15.1878 17.4449L14.3372 18.8272H13.75ZM15.2387 17.4587L14.9289 16.9918L15.7472 15.5909H16.3344V15.6279L15.2387 17.4587Z" fill="white"/>
<path d="M12.1616 18.8272V15.5909H12.6932V18.8272H12.1616ZM11.1953 16.0995V15.5909H13.6595V16.0995H11.1953Z" fill="white"/>
<path d="M10.8716 18.8689C10.773 18.8689 10.6882 18.835 10.6173 18.7672C10.5495 18.6994 10.5156 18.6161 10.5156 18.5175C10.5156 18.422 10.5495 18.3403 10.6173 18.2725C10.6882 18.2047 10.773 18.1708 10.8716 18.1708C10.9672 18.1708 11.0488 18.2047 11.1166 18.2725C11.1845 18.3403 11.2184 18.422 11.2184 18.5175C11.2184 18.6161 11.1845 18.6994 11.1166 18.7672C11.0488 18.835 10.9672 18.8689 10.8716 18.8689Z" fill="white"/>
<defs>
<linearGradient id="paint0_linear_340_27921" x1="14.6424" y1="5.48398" x2="14.6424" y2="25.2674" gradientUnits="userSpaceOnUse">
<stop stop-color="white"/>
<stop offset="0.4837" stop-color="#FDFDFD"/>
<stop offset="0.7117" stop-color="#F5F6F6"/>
<stop offset="0.8856" stop-color="#E9E9EA"/>
<stop offset="1" stop-color="#DBDCDD"/>
</linearGradient>
<linearGradient id="paint1_linear_340_27921" x1="19.0374" y1="8.70425" x2="17.3008" y2="10.4408" gradientUnits="userSpaceOnUse">
<stop stop-color="white"/>
<stop offset="0.3511" stop-color="#F2F3F3"/>
<stop offset="0.998" stop-color="#D0D2D3"/>
<stop offset="1" stop-color="#D0D2D3"/>
</linearGradient>
<radialGradient id="paint2_radial_340_27921" cx="0" cy="0" r="1" gradientUnits="userSpaceOnUse" gradientTransform="translate(19.0906 8.47219) scale(3.1736 3.1736)">
<stop stop-color="white"/>
<stop offset="0.486" stop-color="#FDFDFD"/>
<stop offset="0.661" stop-color="#F6F7F7"/>
<stop offset="0.7858" stop-color="#EBEBEC"/>
<stop offset="0.8866" stop-color="#DADBDC"/>
<stop offset="0.972" stop-color="#C4C6C7"/>
<stop offset="1" stop-color="#BBBDBF"/>
</radialGradient>
</defs>
</svg>
