<svg width="30" height="30" viewBox="0 0 30 30" fill="none" xmlns="http://www.w3.org/2000/svg">
<rect x="1.12275" y="1.22358" width="27.9529" height="27.9529" rx="3.69076" fill="#F5F5F8"/>
<rect x="1.12275" y="1.22358" width="27.9529" height="27.9529" rx="3.69076" stroke="#ECECF4" stroke-width="0.847059"/>
<path d="M7.41625 5.03601C7.11632 5.03601 6.87109 5.28104 6.87109 5.58136V24.8188C6.87109 25.1191 7.11632 25.3642 7.41625 25.3642H22.7929C23.0934 25.3642 23.3387 25.119 23.3387 24.8188V11.6353C23.3387 11.335 23.1653 10.9162 22.9534 10.7041L17.6706 5.42167C17.4583 5.20919 17.0395 5.03601 16.7394 5.03601H7.41625Z" fill="#898B94"/>
<path d="M7.86605 5.39917C7.56554 5.39917 7.32031 5.64497 7.32031 5.94452V24.6372C7.32031 24.937 7.56554 25.1828 7.86605 25.1828H22.6067C22.9062 25.1828 23.152 24.9372 23.152 24.6372V11.7259C23.152 11.4261 22.9781 11.0072 22.7662 10.7945L17.7561 5.78502C17.5438 5.57312 17.1252 5.39917 16.8251 5.39917H7.86605Z" fill="url(#paint0_linear_340_27891)"/>
<path d="M17.6641 6.84766V9.57382C17.6641 10.1483 18.1306 10.6141 18.7039 10.6141H21.5372L17.6641 6.84766Z" fill="url(#paint1_linear_340_27891)"/>
<path d="M17.4531 10.2116L17.2021 5.7251L16.8164 10.848C16.8164 11.1478 17.0616 11.3934 17.3621 11.3934H22.3246L17.9982 10.7569C17.6985 10.7571 17.4531 10.5113 17.4531 10.2116Z" fill="url(#paint2_radial_340_27891)"/>
<path d="M23.1832 19.9082C23.1832 20.1692 22.9631 20.3829 22.6941 20.3829H7.84066C7.57174 20.3829 7.35156 20.1694 7.35156 19.9082V14.3723C7.35156 14.1113 7.57174 13.8978 7.84066 13.8978H22.6941C22.9631 13.8978 23.1832 14.1113 23.1832 14.3723V19.9082Z" fill="#2A1AD8"/>
<path d="M17.8086 18.8272V15.5909H18.3403V18.8272H17.8086ZM18.0814 17.4634V16.9548H19.7365V17.4634H18.0814ZM18.0814 16.0995V15.5909H19.8752V16.0995H18.0814Z" fill="white"/>
<path d="M14.9291 18.8272V18.3187H15.7705C15.9709 18.3187 16.1435 18.2724 16.2883 18.18C16.4332 18.0844 16.5441 17.9534 16.6212 17.787C16.6983 17.6205 16.7368 17.4279 16.7368 17.2091C16.7368 16.9872 16.6983 16.793 16.6212 16.6265C16.5441 16.4601 16.4332 16.3307 16.2883 16.2382C16.1435 16.1457 15.9709 16.0995 15.7705 16.0995H14.9291V15.5909H15.7705C16.0787 15.5909 16.3453 15.6603 16.5703 15.799C16.7953 15.9346 16.9679 16.1242 17.0881 16.3676C17.2084 16.6111 17.2685 16.8916 17.2685 17.2091C17.2685 17.5265 17.2084 17.807 17.0881 18.0505C16.9679 18.294 16.7953 18.4851 16.5703 18.6238C16.3453 18.7594 16.0787 18.8272 15.7705 18.8272H14.9291ZM14.6055 18.8272V15.5909H15.1371V18.8272H14.6055Z" fill="white"/>
<path d="M13.5388 16.5803C13.5388 16.42 13.491 16.2952 13.3955 16.2058C13.303 16.1165 13.1705 16.0718 12.9979 16.0718H12.0501V15.5909H13.0395C13.3569 15.5909 13.6066 15.6803 13.7885 15.8591C13.9734 16.0379 14.0658 16.2783 14.0658 16.5803H13.5388ZM11.7773 18.8272V15.5909H12.2951V18.8272H11.7773ZM12.0501 17.5651V17.0842H12.9979C13.1705 17.0842 13.303 17.0396 13.3955 16.9502C13.491 16.8608 13.5388 16.7375 13.5388 16.5803H14.0658C14.0658 16.8793 13.9734 17.1182 13.7885 17.2969C13.6066 17.4757 13.3569 17.5651 13.0395 17.5651H12.0501Z" fill="white"/>
<path d="M10.8443 18.8689C10.7456 18.8689 10.6609 18.835 10.59 18.7672C10.5222 18.6994 10.4883 18.6161 10.4883 18.5175C10.4883 18.422 10.5222 18.3403 10.59 18.2725C10.6609 18.2047 10.7456 18.1708 10.8443 18.1708C10.9398 18.1708 11.0215 18.2047 11.0893 18.2725C11.1571 18.3403 11.191 18.422 11.191 18.5175C11.191 18.6161 11.1571 18.6994 11.0893 18.7672C11.0215 18.835 10.9398 18.8689 10.8443 18.8689Z" fill="white"/>
<defs>
<linearGradient id="paint0_linear_340_27891" x1="15.2361" y1="5.48398" x2="15.2361" y2="25.2674" gradientUnits="userSpaceOnUse">
<stop stop-color="white"/>
<stop offset="0.4837" stop-color="#FDFDFD"/>
<stop offset="0.7117" stop-color="#F5F6F6"/>
<stop offset="0.8856" stop-color="#E9E9EA"/>
<stop offset="1" stop-color="#DBDCDD"/>
</linearGradient>
<linearGradient id="paint1_linear_340_27891" x1="19.6272" y1="8.70425" x2="17.8907" y2="10.4408" gradientUnits="userSpaceOnUse">
<stop stop-color="white"/>
<stop offset="0.3511" stop-color="#F2F3F3"/>
<stop offset="0.998" stop-color="#D0D2D3"/>
<stop offset="1" stop-color="#D0D2D3"/>
</linearGradient>
<radialGradient id="paint2_radial_340_27891" cx="0" cy="0" r="1" gradientUnits="userSpaceOnUse" gradientTransform="translate(19.6883 8.47219) scale(3.1736 3.1736)">
<stop stop-color="white"/>
<stop offset="0.486" stop-color="#FDFDFD"/>
<stop offset="0.661" stop-color="#F6F7F7"/>
<stop offset="0.7858" stop-color="#EBEBEC"/>
<stop offset="0.8866" stop-color="#DADBDC"/>
<stop offset="0.972" stop-color="#C4C6C7"/>
<stop offset="1" stop-color="#BBBDBF"/>
</radialGradient>
</defs>
</svg>
