<svg width="30" height="30" viewBox="0 0 30 30" fill="none" xmlns="http://www.w3.org/2000/svg">
<rect x="1.32587" y="1.22358" width="27.9529" height="27.9529" rx="3.69076" fill="#F5F5F8"/>
<rect x="1.32587" y="1.22358" width="27.9529" height="27.9529" rx="3.69076" stroke="#ECECF4" stroke-width="0.847059"/>
<path d="M7.61938 5.03601C7.31945 5.03601 7.07422 5.28104 7.07422 5.58136V24.8188C7.07422 25.1191 7.31945 25.3642 7.61938 25.3642H22.9961C23.2966 25.3642 23.5418 25.119 23.5418 24.8188V11.6353C23.5418 11.335 23.3684 10.9162 23.1565 10.7041L17.8737 5.42167C17.6614 5.20919 17.2426 5.03601 16.9425 5.03601H7.61938Z" fill="#898B94"/>
<path d="M8.07308 5.39917C7.77257 5.39917 7.52734 5.64497 7.52734 5.94452V24.6372C7.52734 24.937 7.77257 25.1828 8.07308 25.1828H22.8137C23.1132 25.1828 23.359 24.9372 23.359 24.6372V11.7259C23.359 11.4261 23.1851 11.0072 22.9732 10.7945L17.9631 5.78502C17.7509 5.57312 17.3323 5.39917 17.0321 5.39917H8.07308Z" fill="url(#paint0_linear_340_27951)"/>
<path d="M17.8672 6.84766V9.57382C17.8672 10.1483 18.3337 10.6141 18.907 10.6141H21.7403L17.8672 6.84766Z" fill="url(#paint1_linear_340_27951)"/>
<path d="M17.6562 10.2116L17.4052 5.7251L17.0195 10.848C17.0195 11.1478 17.2648 11.3934 17.5653 11.3934H22.5277L18.2013 10.7569C17.9016 10.7571 17.6562 10.5113 17.6562 10.2116Z" fill="url(#paint2_radial_340_27951)"/>
<path d="M23.3942 19.9082C23.3942 20.1692 23.174 20.3829 22.9051 20.3829H8.0516C7.78268 20.3829 7.5625 20.1694 7.5625 19.9082V14.3723C7.5625 14.1113 7.78268 13.8978 8.0516 13.8978H22.9051C23.174 13.8978 23.3942 14.1113 23.3942 14.3723V19.9082Z" fill="#46517F"/>
<path d="M18.1148 18.8966C17.8189 18.8966 17.5554 18.8272 17.3242 18.6885C17.0961 18.5467 16.9174 18.3495 16.7879 18.0967C16.6585 17.8409 16.5938 17.545 16.5938 17.2091C16.5938 16.87 16.6585 16.5742 16.7879 16.3214C16.9205 16.0687 17.1023 15.873 17.3335 15.7343C17.5677 15.5925 17.8359 15.5216 18.1379 15.5216C18.4523 15.5216 18.7281 15.6017 18.9655 15.762C19.2028 15.9223 19.3785 16.1427 19.4925 16.4231L19.0302 16.5572L18.9793 16.548C18.8961 16.3815 18.7821 16.2536 18.6372 16.1642C18.4924 16.0749 18.3275 16.0302 18.1425 16.0302C17.9484 16.0302 17.7742 16.0779 17.6201 16.1735C17.466 16.269 17.3458 16.4046 17.2595 16.5803C17.1732 16.756 17.13 16.9641 17.13 17.2045C17.13 17.4449 17.1747 17.6545 17.2641 17.8332C17.3535 18.0089 17.4768 18.1461 17.634 18.2447C17.7912 18.3402 17.9699 18.388 18.1703 18.388C18.3244 18.388 18.4708 18.3526 18.6095 18.2817C18.7513 18.2077 18.8653 18.1045 18.9516 17.9719C19.0379 17.8363 19.0811 17.6791 19.0811 17.5004V17.4125L19.266 17.5188H18.1934V17.0149H19.5249L19.5896 17.0796V18.8272H19.1042V18.1337H19.2845C19.2043 18.3063 19.1026 18.4497 18.9793 18.5637C18.8591 18.6777 18.7235 18.7625 18.5725 18.818C18.4246 18.8704 18.272 18.8966 18.1148 18.8966Z" fill="white"/>
<path d="M14.0742 18.8272L14.0788 18.7301L15.4196 15.5909H15.9328V15.688L14.592 18.8272H14.0742ZM12.6133 18.8272V15.5909H13.145V18.8272H12.6133ZM14.0788 18.8272L12.7335 15.688V15.5909H13.2513L14.592 18.7301V18.8272H14.0788ZM15.5213 18.8272V15.5909H16.053V18.8272H15.5213Z" fill="white"/>
<path d="M11.4062 18.8272V15.5909H11.9379V18.8272H11.4062Z" fill="white"/>
<defs>
<linearGradient id="paint0_linear_340_27951" x1="15.4432" y1="5.48398" x2="15.4432" y2="25.2674" gradientUnits="userSpaceOnUse">
<stop stop-color="white"/>
<stop offset="0.4837" stop-color="#FDFDFD"/>
<stop offset="0.7117" stop-color="#F5F6F6"/>
<stop offset="0.8856" stop-color="#E9E9EA"/>
<stop offset="1" stop-color="#DBDCDD"/>
</linearGradient>
<linearGradient id="paint1_linear_340_27951" x1="19.8304" y1="8.70425" x2="18.0938" y2="10.4408" gradientUnits="userSpaceOnUse">
<stop stop-color="white"/>
<stop offset="0.3511" stop-color="#F2F3F3"/>
<stop offset="0.998" stop-color="#D0D2D3"/>
<stop offset="1" stop-color="#D0D2D3"/>
</linearGradient>
<radialGradient id="paint2_radial_340_27951" cx="0" cy="0" r="1" gradientUnits="userSpaceOnUse" gradientTransform="translate(19.8914 8.47219) scale(3.1736 3.1736)">
<stop stop-color="white"/>
<stop offset="0.486" stop-color="#FDFDFD"/>
<stop offset="0.661" stop-color="#F6F7F7"/>
<stop offset="0.7858" stop-color="#EBEBEC"/>
<stop offset="0.8866" stop-color="#DADBDC"/>
<stop offset="0.972" stop-color="#C4C6C7"/>
<stop offset="1" stop-color="#BBBDBF"/>
</radialGradient>
</defs>
</svg>
