<svg width="30" height="30" viewBox="0 0 30 30" fill="none" xmlns="http://www.w3.org/2000/svg">
<rect x="0.724311" y="1.22358" width="27.9529" height="27.9529" rx="3.69076" fill="#F5F5F8"/>
<rect x="0.724311" y="1.22358" width="27.9529" height="27.9529" rx="3.69076" stroke="#ECECF4" stroke-width="0.847059"/>
<path d="M7.01782 5.03601C6.71788 5.03601 6.47266 5.28104 6.47266 5.58136V24.8188C6.47266 25.1191 6.71788 25.3642 7.01782 25.3642H22.3945C22.695 25.3642 22.9402 25.119 22.9402 24.8188V11.6353C22.9402 11.335 22.7669 10.9162 22.555 10.7041L17.2721 5.42167C17.0599 5.20919 16.6411 5.03601 16.341 5.03601H7.01782Z" fill="#898B94"/>
<path d="M7.47542 5.39917C7.17491 5.39917 6.92969 5.64497 6.92969 5.94452V24.6372C6.92969 24.937 7.17491 25.1828 7.47542 25.1828H22.216C22.5156 25.1828 22.7614 24.9372 22.7614 24.6372V11.7259C22.7614 11.4261 22.5874 11.0072 22.3755 10.7945L17.3655 5.78502C17.1532 5.57312 16.7346 5.39917 16.4345 5.39917H7.47542Z" fill="url(#paint0_linear_340_27906)"/>
<path d="M17.2695 6.84766V9.57382C17.2695 10.1483 17.7361 10.6141 18.3094 10.6141H21.1426L17.2695 6.84766Z" fill="url(#paint1_linear_340_27906)"/>
<path d="M17.0585 10.2116L16.8075 5.7251L16.4219 10.848C16.4219 11.1478 16.6671 11.3934 16.9676 11.3934H21.9301L17.6037 10.7569C17.304 10.7571 17.0585 10.5113 17.0585 10.2116Z" fill="url(#paint2_radial_340_27906)"/>
<path d="M22.7926 19.9082C22.7926 20.1692 22.5724 20.3829 22.3035 20.3829H7.45004C7.18112 20.3829 6.96094 20.1694 6.96094 19.9082V14.3723C6.96094 14.1113 7.18112 13.8978 7.45004 13.8978H22.3035C22.5724 13.8978 22.7926 14.1113 22.7926 14.3723V19.9082Z" fill="#16BBAA"/>
<path d="M19.0394 18.6015C18.7404 18.6015 18.4757 18.5314 18.2452 18.3912C18.0147 18.248 17.8341 18.0486 17.7033 17.7932C17.5756 17.5378 17.5117 17.2404 17.5117 16.9009C17.5117 16.5583 17.5756 16.2608 17.7033 16.0086C17.8341 15.7532 18.0147 15.5554 18.2452 15.4152C18.4757 15.272 18.7404 15.2003 19.0394 15.2003C19.3571 15.2003 19.639 15.2844 19.8851 15.4526C20.1311 15.6208 20.3102 15.8559 20.4223 16.1581L20.0159 16.2749L19.9645 16.2655C19.8835 16.0662 19.762 15.9136 19.6001 15.8077C19.4381 15.7018 19.2543 15.6488 19.0488 15.6488C18.8401 15.6488 18.6548 15.7002 18.4928 15.803C18.334 15.9058 18.2094 16.0506 18.1191 16.2375C18.0287 16.4244 17.9836 16.6455 17.9836 16.9009C17.9836 17.1563 18.0287 17.3774 18.1191 17.5643C18.2094 17.7512 18.334 17.896 18.4928 17.9988C18.6548 18.1016 18.8401 18.153 19.0488 18.153C19.2543 18.153 19.4381 18.1 19.6001 17.9941C19.762 17.8851 19.8835 17.7325 19.9645 17.5363L20.0159 17.5269L20.4223 17.6437C20.3102 17.9458 20.1311 18.181 19.8851 18.3492C19.639 18.5174 19.3571 18.6015 19.0394 18.6015Z" fill="white"/>
<path d="M15.5214 18.6015C15.2192 18.6015 14.9498 18.5314 14.7131 18.3912C14.4764 18.248 14.2911 18.0486 14.1572 17.7932C14.0263 17.5378 13.9609 17.2404 13.9609 16.9009C13.9609 16.5614 14.0263 16.264 14.1572 16.0086C14.2911 15.7532 14.4764 15.5554 14.7131 15.4152C14.9498 15.272 15.2192 15.2003 15.5214 15.2003C15.8266 15.2003 16.096 15.272 16.3296 15.4152C16.5663 15.5554 16.7501 15.7532 16.8809 16.0086C17.0148 16.264 17.0818 16.5614 17.0818 16.9009C17.0818 17.2404 17.0148 17.5378 16.8809 17.7932C16.7501 18.0486 16.5663 18.248 16.3296 18.3912C16.096 18.5314 15.8266 18.6015 15.5214 18.6015ZM15.5214 18.153C15.73 18.153 15.9169 18.1016 16.082 17.9988C16.2471 17.896 16.3763 17.7512 16.4698 17.5643C16.5632 17.3743 16.6099 17.1532 16.6099 16.9009C16.6099 16.6455 16.5632 16.4244 16.4698 16.2375C16.3763 16.0506 16.2471 15.9058 16.082 15.803C15.9169 15.7002 15.73 15.6488 15.5214 15.6488C15.3127 15.6488 15.1258 15.7002 14.9607 15.803C14.7988 15.9058 14.6695 16.0506 14.573 16.2375C14.4795 16.4244 14.4328 16.6455 14.4328 16.9009C14.4328 17.1532 14.4795 17.3743 14.573 17.5643C14.6695 17.7512 14.7988 17.896 14.9607 17.9988C15.1258 18.1016 15.3127 18.153 15.5214 18.153Z" fill="white"/>
<path d="M11.1452 18.5361V18.0876H12.0235C12.2415 18.0876 12.4269 18.0378 12.5795 17.9381C12.7321 17.8384 12.8489 17.6998 12.9299 17.5223C13.014 17.3447 13.056 17.1376 13.056 16.9009C13.056 16.6611 13.014 16.4524 12.9299 16.2749C12.8489 16.0973 12.7321 15.9603 12.5795 15.8638C12.4269 15.7641 12.2415 15.7143 12.0235 15.7143H11.1452V15.2657H12.0235C12.335 15.2657 12.6028 15.3358 12.8271 15.476C13.0513 15.613 13.2242 15.8046 13.3457 16.0506C13.4671 16.2936 13.5279 16.577 13.5279 16.9009C13.5279 17.2248 13.4671 17.5098 13.3457 17.7559C13.2242 17.9988 13.0513 18.1904 12.8271 18.3305C12.6028 18.4676 12.335 18.5361 12.0235 18.5361H11.1452ZM10.8789 18.5361V15.2657H11.3461V18.5361H10.8789Z" fill="white"/>
<path d="M9.94422 18.5781C9.85078 18.5781 9.77292 18.547 9.71063 18.4847C9.64833 18.4224 9.61719 18.3461 9.61719 18.2557C9.61719 18.1623 9.64833 18.0844 9.71063 18.0221C9.77292 17.9599 9.85078 17.9287 9.94422 17.9287C10.0314 17.9287 10.1062 17.9599 10.1685 18.0221C10.2308 18.0844 10.2619 18.1623 10.2619 18.2557C10.2619 18.3461 10.2308 18.4224 10.1685 18.4847C10.1062 18.547 10.0314 18.5781 9.94422 18.5781Z" fill="white"/>
<defs>
<linearGradient id="paint0_linear_340_27906" x1="14.8455" y1="5.48398" x2="14.8455" y2="25.2674" gradientUnits="userSpaceOnUse">
<stop stop-color="white"/>
<stop offset="0.4837" stop-color="#FDFDFD"/>
<stop offset="0.7117" stop-color="#F5F6F6"/>
<stop offset="0.8856" stop-color="#E9E9EA"/>
<stop offset="1" stop-color="#DBDCDD"/>
</linearGradient>
<linearGradient id="paint1_linear_340_27906" x1="19.2327" y1="8.70425" x2="17.4961" y2="10.4408" gradientUnits="userSpaceOnUse">
<stop stop-color="white"/>
<stop offset="0.3511" stop-color="#F2F3F3"/>
<stop offset="0.998" stop-color="#D0D2D3"/>
<stop offset="1" stop-color="#D0D2D3"/>
</linearGradient>
<radialGradient id="paint2_radial_340_27906" cx="0" cy="0" r="1" gradientUnits="userSpaceOnUse" gradientTransform="translate(19.2937 8.47219) scale(3.1736 3.1736)">
<stop stop-color="white"/>
<stop offset="0.486" stop-color="#FDFDFD"/>
<stop offset="0.661" stop-color="#F6F7F7"/>
<stop offset="0.7858" stop-color="#EBEBEC"/>
<stop offset="0.8866" stop-color="#DADBDC"/>
<stop offset="0.972" stop-color="#C4C6C7"/>
<stop offset="1" stop-color="#BBBDBF"/>
</radialGradient>
</defs>
</svg>
