<svg width="20" height="24" viewBox="0 0 20 24" fill="none" xmlns="http://www.w3.org/2000/svg">
<path d="M0.929304 0.000734329C0.575218 0.000734329 0.285713 0.290007 0.285713 0.644549V23.3555C0.285713 23.71 0.575218 23.9993 0.929304 23.9993H19.0823C19.4371 23.9993 19.7266 23.7098 19.7266 23.3555V7.79155C19.7266 7.43701 19.5219 6.94261 19.2718 6.69222L13.0351 0.456021C12.7845 0.205181 12.2901 0.000734329 11.9358 0.000734329H0.929304Z" fill="#898B94"/>
<path d="M1.46657 0.429411C1.1118 0.429411 0.8223 0.719594 0.8223 1.07323V23.141C0.8223 23.4949 1.1118 23.785 1.46657 23.785H18.8687C19.2223 23.785 19.5125 23.4951 19.5125 23.141V7.89844C19.5125 7.54458 19.3071 7.04995 19.057 6.79888L13.1423 0.884926C12.8917 0.634768 12.3976 0.429411 12.0432 0.429411H1.46657Z" fill="url(#paint0_linear_1061_22790)"/>
<path d="M13.0316 2.13937V5.35776C13.0316 6.03592 13.5824 6.58581 14.2592 6.58581H17.604L13.0316 2.13937Z" fill="url(#paint1_linear_1061_22790)"/>
<path d="M12.7791 6.11073L12.4827 0.814211L12.0275 6.86211C12.0275 7.21597 12.317 7.50593 12.6717 7.50593H18.5302L13.4227 6.75455C13.0688 6.75477 12.7791 6.46459 12.7791 6.11073Z" fill="url(#paint2_radial_1061_22790)"/>
<path d="M19.5507 17.558C19.5507 17.8662 19.2907 18.1184 18.9733 18.1184H1.43788C1.12041 18.1184 0.860474 17.8664 0.860474 17.558V11.0226C0.860474 10.7144 1.12041 10.4624 1.43788 10.4624H18.9733C19.2907 10.4624 19.5507 10.7144 19.5507 11.0226V17.558Z" fill="#16BBAA"/>
<path d="M15.1204 16.0153C14.7674 16.0153 14.4548 15.9325 14.1827 15.7671C13.9106 15.5979 13.6974 15.3626 13.5429 15.0611C13.3922 14.7596 13.3168 14.4084 13.3168 14.0076C13.3168 13.6032 13.3922 13.252 13.5429 12.9542C13.6974 12.6527 13.9106 12.4192 14.1827 12.2537C14.4548 12.0846 14.7674 12 15.1204 12C15.4954 12 15.8282 12.0993 16.1187 12.2978C16.4091 12.4964 16.6206 12.774 16.7529 13.1307L16.2731 13.2686L16.2124 13.2575C16.1168 13.0222 15.9734 12.842 15.7822 12.717C15.591 12.592 15.3741 12.5295 15.1314 12.5295C14.885 12.5295 14.6663 12.5902 14.4751 12.7115C14.2875 12.8328 14.1405 13.0038 14.0338 13.2244C13.9272 13.445 13.8739 13.7061 13.8739 14.0076C13.8739 14.3091 13.9272 14.5702 14.0338 14.7908C14.1405 15.0114 14.2875 15.1824 14.4751 15.3038C14.6663 15.4251 14.885 15.4858 15.1314 15.4858C15.3741 15.4858 15.591 15.4233 15.7822 15.2982C15.9734 15.1695 16.1168 14.9894 16.2124 14.7577L16.2731 14.7467L16.7529 14.8846C16.6206 15.2413 16.4091 15.5189 16.1187 15.7174C15.8282 15.916 15.4954 16.0153 15.1204 16.0153Z" fill="white"/>
<path d="M10.9685 16.0153C10.6119 16.0153 10.2938 15.9325 10.0143 15.7671C9.7349 15.5979 9.51612 15.3626 9.35801 15.0611C9.20357 14.7596 9.12636 14.4084 9.12636 14.0076C9.12636 13.6068 9.20357 13.2557 9.35801 12.9542C9.51612 12.6527 9.7349 12.4192 10.0143 12.2537C10.2938 12.0846 10.6119 12 10.9685 12C11.3289 12 11.6469 12.0846 11.9227 12.2537C12.2021 12.4192 12.4191 12.6527 12.5735 12.9542C12.7316 13.2557 12.8107 13.6068 12.8107 14.0076C12.8107 14.4084 12.7316 14.7596 12.5735 15.0611C12.4191 15.3626 12.2021 15.5979 11.9227 15.7671C11.6469 15.9325 11.3289 16.0153 10.9685 16.0153ZM10.9685 15.4858C11.2149 15.4858 11.4355 15.4251 11.6304 15.3038C11.8253 15.1824 11.9778 15.0114 12.0882 14.7908C12.1985 14.5665 12.2536 14.3055 12.2536 14.0076C12.2536 13.7061 12.1985 13.445 12.0882 13.2244C11.9778 13.0038 11.8253 12.8328 11.6304 12.7115C11.4355 12.5902 11.2149 12.5295 10.9685 12.5295C10.7222 12.5295 10.5015 12.5902 10.3067 12.7115C10.1155 12.8328 9.96287 13.0038 9.84888 13.2244C9.73857 13.445 9.68342 13.7061 9.68342 14.0076C9.68342 14.3055 9.73857 14.5665 9.84888 14.7908C9.96287 15.0114 10.1155 15.1824 10.3067 15.3038C10.5015 15.4251 10.7222 15.4858 10.9685 15.4858Z" fill="white"/>
<path d="M5.80355 15.938V15.4086H6.84046C7.09785 15.4086 7.31663 15.3497 7.4968 15.2321C7.67697 15.1144 7.81486 14.9508 7.91046 14.7412C8.00974 14.5316 8.05938 14.2871 8.05938 14.0076C8.05938 13.7245 8.00974 13.4781 7.91046 13.2686C7.81486 13.059 7.67697 12.8972 7.4968 12.7832C7.31663 12.6655 7.09785 12.6067 6.84046 12.6067H5.80355V12.0772H6.84046C7.20816 12.0772 7.52438 12.1599 7.78912 12.3254C8.05386 12.4872 8.25793 12.7133 8.40133 13.0038C8.54474 13.2906 8.61644 13.6252 8.61644 14.0076C8.61644 14.39 8.54474 14.7265 8.40133 15.017C8.25793 15.3038 8.05386 15.5299 7.78912 15.6954C7.52438 15.8571 7.20816 15.938 6.84046 15.938H5.80355ZM5.48917 15.938V12.0772H6.04072V15.938H5.48917Z" fill="white"/>
<path d="M4.38608 15.9877C4.27577 15.9877 4.18385 15.9509 4.11031 15.8774C4.03677 15.8038 4 15.7137 4 15.6071C4 15.4968 4.03677 15.4049 4.11031 15.3313C4.18385 15.2578 4.27577 15.221 4.38608 15.221C4.48904 15.221 4.57728 15.2578 4.65082 15.3313C4.72436 15.4049 4.76113 15.4968 4.76113 15.6071C4.76113 15.7137 4.72436 15.8038 4.65082 15.8774C4.57728 15.9509 4.48904 15.9877 4.38608 15.9877Z" fill="white"/>
<defs>
<linearGradient id="paint0_linear_1061_22790" x1="10.1674" y1="0.52953" x2="10.1674" y2="23.885" gradientUnits="userSpaceOnUse">
<stop stop-color="white"/>
<stop offset="0.4837" stop-color="#FDFDFD"/>
<stop offset="0.7117" stop-color="#F5F6F6"/>
<stop offset="0.8856" stop-color="#E9E9EA"/>
<stop offset="1" stop-color="#DBDCDD"/>
</linearGradient>
<linearGradient id="paint1_linear_1061_22790" x1="15.3492" y1="4.33118" x2="13.2991" y2="6.38131" gradientUnits="userSpaceOnUse">
<stop stop-color="white"/>
<stop offset="0.3511" stop-color="#F2F3F3"/>
<stop offset="0.998" stop-color="#D0D2D3"/>
<stop offset="1" stop-color="#D0D2D3"/>
</linearGradient>
<radialGradient id="paint2_radial_1061_22790" cx="0" cy="0" r="1" gradientUnits="userSpaceOnUse" gradientTransform="translate(15.4179 4.05731) scale(3.74661 3.74662)">
<stop stop-color="white"/>
<stop offset="0.486" stop-color="#FDFDFD"/>
<stop offset="0.661" stop-color="#F6F7F7"/>
<stop offset="0.7858" stop-color="#EBEBEC"/>
<stop offset="0.8866" stop-color="#DADBDC"/>
<stop offset="0.972" stop-color="#C4C6C7"/>
<stop offset="1" stop-color="#BBBDBF"/>
</radialGradient>
</defs>
</svg>
