<svg width="34" height="34" viewBox="0 0 34 34" fill="none" xmlns="http://www.w3.org/2000/svg">
<rect x="0.5" y="0.5" width="33" height="33" rx="4.35714" fill="#1B1A25"/>
<rect x="0.5" y="0.5" width="33" height="33" rx="4.35714" stroke="#3A3948"/>
<path d="M7.9293 5.00073C7.57522 5.00073 7.28571 5.29001 7.28571 5.64455V28.3555C7.28571 28.71 7.57522 28.9993 7.9293 28.9993H26.0823C26.4371 28.9993 26.7266 28.7098 26.7266 28.3555V12.7916C26.7266 12.437 26.5219 11.9426 26.2718 11.6922L20.0351 5.45602C19.7845 5.20518 19.2901 5.00073 18.9358 5.00073H7.9293Z" fill="#898B94"/>
<path d="M8.46657 5.42941C8.1118 5.42941 7.8223 5.71959 7.8223 6.07323V28.141C7.8223 28.4949 8.1118 28.785 8.46657 28.785H25.8687C26.2223 28.785 26.5125 28.4951 26.5125 28.141V12.8984C26.5125 12.5446 26.3071 12.0499 26.057 11.7989L20.1423 5.88493C19.8917 5.63477 19.3976 5.42941 19.0432 5.42941H8.46657Z" fill="url(#paint0_linear_1061_22813)"/>
<path d="M20.0316 7.13937V10.3578C20.0316 11.0359 20.5824 11.5858 21.2592 11.5858H24.604L20.0316 7.13937Z" fill="url(#paint1_linear_1061_22813)"/>
<path d="M19.7791 11.1107L19.4827 5.81421L19.0275 11.8621C19.0275 12.216 19.317 12.5059 19.6717 12.5059H25.5302L20.4227 11.7545C20.0688 11.7548 19.7791 11.4646 19.7791 11.1107Z" fill="url(#paint2_radial_1061_22813)"/>
<path d="M26.5507 22.558C26.5507 22.8662 26.2907 23.1184 25.9733 23.1184H8.43788C8.12041 23.1184 7.86047 22.8664 7.86047 22.558V16.0226C7.86047 15.7144 8.12041 15.4624 8.43788 15.4624H25.9733C26.2907 15.4624 26.5507 15.7144 26.5507 16.0226V22.558Z" fill="#16BBAA"/>
<path d="M22.1204 21.0153C21.7674 21.0153 21.4548 20.9325 21.1827 20.7671C20.9106 20.5979 20.6974 20.3626 20.5429 20.0611C20.3922 19.7596 20.3168 19.4084 20.3168 19.0076C20.3168 18.6032 20.3922 18.252 20.5429 17.9542C20.6974 17.6527 20.9106 17.4192 21.1827 17.2537C21.4548 17.0846 21.7674 17 22.1204 17C22.4954 17 22.8282 17.0993 23.1187 17.2978C23.4091 17.4964 23.6206 17.774 23.7529 18.1307L23.2731 18.2686L23.2124 18.2575C23.1168 18.0222 22.9734 17.842 22.7822 17.717C22.591 17.592 22.3741 17.5295 22.1314 17.5295C21.885 17.5295 21.6663 17.5902 21.4751 17.7115C21.2875 17.8328 21.1405 18.0038 21.0338 18.2244C20.9272 18.445 20.8739 18.7061 20.8739 19.0076C20.8739 19.3091 20.9272 19.5702 21.0338 19.7908C21.1405 20.0114 21.2875 20.1824 21.4751 20.3038C21.6663 20.4251 21.885 20.4858 22.1314 20.4858C22.3741 20.4858 22.591 20.4233 22.7822 20.2982C22.9734 20.1695 23.1168 19.9894 23.2124 19.7577L23.2731 19.7467L23.7529 19.8846C23.6206 20.2413 23.4091 20.5189 23.1187 20.7174C22.8282 20.916 22.4954 21.0153 22.1204 21.0153Z" fill="white"/>
<path d="M17.9685 21.0153C17.6119 21.0153 17.2938 20.9325 17.0143 20.7671C16.7349 20.5979 16.5161 20.3626 16.358 20.0611C16.2036 19.7596 16.1264 19.4084 16.1264 19.0076C16.1264 18.6068 16.2036 18.2557 16.358 17.9542C16.5161 17.6527 16.7349 17.4192 17.0143 17.2537C17.2938 17.0846 17.6119 17 17.9685 17C18.3289 17 18.6469 17.0846 18.9227 17.2537C19.2021 17.4192 19.4191 17.6527 19.5735 17.9542C19.7316 18.2557 19.8107 18.6068 19.8107 19.0076C19.8107 19.4084 19.7316 19.7596 19.5735 20.0611C19.4191 20.3626 19.2021 20.5979 18.9227 20.7671C18.6469 20.9325 18.3289 21.0153 17.9685 21.0153ZM17.9685 20.4858C18.2149 20.4858 18.4355 20.4251 18.6304 20.3038C18.8253 20.1824 18.9778 20.0114 19.0882 19.7908C19.1985 19.5665 19.2536 19.3055 19.2536 19.0076C19.2536 18.7061 19.1985 18.445 19.0882 18.2244C18.9778 18.0038 18.8253 17.8328 18.6304 17.7115C18.4355 17.5902 18.2149 17.5295 17.9685 17.5295C17.7222 17.5295 17.5015 17.5902 17.3067 17.7115C17.1155 17.8328 16.9629 18.0038 16.8489 18.2244C16.7386 18.445 16.6834 18.7061 16.6834 19.0076C16.6834 19.3055 16.7386 19.5665 16.8489 19.7908C16.9629 20.0114 17.1155 20.1824 17.3067 20.3038C17.5015 20.4251 17.7222 20.4858 17.9685 20.4858Z" fill="white"/>
<path d="M12.8036 20.938V20.4086H13.8405C14.0978 20.4086 14.3166 20.3497 14.4968 20.2321C14.677 20.1144 14.8149 19.9508 14.9105 19.7412C15.0097 19.5316 15.0594 19.2871 15.0594 19.0076C15.0594 18.7245 15.0097 18.4781 14.9105 18.2686C14.8149 18.059 14.677 17.8972 14.4968 17.7832C14.3166 17.6655 14.0978 17.6067 13.8405 17.6067H12.8036V17.0772H13.8405C14.2082 17.0772 14.5244 17.1599 14.7891 17.3254C15.0539 17.4872 15.2579 17.7133 15.4013 18.0038C15.5447 18.2906 15.6164 18.6252 15.6164 19.0076C15.6164 19.39 15.5447 19.7265 15.4013 20.017C15.2579 20.3038 15.0539 20.5299 14.7891 20.6954C14.5244 20.8571 14.2082 20.938 13.8405 20.938H12.8036ZM12.4892 20.938V17.0772H13.0407V20.938H12.4892Z" fill="white"/>
<path d="M11.3861 20.9877C11.2758 20.9877 11.1838 20.9509 11.1103 20.8774C11.0368 20.8038 11 20.7137 11 20.6071C11 20.4968 11.0368 20.4049 11.1103 20.3313C11.1838 20.2578 11.2758 20.221 11.3861 20.221C11.489 20.221 11.5773 20.2578 11.6508 20.3313C11.7244 20.4049 11.7611 20.4968 11.7611 20.6071C11.7611 20.7137 11.7244 20.8038 11.6508 20.8774C11.5773 20.9509 11.489 20.9877 11.3861 20.9877Z" fill="white"/>
<defs>
<linearGradient id="paint0_linear_1061_22813" x1="17.1674" y1="5.52953" x2="17.1674" y2="28.885" gradientUnits="userSpaceOnUse">
<stop stop-color="white"/>
<stop offset="0.4837" stop-color="#FDFDFD"/>
<stop offset="0.7117" stop-color="#F5F6F6"/>
<stop offset="0.8856" stop-color="#E9E9EA"/>
<stop offset="1" stop-color="#DBDCDD"/>
</linearGradient>
<linearGradient id="paint1_linear_1061_22813" x1="22.3492" y1="9.33118" x2="20.2991" y2="11.3813" gradientUnits="userSpaceOnUse">
<stop stop-color="white"/>
<stop offset="0.3511" stop-color="#F2F3F3"/>
<stop offset="0.998" stop-color="#D0D2D3"/>
<stop offset="1" stop-color="#D0D2D3"/>
</linearGradient>
<radialGradient id="paint2_radial_1061_22813" cx="0" cy="0" r="1" gradientUnits="userSpaceOnUse" gradientTransform="translate(22.4179 9.05731) scale(3.74661 3.74662)">
<stop stop-color="white"/>
<stop offset="0.486" stop-color="#FDFDFD"/>
<stop offset="0.661" stop-color="#F6F7F7"/>
<stop offset="0.7858" stop-color="#EBEBEC"/>
<stop offset="0.8866" stop-color="#DADBDC"/>
<stop offset="0.972" stop-color="#C4C6C7"/>
<stop offset="1" stop-color="#BBBDBF"/>
</radialGradient>
</defs>
</svg>
