<svg width="20" height="20" viewBox="0 0 20 20" fill="none" xmlns="http://www.w3.org/2000/svg">
<path d="M17.0835 8.49199H14.6752C12.7002 8.49199 11.0918 6.88366 11.0918 4.90866V2.50033C11.0918 2.04199 10.7168 1.66699 10.2585 1.66699H6.72516C4.1585 1.66699 2.0835 3.33366 2.0835 6.30866V13.692C2.0835 16.667 4.1585 18.3337 6.72516 18.3337H13.2752C15.8418 18.3337 17.9168 16.667 17.9168 13.692V9.32533C17.9168 8.86699 17.5418 8.49199 17.0835 8.49199ZM10.2335 13.1503L8.56683 14.817C8.5085 14.8753 8.4335 14.9253 8.3585 14.9503C8.2835 14.9837 8.2085 15.0003 8.12516 15.0003C8.04183 15.0003 7.96683 14.9837 7.89183 14.9503C7.82516 14.9253 7.7585 14.8753 7.7085 14.8253C7.70016 14.817 7.69183 14.817 7.69183 14.8087L6.02516 13.142C5.7835 12.9003 5.7835 12.5003 6.02516 12.2587C6.26683 12.017 6.66683 12.017 6.9085 12.2587L7.50016 12.867V9.37533C7.50016 9.03366 7.7835 8.75033 8.12516 8.75033C8.46683 8.75033 8.75016 9.03366 8.75016 9.37533V12.867L9.35016 12.267C9.59183 12.0253 9.99183 12.0253 10.2335 12.267C10.4752 12.5087 10.4752 12.9087 10.2335 13.1503Z" fill="white"/>
<path d="M14.5251 7.34207C15.3167 7.3504 16.4167 7.3504 17.3584 7.3504C17.8334 7.3504 18.0834 6.79207 17.7501 6.45873C16.5501 5.2504 14.4001 3.0754 13.1667 1.84207C12.8251 1.5004 12.2334 1.73373 12.2334 2.20873V5.11707C12.2334 6.33373 13.2667 7.34207 14.5251 7.34207Z" fill="white"/>
</svg>
