<svg width="24" height="24" viewBox="0 0 24 24" fill="none" xmlns="http://www.w3.org/2000/svg">
<path d="M18.69 11.5298C18.12 11.3798 17.45 11.2998 16.65 11.2998C15.54 11.2998 15.13 11.5698 14.56 11.9998C14.53 12.0198 14.5 12.0498 14.47 12.0798L13.52 13.0898C12.72 13.9298 11.28 13.9398 10.48 13.0798L9.52999 12.0798C9.49999 12.0498 9.46999 12.0198 9.43999 11.9998C8.86999 11.5698 8.45999 11.2998 7.34999 11.2998C6.54999 11.2998 5.87999 11.3798 5.30999 11.5298C2.92999 12.1698 2.92999 14.0598 2.92999 15.7198V16.6498C2.92999 19.1598 2.92999 21.9998 8.27999 21.9998H15.72C19.27 21.9998 21.07 20.1998 21.07 16.6498V15.7198C21.07 14.0598 21.07 12.1698 18.69 11.5298ZM14.33 18.3998H9.66999C9.28999 18.3998 8.97999 18.0898 8.97999 17.6998C8.97999 17.3098 9.28999 16.9998 9.66999 16.9998H14.33C14.71 16.9998 15.02 17.3098 15.02 17.6998C15.02 18.0898 14.71 18.3998 14.33 18.3998Z" fill="url(#paint0_linear_3150_726)"/>
<path d="M12.67 2.67098C12.67 2.30098 12.37 2.00098 12 2.00098C11.63 2.00098 11.33 2.30098 11.33 2.67098V4.00098H12.68V2.67098H12.67Z" fill="url(#paint1_linear_3150_726)"/>
<path d="M19.21 8.41902V10.119C19.17 10.099 19.12 10.089 19.08 10.079H19.07C18.36 9.88902 17.57 9.79902 16.65 9.79902C15.11 9.79902 14.38 10.249 13.72 10.749C13.58 10.849 13.48 10.949 13.38 11.049L12.43 12.059C12.33 12.159 12.17 12.219 12 12.219C11.92 12.219 11.72 12.209 11.57 12.049L10.59 11.019C10.49 10.909 10.37 10.819 10.34 10.799C9.62004 10.249 8.89004 9.79902 7.35004 9.79902C6.43004 9.79902 5.64004 9.88902 4.92004 10.079C4.88004 10.089 4.83004 10.099 4.79004 10.119V8.41902C4.79004 6.34902 4.79004 3.99902 9.21004 3.99902H11.33V7.44902L10.68 6.79902C10.41 6.52902 9.99004 6.52902 9.72004 6.79902C9.46004 7.05902 9.46004 7.48902 9.72004 7.74902L11.52 9.54902C11.53 9.55902 11.54 9.55902 11.54 9.56902C11.6 9.61902 11.67 9.66902 11.74 9.69902C11.83 9.72902 11.91 9.74902 12 9.74902C12.09 9.74902 12.17 9.72902 12.26 9.69902C12.34 9.66902 12.41 9.61902 12.48 9.54902L14.28 7.74902C14.54 7.48902 14.54 7.05902 14.28 6.79902C14.01 6.52902 13.59 6.52902 13.32 6.79902L12.67 7.44902V3.99902H14.79C19.21 3.99902 19.21 6.34902 19.21 8.41902Z" fill="url(#paint2_linear_3150_726)"/>
<defs>
<linearGradient id="paint0_linear_3150_726" x1="2.92999" y1="16.6498" x2="21.07" y2="16.6498" gradientUnits="userSpaceOnUse">
<stop stop-color="#2A1AD8"/>
<stop offset="0.25" stop-color="#4E26E2"/>
<stop offset="0.5" stop-color="#7231EC"/>
<stop offset="0.75" stop-color="#953DF5"/>
<stop offset="1" stop-color="#B948FF"/>
</linearGradient>
<linearGradient id="paint1_linear_3150_726" x1="11.33" y1="3.00098" x2="12.68" y2="3.00098" gradientUnits="userSpaceOnUse">
<stop stop-color="#2A1AD8"/>
<stop offset="0.25" stop-color="#4E26E2"/>
<stop offset="0.5" stop-color="#7231EC"/>
<stop offset="0.75" stop-color="#953DF5"/>
<stop offset="1" stop-color="#B948FF"/>
</linearGradient>
<linearGradient id="paint2_linear_3150_726" x1="4.79004" y1="8.10902" x2="19.21" y2="8.10902" gradientUnits="userSpaceOnUse">
<stop stop-color="#2A1AD8"/>
<stop offset="0.25" stop-color="#4E26E2"/>
<stop offset="0.5" stop-color="#7231EC"/>
<stop offset="0.75" stop-color="#953DF5"/>
<stop offset="1" stop-color="#B948FF"/>
</linearGradient>
</defs>
</svg>
