<svg width="18" height="18" viewBox="0 0 18 18" fill="none" xmlns="http://www.w3.org/2000/svg">
<path d="M14.0178 8.64711C13.5903 8.53461 13.0878 8.47461 12.4878 8.47461C11.6553 8.47461 11.3478 8.67711 10.9203 8.99961C10.8978 9.01461 10.8753 9.03711 10.8528 9.05961L10.1403 9.81711C9.54025 10.4471 8.46025 10.4546 7.86025 9.80961L7.14775 9.05961C7.12525 9.03711 7.10275 9.01461 7.08025 8.99961C6.65275 8.67711 6.34525 8.47461 5.51275 8.47461C4.91275 8.47461 4.41025 8.53461 3.98275 8.64711C2.19775 9.12711 2.19775 10.5446 2.19775 11.7896V12.4871C2.19775 14.3696 2.19775 16.4996 6.21025 16.4996H11.7903C14.4528 16.4996 15.8028 15.1496 15.8028 12.4871V11.7896C15.8028 10.5446 15.8028 9.12711 14.0178 8.64711ZM10.7478 13.7996H7.25275C6.96775 13.7996 6.73525 13.5671 6.73525 13.2746C6.73525 12.9821 6.96775 12.7496 7.25275 12.7496H10.7478C11.0328 12.7496 11.2653 12.9821 11.2653 13.2746C11.2653 13.5671 11.0328 13.7996 10.7478 13.7996Z" fill="white"/>
<path d="M9.50256 2.0025C9.50256 1.725 9.27756 1.5 9.00006 1.5C8.72256 1.5 8.49756 1.725 8.49756 2.0025V3H9.51006V2.0025H9.50256Z" fill="white"/>
<path d="M14.4078 6.315V7.59C14.3778 7.575 14.3403 7.5675 14.3103 7.56H14.3028C13.7703 7.4175 13.1778 7.35 12.4878 7.35C11.3328 7.35 10.7853 7.6875 10.2903 8.0625C10.1853 8.1375 10.1103 8.2125 10.0353 8.2875L9.32277 9.045C9.24777 9.12 9.12777 9.165 9.00027 9.165C8.94027 9.165 8.79027 9.1575 8.67777 9.0375L7.94277 8.265C7.86777 8.1825 7.77777 8.115 7.75527 8.1C7.21527 7.6875 6.66777 7.35 5.51277 7.35C4.82277 7.35 4.23027 7.4175 3.69027 7.56C3.66027 7.5675 3.62277 7.575 3.59277 7.59V6.315C3.59277 4.7625 3.59277 3 6.90777 3H8.49777V5.5875L8.01027 5.1C7.80777 4.8975 7.49277 4.8975 7.29027 5.1C7.09527 5.295 7.09527 5.6175 7.29027 5.8125L8.64027 7.1625C8.64777 7.17 8.65527 7.17 8.65527 7.1775C8.70027 7.215 8.75277 7.2525 8.80527 7.275C8.87277 7.2975 8.93277 7.3125 9.00027 7.3125C9.06777 7.3125 9.12777 7.2975 9.19527 7.275C9.25527 7.2525 9.30777 7.215 9.36027 7.1625L10.7103 5.8125C10.9053 5.6175 10.9053 5.295 10.7103 5.1C10.5078 4.8975 10.1928 4.8975 9.99027 5.1L9.50277 5.5875V3H11.0928C14.4078 3 14.4078 4.7625 14.4078 6.315Z" fill="white"/>
</svg>
