<svg width="28" height="28" viewBox="0 0 28 28" fill="none" xmlns="http://www.w3.org/2000/svg">
<path d="M18.4087 2.33301H9.5887C5.1787 2.33301 4.08203 3.51134 4.08203 8.21301V21.3497C4.08203 24.453 5.78536 25.188 7.85036 22.9713L7.86203 22.9597C8.8187 21.9447 10.277 22.0263 11.1054 23.1347L12.2837 24.7097C13.2287 25.958 14.757 25.958 15.702 24.7097L16.8804 23.1347C17.7204 22.0147 19.1787 21.933 20.1354 22.9597C22.212 25.1763 23.9037 24.4413 23.9037 21.338V8.21301C23.9154 3.51134 22.8187 2.33301 18.4087 2.33301ZM17.312 11.6547L16.7287 12.2497H16.717L13.182 15.7847C13.0304 15.9363 12.7154 16.0997 12.4937 16.123L10.9187 16.3563C10.347 16.438 9.95037 16.0297 10.032 15.4697L10.2537 13.883C10.2887 13.6613 10.4404 13.358 10.592 13.1947L14.1387 9.65967L14.722 9.06467C15.107 8.67967 15.5387 8.39967 16.0054 8.39967C16.402 8.39967 16.8337 8.58634 17.312 9.06467C18.362 10.1147 18.0237 10.943 17.312 11.6547Z" fill="url(#paint0_linear_1806_34306)"/>
<defs>
<linearGradient id="paint0_linear_1806_34306" x1="4.08203" y1="13.9895" x2="23.9038" y2="13.9895" gradientUnits="userSpaceOnUse">
<stop stop-color="#2A1AD8"/>
<stop offset="0.25" stop-color="#4E26E2"/>
<stop offset="0.5" stop-color="#7231EC"/>
<stop offset="0.75" stop-color="#953DF5"/>
<stop offset="1" stop-color="#B948FF"/>
</linearGradient>
</defs>
</svg>
