<svg width="24" height="24" viewBox="0 0 24 24" fill="none" xmlns="http://www.w3.org/2000/svg">
<path d="M15.7799 2H8.21988C4.43988 2 3.49988 3.01 3.49988 7.04V18.3C3.49988 20.96 4.95988 21.59 6.72988 19.69L6.73988 19.68C7.55988 18.81 8.80988 18.88 9.51988 19.83L10.5299 21.18C11.3399 22.25 12.6499 22.25 13.4599 21.18L14.4699 19.83C15.1899 18.87 16.4399 18.8 17.2599 19.68C19.0399 21.58 20.4899 20.95 20.4899 18.29V7.04C20.4999 3.01 19.5599 2 15.7799 2ZM14.8399 9.99L14.3399 10.5H14.3299L11.2999 13.53C11.1699 13.66 10.8999 13.8 10.7099 13.82L9.35988 14.02C8.86988 14.09 8.52988 13.74 8.59988 13.26L8.78988 11.9C8.81988 11.71 8.94988 11.45 9.07988 11.31L12.1199 8.28L12.6199 7.77C12.9499 7.44 13.3199 7.2 13.7199 7.2C14.0599 7.2 14.4299 7.36 14.8399 7.77C15.7399 8.67 15.4499 9.38 14.8399 9.99Z" fill="url(#paint0_linear_440_5112)"/>
<defs>
<linearGradient id="paint0_linear_440_5112" x1="3.49988" y1="11.9913" x2="20.49" y2="11.9913" gradientUnits="userSpaceOnUse">
<stop stop-color="#2A1AD8"/>
<stop offset="0.0688708" stop-color="#4E26E2"/>
<stop offset="0.278871" stop-color="#7231EC"/>
<stop offset="0.653871" stop-color="#953DF5"/>
<stop offset="1" stop-color="#B948FF"/>
</linearGradient>
</defs>
</svg>
