<svg width="14" height="14" viewBox="0 0 14 14" fill="none" xmlns="http://www.w3.org/2000/svg">
<path fill-rule="evenodd" clip-rule="evenodd" d="M0 6.99997C0 3.1818 3.1818 0 6.99997 0C10.8182 0 14 3.1818 14 6.99997C14 10.8181 10.8182 14 6.99997 14C3.1818 14 0 10.8181 0 6.99997ZM6.23634 10.9455C6.23634 11.3273 6.61816 11.7091 6.99997 11.7091C7.38179 11.7091 7.76361 11.3273 7.76361 10.9455C7.76361 10.5636 7.38179 10.1818 6.99997 10.1818C6.61816 10.1818 6.23634 10.5636 6.23634 10.9455ZM6.99997 9.03637C7.38179 9.03637 7.76361 8.65455 7.76361 8.27273V2.92729C7.76361 2.54547 7.38179 2.16365 6.99997 2.16365C6.61816 2.16365 6.23634 2.54547 6.23634 2.92729V8.27273C6.23634 8.65455 6.61816 9.03637 6.99997 9.03637Z" fill="#E72240"/>
</svg>
