<svg width="34" height="34" viewBox="0 0 34 34" fill="none" xmlns="http://www.w3.org/2000/svg">
<rect x="0.5" y="0.5" width="33" height="33" rx="4.35714" fill="#1B1A25"/>
<rect x="0.5" y="0.5" width="33" height="33" rx="4.35714" stroke="#3A3948"/>
<path d="M7.9293 5.00073C7.57522 5.00073 7.28571 5.29001 7.28571 5.64455V28.3555C7.28571 28.71 7.57522 28.9993 7.9293 28.9993H26.0823C26.4371 28.9993 26.7266 28.7098 26.7266 28.3555V12.7916C26.7266 12.437 26.5219 11.9426 26.2718 11.6922L20.0351 5.45602C19.7845 5.20518 19.2901 5.00073 18.9358 5.00073H7.9293Z" fill="#898B94"/>
<path d="M8.46657 5.42941C8.1118 5.42941 7.8223 5.71959 7.8223 6.07323V28.141C7.8223 28.4949 8.1118 28.785 8.46657 28.785H25.8687C26.2223 28.785 26.5125 28.4951 26.5125 28.141V12.8984C26.5125 12.5446 26.3071 12.0499 26.057 11.7989L20.1423 5.88493C19.8917 5.63477 19.3975 5.42941 19.0432 5.42941H8.46657Z" fill="url(#paint0_linear_999_11457)"/>
<path d="M20.0316 7.13937V10.3578C20.0316 11.0359 20.5824 11.5858 21.2592 11.5858H24.604L20.0316 7.13937Z" fill="url(#paint1_linear_999_11457)"/>
<path d="M19.7791 11.1107L19.4827 5.81421L19.0275 11.8621C19.0275 12.216 19.317 12.5059 19.6717 12.5059H25.5302L20.4227 11.7545C20.0688 11.7548 19.7791 11.4646 19.7791 11.1107Z" fill="url(#paint2_radial_999_11457)"/>
<path d="M26.5507 22.558C26.5507 22.8662 26.2907 23.1184 25.9733 23.1184H8.43788C8.12041 23.1184 7.86047 22.8664 7.86047 22.558V16.0226C7.86047 15.7144 8.12041 15.4624 8.43788 15.4624H25.9733C26.2907 15.4624 26.5507 15.7144 26.5507 16.0226V22.558Z" fill="#B948FF"/>
<path d="M21.1921 21.3637C20.9265 21.3637 20.6864 21.3164 20.4717 21.2218C20.2607 21.1272 20.0842 20.9944 19.9423 20.8234C19.8004 20.6487 19.7058 20.4486 19.6585 20.223L20.2315 20.0756L20.2916 20.0865C20.3389 20.2212 20.4062 20.3413 20.4935 20.4468C20.5845 20.5487 20.6918 20.6287 20.8155 20.6869C20.9393 20.7451 21.0721 20.7743 21.214 20.7743C21.3595 20.7743 21.4869 20.7524 21.596 20.7088C21.7052 20.6615 21.7907 20.5978 21.8526 20.5177C21.9181 20.434 21.9508 20.3394 21.9508 20.2339C21.9508 20.1029 21.909 19.9992 21.8253 19.9228C21.7452 19.8428 21.6251 19.7809 21.465 19.7372L20.7773 19.5571C20.4535 19.4698 20.2061 19.3297 20.0351 19.1369C19.8677 18.944 19.784 18.7202 19.784 18.4655C19.784 18.2508 19.8386 18.0635 19.9477 17.9034C20.0569 17.7396 20.2097 17.6123 20.4062 17.5213C20.6027 17.4267 20.8301 17.3794 21.0884 17.3794C21.3359 17.3794 21.5578 17.4249 21.7543 17.5158C21.9544 17.6032 22.12 17.7269 22.251 17.887C22.382 18.0471 22.4675 18.2381 22.5075 18.4601L21.9672 18.5801L21.9071 18.5692C21.8635 18.38 21.7689 18.2327 21.6233 18.1271C21.4778 18.0216 21.2977 17.9688 21.083 17.9688C20.8865 17.9688 20.73 18.0162 20.6136 18.1108C20.4972 18.2017 20.4389 18.32 20.4389 18.4655C20.4389 18.5856 20.4808 18.6875 20.5645 18.7712C20.6518 18.8549 20.7792 18.9185 20.9465 18.9622L21.6342 19.1423C21.9508 19.226 22.191 19.3588 22.3547 19.5407C22.5221 19.719 22.6058 19.941 22.6058 20.2066C22.6058 20.4395 22.5475 20.6433 22.4311 20.8179C22.3147 20.9889 22.1491 21.1236 21.9344 21.2218C21.7234 21.3164 21.476 21.3637 21.1921 21.3637Z" fill="white"/>
<path d="M16.9023 21.2818V17.4613H17.53V21.2818H16.9023ZM17.2244 21.2818V20.6815H19.3748V21.2818H17.2244Z" fill="white"/>
<path d="M15.8085 21.2818L13.467 17.5049V17.4613H14.1766L16.5181 21.2382V21.2818H15.8085ZM13.3961 21.2818V21.2382L14.7224 19.0987L15.0935 19.6499L14.0893 21.2818H13.3961ZM15.1536 19.6663L14.7879 19.115L15.7539 17.4613H16.4471V17.5049L15.1536 19.6663Z" fill="white"/>
<path d="M12.7095 21.331C12.5931 21.331 12.493 21.2909 12.4094 21.2109C12.3293 21.1308 12.2893 21.0326 12.2893 20.9162C12.2893 20.8034 12.3293 20.7069 12.4094 20.6269C12.493 20.5468 12.5931 20.5068 12.7095 20.5068C12.8223 20.5068 12.9188 20.5468 12.9988 20.6269C13.0789 20.7069 13.1189 20.8034 13.1189 20.9162C13.1189 21.0326 13.0789 21.1308 12.9988 21.2109C12.9188 21.2909 12.8223 21.331 12.7095 21.331Z" fill="white"/>
<defs>
<linearGradient id="paint0_linear_999_11457" x1="17.1674" y1="5.52953" x2="17.1674" y2="28.885" gradientUnits="userSpaceOnUse">
<stop stop-color="white"/>
<stop offset="0.4837" stop-color="#FDFDFD"/>
<stop offset="0.7117" stop-color="#F5F6F6"/>
<stop offset="0.8856" stop-color="#E9E9EA"/>
<stop offset="1" stop-color="#DBDCDD"/>
</linearGradient>
<linearGradient id="paint1_linear_999_11457" x1="22.3492" y1="9.33118" x2="20.2991" y2="11.3813" gradientUnits="userSpaceOnUse">
<stop stop-color="white"/>
<stop offset="0.3511" stop-color="#F2F3F3"/>
<stop offset="0.998" stop-color="#D0D2D3"/>
<stop offset="1" stop-color="#D0D2D3"/>
</linearGradient>
<radialGradient id="paint2_radial_999_11457" cx="0" cy="0" r="1" gradientUnits="userSpaceOnUse" gradientTransform="translate(22.4179 9.05731) scale(3.74661 3.74662)">
<stop stop-color="white"/>
<stop offset="0.486" stop-color="#FDFDFD"/>
<stop offset="0.661" stop-color="#F6F7F7"/>
<stop offset="0.7858" stop-color="#EBEBEC"/>
<stop offset="0.8866" stop-color="#DADBDC"/>
<stop offset="0.972" stop-color="#C4C6C7"/>
<stop offset="1" stop-color="#BBBDBF"/>
</radialGradient>
</defs>
</svg>
