<svg width="20" height="24" viewBox="0 0 20 24" fill="none" xmlns="http://www.w3.org/2000/svg">
<path d="M0.929304 0.000734329C0.575218 0.000734329 0.285713 0.290007 0.285713 0.644549V23.3555C0.285713 23.71 0.575218 23.9993 0.929304 23.9993H19.0823C19.4371 23.9993 19.7266 23.7098 19.7266 23.3555V7.79155C19.7266 7.43701 19.5219 6.94261 19.2718 6.69222L13.0351 0.456021C12.7845 0.205181 12.2901 0.000734329 11.9358 0.000734329H0.929304Z" fill="#898B94"/>
<path d="M1.46657 0.429411C1.1118 0.429411 0.822296 0.719594 0.822296 1.07323V23.141C0.822296 23.4949 1.1118 23.785 1.46657 23.785H18.8687C19.2223 23.785 19.5125 23.4951 19.5125 23.141V7.89844C19.5125 7.54458 19.3071 7.04995 19.057 6.79888L13.1423 0.884926C12.8917 0.634768 12.3975 0.429411 12.0432 0.429411H1.46657Z" fill="url(#paint0_linear_1078_25140)"/>
<path d="M13.0316 2.13937V5.35776C13.0316 6.03592 13.5824 6.58581 14.2592 6.58581H17.604L13.0316 2.13937Z" fill="url(#paint1_linear_1078_25140)"/>
<path d="M12.7791 6.11073L12.4827 0.814211L12.0275 6.86211C12.0275 7.21597 12.317 7.50593 12.6717 7.50593H18.5302L13.4227 6.75455C13.0688 6.75477 12.7791 6.46459 12.7791 6.11073Z" fill="url(#paint2_radial_1078_25140)"/>
<path d="M19.5507 17.558C19.5507 17.8662 19.2907 18.1184 18.9733 18.1184H1.43788C1.12041 18.1184 0.860474 17.8664 0.860474 17.558V11.0226C0.860474 10.7144 1.12041 10.4624 1.43788 10.4624H18.9733C19.2907 10.4624 19.5507 10.7144 19.5507 11.0226V17.558Z" fill="#B948FF"/>
<path d="M14.1921 16.3637C13.9265 16.3637 13.6864 16.3164 13.4717 16.2218C13.2607 16.1272 13.0842 15.9944 12.9423 15.8234C12.8004 15.6487 12.7058 15.4486 12.6585 15.223L13.2315 15.0756L13.2916 15.0865C13.3389 15.2212 13.4062 15.3413 13.4935 15.4468C13.5845 15.5487 13.6918 15.6287 13.8155 15.6869C13.9393 15.7451 14.0721 15.7743 14.214 15.7743C14.3595 15.7743 14.4869 15.7524 14.596 15.7088C14.7052 15.6615 14.7907 15.5978 14.8526 15.5177C14.9181 15.434 14.9508 15.3394 14.9508 15.2339C14.9508 15.1029 14.909 14.9992 14.8253 14.9228C14.7452 14.8428 14.6251 14.7809 14.465 14.7372L13.7773 14.5571C13.4535 14.4698 13.2061 14.3297 13.0351 14.1369C12.8677 13.944 12.784 13.7202 12.784 13.4655C12.784 13.2508 12.8386 13.0635 12.9477 12.9034C13.0569 12.7396 13.2097 12.6123 13.4062 12.5213C13.6027 12.4267 13.8301 12.3794 14.0884 12.3794C14.3359 12.3794 14.5578 12.4249 14.7543 12.5158C14.9544 12.6032 15.12 12.7269 15.251 12.887C15.382 13.0471 15.4675 13.2381 15.5075 13.4601L14.9672 13.5801L14.9071 13.5692C14.8635 13.38 14.7689 13.2327 14.6233 13.1271C14.4778 13.0216 14.2977 12.9688 14.083 12.9688C13.8865 12.9688 13.73 13.0162 13.6136 13.1108C13.4972 13.2017 13.4389 13.32 13.4389 13.4655C13.4389 13.5856 13.4808 13.6875 13.5645 13.7712C13.6518 13.8549 13.7792 13.9185 13.9465 13.9622L14.6342 14.1423C14.9508 14.226 15.191 14.3588 15.3547 14.5407C15.5221 14.719 15.6058 14.941 15.6058 15.2066C15.6058 15.4395 15.5475 15.6433 15.4311 15.8179C15.3147 15.9889 15.1491 16.1236 14.9344 16.2218C14.7234 16.3164 14.476 16.3637 14.1921 16.3637Z" fill="white"/>
<path d="M9.90234 16.2818V12.4613H10.53V16.2818H9.90234ZM10.2244 16.2818V15.6815H12.3748V16.2818H10.2244Z" fill="white"/>
<path d="M8.80852 16.2818L6.46705 12.5049V12.4613H7.17659L9.51806 16.2382V16.2818H8.80852ZM6.3961 16.2818V16.2382L7.72239 14.0987L8.09353 14.6499L7.08926 16.2818H6.3961ZM8.15357 14.6663L7.78788 14.115L8.75395 12.4613H9.44711V12.5049L8.15357 14.6663Z" fill="white"/>
<path d="M5.70954 16.331C5.5931 16.331 5.49304 16.2909 5.40935 16.2109C5.3293 16.1308 5.28928 16.0326 5.28928 15.9162C5.28928 15.8034 5.3293 15.7069 5.40935 15.6269C5.49304 15.5468 5.5931 15.5068 5.70954 15.5068C5.82234 15.5068 5.91876 15.5468 5.99881 15.6269C6.07886 15.7069 6.11889 15.8034 6.11889 15.9162C6.11889 16.0326 6.07886 16.1308 5.99881 16.2109C5.91876 16.2909 5.82234 16.331 5.70954 16.331Z" fill="white"/>
<defs>
<linearGradient id="paint0_linear_1078_25140" x1="10.1674" y1="0.52953" x2="10.1674" y2="23.885" gradientUnits="userSpaceOnUse">
<stop stop-color="white"/>
<stop offset="0.4837" stop-color="#FDFDFD"/>
<stop offset="0.7117" stop-color="#F5F6F6"/>
<stop offset="0.8856" stop-color="#E9E9EA"/>
<stop offset="1" stop-color="#DBDCDD"/>
</linearGradient>
<linearGradient id="paint1_linear_1078_25140" x1="15.3492" y1="4.33118" x2="13.2991" y2="6.38131" gradientUnits="userSpaceOnUse">
<stop stop-color="white"/>
<stop offset="0.3511" stop-color="#F2F3F3"/>
<stop offset="0.998" stop-color="#D0D2D3"/>
<stop offset="1" stop-color="#D0D2D3"/>
</linearGradient>
<radialGradient id="paint2_radial_1078_25140" cx="0" cy="0" r="1" gradientUnits="userSpaceOnUse" gradientTransform="translate(15.4179 4.05731) scale(3.74661 3.74662)">
<stop stop-color="white"/>
<stop offset="0.486" stop-color="#FDFDFD"/>
<stop offset="0.661" stop-color="#F6F7F7"/>
<stop offset="0.7858" stop-color="#EBEBEC"/>
<stop offset="0.8866" stop-color="#DADBDC"/>
<stop offset="0.972" stop-color="#C4C6C7"/>
<stop offset="1" stop-color="#BBBDBF"/>
</radialGradient>
</defs>
</svg>
