<svg width="14" height="10" viewBox="0 0 14 10" fill="none" xmlns="http://www.w3.org/2000/svg">
<path d="M6.32411 9.26749C6.11045 9.26749 5.93128 9.19533 5.78661 9.05099C5.64206 8.90655 5.56978 8.7276 5.56978 8.51416C5.56978 8.30072 5.64295 8.12077 5.78928 7.97433C5.93573 7.82799 6.11534 7.75483 6.32811 7.75483H7.67345C7.88711 7.75483 8.06628 7.82799 8.21095 7.97433C8.3555 8.12077 8.42778 8.30072 8.42778 8.51416C8.42778 8.7276 8.35461 8.90655 8.20828 9.05099C8.06184 9.19533 7.88223 9.26749 7.66945 9.26749H6.32411ZM3.63361 5.75483C3.41984 5.75483 3.24067 5.68266 3.09611 5.53833C2.95156 5.39388 2.87928 5.21494 2.87928 5.00149C2.87928 4.78805 2.95156 4.6081 3.09611 4.46166C3.24067 4.31533 3.41984 4.24216 3.63361 4.24216H10.3599C10.5737 4.24216 10.7529 4.31533 10.8974 4.46166C11.042 4.6081 11.1143 4.78805 11.1143 5.00149C11.1143 5.21494 11.042 5.39388 10.8974 5.53833C10.7529 5.68266 10.5737 5.75483 10.3599 5.75483H3.63361ZM1.61761 2.24216C1.40384 2.24216 1.22467 2.16994 1.08011 2.02549C0.935559 1.88116 0.863281 1.70227 0.863281 1.48883C0.863281 1.27538 0.936448 1.09544 1.08278 0.948992C1.22923 0.802659 1.40884 0.729492 1.62161 0.729492H12.3799C12.5937 0.729492 12.7729 0.802659 12.9174 0.948992C13.062 1.09544 13.1343 1.27538 13.1343 1.48883C13.1343 1.70227 13.0611 1.88116 12.9148 2.02549C12.7683 2.16994 12.5887 2.24216 12.3759 2.24216H1.61761Z" fill="white"/>
</svg>
