<svg width="20" height="20" viewBox="0 0 20 20" fill="none" xmlns="http://www.w3.org/2000/svg">
<path d="M19.6 10.2271C19.6 9.518 19.5364 8.83619 19.4182 8.18164H10V12.0498H15.3818C15.15 13.2998 14.4455 14.3589 13.3864 15.068V17.5771H16.6182C18.5091 15.8362 19.6 13.2725 19.6 10.2271Z" fill="#4285F4"/>
<path d="M9.99984 20.0004C12.6998 20.0004 14.9635 19.1049 16.618 17.5777L13.3862 15.0686C12.4907 15.6686 11.3453 16.0231 9.99984 16.0231C7.39529 16.0231 5.19075 14.264 4.40439 11.9004H1.06348V14.4913C2.70893 17.7595 6.09075 20.0004 9.99984 20.0004Z" fill="#34A853"/>
<path d="M4.40455 11.9006C4.20455 11.3006 4.09091 10.6596 4.09091 10.0006C4.09091 9.34146 4.20455 8.70055 4.40455 8.10055V5.50964H1.06364C0.363636 6.90315 -0.000616932 8.44111 7.84351e-07 10.0006C7.84351e-07 11.6142 0.386364 13.1415 1.06364 14.4915L4.40455 11.9006Z" fill="#FBBC05"/>
<path d="M9.99984 3.97727C11.468 3.97727 12.7862 4.48182 13.8226 5.47273L16.6907 2.60455C14.9589 0.990909 12.6953 0 9.99984 0C6.09075 0 2.70893 2.24091 1.06348 5.50909L4.40439 8.1C5.19075 5.73636 7.39529 3.97727 9.99984 3.97727Z" fill="#EA4335"/>
</svg>
