<svg width="18" height="18" viewBox="0 0 18 18" fill="none" xmlns="http://www.w3.org/2000/svg">
<path d="M16.2526 5.21206C15.7726 3.58456 14.4151 2.22706 12.7876 1.74706C11.5501 1.38706 10.6951 1.41706 10.1026 1.85956C9.39012 2.39206 9.30762 3.35206 9.30762 4.03456V5.90206C9.30762 7.74706 10.1476 8.68456 11.7976 8.68456H13.9501C14.6251 8.68456 15.5926 8.60206 16.1251 7.88956C16.5826 7.30456 16.6201 6.44956 16.2526 5.21206Z" fill="#DADAE1"/>
<path d="M14.1825 10.0199C13.9875 9.79487 13.7025 9.66737 13.41 9.66737H10.725C9.40505 9.66737 8.33255 8.59487 8.33255 7.27487V4.58987C8.33255 4.29737 8.20505 4.01237 7.98005 3.81737C7.76255 3.62237 7.46255 3.53237 7.17755 3.56987C5.41505 3.79487 3.79505 4.76237 2.73755 6.21737C1.67255 7.67987 1.28255 9.46487 1.62005 11.2499C2.10755 13.8299 4.17005 15.8924 6.75755 16.3799C7.17005 16.4624 7.58255 16.4999 7.99505 16.4999C9.35255 16.4999 10.665 16.0799 11.7825 15.2624C13.2375 14.2049 14.205 12.5849 14.43 10.8224C14.4675 10.5299 14.3775 10.2374 14.1825 10.0199Z" fill="#DADAE1"/>
</svg>
