<svg width="20" height="24" viewBox="0 0 20 24" fill="none" xmlns="http://www.w3.org/2000/svg">
<path d="M0.929312 0.000734329C0.575225 0.000734329 0.285721 0.290007 0.285721 0.644549V23.3555C0.285721 23.71 0.575225 23.9993 0.929312 23.9993H19.0823C19.4371 23.9993 19.7266 23.7098 19.7266 23.3555V7.79155C19.7266 7.43701 19.5219 6.94261 19.2718 6.69222L13.0351 0.456021C12.7845 0.205181 12.2901 0.000734329 11.9358 0.000734329H0.929312Z" fill="#898B94"/>
<path d="M1.46658 0.429411C1.11181 0.429411 0.822311 0.719594 0.822311 1.07323V23.141C0.822311 23.4949 1.11181 23.785 1.46658 23.785H18.8687C19.2223 23.785 19.5125 23.4951 19.5125 23.141V7.89844C19.5125 7.54458 19.3071 7.04995 19.057 6.79888L13.1424 0.884926C12.8917 0.634768 12.3976 0.429411 12.0432 0.429411H1.46658Z" fill="url(#paint0_linear_1078_25297)"/>
<path d="M13.0316 2.13937V5.35776C13.0316 6.03592 13.5824 6.58581 14.2592 6.58581H17.604L13.0316 2.13937Z" fill="url(#paint1_linear_1078_25297)"/>
<path d="M12.7791 6.11073L12.4827 0.814211L12.0275 6.86211C12.0275 7.21597 12.317 7.50593 12.6717 7.50593H18.5302L13.4227 6.75455C13.0688 6.75477 12.7791 6.46459 12.7791 6.11073Z" fill="url(#paint2_radial_1078_25297)"/>
<path d="M19.5507 17.558C19.5507 17.8662 19.2907 18.1184 18.9733 18.1184H1.43788C1.12041 18.1184 0.860474 17.8664 0.860474 17.558V11.0226C0.860474 10.7144 1.12041 10.4624 1.43788 10.4624H18.9733C19.2907 10.4624 19.5507 10.7144 19.5507 11.0226V17.558Z" fill="#46517F"/>
<path d="M13.3198 16.3637C12.9705 16.3637 12.6594 16.2818 12.3865 16.1181C12.1173 15.9507 11.9062 15.7179 11.7534 15.4195C11.6006 15.1175 11.5242 14.7682 11.5242 14.3716C11.5242 13.9713 11.6006 13.622 11.7534 13.3236C11.9099 13.0252 12.1245 12.7942 12.3974 12.6305C12.674 12.4631 12.9905 12.3794 13.3471 12.3794C13.7183 12.3794 14.0439 12.474 14.3241 12.6632C14.6043 12.8524 14.8117 13.1126 14.9463 13.4437L14.4005 13.602L14.3405 13.5911C14.2422 13.3946 14.1076 13.2436 13.9366 13.138C13.7656 13.0325 13.5709 12.9798 13.3526 12.9798C13.1234 12.9798 12.9178 13.0362 12.7358 13.149C12.5539 13.2618 12.412 13.4219 12.3101 13.6293C12.2082 13.8367 12.1573 14.0823 12.1573 14.3661C12.1573 14.6499 12.2101 14.8973 12.3156 15.1084C12.4211 15.3158 12.5666 15.4777 12.7522 15.5941C12.9378 15.7069 13.1488 15.7633 13.3853 15.7633C13.5673 15.7633 13.7401 15.7215 13.9039 15.6378C14.0712 15.5505 14.2059 15.4286 14.3077 15.2721C14.4096 15.112 14.4606 14.9264 14.4606 14.7154V14.6117L14.6789 14.7372H13.4126V14.1423H14.9845L15.0609 14.2187V16.2818H14.4879V15.4631H14.7007C14.6061 15.6669 14.486 15.8361 14.3405 15.9707C14.1986 16.1054 14.0385 16.2054 13.8602 16.2709C13.6855 16.3328 13.5054 16.3637 13.3198 16.3637Z" fill="white"/>
<path d="M8.55161 16.2818L8.55707 16.1672L10.1399 12.4613H10.7457V12.5759L9.16291 16.2818H8.55161ZM6.82689 16.2818V12.4613H7.45456V16.2818H6.82689ZM8.55707 16.2818L6.9688 12.5759V12.4613H7.58009L9.16291 16.1672V16.2818H8.55707ZM10.26 16.2818V12.4613H10.8876V16.2818H10.26Z" fill="white"/>
<path d="M5.39844 16.2818V12.4613H6.02611V16.2818H5.39844Z" fill="white"/>
<defs>
<linearGradient id="paint0_linear_1078_25297" x1="10.1674" y1="0.52953" x2="10.1674" y2="23.885" gradientUnits="userSpaceOnUse">
<stop stop-color="white"/>
<stop offset="0.4837" stop-color="#FDFDFD"/>
<stop offset="0.7117" stop-color="#F5F6F6"/>
<stop offset="0.8856" stop-color="#E9E9EA"/>
<stop offset="1" stop-color="#DBDCDD"/>
</linearGradient>
<linearGradient id="paint1_linear_1078_25297" x1="15.3492" y1="4.33118" x2="13.2991" y2="6.38131" gradientUnits="userSpaceOnUse">
<stop stop-color="white"/>
<stop offset="0.3511" stop-color="#F2F3F3"/>
<stop offset="0.998" stop-color="#D0D2D3"/>
<stop offset="1" stop-color="#D0D2D3"/>
</linearGradient>
<radialGradient id="paint2_radial_1078_25297" cx="0" cy="0" r="1" gradientUnits="userSpaceOnUse" gradientTransform="translate(15.4179 4.05731) scale(3.74661 3.74662)">
<stop stop-color="white"/>
<stop offset="0.486" stop-color="#FDFDFD"/>
<stop offset="0.661" stop-color="#F6F7F7"/>
<stop offset="0.7858" stop-color="#EBEBEC"/>
<stop offset="0.8866" stop-color="#DADBDC"/>
<stop offset="0.972" stop-color="#C4C6C7"/>
<stop offset="1" stop-color="#BBBDBF"/>
</radialGradient>
</defs>
</svg>
