<svg width="34" height="34" viewBox="0 0 34 34" fill="none" xmlns="http://www.w3.org/2000/svg">
<rect x="0.5" y="0.5" width="33" height="33" rx="4.35714" fill="#1B1A25"/>
<rect x="0.5" y="0.5" width="33" height="33" rx="4.35714" stroke="#3A3948"/>
<path d="M7.92931 5.00073C7.57523 5.00073 7.28572 5.29001 7.28572 5.64455V28.3555C7.28572 28.71 7.57523 28.9993 7.92931 28.9993H26.0823C26.4371 28.9993 26.7266 28.7098 26.7266 28.3555V12.7916C26.7266 12.437 26.5219 11.9426 26.2718 11.6922L20.0351 5.45602C19.7845 5.20518 19.2901 5.00073 18.9358 5.00073H7.92931Z" fill="#898B94"/>
<path d="M8.46658 5.42941C8.11181 5.42941 7.82231 5.71959 7.82231 6.07323V28.141C7.82231 28.4949 8.11181 28.785 8.46658 28.785H25.8687C26.2223 28.785 26.5125 28.4951 26.5125 28.141V12.8984C26.5125 12.5446 26.3071 12.0499 26.057 11.7989L20.1424 5.88493C19.8917 5.63477 19.3976 5.42941 19.0432 5.42941H8.46658Z" fill="url(#paint0_linear_999_11456)"/>
<path d="M20.0316 7.13937V10.3578C20.0316 11.0359 20.5824 11.5858 21.2592 11.5858H24.604L20.0316 7.13937Z" fill="url(#paint1_linear_999_11456)"/>
<path d="M19.7791 11.1107L19.4827 5.81421L19.0275 11.8621C19.0275 12.216 19.317 12.5059 19.6717 12.5059H25.5302L20.4227 11.7545C20.0688 11.7548 19.7791 11.4646 19.7791 11.1107Z" fill="url(#paint2_radial_999_11456)"/>
<path d="M26.5507 22.558C26.5507 22.8662 26.2907 23.1184 25.9733 23.1184H8.43788C8.12041 23.1184 7.86047 22.8664 7.86047 22.558V16.0226C7.86047 15.7144 8.12041 15.4624 8.43788 15.4624H25.9733C26.2907 15.4624 26.5507 15.7144 26.5507 16.0226V22.558Z" fill="#46517F"/>
<path d="M20.3198 21.3637C19.9705 21.3637 19.6594 21.2818 19.3865 21.1181C19.1173 20.9507 18.9062 20.7179 18.7534 20.4195C18.6006 20.1175 18.5242 19.7682 18.5242 19.3716C18.5242 18.9713 18.6006 18.622 18.7534 18.3236C18.9099 18.0252 19.1245 17.7942 19.3974 17.6305C19.674 17.4631 19.9905 17.3794 20.3471 17.3794C20.7183 17.3794 21.0439 17.474 21.3241 17.6632C21.6043 17.8524 21.8117 18.1126 21.9463 18.4437L21.4005 18.602L21.3405 18.5911C21.2422 18.3946 21.1076 18.2436 20.9366 18.138C20.7656 18.0325 20.5709 17.9798 20.3526 17.9798C20.1234 17.9798 19.9178 18.0362 19.7358 18.149C19.5539 18.2618 19.412 18.4219 19.3101 18.6293C19.2082 18.8367 19.1573 19.0823 19.1573 19.3661C19.1573 19.6499 19.2101 19.8973 19.3156 20.1084C19.4211 20.3158 19.5666 20.4777 19.7522 20.5941C19.9378 20.7069 20.1488 20.7633 20.3853 20.7633C20.5673 20.7633 20.7401 20.7215 20.9039 20.6378C21.0712 20.5505 21.2059 20.4286 21.3077 20.2721C21.4096 20.112 21.4606 19.9264 21.4606 19.7154V19.6117L21.6789 19.7372H20.4126V19.1423H21.9845L22.0609 19.2187V21.2818H21.4879V20.4631H21.7007C21.6061 20.6669 21.486 20.8361 21.3405 20.9707C21.1986 21.1054 21.0385 21.2054 20.8602 21.2709C20.6855 21.3328 20.5054 21.3637 20.3198 21.3637Z" fill="white"/>
<path d="M15.5516 21.2818L15.5571 21.1672L17.1399 17.4613H17.7457V17.5759L16.1629 21.2818H15.5516ZM13.8269 21.2818V17.4613H14.4546V21.2818H13.8269ZM15.5571 21.2818L13.9688 17.5759V17.4613H14.5801L16.1629 21.1672V21.2818H15.5571ZM17.26 21.2818V17.4613H17.8876V21.2818H17.26Z" fill="white"/>
<path d="M12.3984 21.2818V17.4613H13.0261V21.2818H12.3984Z" fill="white"/>
<defs>
<linearGradient id="paint0_linear_999_11456" x1="17.1674" y1="5.52953" x2="17.1674" y2="28.885" gradientUnits="userSpaceOnUse">
<stop stop-color="white"/>
<stop offset="0.4837" stop-color="#FDFDFD"/>
<stop offset="0.7117" stop-color="#F5F6F6"/>
<stop offset="0.8856" stop-color="#E9E9EA"/>
<stop offset="1" stop-color="#DBDCDD"/>
</linearGradient>
<linearGradient id="paint1_linear_999_11456" x1="22.3492" y1="9.33118" x2="20.2991" y2="11.3813" gradientUnits="userSpaceOnUse">
<stop stop-color="white"/>
<stop offset="0.3511" stop-color="#F2F3F3"/>
<stop offset="0.998" stop-color="#D0D2D3"/>
<stop offset="1" stop-color="#D0D2D3"/>
</linearGradient>
<radialGradient id="paint2_radial_999_11456" cx="0" cy="0" r="1" gradientUnits="userSpaceOnUse" gradientTransform="translate(22.4179 9.05731) scale(3.74661 3.74662)">
<stop stop-color="white"/>
<stop offset="0.486" stop-color="#FDFDFD"/>
<stop offset="0.661" stop-color="#F6F7F7"/>
<stop offset="0.7858" stop-color="#EBEBEC"/>
<stop offset="0.8866" stop-color="#DADBDC"/>
<stop offset="0.972" stop-color="#C4C6C7"/>
<stop offset="1" stop-color="#BBBDBF"/>
</radialGradient>
</defs>
</svg>
