<svg width="20" height="20" viewBox="0 0 20 20" fill="none" xmlns="http://www.w3.org/2000/svg">
<path d="M14.0001 7.5H10.6251V11.2L12.3501 9.475C12.4751 9.35 12.6334 9.29167 12.7917 9.29167C12.9501 9.29167 13.1084 9.35 13.2334 9.475C13.4751 9.71667 13.4751 10.1167 13.2334 10.3583L10.4417 13.15C10.2001 13.3917 9.80008 13.3917 9.55842 13.15L6.76675 10.3583C6.52508 10.1167 6.52508 9.71667 6.76675 9.475C7.00841 9.23333 7.40842 9.23333 7.65008 9.475L9.37508 11.2V7.5H6.00008C3.33341 7.5 1.66675 9.16667 1.66675 11.8333V13.9917C1.66675 16.6667 3.33341 18.3333 6.00008 18.3333H13.9917C16.6584 18.3333 18.3251 16.6667 18.3251 14V11.8333C18.3334 9.16667 16.6667 7.5 14.0001 7.5Z" fill="#898B94"/>
<path d="M10.625 2.29199C10.625 1.95033 10.3417 1.66699 10 1.66699C9.65833 1.66699 9.375 1.95033 9.375 2.29199V7.50033H10.625V2.29199Z" fill="#898B94"/>
</svg>
