<svg width="18" height="18" viewBox="0 0 18 18" fill="none" xmlns="http://www.w3.org/2000/svg">
<path d="M9 0L10.8943 4.4268L15.364 2.63604L13.5732 7.10572L18 9L13.5732 10.8943L15.364 15.364L10.8943 13.5732L9 18L7.10572 13.5732L2.63604 15.364L4.4268 10.8943L0 9L4.4268 7.10572L2.63604 2.63604L7.10572 4.4268L9 0Z" fill="white"/>
<path d="M9.98069 5.72754H8.38623V9.71369H9.98069V5.72754Z" fill="#1B1A25"/>
<path d="M9.98069 5.72754H8.38623V9.71369H9.98069V5.72754Z" fill="#933CF5"/>
<path d="M9.18346 12.1057C9.62376 12.1057 9.98069 11.7488 9.98069 11.3085C9.98069 10.8682 9.62376 10.5112 9.18346 10.5112C8.74316 10.5112 8.38623 10.8682 8.38623 11.3085C8.38623 11.7488 8.74316 12.1057 9.18346 12.1057Z" fill="#1B1A25"/>
<path d="M9.18346 12.1057C9.62376 12.1057 9.98069 11.7488 9.98069 11.3085C9.98069 10.8682 9.62376 10.5112 9.18346 10.5112C8.74316 10.5112 8.38623 10.8682 8.38623 11.3085C8.38623 11.7488 8.74316 12.1057 9.18346 12.1057Z" fill="#933CF5"/>
</svg>
