<svg width="20" height="20" viewBox="0 0 20 20" fill="none" xmlns="http://www.w3.org/2000/svg">
<mask id="mask0_3067_31315" style="mask-type:alpha" maskUnits="userSpaceOnUse" x="0" y="0" width="20" height="20">
<rect width="20" height="20" fill="#D9D9D9"/>
</mask>
<g mask="url(#mask0_3067_31315)">
<path d="M10.6943 10.2008V7.36039C10.6943 7.16372 10.6276 6.99879 10.4941 6.8656C10.3605 6.73254 10.195 6.66602 9.99746 6.66602C9.8001 6.66602 9.63545 6.73254 9.5035 6.8656C9.37156 6.99879 9.30559 7.16372 9.30559 7.36039V10.4925C9.30559 10.5809 9.32177 10.6667 9.35413 10.7498C9.38649 10.8328 9.43975 10.9114 9.51392 10.9854L11.7568 13.2285C11.8964 13.3674 12.0621 13.4369 12.2539 13.4369C12.4457 13.4369 12.6129 13.3682 12.7554 13.2308C12.8861 13.0933 12.9514 12.9301 12.9514 12.7412C12.9514 12.5522 12.8843 12.3905 12.75 12.2562L10.6943 10.2008ZM10.0025 4.86039C10.1998 4.86039 10.3645 4.79386 10.4964 4.66081C10.6284 4.52775 10.6943 4.36282 10.6943 4.16602V3.74935C10.6943 3.55254 10.6276 3.38761 10.4941 3.25456C10.3605 3.1215 10.195 3.05497 9.99746 3.05497C9.8001 3.05497 9.63545 3.1215 9.5035 3.25456C9.37156 3.38761 9.30559 3.55254 9.30559 3.74935V4.16602C9.30559 4.36282 9.37232 4.52775 9.50579 4.66081C9.6394 4.79386 9.80496 4.86039 10.0025 4.86039ZM15.1389 10.0019C15.1389 10.1992 15.2054 10.3639 15.3385 10.4958C15.4716 10.6278 15.6365 10.6937 15.8333 10.6937H16.25C16.4468 10.6937 16.6117 10.627 16.7448 10.4935C16.8778 10.3599 16.9443 10.1944 16.9443 9.99685C16.9443 9.79949 16.8778 9.63484 16.7448 9.50289C16.6117 9.37095 16.4468 9.30497 16.25 9.30497H15.8333C15.6365 9.30497 15.4716 9.37171 15.3385 9.50518C15.2054 9.63879 15.1389 9.80435 15.1389 10.0019ZM9.99746 15.1383C9.8001 15.1383 9.63545 15.2048 9.5035 15.3379C9.37156 15.4709 9.30559 15.6359 9.30559 15.8327V16.2494C9.30559 16.4462 9.37232 16.6111 9.50579 16.7441C9.6394 16.8772 9.80496 16.9437 10.0025 16.9437C10.1998 16.9437 10.3645 16.8772 10.4964 16.7441C10.6284 16.6111 10.6943 16.4462 10.6943 16.2494V15.8327C10.6943 15.6359 10.6276 15.4709 10.4941 15.3379C10.3605 15.2048 10.195 15.1383 9.99746 15.1383ZM4.861 9.99685C4.861 9.79949 4.79447 9.63484 4.66142 9.50289C4.52836 9.37095 4.36343 9.30497 4.16663 9.30497H3.74996C3.55315 9.30497 3.38822 9.37171 3.25517 9.50518C3.12211 9.63879 3.05558 9.80435 3.05558 10.0019C3.05558 10.1992 3.12211 10.3639 3.25517 10.4958C3.38822 10.6278 3.55315 10.6937 3.74996 10.6937H4.16663C4.36343 10.6937 4.52836 10.627 4.66142 10.4935C4.79447 10.3599 4.861 10.1944 4.861 9.99685ZM10.0037 18.3327C8.85329 18.3327 7.77225 18.1139 6.76059 17.6764C5.74892 17.2389 4.86572 16.6429 4.111 15.8883C3.35642 15.1336 2.76038 14.25 2.32288 13.2377C1.88538 12.2253 1.66663 11.1436 1.66663 9.99248C1.66663 8.84136 1.88538 7.75956 2.32288 6.74706C2.76038 5.7347 3.35642 4.85352 4.111 4.10352C4.86572 3.35352 5.74927 2.75977 6.76163 2.32227C7.77399 1.88477 8.85572 1.66602 10.0068 1.66602C11.1579 1.66602 12.2398 1.88477 13.2523 2.32227C14.2646 2.75977 15.1458 3.35352 15.8958 4.10352C16.6458 4.85352 17.2395 5.73546 17.677 6.74935C18.1145 7.76324 18.3333 8.84532 18.3333 9.9956C18.3333 11.146 18.1145 12.2271 17.677 13.2387C17.2395 14.2504 16.6458 15.1327 15.8958 15.8856C15.1458 16.6385 14.2639 17.2346 13.25 17.6739C12.2361 18.1131 11.154 18.3327 10.0037 18.3327Z" fill="#898B94"/>
</g>
</svg>
