<svg width="18" height="18" viewBox="0 0 18 18" fill="none" xmlns="http://www.w3.org/2000/svg">
<path d="M9 0L10.8943 4.4268L15.364 2.63604L13.5732 7.10572L18 9L13.5732 10.8943L15.364 15.364L10.8943 13.5732L9 18L7.10572 13.5732L2.63604 15.364L4.4268 10.8943L0 9L4.4268 7.10572L2.63604 2.63604L7.10572 4.4268L9 0Z" fill="#DADAE1"/>
<path d="M9 0L10.8943 4.4268L15.364 2.63604L13.5732 7.10572L18 9L13.5732 10.8943L15.364 15.364L10.8943 13.5732L9 18L7.10572 13.5732L2.63604 15.364L4.4268 10.8943L0 9L4.4268 7.10572L2.63604 2.63604L7.10572 4.4268L9 0Z" fill="#DADAE1"/>
<path d="M9.98069 5.72656H8.38623V9.71271H9.98069V5.72656Z" fill="#1B1A25"/>
<path d="M9.98069 5.72656H8.38623V9.71271H9.98069V5.72656Z" fill="#1B1A25"/>
<path d="M9.18346 12.1042C9.62376 12.1042 9.98069 11.7473 9.98069 11.307C9.98069 10.8667 9.62376 10.5098 9.18346 10.5098C8.74316 10.5098 8.38623 10.8667 8.38623 11.307C8.38623 11.7473 8.74316 12.1042 9.18346 12.1042Z" fill="#1B1A25"/>
<path d="M9.18346 12.1042C9.62376 12.1042 9.98069 11.7473 9.98069 11.307C9.98069 10.8667 9.62376 10.5098 9.18346 10.5098C8.74316 10.5098 8.38623 10.8667 8.38623 11.307C8.38623 11.7473 8.74316 12.1042 9.18346 12.1042Z" fill="#1B1A25"/>
</svg>
