<svg width="18" height="19" viewBox="0 0 18 19" fill="none" xmlns="http://www.w3.org/2000/svg">
<path d="M10.8945 4.92676L15.3643 3.13574L13.5732 7.60547L18 9.5L13.5732 11.3945L15.3643 15.8643L10.8945 14.0732L9 18.5L7.10547 14.0732L2.63574 15.8643L4.42676 11.3945L0 9.5L4.42676 7.60547L2.63574 3.13574L7.10547 4.92676L9 0.5L10.8945 4.92676ZM9.18359 11.0117C8.74349 11.012 8.38672 11.3684 8.38672 11.8086C8.38675 12.2487 8.74352 12.6052 9.18359 12.6055C9.62387 12.6055 9.98141 12.2489 9.98145 11.8086C9.98145 11.3683 9.62389 11.0117 9.18359 11.0117ZM8.38672 10.2139H9.98145V6.22754H8.38672V10.2139Z" fill="url(#paint0_linear_1_51676)"/>
<defs>
<linearGradient id="paint0_linear_1_51676" x1="0" y1="9.5" x2="18" y2="9.5" gradientUnits="userSpaceOnUse">
<stop stop-color="#2A1AD8"/>
<stop offset="0.25" stop-color="#4E26E2"/>
<stop offset="0.5" stop-color="#7231EC"/>
<stop offset="0.75" stop-color="#953DF5"/>
<stop offset="1" stop-color="#B948FF"/>
</linearGradient>
</defs>
</svg>
