<svg width="28" height="28" viewBox="0 0 28 28" fill="none" xmlns="http://www.w3.org/2000/svg">
<path d="M14 0L16.9467 6.88613L23.8995 4.1005L21.1139 11.0533L28 14L21.1139 16.9467L23.8995 23.8995L16.9467 21.1139L14 28L11.0533 21.1139L4.1005 23.8995L6.88613 16.9467L0 14L6.88613 11.0533L4.1005 4.1005L11.0533 6.88613L14 0Z" fill="#D9D9D9"/>
<path d="M14 0L16.9467 6.88613L23.8995 4.1005L21.1139 11.0533L28 14L21.1139 16.9467L23.8995 23.8995L16.9467 21.1139L14 28L11.0533 21.1139L4.1005 23.8995L6.88613 16.9467L0 14L6.88613 11.0533L4.1005 4.1005L11.0533 6.88613L14 0Z" fill="url(#paint0_linear_3030_16563)"/>
<g filter="url(#filter0_dddddi_3030_16563)">
<path d="M15.5257 8.91001H13.0454V15.1107H15.5257V8.91001Z" fill="#11101B"/>
<path d="M15.5257 8.91001H13.0454V15.1107H15.5257V8.91001Z" fill="url(#paint1_linear_3030_16563)"/>
<path d="M14.2855 18.8317C14.9705 18.8317 15.5257 18.2765 15.5257 17.5916C15.5257 16.9066 14.9705 16.3514 14.2855 16.3514C13.6006 16.3514 13.0454 16.9066 13.0454 17.5916C13.0454 18.2765 13.6006 18.8317 14.2855 18.8317Z" fill="#11101B"/>
<path d="M14.2855 18.8317C14.9705 18.8317 15.5257 18.2765 15.5257 17.5916C15.5257 16.9066 14.9705 16.3514 14.2855 16.3514C13.6006 16.3514 13.0454 16.9066 13.0454 17.5916C13.0454 18.2765 13.6006 18.8317 14.2855 18.8317Z" fill="url(#paint2_linear_3030_16563)"/>
</g>
<defs>
<filter id="filter0_dddddi_3030_16563" x="12.065" y="8.8346" width="3.76254" height="11.43" filterUnits="userSpaceOnUse" color-interpolation-filters="sRGB">
<feFlood flood-opacity="0" result="BackgroundImageFix"/>
<feColorMatrix in="SourceAlpha" type="matrix" values="0 0 0 0 0 0 0 0 0 0 0 0 0 0 0 0 0 0 127 0" result="hardAlpha"/>
<feOffset dx="-0.0754158" dy="0.150832"/>
<feGaussianBlur stdDeviation="0.113124"/>
<feColorMatrix type="matrix" values="0 0 0 0 0 0 0 0 0 0 0 0 0 0 0 0 0 0 0.33 0"/>
<feBlend mode="normal" in2="BackgroundImageFix" result="effect1_dropShadow_3030_16563"/>
<feColorMatrix in="SourceAlpha" type="matrix" values="0 0 0 0 0 0 0 0 0 0 0 0 0 0 0 0 0 0 127 0" result="hardAlpha"/>
<feOffset dx="-0.226247" dy="0.377079"/>
<feGaussianBlur stdDeviation="0.150832"/>
<feColorMatrix type="matrix" values="0 0 0 0 0 0 0 0 0 0 0 0 0 0 0 0 0 0 0.19 0"/>
<feBlend mode="normal" in2="effect1_dropShadow_3030_16563" result="effect2_dropShadow_3030_16563"/>
<feColorMatrix in="SourceAlpha" type="matrix" values="0 0 0 0 0 0 0 0 0 0 0 0 0 0 0 0 0 0 127 0" result="hardAlpha"/>
<feOffset dx="-0.377079" dy="0.678742"/>
<feGaussianBlur stdDeviation="0.150832"/>
<feColorMatrix type="matrix" values="0 0 0 0 0 0 0 0 0 0 0 0 0 0 0 0 0 0 0.06 0"/>
<feBlend mode="normal" in2="effect2_dropShadow_3030_16563" result="effect3_dropShadow_3030_16563"/>
<feColorMatrix in="SourceAlpha" type="matrix" values="0 0 0 0 0 0 0 0 0 0 0 0 0 0 0 0 0 0 127 0" result="hardAlpha"/>
<feOffset dx="-0.603327" dy="1.05582"/>
<feGaussianBlur stdDeviation="0.18854"/>
<feColorMatrix type="matrix" values="0 0 0 0 0 0 0 0 0 0 0 0 0 0 0 0 0 0 0.01 0"/>
<feBlend mode="normal" in2="effect3_dropShadow_3030_16563" result="effect4_dropShadow_3030_16563"/>
<feColorMatrix in="SourceAlpha" type="matrix" values="0 0 0 0 0 0 0 0 0 0 0 0 0 0 0 0 0 0 127 0" result="hardAlpha"/>
<feOffset dy="0.301663"/>
<feGaussianBlur stdDeviation="0.150832"/>
<feComposite in2="hardAlpha" operator="out"/>
<feColorMatrix type="matrix" values="0 0 0 0 0 0 0 0 0 0 0 0 0 0 0 0 0 0 0.25 0"/>
<feBlend mode="normal" in2="effect4_dropShadow_3030_16563" result="effect5_dropShadow_3030_16563"/>
<feBlend mode="normal" in="SourceGraphic" in2="effect5_dropShadow_3030_16563" result="shape"/>
<feColorMatrix in="SourceAlpha" type="matrix" values="0 0 0 0 0 0 0 0 0 0 0 0 0 0 0 0 0 0 127 0" result="hardAlpha"/>
<feOffset dy="0.0754158"/>
<feGaussianBlur stdDeviation="0.0980406"/>
<feComposite in2="hardAlpha" operator="arithmetic" k2="-1" k3="1"/>
<feColorMatrix type="matrix" values="0 0 0 0 0.72549 0 0 0 0 0.282353 0 0 0 0 1 0 0 0 1 0"/>
<feBlend mode="normal" in2="shape" result="effect6_innerShadow_3030_16563"/>
</filter>
<linearGradient id="paint0_linear_3030_16563" x1="0" y1="14" x2="28" y2="14" gradientUnits="userSpaceOnUse">
<stop stop-color="#2A1AD8"/>
<stop offset="0.25" stop-color="#4E26E2"/>
<stop offset="0.5" stop-color="#7231EC"/>
<stop offset="0.75" stop-color="#953DF5"/>
<stop offset="1" stop-color="#B948FF"/>
</linearGradient>
<linearGradient id="paint1_linear_3030_16563" x1="14.3577" y1="13.0095" x2="18.0935" y2="16.1538" gradientUnits="userSpaceOnUse">
<stop stop-color="#EAE8FB"/>
<stop offset="1" stop-color="#BDB8F3"/>
</linearGradient>
<linearGradient id="paint2_linear_3030_16563" x1="14.3577" y1="17.9912" x2="15.5336" y2="20.4655" gradientUnits="userSpaceOnUse">
<stop stop-color="#EAE8FB"/>
<stop offset="1" stop-color="#BDB8F3"/>
</linearGradient>
</defs>
</svg>
