<svg width="184" height="38" viewBox="0 0 184 38" fill="none" xmlns="http://www.w3.org/2000/svg">
<path d="M108.169 10.6431H104.792L104.833 27.1192H113.798V24.3561H108.169V10.6431Z" fill="white"/>
<path d="M63.0389 10.6431H59.4571L63.6529 18.7276L59.2524 27.0168H63.0389L65.5973 21.7977L68.1557 27.0168H71.7374L67.4393 18.7276L71.6351 10.6431H67.951L65.4949 15.5552L63.0389 10.6431Z" fill="white"/>
<path d="M53.1122 13.3041V10.541H44.209V27.0171H53.1122V24.3564H47.4837V20.0583H51.2702V17.4999H47.4837V13.3041H53.1122Z" fill="white"/>
<path d="M129.455 13.3041V10.541H120.552V27.0171H129.455V24.3564H123.827V20.0583H127.613V17.4999H123.827V13.3041H129.455Z" fill="white"/>
<path d="M144.703 13.4063L145.113 10.8479C139.218 9.53798 136.823 11.4621 136.312 12.6899C135.084 15.1462 135.971 17.4656 136.517 18.4208C137.417 19.7307 139.996 20.263 141.224 20.4675C141.572 20.5254 142.759 20.9792 142.964 22.3095C143.127 23.3738 142.486 23.9128 142.145 24.0492C139.771 24.8679 137.54 24.1175 136.721 23.6399L136.312 26.3006C137.622 27.0375 140.474 27.0852 141.736 27.017C146.034 26.3006 146.341 24.3565 146.238 21.1841C146.151 18.4838 142.691 17.4656 141.019 17.2951C139.218 16.8857 138.904 15.6236 138.973 15.0437C139.075 12.5876 142.725 12.9628 144.703 13.4063Z" fill="white"/>
<path fill-rule="evenodd" clip-rule="evenodd" d="M161.077 27.0168L164.863 10.6431H170.287L174.176 27.0168H171.003L170.185 23.3327H165.17L164.249 27.0168H161.077ZM167.627 13.2015L169.469 20.5697H165.784L167.627 13.2015Z" fill="white"/>
<path d="M87.4975 13.3041V10.541H78.5942V27.0171H81.869V24.3564V20.7746H86.3718V18.2162H81.869V13.3041H87.4975Z" fill="white"/>
<path fill-rule="evenodd" clip-rule="evenodd" d="M18.8298 36.4317C28.5511 36.4317 36.4317 28.5511 36.4317 18.8298C36.4317 9.10863 28.5511 1.22803 18.8298 1.22803C9.10863 1.22803 1.22803 9.10863 1.22803 18.8298C1.22803 28.5511 9.10863 36.4317 18.8298 36.4317ZM18.8298 37.6597C29.2293 37.6597 37.6597 29.2293 37.6597 18.8298C37.6597 8.43041 29.2293 0 18.8298 0C8.43041 0 0 8.43041 0 18.8298C0 29.2293 8.43041 37.6597 18.8298 37.6597Z" fill="white"/>
<path d="M9.00586 12.6895H10.2339V24.9699H9.00586V12.6895Z" fill="white"/>
<path d="M18.5231 12.4849L20.0425 12.486L28.754 24.9702H27.2566L18.5231 12.4849Z" fill="white"/>
<path d="M28.7539 12.4849L27.2345 12.486L18.523 24.9702H20.0205L28.7539 12.4849Z" fill="white"/>
<path d="M9.00586 19.3414V18.1133H16.5787V19.3414H9.00586Z" fill="white"/>
<path d="M9.00586 13.9176V12.6895H16.9881V13.9176H9.00586Z" fill="white"/>
<path d="M9.00586 24.9699V23.7418H16.9881V24.9699H9.00586Z" fill="white"/>
<rect x="94.1489" y="10.6431" width="3.47943" height="16.3738" fill="white"/>
<rect x="180.521" y="10.6431" width="3.47943" height="16.3738" fill="white"/>
</svg>
