<svg width="18" height="19" viewBox="0 0 18 19" fill="none" xmlns="http://www.w3.org/2000/svg">
<path d="M9.8925 5H5.0925C4.8975 5 4.71 5.0075 4.53 5.03C2.5125 5.2025 1.5 6.395 1.5 8.5925V11.5925C1.5 14.5925 2.7 15.185 5.0925 15.185H5.3925C5.5575 15.185 5.775 15.2975 5.8725 15.425L6.7725 16.625C7.17 17.1575 7.815 17.1575 8.2125 16.625L9.1125 15.425C9.225 15.275 9.405 15.185 9.5925 15.185H9.8925C12.09 15.185 13.2825 14.18 13.455 12.155C13.4775 11.975 13.485 11.7875 13.485 11.5925V8.5925C13.485 6.2 12.285 5 9.8925 5ZM4.875 11C4.455 11 4.125 10.6625 4.125 10.25C4.125 9.8375 4.4625 9.5 4.875 9.5C5.2875 9.5 5.625 9.8375 5.625 10.25C5.625 10.6625 5.2875 11 4.875 11ZM7.4925 11C7.0725 11 6.7425 10.6625 6.7425 10.25C6.7425 9.8375 7.08 9.5 7.4925 9.5C7.905 9.5 8.2425 9.8375 8.2425 10.25C8.2425 10.6625 7.9125 11 7.4925 11ZM10.1175 11C9.6975 11 9.3675 10.6625 9.3675 10.25C9.3675 9.8375 9.705 9.5 10.1175 9.5C10.53 9.5 10.8675 9.8375 10.8675 10.25C10.8675 10.6625 10.53 11 10.1175 11Z" fill="url(#paint0_linear_35_34331)"/>
<path d="M16.4852 5.5925V8.5925C16.4852 10.0925 16.0202 11.1125 15.0902 11.675C14.8652 11.81 14.6027 11.63 14.6027 11.3675L14.6102 8.5925C14.6102 5.5925 12.8927 3.875 9.89268 3.875L5.32518 3.8825C5.06268 3.8825 4.88268 3.62 5.01768 3.395C5.58018 2.465 6.60018 2 8.09268 2H12.8927C15.2852 2 16.4852 3.2 16.4852 5.5925Z" fill="url(#paint1_linear_35_34331)"/>
<defs>
<linearGradient id="paint0_linear_35_34331" x1="1.5" y1="11.0122" x2="13.485" y2="11.0122" gradientUnits="userSpaceOnUse">
<stop stop-color="#2A1AD8"/>
<stop offset="0.25" stop-color="#4E26E2"/>
<stop offset="0.5" stop-color="#7231EC"/>
<stop offset="0.75" stop-color="#953DF5"/>
<stop offset="1" stop-color="#B948FF"/>
</linearGradient>
<linearGradient id="paint1_linear_35_34331" x1="4.97168" y1="6.8605" x2="16.4852" y2="6.8605" gradientUnits="userSpaceOnUse">
<stop stop-color="#2A1AD8"/>
<stop offset="0.25" stop-color="#4E26E2"/>
<stop offset="0.5" stop-color="#7231EC"/>
<stop offset="0.75" stop-color="#953DF5"/>
<stop offset="1" stop-color="#B948FF"/>
</linearGradient>
</defs>
</svg>
