<svg width="20" height="20" viewBox="0 0 20 20" fill="none" xmlns="http://www.w3.org/2000/svg">
<mask id="mask0_3067_31310" style="mask-type:alpha" maskUnits="userSpaceOnUse" x="0" y="0" width="20" height="20">
<rect width="20" height="20" fill="#D9D9D9"/>
</mask>
<g mask="url(#mask0_3067_31310)">
<path d="M10 13.4716L8.47229 15.0133C8.33799 15.1475 8.1759 15.2146 7.98604 15.2146C7.79632 15.2146 7.63431 15.1475 7.5 15.0133C7.36569 14.879 7.29854 14.7146 7.29854 14.5202C7.29854 14.3257 7.36569 14.1614 7.5 14.0271L9.02771 12.4994L7.48604 10.9716C7.35187 10.8373 7.28479 10.6753 7.28479 10.4854C7.28479 10.2957 7.35187 10.1337 7.48604 9.99935C7.62035 9.86504 7.78472 9.79789 7.97917 9.79789C8.17361 9.79789 8.33799 9.86504 8.47229 9.99935L10 11.5271L11.5277 9.98539C11.662 9.85122 11.8241 9.78414 12.014 9.78414C12.2037 9.78414 12.3657 9.85122 12.5 9.98539C12.6343 10.1197 12.7015 10.2841 12.7015 10.4785C12.7015 10.673 12.6343 10.8373 12.5 10.9716L10.9723 12.4994L12.514 14.0271C12.6481 14.1614 12.7152 14.3234 12.7152 14.5133C12.7152 14.703 12.6481 14.865 12.514 14.9994C12.3797 15.1337 12.2153 15.2008 12.0208 15.2008C11.8264 15.2008 11.662 15.1337 11.5277 14.9994L10 13.4716ZM3.88896 18.3327C3.51396 18.3327 3.18868 18.195 2.91313 17.9196C2.63771 17.644 2.5 17.3187 2.5 16.9437V4.44372C2.5 4.06872 2.63771 3.74352 2.91313 3.4681C3.18868 3.19268 3.51396 3.05497 3.88896 3.05497H5.06938V2.38831C5.06938 2.17997 5.13771 2.00747 5.27437 1.87081C5.4109 1.73428 5.58333 1.66602 5.79167 1.66602C6 1.66602 6.17479 1.73428 6.31604 1.87081C6.45715 2.00747 6.52771 2.17997 6.52771 2.38831V3.05497H13.4723V2.38831C13.4723 2.17997 13.5406 2.00747 13.6771 1.87081C13.8136 1.73428 13.986 1.66602 14.1944 1.66602C14.4027 1.66602 14.5775 1.73428 14.7188 1.87081C14.86 2.00747 14.9306 2.17997 14.9306 2.38831V3.05497H16.111C16.486 3.05497 16.8113 3.19268 17.0869 3.4681C17.3623 3.74352 17.5 4.06872 17.5 4.44372V16.9437C17.5 17.3187 17.3623 17.644 17.0869 17.9196C16.8113 18.195 16.486 18.3327 16.111 18.3327H3.88896ZM3.88896 16.9437H16.111V8.19373H3.88896V16.9437Z" fill="#898B94"/>
</g>
</svg>
