<svg width="18" height="19" viewBox="0 0 18 19" fill="none" xmlns="http://www.w3.org/2000/svg">
<path d="M16.5002 4.78311V11.9681C16.5002 14.0381 14.8202 15.7181 12.7502 15.7181H5.25024C4.90524 15.7181 4.57524 15.6731 4.25274 15.5831C3.78774 15.4556 3.63774 14.8631 3.98274 14.5181L11.9552 6.54561C12.1202 6.38061 12.3677 6.34311 12.6002 6.38811C12.8402 6.43311 13.1027 6.36561 13.2902 6.18561L15.2177 4.25061C15.9227 3.54561 16.5002 3.77811 16.5002 4.78311Z" fill="url(#paint0_linear_35_32941)"/>
<path d="M10.98 6.02063L3.1275 13.8731C2.7675 14.2331 2.1675 14.1431 1.9275 13.6931C1.65 13.1831 1.5 12.5906 1.5 11.9681V4.78313C1.5 3.77813 2.0775 3.54563 2.7825 4.25063L4.7175 6.19313C5.01 6.47813 5.49 6.47813 5.7825 6.19313L8.4675 3.50062C8.76 3.20813 9.24 3.20813 9.5325 3.50062L10.9875 4.95563C11.2725 5.24813 11.2725 5.72813 10.98 6.02063Z" fill="url(#paint1_linear_35_32941)"/>
<defs>
<linearGradient id="paint0_linear_35_32941" x1="3.79395" y1="9.78093" x2="16.5002" y2="9.78093" gradientUnits="userSpaceOnUse">
<stop stop-color="#2A1AD8"/>
<stop offset="0.25" stop-color="#4E26E2"/>
<stop offset="0.5" stop-color="#7231EC"/>
<stop offset="0.75" stop-color="#953DF5"/>
<stop offset="1" stop-color="#B948FF"/>
</linearGradient>
<linearGradient id="paint1_linear_35_32941" x1="1.5" y1="8.68826" x2="11.2003" y2="8.68826" gradientUnits="userSpaceOnUse">
<stop stop-color="#2A1AD8"/>
<stop offset="0.25" stop-color="#4E26E2"/>
<stop offset="0.5" stop-color="#7231EC"/>
<stop offset="0.75" stop-color="#953DF5"/>
<stop offset="1" stop-color="#B948FF"/>
</linearGradient>
</defs>
</svg>
