<svg width="18" height="18" viewBox="0 0 18 18" fill="none" xmlns="http://www.w3.org/2000/svg">
<path d="M16.5 4.28311V11.4681C16.5 13.5381 14.82 15.2181 12.75 15.2181H5.24999C4.90499 15.2181 4.57499 15.1731 4.25249 15.0831C3.78749 14.9556 3.63749 14.3631 3.98249 14.0181L11.955 6.04561C12.12 5.88061 12.3675 5.84311 12.6 5.88811C12.84 5.93311 13.1025 5.86561 13.29 5.68561L15.2175 3.75061C15.9225 3.04561 16.5 3.27811 16.5 4.28311Z" fill="#DADAE1"/>
<path d="M10.98 5.51965L3.1275 13.3721C2.7675 13.7321 2.1675 13.6421 1.9275 13.1921C1.65 12.6821 1.5 12.0896 1.5 11.4671V4.28215C1.5 3.27715 2.0775 3.04465 2.7825 3.74965L4.7175 5.69215C5.01 5.97715 5.49 5.97715 5.7825 5.69215L8.4675 2.99965C8.76 2.70715 9.24 2.70715 9.5325 2.99965L10.9875 4.45465C11.2725 4.74715 11.2725 5.22715 10.98 5.51965Z" fill="#DADAE1"/>
</svg>
