<svg width="18" height="19" viewBox="0 0 18 19" fill="none" xmlns="http://www.w3.org/2000/svg">
<path d="M12 2H6C3.375 2 2.25 3.5 2.25 5.75V13.25C2.25 15.5 3.375 17 6 17H12C14.625 17 15.75 15.5 15.75 13.25V5.75C15.75 3.5 14.625 2 12 2ZM6 9.6875H9C9.3075 9.6875 9.5625 9.9425 9.5625 10.25C9.5625 10.5575 9.3075 10.8125 9 10.8125H6C5.6925 10.8125 5.4375 10.5575 5.4375 10.25C5.4375 9.9425 5.6925 9.6875 6 9.6875ZM12 13.8125H6C5.6925 13.8125 5.4375 13.5575 5.4375 13.25C5.4375 12.9425 5.6925 12.6875 6 12.6875H12C12.3075 12.6875 12.5625 12.9425 12.5625 13.25C12.5625 13.5575 12.3075 13.8125 12 13.8125ZM13.875 7.4375H12.375C11.235 7.4375 10.3125 6.515 10.3125 5.375V3.875C10.3125 3.5675 10.5675 3.3125 10.875 3.3125C11.1825 3.3125 11.4375 3.5675 11.4375 3.875V5.375C11.4375 5.8925 11.8575 6.3125 12.375 6.3125H13.875C14.1825 6.3125 14.4375 6.5675 14.4375 6.875C14.4375 7.1825 14.1825 7.4375 13.875 7.4375Z" fill="url(#paint0_linear_1_39337)"/>
<defs>
<linearGradient id="paint0_linear_1_39337" x1="2.25" y1="9.5" x2="15.75" y2="9.5" gradientUnits="userSpaceOnUse">
<stop stop-color="#2A1AD8"/>
<stop offset="0.25" stop-color="#4E26E2"/>
<stop offset="0.5" stop-color="#7231EC"/>
<stop offset="0.75" stop-color="#953DF5"/>
<stop offset="1" stop-color="#B948FF"/>
</linearGradient>
</defs>
</svg>
