<svg width="12" height="13" viewBox="0 0 12 13" fill="none" xmlns="http://www.w3.org/2000/svg">
<path d="M1.33333 12.5C0.966667 12.5 0.652778 12.3694 0.391667 12.1083C0.130556 11.8472 0 11.5333 0 11.1667V1.83333C0 1.46667 0.130556 1.15278 0.391667 0.891667C0.652778 0.630556 0.966667 0.5 1.33333 0.5H5.33333C5.52222 0.5 5.68056 0.563889 5.80833 0.691667C5.93611 0.819444 6 0.977778 6 1.16667C6 1.35556 5.93611 1.51389 5.80833 1.64167C5.68056 1.76944 5.52222 1.83333 5.33333 1.83333H1.33333V11.1667H10.6667V7.16667C10.6667 6.97778 10.7306 6.81944 10.8583 6.69167C10.9861 6.56389 11.1444 6.5 11.3333 6.5C11.5222 6.5 11.6806 6.56389 11.8083 6.69167C11.9361 6.81944 12 6.97778 12 7.16667V11.1667C12 11.5333 11.8694 11.8472 11.6083 12.1083C11.3472 12.3694 11.0333 12.5 10.6667 12.5H1.33333ZM10.6667 2.76667L4.93333 8.5C4.81111 8.62222 4.65556 8.68333 4.46667 8.68333C4.27778 8.68333 4.12222 8.62222 4 8.5C3.87778 8.37778 3.81667 8.22222 3.81667 8.03333C3.81667 7.84444 3.87778 7.68889 4 7.56667L9.73333 1.83333H8C7.81111 1.83333 7.65278 1.76944 7.525 1.64167C7.39722 1.51389 7.33333 1.35556 7.33333 1.16667C7.33333 0.977778 7.39722 0.819444 7.525 0.691667C7.65278 0.563889 7.81111 0.5 8 0.5H11.3333C11.5222 0.5 11.6806 0.563889 11.8083 0.691667C11.9361 0.819444 12 0.977778 12 1.16667V4.5C12 4.68889 11.9361 4.84722 11.8083 4.975C11.6806 5.10278 11.5222 5.16667 11.3333 5.16667C11.1444 5.16667 10.9861 5.10278 10.8583 4.975C10.7306 4.84722 10.6667 4.68889 10.6667 4.5V2.76667Z" fill="#DADAE1"/>
</svg>
