<svg width="20" height="20" viewBox="0 0 20 20" fill="none" xmlns="http://www.w3.org/2000/svg">
<mask id="mask0_3067_31448" style="mask-type:alpha" maskUnits="userSpaceOnUse" x="0" y="0" width="20" height="20">
<rect width="20" height="20" fill="#D9D9D9"/>
</mask>
<g mask="url(#mask0_3067_31448)">
<path d="M4.02763 15.8327C3.83096 15.8327 3.66603 15.7659 3.53284 15.6323C3.39978 15.4988 3.33325 15.3333 3.33325 15.1358C3.33325 14.9383 3.39978 14.7736 3.53284 14.6416C3.66603 14.5097 3.83096 14.4437 4.02763 14.4437H10.7776C10.9744 14.4437 11.1394 14.5105 11.2724 14.6441C11.4056 14.7778 11.4722 14.9432 11.4722 15.1406C11.4722 15.3381 11.4056 15.5028 11.2724 15.6348C11.1394 15.7667 10.9744 15.8327 10.7776 15.8327H4.02763ZM4.02763 12.4021C3.83096 12.4021 3.66603 12.3353 3.53284 12.2018C3.39978 12.0682 3.33325 11.9027 3.33325 11.7052C3.33325 11.5078 3.39978 11.3432 3.53284 11.2112C3.66603 11.0793 3.83096 11.0133 4.02763 11.0133H15.9722C16.1689 11.0133 16.3338 11.08 16.467 11.2135C16.6001 11.3471 16.6666 11.5127 16.6666 11.7102C16.6666 11.9075 16.6001 12.0722 16.467 12.2041C16.3338 12.3361 16.1689 12.4021 15.9722 12.4021H4.02763ZM4.02763 8.98539C3.83096 8.98539 3.66603 8.91865 3.53284 8.78518C3.39978 8.65157 3.33325 8.48602 3.33325 8.28852C3.33325 8.09116 3.39978 7.9265 3.53284 7.79456C3.66603 7.66261 3.83096 7.59664 4.02763 7.59664H15.9722C16.1689 7.59664 16.3338 7.66338 16.467 7.79685C16.6001 7.93046 16.6666 8.09602 16.6666 8.29352C16.6666 8.49088 16.6001 8.65553 16.467 8.78747C16.3338 8.91942 16.1689 8.98539 15.9722 8.98539H4.02763ZM4.02763 5.55497C3.83096 5.55497 3.66603 5.48817 3.53284 5.35456C3.39978 5.22095 3.33325 5.05546 3.33325 4.8581C3.33325 4.6606 3.39978 4.49588 3.53284 4.36393C3.66603 4.23199 3.83096 4.16602 4.02763 4.16602H15.9722C16.1689 4.16602 16.3338 4.23282 16.467 4.36643C16.6001 4.4999 16.6666 4.66539 16.6666 4.86289C16.6666 5.06039 16.6001 5.22511 16.467 5.35706C16.3338 5.489 16.1689 5.55497 15.9722 5.55497H4.02763Z" fill="#898B94"/>
</g>
</svg>
