<svg width="18" height="18" viewBox="0 0 18 18" fill="none" xmlns="http://www.w3.org/2000/svg">
<path d="M13.5 3H11.8125V2.0625C11.8125 1.755 11.5575 1.5 11.25 1.5C10.9425 1.5 10.6875 1.755 10.6875 2.0625V15.9375C10.6875 16.245 10.9425 16.5 11.25 16.5C11.5575 16.5 11.8125 16.245 11.8125 15.9375V15H13.5C15.1575 15 16.5 13.6575 16.5 12V6C16.5 4.3425 15.1575 3 13.5 3Z" fill="#DADAE1"/>
<path d="M4.875 3C3.2175 3 1.875 4.3425 1.875 6V12C1.875 13.6575 3.2175 15 4.875 15H8.625C9.0375 15 9.375 14.6625 9.375 14.25V3.75C9.375 3.3375 9.0375 3 8.625 3H4.875ZM5.0025 9.285C4.965 9.375 4.9125 9.4575 4.845 9.5325C4.77 9.6 4.6875 9.6525 4.5975 9.69C4.5075 9.7275 4.41 9.75 4.3125 9.75C4.215 9.75 4.1175 9.7275 4.0275 9.69C3.9375 9.6525 3.855 9.6 3.78 9.5325C3.7125 9.4575 3.66 9.375 3.615 9.285C3.5775 9.195 3.5625 9.0975 3.5625 9C3.5625 8.805 3.645 8.61 3.78 8.4675C3.8175 8.4375 3.855 8.4075 3.8925 8.3775C3.9375 8.3475 3.9825 8.325 4.0275 8.31C4.0725 8.2875 4.1175 8.2725 4.1625 8.265C4.4175 8.2125 4.6725 8.295 4.845 8.4675C4.98 8.61 5.0625 8.805 5.0625 9C5.0625 9.0975 5.04 9.195 5.0025 9.285ZM7.6275 9.285C7.59 9.375 7.5375 9.4575 7.47 9.5325C7.395 9.6 7.3125 9.6525 7.2225 9.69C7.1325 9.7275 7.035 9.75 6.9375 9.75C6.84 9.75 6.7425 9.7275 6.6525 9.69C6.5625 9.6525 6.48 9.6 6.405 9.5325C6.2625 9.39 6.1875 9.2025 6.1875 9C6.1875 8.9025 6.21 8.805 6.2475 8.715C6.285 8.6175 6.3375 8.5425 6.405 8.4675C6.6825 8.19 7.185 8.19 7.47 8.4675C7.605 8.61 7.6875 8.805 7.6875 9C7.6875 9.0975 7.665 9.195 7.6275 9.285Z" fill="#DADAE1"/>
</svg>
