<svg width="522" height="51" viewBox="0 0 522 51" fill="none" xmlns="http://www.w3.org/2000/svg">
<path d="M521 38.1338C520.536 38.1336 520.072 38.2941 519.697 38.6152L506.438 49.9814C506.255 50.1381 506.11 50.3137 506.001 50.5H505.332C505.223 50.3137 505.078 50.1382 504.896 49.9814L491.635 38.6152C490.886 37.9737 489.781 37.9737 489.032 38.6152L475.771 49.9814C475.589 50.138 475.445 50.3138 475.336 50.5H474.664C474.555 50.3137 474.41 50.1381 474.228 49.9814L460.968 38.6152C460.219 37.9733 459.113 37.9734 458.364 38.6152L445.104 49.9814C444.922 50.1381 444.777 50.3137 444.668 50.5H443.998C443.889 50.3138 443.744 50.1381 443.562 49.9814L430.302 38.6152C429.553 37.9734 428.447 37.9733 427.698 38.6152L414.438 49.9814C414.256 50.1381 414.111 50.3137 414.002 50.5H413.331C413.222 50.3137 413.077 50.1382 412.895 49.9814L399.634 38.6152C398.885 37.9737 397.78 37.9737 397.031 38.6152L383.771 49.9814C383.588 50.138 383.444 50.3138 383.335 50.5H382.665C382.556 50.3137 382.411 50.1381 382.229 49.9814L368.969 38.6152C368.22 37.9733 367.114 37.9734 366.365 38.6152L353.105 49.9814C352.923 50.1381 352.778 50.3137 352.669 50.5H351.997C351.888 50.3138 351.743 50.1381 351.561 49.9814L338.301 38.6152C337.552 37.9735 336.446 37.9733 335.697 38.6152L322.438 49.9814C322.255 50.1382 322.11 50.3137 322.001 50.5H321.332C321.223 50.3137 321.078 50.1382 320.896 49.9814L307.635 38.6152C306.886 37.9737 305.781 37.9737 305.032 38.6152L291.771 49.9814C291.589 50.138 291.445 50.3138 291.336 50.5H290.664C290.555 50.3137 290.41 50.1381 290.228 49.9814L276.968 38.6152C276.219 37.9733 275.113 37.9734 274.364 38.6152L261.104 49.9814C260.922 50.1381 260.777 50.3137 260.668 50.5H260.144C260.04 50.3232 259.904 50.1559 259.734 50.0049L246.994 38.6807C246.236 38.0075 245.095 38.0073 244.337 38.6807L231.598 50.0049C231.428 50.1558 231.292 50.3232 231.188 50.5H230.665C230.556 50.3137 230.411 50.1381 230.229 49.9814L216.969 38.6152C216.22 37.9733 215.114 37.9734 214.365 38.6152L201.105 49.9814C200.923 50.1381 200.778 50.3137 200.669 50.5H199.997C199.888 50.3137 199.743 50.1381 199.561 49.9814L186.301 38.6152C185.552 37.9734 184.446 37.9733 183.697 38.6152L170.438 49.9814C170.255 50.1381 170.11 50.3137 170.001 50.5H169.332C169.223 50.3137 169.078 50.1382 168.896 49.9814L155.635 38.6152C154.886 37.9737 153.781 37.9737 153.032 38.6152L139.771 49.9814C139.589 50.138 139.445 50.3138 139.336 50.5H138.664C138.555 50.3137 138.41 50.1381 138.228 49.9814L124.968 38.6152C124.219 37.9733 123.113 37.9734 122.364 38.6152L109.104 49.9814C108.922 50.1381 108.777 50.3137 108.668 50.5H107.998C107.889 50.3138 107.744 50.1381 107.562 49.9814L94.3018 38.6152C93.5528 37.9734 92.4471 37.9733 91.6982 38.6152L78.4385 49.9814C78.2557 50.1381 78.1114 50.3137 78.002 50.5H77.3311C77.2217 50.3137 77.0773 50.1382 76.8945 49.9814L63.6338 38.6152C62.8849 37.9737 61.7801 37.9737 61.0312 38.6152L47.7705 49.9814C47.5879 50.138 47.4443 50.3138 47.335 50.5H46.665C46.5556 50.3137 46.4113 50.1381 46.2285 49.9814L32.9688 38.6152C32.2198 37.9733 31.1142 37.9734 30.3652 38.6152L17.1055 49.9814C16.9227 50.1381 16.7784 50.3137 16.6689 50.5H15.9971C15.8877 50.3138 15.7442 50.138 15.5615 49.9814L2.30078 38.6152C1.9265 38.2946 1.46322 38.1339 1 38.1338V0.5H521V38.1338Z" fill="#1B1A25"/>
<path d="M521 38.1338L521 38.6338L521.5 38.634V38.1338H521ZM519.697 38.6152L519.372 38.2356L519.372 38.2356L519.697 38.6152ZM506.438 49.9814L506.763 50.3611L506.763 50.3611L506.438 49.9814ZM506.001 50.5V51H506.287L506.432 50.7532L506.001 50.5ZM505.332 50.5L504.901 50.7532L505.046 51H505.332V50.5ZM504.896 49.9814L505.221 49.6018L505.221 49.6018L504.896 49.9814ZM491.635 38.6152L491.96 38.2356L491.96 38.2355L491.635 38.6152ZM489.032 38.6152L488.707 38.2355L488.707 38.2356L489.032 38.6152ZM475.771 49.9814L475.446 49.6018L475.446 49.6018L475.771 49.9814ZM475.336 50.5V51H475.622L475.767 50.7533L475.336 50.5ZM474.664 50.5L474.233 50.7532L474.378 51H474.664V50.5ZM474.228 49.9814L473.902 50.3611L473.902 50.3611L474.228 49.9814ZM460.968 38.6152L461.293 38.2356L461.293 38.2356L460.968 38.6152ZM458.364 38.6152L458.039 38.2356L458.039 38.2356L458.364 38.6152ZM445.104 49.9814L445.43 50.3611L445.43 50.3611L445.104 49.9814ZM444.668 50.5V51H444.954L445.099 50.7532L444.668 50.5ZM443.998 50.5L443.567 50.7532L443.712 51H443.998V50.5ZM443.562 49.9814L443.236 50.3611L443.236 50.3611L443.562 49.9814ZM430.302 38.6152L430.627 38.2356L430.627 38.2356L430.302 38.6152ZM427.698 38.6152L427.373 38.2356L427.373 38.2356L427.698 38.6152ZM414.438 49.9814L414.764 50.3611L414.764 50.3611L414.438 49.9814ZM414.002 50.5V51H414.288L414.433 50.7532L414.002 50.5ZM413.331 50.5L412.9 50.7532L413.045 51H413.331V50.5ZM412.895 49.9814L413.22 49.6018L413.22 49.6018L412.895 49.9814ZM399.634 38.6152L399.959 38.2356L399.959 38.2355L399.634 38.6152ZM397.031 38.6152L396.706 38.2355L396.706 38.2356L397.031 38.6152ZM383.771 49.9814L383.445 49.6018L383.445 49.6019L383.771 49.9814ZM383.335 50.5V51H383.621L383.766 50.7533L383.335 50.5ZM382.665 50.5L382.234 50.7532L382.379 51H382.665V50.5ZM382.229 49.9814L381.903 50.3611L381.903 50.3611L382.229 49.9814ZM368.969 38.6152L369.294 38.2356L369.294 38.2356L368.969 38.6152ZM366.365 38.6152L366.04 38.2356L366.04 38.2356L366.365 38.6152ZM353.105 49.9814L353.431 50.3611L353.431 50.3611L353.105 49.9814ZM352.669 50.5V51H352.955L353.1 50.7532L352.669 50.5ZM351.997 50.5L351.566 50.7532L351.711 51H351.997V50.5ZM351.561 49.9814L351.235 50.3611L351.235 50.3611L351.561 49.9814ZM338.301 38.6152L338.626 38.2356L338.626 38.2356L338.301 38.6152ZM335.697 38.6152L335.372 38.2356L335.372 38.2356L335.697 38.6152ZM322.438 49.9814L322.763 50.3611L322.763 50.3611L322.438 49.9814ZM322.001 50.5V51H322.287L322.432 50.7532L322.001 50.5ZM321.332 50.5L320.901 50.7532L321.046 51H321.332V50.5ZM320.896 49.9814L321.221 49.6018L321.221 49.6018L320.896 49.9814ZM307.635 38.6152L307.96 38.2356L307.96 38.2355L307.635 38.6152ZM305.032 38.6152L304.707 38.2355L304.707 38.2356L305.032 38.6152ZM291.771 49.9814L291.446 49.6018L291.446 49.6019L291.771 49.9814ZM291.336 50.5V51H291.622L291.767 50.7533L291.336 50.5ZM290.664 50.5L290.233 50.7532L290.378 51H290.664V50.5ZM290.228 49.9814L289.902 50.3611L289.902 50.3611L290.228 49.9814ZM276.968 38.6152L277.293 38.2356L277.293 38.2356L276.968 38.6152ZM274.364 38.6152L274.039 38.2356L274.039 38.2356L274.364 38.6152ZM261.104 49.9814L261.43 50.3611L261.43 50.3611L261.104 49.9814ZM260.668 50.5V51H260.954L261.099 50.7532L260.668 50.5ZM260.144 50.5L259.712 50.7533L259.857 51H260.144V50.5ZM259.734 50.0049L260.067 49.6312L260.067 49.6312L259.734 50.0049ZM246.994 38.6807L247.326 38.307L247.326 38.3069L246.994 38.6807ZM244.337 38.6807L244.005 38.3069L244.005 38.307L244.337 38.6807ZM231.598 50.0049L231.93 50.3786L231.93 50.3786L231.598 50.0049ZM231.188 50.5V51H231.475L231.62 50.7533L231.188 50.5ZM230.665 50.5L230.234 50.7532L230.379 51H230.665V50.5ZM230.229 49.9814L229.903 50.3611L229.903 50.3611L230.229 49.9814ZM216.969 38.6152L217.294 38.2356L217.294 38.2356L216.969 38.6152ZM214.365 38.6152L214.04 38.2356L214.04 38.2356L214.365 38.6152ZM201.105 49.9814L201.431 50.3611L201.431 50.3611L201.105 49.9814ZM200.669 50.5V51H200.955L201.1 50.7532L200.669 50.5ZM199.997 50.5L199.566 50.7532L199.711 51H199.997V50.5ZM199.561 49.9814L199.235 50.3611L199.235 50.3611L199.561 49.9814ZM186.301 38.6152L186.626 38.2356L186.626 38.2356L186.301 38.6152ZM183.697 38.6152L183.372 38.2356L183.372 38.2356L183.697 38.6152ZM170.438 49.9814L170.763 50.3611L170.763 50.3611L170.438 49.9814ZM170.001 50.5V51H170.287L170.432 50.7532L170.001 50.5ZM169.332 50.5L168.901 50.7532L169.046 51H169.332V50.5ZM168.896 49.9814L169.221 49.6018L169.221 49.6018L168.896 49.9814ZM155.635 38.6152L155.96 38.2356L155.96 38.2355L155.635 38.6152ZM153.032 38.6152L152.707 38.2355L152.707 38.2356L153.032 38.6152ZM139.771 49.9814L139.446 49.6018L139.446 49.6018L139.771 49.9814ZM139.336 50.5V51H139.622L139.767 50.7533L139.336 50.5ZM138.664 50.5L138.233 50.7532L138.378 51H138.664V50.5ZM138.228 49.9814L137.902 50.3611L137.902 50.3611L138.228 49.9814ZM124.968 38.6152L125.293 38.2356L125.293 38.2356L124.968 38.6152ZM122.364 38.6152L122.039 38.2356L122.039 38.2356L122.364 38.6152ZM109.104 49.9814L109.43 50.3611L109.43 50.3611L109.104 49.9814ZM108.668 50.5V51H108.954L109.099 50.7532L108.668 50.5ZM107.998 50.5L107.567 50.7532L107.712 51H107.998V50.5ZM107.562 49.9814L107.236 50.3611L107.236 50.3611L107.562 49.9814ZM94.3018 38.6152L94.6272 38.2356L94.6271 38.2356L94.3018 38.6152ZM91.6982 38.6152L91.3728 38.2356L91.3728 38.2356L91.6982 38.6152ZM78.4385 49.9814L78.7639 50.3611L78.7639 50.3611L78.4385 49.9814ZM78.002 50.5V51H78.2882L78.4331 50.7532L78.002 50.5ZM77.3311 50.5L76.8999 50.7532L77.0448 51H77.3311V50.5ZM76.8945 49.9814L77.22 49.6018L77.2199 49.6018L76.8945 49.9814ZM63.6338 38.6152L63.9592 38.2356L63.9591 38.2355L63.6338 38.6152ZM61.0312 38.6152L60.7059 38.2355L60.7059 38.2356L61.0312 38.6152ZM47.7705 49.9814L47.4451 49.6018L47.4451 49.6018L47.7705 49.9814ZM47.335 50.5V51H47.6211L47.7661 50.7533L47.335 50.5ZM46.665 50.5L46.2339 50.7532L46.3788 51H46.665V50.5ZM46.2285 49.9814L45.9031 50.3611L45.9031 50.3611L46.2285 49.9814ZM32.9688 38.6152L33.2942 38.2356L33.2941 38.2356L32.9688 38.6152ZM30.3652 38.6152L30.0399 38.2356L30.0398 38.2356L30.3652 38.6152ZM17.1055 49.9814L17.4309 50.3611L17.4309 50.3611L17.1055 49.9814ZM16.6689 50.5V51H16.9551L17.1001 50.7532L16.6689 50.5ZM15.9971 50.5L15.566 50.7533L15.7109 51H15.9971V50.5ZM15.5615 49.9814L15.887 49.6018L15.8869 49.6018L15.5615 49.9814ZM2.30078 38.6152L2.62617 38.2356L2.62609 38.2355L2.30078 38.6152ZM1 38.1338H0.5V38.6337L0.999865 38.6338L1 38.1338ZM1 0.5V0H0.5V0.5H1ZM521 0.5H521.5V0H521V0.5ZM521 38.1338L521 37.6338C520.421 37.6336 519.84 37.8341 519.372 38.2356L519.697 38.6152L520.023 38.9949C520.304 38.754 520.651 38.6337 521 38.6338L521 38.1338ZM519.697 38.6152L519.372 38.2356L506.112 49.6018L506.438 49.9814L506.763 50.3611L520.023 38.9949L519.697 38.6152ZM506.438 49.9814L506.112 49.6018C505.887 49.7944 505.707 50.0127 505.57 50.2468L506.001 50.5L506.432 50.7532C506.513 50.6147 506.622 50.4819 506.763 50.3611L506.438 49.9814ZM506.001 50.5V50H505.332V50.5V51H506.001V50.5ZM505.332 50.5L505.763 50.2468C505.626 50.0126 505.446 49.7944 505.221 49.6018L504.896 49.9814L504.57 50.3611C504.711 50.4819 504.82 50.6147 504.901 50.7532L505.332 50.5ZM504.896 49.9814L505.221 49.6018L491.96 38.2356L491.635 38.6152L491.309 38.9949L504.57 50.3611L504.896 49.9814ZM491.635 38.6152L491.96 38.2355C491.024 37.4336 489.643 37.4336 488.707 38.2355L489.032 38.6152L489.358 38.9949C489.919 38.5138 490.748 38.5138 491.309 38.9949L491.635 38.6152ZM489.032 38.6152L488.707 38.2356L475.446 49.6018L475.771 49.9814L476.097 50.3611L489.358 38.9949L489.032 38.6152ZM475.771 49.9814L475.446 49.6018C475.221 49.7951 475.042 50.0138 474.905 50.2467L475.336 50.5L475.767 50.7533C475.849 50.6139 475.957 50.481 476.097 50.361L475.771 49.9814ZM475.336 50.5V50H474.664V50.5V51H475.336V50.5ZM474.664 50.5L475.095 50.2468C474.958 50.0127 474.778 49.7944 474.553 49.6018L474.228 49.9814L473.902 50.3611C474.043 50.4818 474.152 50.6147 474.233 50.7532L474.664 50.5ZM474.228 49.9814L474.553 49.6018L461.293 38.2356L460.968 38.6152L460.642 38.9949L473.902 50.3611L474.228 49.9814ZM460.968 38.6152L461.293 38.2356C460.357 37.4332 458.975 37.4333 458.039 38.2356L458.364 38.6152L458.69 38.9949C459.251 38.5135 460.081 38.5135 460.642 38.9949L460.968 38.6152ZM458.364 38.6152L458.039 38.2356L444.779 49.6018L445.104 49.9814L445.43 50.3611L458.69 38.9949L458.364 38.6152ZM445.104 49.9814L444.779 49.6018C444.554 49.7944 444.374 50.0127 444.237 50.2468L444.668 50.5L445.099 50.7532C445.18 50.6147 445.289 50.4818 445.43 50.3611L445.104 49.9814ZM444.668 50.5V50H443.998V50.5V51H444.668V50.5ZM443.998 50.5L444.429 50.2468C444.292 50.0128 444.112 49.7944 443.887 49.6018L443.562 49.9814L443.236 50.3611C443.377 50.4818 443.486 50.6148 443.567 50.7532L443.998 50.5ZM443.562 49.9814L443.887 49.6018L430.627 38.2356L430.302 38.6152L429.976 38.9949L443.236 50.3611L443.562 49.9814ZM430.302 38.6152L430.627 38.2356C429.691 37.4334 428.309 37.4331 427.373 38.2356L427.698 38.6152L428.024 38.9949C428.585 38.5135 429.415 38.5135 429.976 38.9949L430.302 38.6152ZM427.698 38.6152L427.373 38.2356L414.113 49.6018L414.438 49.9814L414.764 50.3611L428.024 38.9949L427.698 38.6152ZM414.438 49.9814L414.113 49.6018C413.888 49.7944 413.708 50.0127 413.571 50.2468L414.002 50.5L414.433 50.7532C414.514 50.6147 414.623 50.4819 414.764 50.3611L414.438 49.9814ZM414.002 50.5V50H413.331V50.5V51H414.002V50.5ZM413.331 50.5L413.762 50.2468C413.625 50.0126 413.445 49.7944 413.22 49.6018L412.895 49.9814L412.569 50.3611C412.71 50.4819 412.819 50.6147 412.9 50.7532L413.331 50.5ZM412.895 49.9814L413.22 49.6018L399.959 38.2356L399.634 38.6152L399.308 38.9949L412.569 50.3611L412.895 49.9814ZM399.634 38.6152L399.959 38.2355C399.023 37.4336 397.642 37.4335 396.706 38.2355L397.031 38.6152L397.357 38.9949C397.918 38.5138 398.747 38.5138 399.308 38.995L399.634 38.6152ZM397.031 38.6152L396.706 38.2356L383.445 49.6018L383.771 49.9814L384.096 50.3611L397.357 38.9949L397.031 38.6152ZM383.771 49.9814L383.445 49.6019C383.22 49.7951 383.041 50.0138 382.904 50.2467L383.335 50.5L383.766 50.7533C383.848 50.6139 383.956 50.481 384.096 50.361L383.771 49.9814ZM383.335 50.5V50H382.665V50.5V51H383.335V50.5ZM382.665 50.5L383.096 50.2468C382.959 50.0127 382.779 49.7944 382.554 49.6018L382.229 49.9814L381.903 50.3611C382.044 50.4818 382.153 50.6147 382.234 50.7532L382.665 50.5ZM382.229 49.9814L382.554 49.6018L369.294 38.2356L368.969 38.6152L368.643 38.9949L381.903 50.3611L382.229 49.9814ZM368.969 38.6152L369.294 38.2356C368.358 37.4332 366.976 37.4333 366.04 38.2356L366.365 38.6152L366.691 38.9949C367.252 38.5135 368.082 38.5135 368.643 38.9949L368.969 38.6152ZM366.365 38.6152L366.04 38.2356L352.78 49.6018L353.105 49.9814L353.431 50.3611L366.691 38.9949L366.365 38.6152ZM353.105 49.9814L352.78 49.6018C352.555 49.7944 352.375 50.0127 352.238 50.2468L352.669 50.5L353.1 50.7532C353.181 50.6147 353.29 50.4818 353.431 50.3611L353.105 49.9814ZM352.669 50.5V50H351.997V50.5V51H352.669V50.5ZM351.997 50.5L352.428 50.2468C352.291 50.0128 352.111 49.7944 351.886 49.6018L351.561 49.9814L351.235 50.3611C351.376 50.4818 351.485 50.6148 351.566 50.7532L351.997 50.5ZM351.561 49.9814L351.886 49.6018L338.626 38.2356L338.301 38.6152L337.975 38.9949L351.235 50.3611L351.561 49.9814ZM338.301 38.6152L338.626 38.2356C337.69 37.4334 336.308 37.4332 335.372 38.2356L335.697 38.6152L336.023 38.9949C336.584 38.5135 337.414 38.5135 337.975 38.9949L338.301 38.6152ZM335.697 38.6152L335.372 38.2356L322.112 49.6018L322.438 49.9814L322.763 50.3611L336.023 38.9949L335.697 38.6152ZM322.438 49.9814L322.112 49.6018C321.887 49.7944 321.707 50.0127 321.57 50.2468L322.001 50.5L322.432 50.7532C322.513 50.6147 322.622 50.4819 322.763 50.3611L322.438 49.9814ZM322.001 50.5V50H321.332V50.5V51H322.001V50.5ZM321.332 50.5L321.763 50.2468C321.626 50.0126 321.446 49.7944 321.221 49.6018L320.896 49.9814L320.57 50.3611C320.711 50.4819 320.82 50.6147 320.901 50.7532L321.332 50.5ZM320.896 49.9814L321.221 49.6018L307.96 38.2356L307.635 38.6152L307.309 38.9949L320.57 50.3611L320.896 49.9814ZM307.635 38.6152L307.96 38.2355C307.024 37.4336 305.643 37.4335 304.707 38.2355L305.032 38.6152L305.358 38.9949C305.919 38.5138 306.748 38.5138 307.309 38.995L307.635 38.6152ZM305.032 38.6152L304.707 38.2356L291.446 49.6018L291.771 49.9814L292.097 50.3611L305.358 38.9949L305.032 38.6152ZM291.771 49.9814L291.446 49.6019C291.221 49.7951 291.042 50.0138 290.905 50.2467L291.336 50.5L291.767 50.7533C291.849 50.6139 291.957 50.481 292.097 50.361L291.771 49.9814ZM291.336 50.5V50H290.664V50.5V51H291.336V50.5ZM290.664 50.5L291.095 50.2468C290.958 50.0127 290.778 49.7944 290.553 49.6018L290.228 49.9814L289.902 50.3611C290.043 50.4818 290.152 50.6147 290.233 50.7532L290.664 50.5ZM290.228 49.9814L290.553 49.6018L277.293 38.2356L276.968 38.6152L276.642 38.9949L289.902 50.3611L290.228 49.9814ZM276.968 38.6152L277.293 38.2356C276.357 37.4332 274.975 37.4333 274.039 38.2356L274.364 38.6152L274.69 38.9949C275.251 38.5135 276.081 38.5135 276.642 38.9949L276.968 38.6152ZM274.364 38.6152L274.039 38.2356L260.779 49.6018L261.104 49.9814L261.43 50.3611L274.69 38.9949L274.364 38.6152ZM261.104 49.9814L260.779 49.6018C260.554 49.7944 260.374 50.0127 260.237 50.2468L260.668 50.5L261.099 50.7532C261.18 50.6147 261.289 50.4818 261.43 50.3611L261.104 49.9814ZM260.668 50.5V50H260.144V50.5V51H260.668V50.5ZM260.144 50.5L260.575 50.2467C260.444 50.0246 260.275 49.8167 260.067 49.6312L259.734 50.0049L259.402 50.3786C259.533 50.495 259.635 50.6218 259.712 50.7533L260.144 50.5ZM259.734 50.0049L260.067 49.6312L247.326 38.307L246.994 38.6807L246.662 39.0544L259.402 50.3786L259.734 50.0049ZM246.994 38.6807L247.326 38.3069C246.379 37.4655 244.952 37.4651 244.005 38.3069L244.337 38.6807L244.669 39.0544C245.237 38.5495 246.094 38.5495 246.662 39.0545L246.994 38.6807ZM244.337 38.6807L244.005 38.307L231.265 49.6312L231.598 50.0049L231.93 50.3786L244.669 39.0544L244.337 38.6807ZM231.598 50.0049L231.265 49.6312C231.057 49.8167 230.888 50.0246 230.757 50.2467L231.188 50.5L231.62 50.7533C231.697 50.6218 231.799 50.495 231.93 50.3786L231.598 50.0049ZM231.188 50.5V50H230.665V50.5V51H231.188V50.5ZM230.665 50.5L231.096 50.2468C230.959 50.0127 230.779 49.7944 230.554 49.6018L230.229 49.9814L229.903 50.3611C230.044 50.4818 230.153 50.6147 230.234 50.7532L230.665 50.5ZM230.229 49.9814L230.554 49.6018L217.294 38.2356L216.969 38.6152L216.643 38.9949L229.903 50.3611L230.229 49.9814ZM216.969 38.6152L217.294 38.2356C216.358 37.4332 214.976 37.4333 214.04 38.2356L214.365 38.6152L214.691 38.9949C215.252 38.5135 216.082 38.5135 216.643 38.9949L216.969 38.6152ZM214.365 38.6152L214.04 38.2356L200.78 49.6018L201.105 49.9814L201.431 50.3611L214.691 38.9949L214.365 38.6152ZM201.105 49.9814L200.78 49.6018C200.555 49.7944 200.375 50.0127 200.238 50.2468L200.669 50.5L201.1 50.7532C201.181 50.6147 201.29 50.4818 201.431 50.3611L201.105 49.9814ZM200.669 50.5V50H199.997V50.5V51H200.669V50.5ZM199.997 50.5L200.428 50.2468C200.291 50.0128 200.111 49.7944 199.886 49.6018L199.561 49.9814L199.235 50.3611C199.376 50.4818 199.485 50.6147 199.566 50.7532L199.997 50.5ZM199.561 49.9814L199.886 49.6018L186.626 38.2356L186.301 38.6152L185.975 38.9949L199.235 50.3611L199.561 49.9814ZM186.301 38.6152L186.626 38.2356C185.69 37.4334 184.308 37.4331 183.372 38.2356L183.697 38.6152L184.023 38.9949C184.584 38.5135 185.414 38.5135 185.975 38.9949L186.301 38.6152ZM183.697 38.6152L183.372 38.2356L170.112 49.6018L170.438 49.9814L170.763 50.3611L184.023 38.9949L183.697 38.6152ZM170.438 49.9814L170.112 49.6018C169.887 49.7944 169.707 50.0127 169.57 50.2468L170.001 50.5L170.432 50.7532C170.513 50.6147 170.622 50.4819 170.763 50.3611L170.438 49.9814ZM170.001 50.5V50H169.332V50.5V51H170.001V50.5ZM169.332 50.5L169.763 50.2468C169.626 50.0126 169.446 49.7944 169.221 49.6018L168.896 49.9814L168.57 50.361C168.711 50.4819 168.82 50.6147 168.901 50.7532L169.332 50.5ZM168.896 49.9814L169.221 49.6018L155.96 38.2356L155.635 38.6152L155.309 38.9949L168.57 50.3611L168.896 49.9814ZM155.635 38.6152L155.96 38.2355C155.024 37.4336 153.643 37.4336 152.707 38.2355L153.032 38.6152L153.358 38.9949C153.919 38.5138 154.748 38.5138 155.309 38.9949L155.635 38.6152ZM153.032 38.6152L152.707 38.2356L139.446 49.6018L139.771 49.9814L140.097 50.3611L153.358 38.9949L153.032 38.6152ZM139.771 49.9814L139.446 49.6018C139.221 49.7951 139.042 50.0138 138.905 50.2467L139.336 50.5L139.767 50.7533C139.849 50.6139 139.957 50.481 140.097 50.361L139.771 49.9814ZM139.336 50.5V50H138.664V50.5V51H139.336V50.5ZM138.664 50.5L139.095 50.2468C138.958 50.0127 138.778 49.7944 138.553 49.6018L138.228 49.9814L137.902 50.3611C138.043 50.4818 138.152 50.6147 138.233 50.7532L138.664 50.5ZM138.228 49.9814L138.553 49.6018L125.293 38.2356L124.968 38.6152L124.642 38.9949L137.902 50.3611L138.228 49.9814ZM124.968 38.6152L125.293 38.2356C124.357 37.4332 122.975 37.4333 122.039 38.2356L122.364 38.6152L122.69 38.9949C123.251 38.5135 124.081 38.5135 124.642 38.9949L124.968 38.6152ZM122.364 38.6152L122.039 38.2356L108.779 49.6018L109.104 49.9814L109.43 50.3611L122.69 38.9949L122.364 38.6152ZM109.104 49.9814L108.779 49.6018C108.554 49.7944 108.374 50.0127 108.237 50.2468L108.668 50.5L109.099 50.7532C109.18 50.6147 109.289 50.4818 109.43 50.3611L109.104 49.9814ZM108.668 50.5V50H107.998V50.5V51H108.668V50.5ZM107.998 50.5L108.429 50.2468C108.292 50.0128 108.112 49.7944 107.887 49.6018L107.562 49.9814L107.236 50.3611C107.377 50.4818 107.486 50.6147 107.567 50.7532L107.998 50.5ZM107.562 49.9814L107.887 49.6018L94.6272 38.2356L94.3018 38.6152L93.9764 38.9949L107.236 50.3611L107.562 49.9814ZM94.3018 38.6152L94.6271 38.2356C93.6909 37.4334 92.309 37.4331 91.3728 38.2356L91.6982 38.6152L92.0236 38.9949C92.5853 38.5135 93.4146 38.5135 93.9764 38.9949L94.3018 38.6152ZM91.6982 38.6152L91.3728 38.2356L78.1131 49.6018L78.4385 49.9814L78.7639 50.3611L92.0236 38.9949L91.6982 38.6152ZM78.4385 49.9814L78.1131 49.6018C77.8884 49.7944 77.7083 50.0127 77.5708 50.2468L78.002 50.5L78.4331 50.7532C78.5144 50.6147 78.623 50.4819 78.7639 50.3611L78.4385 49.9814ZM78.002 50.5V50H77.3311V50.5V51H78.002V50.5ZM77.3311 50.5L77.7622 50.2468C77.6247 50.0126 77.4446 49.7944 77.22 49.6018L76.8945 49.9814L76.5691 50.3611C76.7101 50.4819 76.8186 50.6147 76.8999 50.7532L77.3311 50.5ZM76.8945 49.9814L77.2199 49.6018L63.9592 38.2356L63.6338 38.6152L63.3084 38.9949L76.5691 50.3611L76.8945 49.9814ZM63.6338 38.6152L63.9591 38.2355C63.023 37.4336 61.642 37.4336 60.7059 38.2355L61.0312 38.6152L61.3566 38.9949C61.9182 38.5138 62.7468 38.5138 63.3085 38.9949L63.6338 38.6152ZM61.0312 38.6152L60.7059 38.2356L47.4451 49.6018L47.7705 49.9814L48.0959 50.3611L61.3566 38.9949L61.0312 38.6152ZM47.7705 49.9814L47.4451 49.6018C47.2197 49.7951 47.0407 50.0138 46.9039 50.2467L47.335 50.5L47.7661 50.7533C47.8479 50.6139 47.956 50.481 48.0959 50.361L47.7705 49.9814ZM47.335 50.5V50H46.665V50.5V51H47.335V50.5ZM46.665 50.5L47.0962 50.2468C46.9587 50.0127 46.7786 49.7944 46.5539 49.6018L46.2285 49.9814L45.9031 50.3611C46.044 50.4818 46.1526 50.6147 46.2339 50.7532L46.665 50.5ZM46.2285 49.9814L46.5539 49.6018L33.2942 38.2356L32.9688 38.6152L32.6433 38.9949L45.9031 50.3611L46.2285 49.9814ZM32.9688 38.6152L33.2941 38.2356C32.3579 37.4332 30.976 37.4333 30.0399 38.2356L30.3652 38.6152L30.6906 38.9949C31.2524 38.5135 32.0817 38.5135 32.6434 38.9949L32.9688 38.6152ZM30.3652 38.6152L30.0398 38.2356L16.7801 49.6018L17.1055 49.9814L17.4309 50.3611L30.6906 38.9949L30.3652 38.6152ZM17.1055 49.9814L16.7801 49.6018C16.5554 49.7944 16.3753 50.0127 16.2378 50.2468L16.6689 50.5L17.1001 50.7532C17.1814 50.6147 17.29 50.4818 17.4309 50.3611L17.1055 49.9814ZM16.6689 50.5V50H15.9971V50.5V51H16.6689V50.5ZM15.9971 50.5L16.4282 50.2467C16.2913 50.0138 16.1123 49.7951 15.887 49.6018L15.5615 49.9814L15.2361 50.361C15.376 50.481 15.4841 50.6139 15.566 50.7533L15.9971 50.5ZM15.5615 49.9814L15.8869 49.6018L2.62617 38.2356L2.30078 38.6152L1.97539 38.9949L15.2361 50.3611L15.5615 49.9814ZM2.30078 38.6152L2.62609 38.2355C2.15842 37.8349 1.57887 37.6339 1.00014 37.6338L1 38.1338L0.999865 38.6338C1.34757 38.6339 1.69458 38.7543 1.97547 38.9949L2.30078 38.6152ZM1 38.1338H1.5V0.5H1H0.5V38.1338H1ZM1 0.5V1H521V0.5V0H1V0.5ZM521 0.5H520.5V38.1338H521H521.5V0.5H521Z" fill="#3A3948"/>
<path d="M1.5 0H520.501V4.49999H1.5V0Z" fill="#1B1A25"/>
</svg>
