<svg width="100" height="100" viewBox="0 0 100 100" fill="none" xmlns="http://www.w3.org/2000/svg">
<path d="M99.9993 49.9992C99.9993 22.385 77.6135 -0.000808716 49.9993 -0.000808716C22.385 -0.000808716 -0.000732422 22.385 -0.000732422 49.9992C-0.000732422 77.6134 22.385 99.9992 49.9993 99.9992C77.6135 99.9992 99.9993 77.6134 99.9993 49.9992Z" fill="url(#paint0_linear_4754_57379)"/>
<mask id="mask0_4754_57379" style="mask-type:alpha" maskUnits="userSpaceOnUse" x="-1" y="-1" width="101" height="101">
<path d="M99.9976 49.9976C99.9976 22.3833 77.6118 -0.00242615 49.9976 -0.00242615C22.3833 -0.00242615 -0.00244141 22.3833 -0.00244141 49.9976C-0.00244141 77.6118 22.3833 99.9976 49.9976 99.9976C77.6118 99.9976 99.9976 77.6118 99.9976 49.9976Z" fill="#666AF6"/>
</mask>
<g mask="url(#mask0_4754_57379)">
<g opacity="0.5">
<path d="M-49.1059 24.0732C-55.9251 35.2678 -60.3885 47.894 -62.1222 60.8914C-63.1948 68.9324 -62.8186 78.1546 -56.9075 83.7018C-52.4775 87.86 -45.9474 88.8947 -39.8797 88.6712C-33.8118 88.4476 -27.7783 87.1705 -21.7172 87.5273C-15.6563 87.8846 -9.23787 90.2806 -6.16283 95.5234C-3.2527 100.485 -3.97734 106.665 -4.33419 112.408C-4.69001 118.151 -4.26175 124.671 0.0665047 128.455C6.19636 133.814 16.1841 130.503 23.4099 134.249C30.2636 137.803 33.0466 146.869 40.1083 149.987C46.0111 152.593 52.8051 150.171 58.7748 147.724C64.9982 145.172 71.2088 142.59 77.4063 139.976" stroke="white" stroke-opacity="0.6" stroke-width="0.602047"/>
<path d="M-41.9841 16.6665C-48.6584 27.6001 -53.0277 39.9314 -54.7251 52.6258C-55.7748 60.4793 -55.4064 69.4864 -49.6204 74.9046C-45.2845 78.9656 -38.8925 79.9761 -32.9532 79.7573C-27.0142 79.5394 -21.1083 78.2919 -15.1752 78.6408C-9.242 78.9896 -2.95963 81.3298 0.050194 86.4498C2.89882 91.2959 2.18945 97.3321 1.84024 102.941C1.49164 108.55 1.91061 114.917 6.14764 118.614C12.1479 123.848 21.9243 120.614 28.9971 124.273C35.7055 127.744 38.4297 136.598 45.3424 139.644C51.1195 142.188 57.7701 139.823 63.6139 137.433C69.7053 134.941 75.7843 132.419 81.8505 129.866" stroke="white" stroke-opacity="0.6" stroke-width="0.602047"/>
<path d="M-35.2323 9.25893C-41.7626 19.9645 -46.0374 32.038 -47.6974 44.4672C-48.725 52.1568 -48.3644 60.9755 -42.7037 66.2804C-38.4611 70.2563 -32.2072 71.2456 -26.3966 71.0318C-20.5857 70.8179 -14.8075 69.5969 -9.00293 69.9383C-3.19814 70.2799 2.94822 72.571 5.89323 77.5843C8.68036 82.3289 7.98585 88.2389 7.64489 93.731C7.30331 99.2227 7.7132 105.457 11.859 109.076C17.7294 114.201 27.2941 111.034 34.2144 114.617C40.7777 118.016 43.4432 126.684 50.2057 129.666C55.8584 132.158 62.3649 129.842 68.0824 127.502C74.0422 125.062 79.9898 122.592 85.925 120.093" stroke="white" stroke-opacity="0.6" stroke-width="0.602047"/>
<path d="M-28.1459 1.85139C-34.5143 12.2955 -38.6822 24.0749 -40.3015 36.2007C-41.3034 43.7026 -40.9517 52.3063 -35.4319 57.4818C-31.2946 61.3609 -25.1965 62.3262 -19.5304 62.1175C-13.8639 61.9089 -8.2294 60.7174 -2.56909 61.0509C3.09143 61.3838 9.08506 63.6191 11.9566 68.5101C14.6748 73.1393 13.9978 78.9049 13.6649 84.2628C13.332 89.6212 13.732 95.703 17.7738 99.2335C23.4985 104.233 32.826 101.144 39.5738 104.639C45.9742 107.955 48.5723 116.413 55.1675 119.322C60.6796 121.753 67.025 119.494 72.5996 117.21C78.4114 114.83 84.2112 112.421 89.9987 109.982" stroke="white" stroke-opacity="0.6" stroke-width="0.602047"/>
<path d="M-21.3941 -5.92622C-27.6181 4.28958 -31.6919 15.8108 -33.2745 27.6722C-34.2534 35.0096 -33.91 43.4253 -28.5149 48.4877C-24.4717 52.2816 -18.5117 53.2258 -12.974 53.0217C-7.43582 52.8178 -1.92886 51.6525 3.60328 51.9782C9.13522 52.3043 14.9933 54.4908 17.7998 59.2748C20.4558 63.8024 19.7946 69.4421 19.4689 74.683C19.1436 79.9239 19.5347 85.8728 23.4851 89.3263C29.0799 94.2162 38.1957 91.1946 44.7911 94.6135C51.0461 97.8567 53.5857 106.129 60.0316 108.975C65.4186 111.353 71.6197 109.143 77.0686 106.91C82.7486 104.581 88.4167 102.225 94.0729 99.8393" stroke="white" stroke-opacity="0.6" stroke-width="0.602047"/>
<path d="M-14.3081 -13.3338C-20.3694 -3.37947 -24.3369 7.84828 -25.8784 19.4054C-26.832 26.5559 -26.4972 34.7559 -21.2433 39.6888C-17.3051 43.3862 -11.5009 44.306 -6.10771 44.1073C-0.713439 43.9087 4.64926 42.773 10.0371 43.0906C15.4246 43.4082 21.1303 45.5386 23.8634 50.2006C26.4503 54.6123 25.8057 60.1083 25.4891 65.215C25.1723 70.3218 25.5525 76.1187 29.4002 79.484C34.849 84.249 43.7268 81.3046 50.1501 84.6364C56.2422 87.7964 58.7156 95.8573 64.9934 98.6302C70.2399 100.948 76.279 98.7943 81.5859 96.6181C87.1177 94.3491 92.6381 92.0524 98.1469 89.7281" stroke="white" stroke-opacity="0.6" stroke-width="0.602047"/>
<path d="M-7.18565 -20.7413C-13.1025 -11.0477 -16.9761 -0.115305 -18.4807 11.1391C-19.4111 18.1019 -19.0846 26.0868 -13.9553 30.8908C-10.1115 34.4907 -4.44517 35.3869 0.819899 35.1933C6.08476 34.9993 11.3203 33.8938 16.5798 34.2032C21.8391 34.5126 27.4086 36.5872 30.0768 41.1266C32.6021 45.4229 31.9732 50.774 31.664 55.7471C31.3544 60.7201 31.7257 66.3649 35.4821 69.6418C40.8012 74.2819 49.4674 71.4147 55.7378 74.6592C61.685 77.7363 64.0996 85.5858 70.2274 88.2859C75.3492 90.5426 81.2444 88.4456 86.4248 86.3266C91.825 84.1173 97.214 81.8809 102.592 79.6176" stroke="white" stroke-opacity="0.6" stroke-width="0.602047"/>
<path d="M-0.43467 -28.1489C-6.20705 -18.6841 -9.9861 -8.00911 -11.454 2.98025C-12.3619 9.77861 -12.043 17.5759 -7.03943 22.266C-3.28887 25.7812 2.23894 26.6563 7.37563 26.4669C12.5121 26.2784 17.6197 25.1982 22.7515 25.5008C27.8826 25.8025 33.3159 27.8282 35.9191 32.2609C38.383 36.4556 37.7694 41.6807 37.4674 46.5367C37.1659 51.3923 37.5283 56.9042 41.1926 60.1039C46.3821 64.6348 54.837 61.8349 60.9541 65.003C66.7562 68.0073 69.1119 75.6725 75.0903 78.3085C80.0873 80.512 85.8392 78.4645 90.8933 76.3955C96.1616 74.2381 101.419 72.0544 106.665 69.8444" stroke="white" stroke-opacity="0.6" stroke-width="0.602047"/>
<path d="M6.6518 -35.5564C1.04102 -26.3526 -2.63111 -15.9719 -4.05749 -5.2863C-4.94023 1.32465 -4.63043 8.90689 0.232997 13.468C3.87768 16.8864 9.25028 17.7368 14.2423 17.5529C19.2349 17.3692 24.1985 16.3193 29.1853 16.6128C34.1726 16.9069 39.4531 18.8763 41.9831 23.187C44.3776 27.2657 43.7814 32.3473 43.4879 37.0687C43.1946 41.7906 43.5469 47.1506 47.1084 50.2617C52.1514 54.6678 60.3689 51.9451 66.3139 55.0257C71.9525 57.9478 74.2424 65.4006 80.0526 67.9642C84.9088 70.107 90.4987 68.1161 95.4108 66.1036C100.531 64.006 105.641 61.8827 110.74 59.7337" stroke="white" stroke-opacity="0.6" stroke-width="0.602047"/>
<path d="M13.4033 -43.334C7.93696 -34.3584 4.35915 -24.2355 2.96972 -13.815C2.10947 -7.36809 2.41163 0.0257099 7.14957 4.47347C10.7008 7.80691 15.9347 8.6364 20.7987 8.45746C25.6626 8.27831 30.4992 7.25419 35.357 7.54025C40.2159 7.82713 45.3609 9.74782 47.8256 13.9512C50.1584 17.929 49.5772 22.8841 49.292 27.4883C49.0057 32.0933 49.3488 37.3198 52.819 40.3535C57.7326 44.6504 65.7382 41.9954 71.5306 44.9994C77.0245 47.8489 79.255 55.117 84.9159 57.6172C89.6473 59.7065 95.0936 57.7648 99.8786 55.8026C104.867 53.7572 109.846 51.6866 114.814 49.5908" stroke="white" stroke-opacity="0.6" stroke-width="0.602047"/>
<path d="M20.4894 -50.7416C15.1855 -42.0273 11.714 -32.1985 10.3657 -22.0813C9.53121 -15.8221 9.82387 -8.64312 14.4211 -4.32498C17.867 -1.08854 22.9459 -0.283196 27.6653 -0.456979C32.384 -0.631174 37.0772 -1.62516 41.7916 -1.34715C46.5056 -1.06893 51.498 0.796233 53.8895 4.87723C56.153 8.73945 55.5891 13.55 55.3119 18.0207C55.0347 22.4914 55.3679 27.5659 58.7347 30.5118C63.5022 34.6834 71.2702 32.106 76.8905 35.0225C82.2212 37.7884 84.3856 44.8455 89.8777 47.2727C94.4689 49.3015 99.7536 47.4164 104.397 45.5111C109.237 43.5251 114.067 41.5146 118.888 39.4797" stroke="white" stroke-opacity="0.6" stroke-width="0.602047"/>
<path d="M27.6113 -58.1483C22.4521 -49.6951 19.0747 -40.1614 17.7627 -30.3467C16.9516 -24.2754 17.2366 -17.3115 21.7085 -13.1224C25.0607 -9.98316 30.0009 -9.20176 34.5919 -9.37017C39.1829 -9.53942 43.7479 -10.5037 48.334 -10.2337C52.9196 -9.96397 57.7756 -8.15494 60.1027 -4.19612C62.3049 -0.449896 61.7561 4.21684 61.4865 8.55376C61.2166 12.8903 61.5408 17.8127 64.816 20.6704C69.4537 24.7166 77.0103 22.2167 82.4779 25.046C87.6633 27.7295 89.7687 34.5747 95.1118 36.9292C99.5779 38.897 104.719 37.0685 109.235 35.2205C113.944 33.2938 118.643 31.3435 123.332 29.3699" stroke="white" stroke-opacity="0.6" stroke-width="0.602047"/>
<path d="M34.3632 -65.5559C29.3483 -57.3309 26.0654 -48.0548 24.7903 -38.5059C24.0011 -32.5979 24.2781 -25.8229 28.6255 -21.7466C31.8836 -18.692 36.6862 -17.9319 41.1484 -18.096C45.6108 -18.2607 50.048 -19.1985 54.5061 -18.9366C58.9638 -18.6736 63.6837 -16.9139 65.9456 -13.062C68.0859 -9.41674 67.5528 -4.87632 67.2909 -0.656831C67.0285 3.56265 67.3435 8.3524 70.5269 11.1327C75.0355 15.0697 82.3806 12.6373 87.6946 15.39C92.7351 18.0006 94.7821 24.6611 99.9756 26.9521C104.317 28.8668 109.313 27.0873 113.704 25.2896C118.281 23.4152 122.848 21.5176 127.406 19.5969" stroke="white" stroke-opacity="0.6" stroke-width="0.602047"/>
<path d="M41.4493 -72.9634C36.597 -64.9998 33.4198 -56.018 32.1862 -46.7722C31.4228 -41.0519 31.6907 -34.4915 35.8969 -30.5453C39.0502 -27.5872 43.6965 -26.8515 48.0151 -27.0106C52.3328 -27.1695 56.6266 -28.0781 60.9402 -27.824C65.2534 -27.5695 69.8208 -25.8657 72.0092 -22.1362C74.0804 -18.6063 73.5644 -14.2097 73.3107 -10.1244C73.0571 -6.03906 73.3617 -1.40142 76.4421 1.29035C80.8046 5.10262 87.9117 2.74748 93.054 5.41262C97.9315 7.94052 99.9118 14.3897 104.937 16.6078C109.138 18.4616 113.973 16.7386 118.221 14.9979C122.65 13.1829 127.07 11.3456 131.48 9.48598" stroke="white" stroke-opacity="0.6" stroke-width="0.602047"/>
</g>
</g>
<path d="M50.0001 82C67.6732 82 82.0001 67.6731 82.0001 50C82.0001 32.3269 67.6732 18 50.0001 18C32.327 18 18.0001 32.3269 18.0001 50C18.0001 67.6731 32.327 82 50.0001 82Z" fill="white"/>
<path d="M61.3689 43.2787L47.1381 57.7716L38.5947 49.0773" stroke="url(#paint1_linear_4754_57379)" stroke-width="5.87083" stroke-linecap="round" stroke-linejoin="round"/>
<defs>
<linearGradient id="paint0_linear_4754_57379" x1="-0.000732422" y1="49.9992" x2="99.9993" y2="49.9992" gradientUnits="userSpaceOnUse">
<stop stop-color="#2A1AD8"/>
<stop offset="0.25" stop-color="#4E26E2"/>
<stop offset="0.5" stop-color="#7231EC"/>
<stop offset="0.75" stop-color="#953DF5"/>
<stop offset="1" stop-color="#B948FF"/>
</linearGradient>
<linearGradient id="paint1_linear_4754_57379" x1="38.5947" y1="50.5251" x2="61.3689" y2="50.5251" gradientUnits="userSpaceOnUse">
<stop stop-color="#2A1AD8"/>
<stop offset="0.25" stop-color="#4E26E2"/>
<stop offset="0.5" stop-color="#7231EC"/>
<stop offset="0.75" stop-color="#953DF5"/>
<stop offset="1" stop-color="#B948FF"/>
</linearGradient>
</defs>
</svg>
