<svg width="100" height="100" viewBox="0 0 100 100" fill="none" xmlns="http://www.w3.org/2000/svg">
<path d="M99.9993 50C99.9993 22.3858 77.6135 0 49.9993 0C22.385 0 -0.000732422 22.3858 -0.000732422 50C-0.000732422 77.6142 22.385 100 49.9993 100C77.6135 100 99.9993 77.6142 99.9993 50Z" fill="#E72240"/>
<mask id="mask0_4670_30092" style="mask-type:alpha" maskUnits="userSpaceOnUse" x="-1" y="0" width="101" height="100">
<path d="M99.9978 50C99.9978 22.3858 77.612 0 49.9978 0C22.3836 0 -0.00219727 22.3858 -0.00219727 50C-0.00219727 77.6142 22.3836 100 49.9978 100C77.612 100 99.9978 77.6142 99.9978 50Z" fill="#666AF6"/>
</mask>
<g mask="url(#mask0_4670_30092)">
<g opacity="0.5">
<path d="M-49.1056 24.0742C-55.9248 35.2687 -60.3883 47.895 -62.122 60.8923C-63.1946 68.9334 -62.8183 78.1556 -56.9072 83.7028C-52.4772 87.861 -45.9472 88.8957 -39.8795 88.6721C-33.8115 88.4486 -27.7781 87.1715 -21.7169 87.5283C-15.656 87.8856 -9.23763 90.2816 -6.16259 95.5244C-3.25245 100.486 -3.9771 106.666 -4.33395 112.409C-4.68977 118.152 -4.26151 124.672 0.0667488 128.456C6.1966 133.815 16.1843 130.504 23.4101 134.25C30.2638 137.804 33.0468 146.87 40.1085 149.988C46.0113 152.594 52.8054 150.172 58.7751 147.725C64.9985 145.173 71.2091 142.591 77.4065 139.977" stroke="white" stroke-opacity="0.6" stroke-width="0.602047"/>
<path d="M-41.9841 16.668C-48.6584 27.6016 -53.0277 39.9329 -54.7251 52.6273C-55.7748 60.4807 -55.4064 69.4879 -49.6204 74.9061C-45.2845 78.9671 -38.8925 79.9776 -32.9532 79.7588C-27.0142 79.5409 -21.1083 78.2934 -15.1752 78.6422C-9.242 78.991 -2.95963 81.3313 0.050194 86.4513C2.89882 91.2974 2.18945 97.3335 1.84024 102.943C1.49164 108.552 1.91061 114.919 6.14764 118.615C12.1479 123.849 21.9243 120.615 28.9971 124.274C35.7055 127.745 38.4297 136.599 45.3424 139.645C51.1195 142.19 57.7701 139.825 63.6139 137.435C69.7053 134.943 75.7843 132.42 81.8505 129.867" stroke="white" stroke-opacity="0.6" stroke-width="0.602047"/>
<path d="M-35.2321 9.25977C-41.7623 19.9653 -46.0371 32.0389 -47.6971 44.468C-48.7248 52.1576 -48.3642 60.9763 -42.7035 66.2812C-38.4609 70.2572 -32.207 71.2464 -26.3964 71.0326C-20.5854 70.8188 -14.8073 69.5978 -9.00269 69.9391C-3.1979 70.2807 2.94846 72.5719 5.89348 77.5851C8.6806 82.3297 7.98609 88.2397 7.64513 93.7318C7.30355 99.2235 7.71344 105.458 11.8592 109.077C17.7297 114.201 27.2943 111.035 34.2146 114.618C40.7779 118.016 43.4435 126.685 50.2059 129.667C55.8586 132.159 62.3651 129.843 68.0826 127.503C74.0424 125.063 79.9901 122.593 85.9252 120.094" stroke="white" stroke-opacity="0.6" stroke-width="0.602047"/>
<path d="M-28.1456 1.85352C-34.5141 12.2976 -38.6819 24.077 -40.3013 36.2028C-41.3031 43.7047 -40.9514 52.3084 -35.4317 57.4839C-31.2943 61.363 -25.1963 62.3283 -19.5302 62.1197C-13.8637 61.911 -8.22916 60.7195 -2.56885 61.053C3.09167 61.3859 9.0853 63.6212 11.9568 68.5123C14.675 73.1414 13.9981 78.907 13.6652 84.265C13.3322 89.6233 13.7322 95.7051 17.774 99.2356C23.4987 104.235 32.8262 101.146 39.574 104.641C45.9744 107.957 48.5725 116.415 55.1678 119.324C60.6799 121.755 67.0252 119.496 72.5999 117.213C78.4117 114.832 84.2114 112.423 89.999 109.984" stroke="white" stroke-opacity="0.6" stroke-width="0.602047"/>
<path d="M-21.3939 -5.92383C-27.6179 4.29198 -31.6916 15.8132 -33.2743 27.6746C-34.2532 35.012 -33.9097 43.4277 -28.5146 48.4901C-24.4714 52.284 -18.5114 53.2282 -12.9737 53.0241C-7.43558 52.8202 -1.92862 51.6549 3.60353 51.9806C9.13546 52.3067 14.9935 54.4932 17.8 59.2772C20.4561 63.8048 19.7948 69.4445 19.4691 74.6854C19.1438 79.9263 19.535 85.8752 23.4853 89.3287C29.0802 94.2186 38.1959 91.197 44.7914 94.6159C51.0463 97.8591 53.586 106.132 60.0318 108.977C65.4189 111.355 71.6199 109.145 77.0689 106.912C82.7488 104.584 88.417 102.227 94.0731 99.8417" stroke="white" stroke-opacity="0.6" stroke-width="0.602047"/>
<path d="M-14.3081 -13.332C-20.3694 -3.37773 -24.3369 7.85002 -25.8784 19.4072C-26.832 26.5576 -26.4972 34.7576 -21.2433 39.6906C-17.3051 43.3879 -11.5009 44.3078 -6.10771 44.109C-0.713439 43.9105 4.64926 42.7747 10.0371 43.0923C15.4246 43.41 21.1303 45.5404 23.8634 50.2024C26.4503 54.614 25.8057 60.11 25.4891 65.2168C25.1723 70.3235 25.5525 76.1205 29.4002 79.4857C34.849 84.2507 43.7268 81.3063 50.1501 84.6381C56.2422 87.7982 58.7156 95.859 64.9934 98.6319C70.2399 100.949 76.279 98.796 81.5859 96.6198C87.1177 94.3508 92.6381 92.0542 98.1469 89.7298" stroke="white" stroke-opacity="0.6" stroke-width="0.602047"/>
<path d="M-7.18565 -20.7402C-13.1025 -11.0466 -16.9761 -0.114206 -18.4807 11.1402C-19.4111 18.103 -19.0846 26.0879 -13.9553 30.8919C-10.1115 34.4918 -4.44517 35.388 0.819899 35.1944C6.08476 35.0004 11.3203 33.8949 16.5798 34.2043C21.8391 34.5137 27.4086 36.5883 30.0768 41.1277C32.6021 45.424 31.9732 50.7751 31.664 55.7482C31.3544 60.7212 31.7257 66.366 35.4821 69.6429C40.8012 74.283 49.4674 71.4158 55.7378 74.6603C61.685 77.7374 64.0996 85.5869 70.2274 88.287C75.3492 90.5436 81.2444 88.4467 86.4248 86.3277C91.825 84.1183 97.214 81.882 102.592 79.6187" stroke="white" stroke-opacity="0.6" stroke-width="0.602047"/>
<path d="M-0.434426 -28.1465C-6.20681 -18.6817 -9.98585 -8.00672 -11.4537 2.98265C-12.3616 9.781 -12.0428 17.5783 -7.03919 22.2684C-3.28863 25.7836 2.23918 26.6587 7.37587 26.4693C12.5124 26.2808 17.62 25.2006 22.7517 25.5032C27.8828 25.8049 33.3161 27.8306 35.9193 32.2633C38.3832 36.458 37.7696 41.6831 37.4677 46.5391C37.1661 51.3947 37.5286 56.9066 41.1929 60.1063C46.3824 64.6372 54.8372 61.8373 60.9543 65.0054C66.7564 68.0097 69.1122 75.6749 75.0905 78.3109C80.0875 80.5144 85.8394 78.4669 90.8936 76.3979C96.1619 74.2405 101.419 72.0568 106.666 69.8468" stroke="white" stroke-opacity="0.6" stroke-width="0.602047"/>
<path d="M6.65204 -35.5547C1.04127 -26.3508 -2.63087 -15.9701 -4.05724 -5.28456C-4.93998 1.32639 -4.63019 8.90863 0.233241 13.4697C3.87792 16.8882 9.25052 17.7385 14.2425 17.5546C19.2352 17.3709 24.1987 16.321 29.1856 16.6145C34.1728 16.9086 39.4534 18.878 41.9833 23.1887C44.3779 27.2674 43.7816 32.349 43.4881 37.0705C43.1948 41.7923 43.5472 47.1523 47.1087 50.2635C52.1517 54.6695 60.3692 51.9468 66.3141 55.0274C71.9527 57.9495 74.2427 65.4024 80.0528 67.966C84.909 70.1087 90.499 68.1179 95.4111 66.1053C100.531 64.0077 105.641 61.8844 110.74 59.7354" stroke="white" stroke-opacity="0.6" stroke-width="0.602047"/>
<path d="M13.4035 -43.332C7.9372 -34.3564 4.35939 -24.2335 2.96996 -13.813C2.10972 -7.36609 2.41188 0.0277089 7.14982 4.47546C10.701 7.80891 15.9349 8.6384 20.799 8.45946C25.6628 8.28031 30.4994 7.25619 35.3573 7.54225C40.2162 7.82913 45.3611 9.74982 47.8258 13.9532C50.1587 17.931 49.5775 22.8861 49.2923 27.4903C49.006 32.0953 49.349 37.3218 52.8193 40.3555C57.7329 44.6524 65.7384 41.9974 71.5308 45.0014C77.0248 47.8509 79.2553 55.119 84.9162 57.6192C89.6475 59.7085 95.0938 57.7668 99.8788 55.8046C104.868 53.7592 109.846 51.6886 114.814 49.5928" stroke="white" stroke-opacity="0.6" stroke-width="0.602047"/>
<path d="M20.4897 -50.7402C15.1858 -42.0259 11.7143 -32.1971 10.3659 -22.08C9.53145 -15.8207 9.82412 -8.64176 14.4213 -4.32362C17.8672 -1.08718 22.9461 -0.281838 27.6655 -0.455621C32.3843 -0.629816 37.0774 -1.6238 41.7918 -1.34579C46.5058 -1.06757 51.4983 0.797591 53.8897 4.87859C56.1532 8.74081 55.5894 13.5514 55.3122 18.0221C55.035 22.4927 55.3681 27.5673 58.735 30.5131C63.5024 34.6847 71.2704 32.1073 76.8907 35.0238C82.2214 37.7897 84.3858 44.8469 89.8779 47.2741C94.4691 49.3029 99.7538 47.4177 104.397 45.5125C109.237 43.5265 114.068 41.516 118.888 39.4811" stroke="white" stroke-opacity="0.6" stroke-width="0.602047"/>
<path d="M27.6116 -58.1465C22.4524 -49.6933 19.075 -40.1596 17.763 -30.3448C16.9518 -24.2736 17.2369 -17.3097 21.7088 -13.1205C25.061 -9.98131 30.0012 -9.19991 34.5922 -9.36833C39.1832 -9.53757 43.7482 -10.5018 48.3342 -10.2319C52.9198 -9.96212 57.7758 -8.15309 60.1029 -4.19428C62.3051 -0.448049 61.7563 4.21869 61.4868 8.55561C61.2168 12.8921 61.541 17.8146 64.8163 20.6723C69.4539 24.7184 77.0106 22.2186 82.4781 25.0478C87.6635 27.7313 89.7689 34.5765 95.112 36.9311C99.5781 38.8988 104.719 37.0704 109.235 35.2223C113.944 33.2956 118.643 31.3454 123.332 29.3717" stroke="white" stroke-opacity="0.6" stroke-width="0.602047"/>
<path d="M34.3635 -65.5547C29.3486 -57.3297 26.0657 -48.0536 24.7906 -38.5047C24.0013 -32.5967 24.2783 -25.8217 28.6258 -21.7454C31.8839 -18.6908 36.6864 -17.9307 41.1486 -18.0948C45.611 -18.2595 50.0483 -19.1973 54.5063 -18.9354C58.964 -18.6725 63.684 -16.9128 65.9458 -13.0609C68.0861 -9.41555 67.553 -4.87513 67.2911 -0.655641C67.0288 3.56384 67.3437 8.35359 70.5271 11.1339C75.0358 15.0708 82.3809 12.6385 87.6949 15.3912C92.7354 18.0018 94.7824 24.6623 99.9758 26.9533C104.317 28.868 109.313 27.0885 113.704 25.2908C118.281 23.4164 122.849 21.5188 127.406 19.5981" stroke="white" stroke-opacity="0.6" stroke-width="0.602047"/>
<path d="M41.4493 -72.9609C36.597 -64.9973 33.4198 -56.0155 32.1862 -46.7697C31.4228 -41.0494 31.6907 -34.489 35.8969 -30.5428C39.0502 -27.5847 43.6965 -26.849 48.0151 -27.0081C52.3328 -27.167 56.6266 -28.0755 60.9402 -27.8215C65.2534 -27.567 69.8208 -25.8632 72.0092 -22.1337C74.0804 -18.6038 73.5644 -14.2072 73.3107 -10.1219C73.0571 -6.03656 73.3617 -1.39892 76.4421 1.29285C80.8046 5.10513 87.9117 2.74998 93.054 5.41513C97.9315 7.94302 99.9118 14.3922 104.937 16.6103C109.138 18.4641 113.973 16.7411 118.221 15.0004C122.65 13.1854 127.07 11.3481 131.48 9.48848" stroke="white" stroke-opacity="0.6" stroke-width="0.602047"/>
</g>
</g>
<path d="M50 82C67.6731 82 82 67.6731 82 50C82 32.3269 67.6731 18 50 18C32.3269 18 18 32.3269 18 50C18 67.6731 32.3269 82 50 82Z" fill="white"/>
<path d="M41 59L59 41" stroke="#E72240" stroke-width="5" stroke-linecap="round" stroke-linejoin="round"/>
<path d="M59 59L41 41" stroke="#E72240" stroke-width="5" stroke-linecap="round" stroke-linejoin="round"/>
</svg>
