<svg width="20" height="24" viewBox="0 0 20 24" fill="none" xmlns="http://www.w3.org/2000/svg">
<path d="M0.929358 0.000732422C0.575271 0.000732422 0.285767 0.290005 0.285767 0.644547V23.3554C0.285767 23.71 0.575271 23.9993 0.929358 23.9993H19.0824C19.4372 23.9993 19.7267 23.7098 19.7267 23.3554V7.79155C19.7267 7.43701 19.522 6.94261 19.2718 6.69222L13.0352 0.456019C12.7846 0.205179 12.2902 0.000732422 11.9358 0.000732422H0.929358Z" fill="#898B94"/>
<path d="M1.46666 0.429443C1.11189 0.429443 0.822388 0.719627 0.822388 1.07326V23.141C0.822388 23.4949 1.11189 23.7851 1.46666 23.7851H18.8688C19.2224 23.7851 19.5126 23.4951 19.5126 23.141V7.89847C19.5126 7.54461 19.3072 7.04998 19.0571 6.79891L13.1424 0.884958C12.8918 0.634801 12.3976 0.429443 12.0433 0.429443H1.46666Z" fill="url(#paint0_linear_440_4063)"/>
<path d="M13.0316 2.1394V5.3578C13.0316 6.03595 13.5824 6.58584 14.2592 6.58584H17.604L13.0316 2.1394Z" fill="url(#paint1_linear_440_4063)"/>
<path d="M12.7791 6.11073L12.4827 0.814209L12.0275 6.86211C12.0275 7.21597 12.317 7.50593 12.6717 7.50593H18.5302L13.4227 6.75454C13.0688 6.75477 12.7791 6.46459 12.7791 6.11073Z" fill="url(#paint2_radial_440_4063)"/>
<path d="M19.5507 17.558C19.5507 17.8662 19.2907 18.1184 18.9733 18.1184H1.43788C1.12041 18.1184 0.860474 17.8664 0.860474 17.558V11.0225C0.860474 10.7144 1.12041 10.4624 1.43788 10.4624H18.9733C19.2907 10.4624 19.5507 10.7144 19.5507 11.0225V17.558Z" fill="#2A1AD8"/>
<path d="M4.98127 16.3309C4.86483 16.3309 4.76477 16.2908 4.68108 16.2108C4.60103 16.1307 4.561 16.0325 4.561 15.9161C4.561 15.8033 4.60103 15.7068 4.68108 15.6268C4.76477 15.5467 4.86483 15.5067 4.98127 15.5067C5.09407 15.5067 5.19049 15.5467 5.27054 15.6268C5.35059 15.7068 5.39062 15.8033 5.39062 15.9161C5.39062 16.0325 5.35059 16.1307 5.27054 16.2108C5.19049 16.2908 5.09407 16.3309 4.98127 16.3309ZM8.16212 13.6292C8.16212 13.4399 8.10572 13.2926 7.99292 13.1871C7.88376 13.0815 7.7273 13.0288 7.52354 13.0288H6.40465V12.4611H7.57266C7.94744 12.4611 8.24217 12.5667 8.45685 12.7777C8.67517 12.9888 8.78433 13.2726 8.78433 13.6292H8.16212ZM6.08263 16.2817V12.4611H6.69392V16.2817H6.08263ZM6.40465 14.7917V14.2241H7.52354C7.7273 14.2241 7.88376 14.1713 7.99292 14.0658C8.10572 13.9603 8.16212 13.8147 8.16212 13.6292H8.78433C8.78433 13.9821 8.67517 14.2641 8.45685 14.4751C8.24217 14.6862 7.94744 14.7917 7.57266 14.7917H6.40465ZM9.80131 16.2817V15.6814H10.7947C11.0312 15.6814 11.2349 15.6268 11.406 15.5176C11.577 15.4048 11.708 15.2502 11.7989 15.0537C11.8899 14.8572 11.9354 14.6298 11.9354 14.3714C11.9354 14.1095 11.8899 13.8802 11.7989 13.6837C11.708 13.4872 11.577 13.3344 11.406 13.2253C11.2349 13.1161 11.0312 13.0615 10.7947 13.0615H9.80131V12.4611H10.7947C11.1585 12.4611 11.4733 12.543 11.7389 12.7068C12.0045 12.8669 12.2083 13.0906 12.3502 13.3781C12.4921 13.6655 12.563 13.9967 12.563 14.3714C12.563 14.7462 12.4921 15.0773 12.3502 15.3648C12.2083 15.6523 12.0045 15.8778 11.7389 16.0416C11.4733 16.2017 11.1585 16.2817 10.7947 16.2817H9.80131ZM9.41925 16.2817V12.4611H10.0469V16.2817H9.41925ZM13.2036 16.2817V12.4611H13.8313V16.2817H13.2036ZM13.5256 14.6716V14.0713H15.4796V14.6716H13.5256ZM13.5256 13.0615V12.4611H15.6433V13.0615H13.5256Z" fill="#DADAE1"/>
<defs>
<linearGradient id="paint0_linear_440_4063" x1="10.1675" y1="0.529563" x2="10.1675" y2="23.885" gradientUnits="userSpaceOnUse">
<stop stop-color="white"/>
<stop offset="0.4837" stop-color="#FDFDFD"/>
<stop offset="0.7117" stop-color="#F5F6F6"/>
<stop offset="0.8856" stop-color="#E9E9EA"/>
<stop offset="1" stop-color="#DBDCDD"/>
</linearGradient>
<linearGradient id="paint1_linear_440_4063" x1="15.3493" y1="4.33121" x2="13.2991" y2="6.38134" gradientUnits="userSpaceOnUse">
<stop stop-color="white"/>
<stop offset="0.3511" stop-color="#F2F3F3"/>
<stop offset="0.998" stop-color="#D0D2D3"/>
<stop offset="1" stop-color="#D0D2D3"/>
</linearGradient>
<radialGradient id="paint2_radial_440_4063" cx="0" cy="0" r="1" gradientUnits="userSpaceOnUse" gradientTransform="translate(15.4179 4.05731) scale(3.74661 3.74662)">
<stop stop-color="white"/>
<stop offset="0.486" stop-color="#FDFDFD"/>
<stop offset="0.661" stop-color="#F6F7F7"/>
<stop offset="0.7858" stop-color="#EBEBEC"/>
<stop offset="0.8866" stop-color="#DADBDC"/>
<stop offset="0.972" stop-color="#C4C6C7"/>
<stop offset="1" stop-color="#BBBDBF"/>
</radialGradient>
</defs>
</svg>
