<svg width="100" height="100" viewBox="0 0 100 100" fill="none" xmlns="http://www.w3.org/2000/svg">
<path d="M99.999 50C99.999 22.3858 77.6133 0 49.999 0C22.3848 0 -0.000976562 22.3858 -0.000976562 50C-0.000976562 77.6142 22.3848 100 49.999 100C77.6133 100 99.999 77.6142 99.999 50Z" fill="#FF5E24"/>
<mask id="mask0_4670_29991" style="mask-type:alpha" maskUnits="userSpaceOnUse" x="-1" y="0" width="101" height="100">
<path d="M99.9971 50C99.9971 22.3858 77.6113 0 49.9971 0C22.3828 0 -0.00292969 22.3858 -0.00292969 50C-0.00292969 77.6142 22.3828 100 49.9971 100C77.6113 100 99.9971 77.6142 99.9971 50Z" fill="#666AF6"/>
</mask>
<g mask="url(#mask0_4670_29991)">
<g opacity="0.5">
<path d="M-49.1059 24.0742C-55.9251 35.2687 -60.3885 47.895 -62.1222 60.8923C-63.1948 68.9334 -62.8186 78.1556 -56.9075 83.7028C-52.4775 87.861 -45.9474 88.8957 -39.8797 88.6721C-33.8118 88.4486 -27.7783 87.1715 -21.7172 87.5283C-15.6563 87.8856 -9.23787 90.2816 -6.16283 95.5244C-3.2527 100.486 -3.97734 106.666 -4.33419 112.409C-4.69001 118.152 -4.26175 124.672 0.0665047 128.456C6.19636 133.815 16.1841 130.504 23.4099 134.25C30.2636 137.804 33.0466 146.87 40.1083 149.988C46.0111 152.594 52.8051 150.172 58.7748 147.725C64.9982 145.173 71.2088 142.591 77.4063 139.977" stroke="white" stroke-opacity="0.6" stroke-width="0.602047"/>
<path d="M-41.9841 16.668C-48.6584 27.6016 -53.0277 39.9329 -54.7251 52.6273C-55.7748 60.4807 -55.4064 69.4879 -49.6204 74.9061C-45.2845 78.9671 -38.8925 79.9776 -32.9532 79.7588C-27.0142 79.5409 -21.1083 78.2934 -15.1752 78.6422C-9.242 78.991 -2.95963 81.3313 0.050194 86.4513C2.89882 91.2974 2.18945 97.3335 1.84024 102.943C1.49164 108.552 1.91061 114.919 6.14764 118.615C12.1479 123.849 21.9243 120.615 28.9971 124.274C35.7055 127.745 38.4297 136.599 45.3424 139.645C51.1195 142.19 57.7701 139.825 63.6139 137.435C69.7053 134.943 75.7843 132.42 81.8505 129.867" stroke="white" stroke-opacity="0.6" stroke-width="0.602047"/>
<path d="M-35.2325 9.25977C-41.7628 19.9653 -46.0376 32.0389 -47.6976 44.468C-48.7252 52.1576 -48.3647 60.9763 -42.704 66.2812C-38.4614 70.2572 -32.2075 71.2464 -26.3969 71.0326C-20.5859 70.8188 -14.8078 69.5978 -9.00317 69.9391C-3.19839 70.2807 2.94798 72.5719 5.89299 77.5851C8.68011 82.3297 7.9856 88.2397 7.64464 93.7318C7.30306 99.2235 7.71296 105.458 11.8588 109.077C17.7292 114.201 27.2938 111.035 34.2142 114.618C40.7774 118.016 43.443 126.685 50.2054 129.667C55.8581 132.159 62.3646 129.843 68.0821 127.503C74.0419 125.063 79.9896 122.593 85.9247 120.094" stroke="white" stroke-opacity="0.6" stroke-width="0.602047"/>
<path d="M-28.1461 1.85352C-34.5145 12.2976 -38.6824 24.077 -40.3018 36.2028C-41.3036 43.7047 -40.9519 52.3084 -35.4322 57.4839C-31.2948 61.363 -25.1968 62.3283 -19.5307 62.1197C-13.8642 61.911 -8.22965 60.7195 -2.56934 61.053C3.09118 61.3859 9.08481 63.6212 11.9564 68.5123C14.6745 73.1414 13.9976 78.907 13.6647 84.265C13.3318 89.6233 13.7317 95.7051 17.7735 99.2356C23.4982 104.235 32.8257 101.146 39.5735 104.641C45.9739 107.957 48.572 116.415 55.1673 119.324C60.6794 121.755 67.0247 119.496 72.5994 117.213C78.4112 114.832 84.2109 112.423 89.9985 109.984" stroke="white" stroke-opacity="0.6" stroke-width="0.602047"/>
<path d="M-21.3944 -5.92383C-27.6184 4.29198 -31.6921 15.8132 -33.2747 27.6746C-34.2537 35.012 -33.9102 43.4277 -28.5151 48.4901C-24.4719 52.284 -18.5119 53.2282 -12.9742 53.0241C-7.43607 52.8202 -1.9291 51.6549 3.60304 51.9806C9.13497 52.3067 14.993 54.4932 17.7995 59.2772C20.4556 63.8048 19.7943 69.4445 19.4686 74.6854C19.1433 79.9263 19.5345 85.8752 23.4848 89.3287C29.0797 94.2186 38.1954 91.197 44.7909 94.6159C51.0458 97.8591 53.5855 106.132 60.0313 108.977C65.4184 111.355 71.6194 109.145 77.0684 106.912C82.7483 104.584 88.4165 102.227 94.0727 99.8417" stroke="white" stroke-opacity="0.6" stroke-width="0.602047"/>
<path d="M-14.3083 -13.332C-20.3697 -3.37773 -24.3371 7.85002 -25.8787 19.4072C-26.8322 26.5576 -26.4975 34.7576 -21.2435 39.6906C-17.3054 43.3879 -11.5012 44.3078 -6.10795 44.109C-0.713683 43.9105 4.64901 42.7747 10.0369 43.0923C15.4243 43.41 21.1301 45.5404 23.8631 50.2024C26.45 54.614 25.8055 60.11 25.4889 65.2168C25.1721 70.3235 25.5522 76.1205 29.4 79.4857C34.8488 84.2507 43.7265 81.3063 50.1499 84.6381C56.2419 87.7982 58.7153 95.859 64.9932 98.6319C70.2397 100.949 76.2787 98.796 81.5857 96.6198C87.1175 94.3508 92.6379 92.0542 98.1466 89.7298" stroke="white" stroke-opacity="0.6" stroke-width="0.602047"/>
<path d="M-7.18565 -20.7402C-13.1025 -11.0466 -16.9761 -0.114206 -18.4807 11.1402C-19.4111 18.103 -19.0846 26.0879 -13.9553 30.8919C-10.1115 34.4918 -4.44517 35.388 0.819899 35.1944C6.08476 35.0004 11.3203 33.8949 16.5798 34.2043C21.8391 34.5137 27.4086 36.5883 30.0768 41.1277C32.6021 45.424 31.9732 50.7751 31.664 55.7482C31.3544 60.7212 31.7257 66.366 35.4821 69.6429C40.8012 74.283 49.4674 71.4158 55.7378 74.6603C61.685 77.7374 64.0996 85.5869 70.2274 88.287C75.3492 90.5436 81.2444 88.4467 86.4248 86.3277C91.825 84.1183 97.214 81.882 102.592 79.6187" stroke="white" stroke-opacity="0.6" stroke-width="0.602047"/>
<path d="M-0.43467 -28.1465C-6.20705 -18.6817 -9.9861 -8.00672 -11.454 2.98265C-12.3619 9.781 -12.043 17.5783 -7.03943 22.2684C-3.28887 25.7836 2.23894 26.6587 7.37563 26.4693C12.5121 26.2808 17.6197 25.2006 22.7515 25.5032C27.8826 25.8049 33.3159 27.8306 35.9191 32.2633C38.383 36.458 37.7694 41.6831 37.4674 46.5391C37.1659 51.3947 37.5283 56.9066 41.1926 60.1063C46.3821 64.6372 54.837 61.8373 60.9541 65.0054C66.7562 68.0097 69.1119 75.6749 75.0903 78.3109C80.0873 80.5144 85.8392 78.4669 90.8933 76.3979C96.1616 74.2405 101.419 72.0568 106.665 69.8468" stroke="white" stroke-opacity="0.6" stroke-width="0.602047"/>
<path d="M6.65155 -35.5547C1.04078 -26.3508 -2.63135 -15.9701 -4.05773 -5.28456C-4.94047 1.32639 -4.63068 8.90863 0.232753 13.4697C3.87744 16.8882 9.25003 17.7385 14.242 17.5546C19.2347 17.3709 24.1982 16.321 29.1851 16.6145C34.1723 16.9086 39.4529 18.878 41.9828 23.1887C44.3774 27.2674 43.7811 32.349 43.4876 37.0705C43.1944 41.7923 43.5467 47.1523 47.1082 50.2635C52.1512 54.6695 60.3687 51.9468 66.3136 55.0274C71.9522 57.9495 74.2422 65.4024 80.0523 67.966C84.9085 70.1087 90.4985 68.1179 95.4106 66.1053C100.531 64.0077 105.64 61.8844 110.739 59.7354" stroke="white" stroke-opacity="0.6" stroke-width="0.602047"/>
<path d="M13.403 -43.332C7.93671 -34.3564 4.35891 -24.2335 2.96947 -13.813C2.10923 -7.36609 2.41139 0.0277089 7.14933 4.47546C10.7005 7.80891 15.9344 8.6384 20.7985 8.45946C25.6623 8.28031 30.4989 7.25619 35.3568 7.54225C40.2157 7.82913 45.3606 9.74982 47.8253 13.9532C50.1582 17.931 49.577 22.8861 49.2918 27.4903C49.0055 32.0953 49.3485 37.3218 52.8188 40.3555C57.7324 44.6524 65.7379 41.9974 71.5303 45.0014C77.0243 47.8509 79.2548 55.119 84.9157 57.6192C89.647 59.7085 95.0933 57.7668 99.8783 55.8046C104.867 53.7592 109.846 51.6886 114.813 49.5928" stroke="white" stroke-opacity="0.6" stroke-width="0.602047"/>
<path d="M20.4892 -50.7402C15.1853 -42.0259 11.7138 -32.1971 10.3654 -22.08C9.53096 -15.8207 9.82363 -8.64176 14.4208 -4.32362C17.8667 -1.08718 22.9456 -0.281838 27.665 -0.455621C32.3838 -0.629816 37.0769 -1.6238 41.7913 -1.34579C46.5053 -1.06757 51.4978 0.797591 53.8892 4.87859C56.1527 8.74081 55.5889 13.5514 55.3117 18.0221C55.0345 22.4927 55.3676 27.5673 58.7345 30.5131C63.502 34.6847 71.2699 32.1073 76.8902 35.0238C82.2209 37.7897 84.3853 44.8469 89.8774 47.2741C94.4686 49.3029 99.7533 47.4177 104.396 45.5125C109.237 43.5265 114.067 41.516 118.887 39.4811" stroke="white" stroke-opacity="0.6" stroke-width="0.602047"/>
<path d="M27.6113 -58.1465C22.4521 -49.6933 19.0747 -40.1596 17.7627 -30.3448C16.9516 -24.2736 17.2366 -17.3097 21.7085 -13.1205C25.0607 -9.98131 30.0009 -9.19991 34.5919 -9.36833C39.1829 -9.53757 43.7479 -10.5018 48.334 -10.2319C52.9196 -9.96212 57.7756 -8.15309 60.1027 -4.19428C62.3049 -0.448049 61.7561 4.21869 61.4865 8.55561C61.2166 12.8921 61.5408 17.8146 64.816 20.6723C69.4537 24.7184 77.0103 22.2186 82.4779 25.0478C87.6633 27.7313 89.7687 34.5765 95.1118 36.9311C99.5779 38.8988 104.719 37.0704 109.235 35.2223C113.944 33.2956 118.643 31.3454 123.332 29.3717" stroke="white" stroke-opacity="0.6" stroke-width="0.602047"/>
<path d="M34.3632 -65.5547C29.3483 -57.3297 26.0654 -48.0536 24.7903 -38.5047C24.0011 -32.5967 24.2781 -25.8217 28.6255 -21.7454C31.8836 -18.6908 36.6862 -17.9307 41.1484 -18.0948C45.6108 -18.2595 50.048 -19.1973 54.5061 -18.9354C58.9638 -18.6725 63.6837 -16.9128 65.9456 -13.0609C68.0859 -9.41555 67.5528 -4.87513 67.2909 -0.655641C67.0285 3.56384 67.3435 8.35359 70.5269 11.1339C75.0355 15.0708 82.3806 12.6385 87.6946 15.3912C92.7351 18.0018 94.7821 24.6623 99.9756 26.9533C104.317 28.868 109.313 27.0885 113.704 25.2908C118.281 23.4164 122.848 21.5188 127.406 19.5981" stroke="white" stroke-opacity="0.6" stroke-width="0.602047"/>
<path d="M41.4493 -72.9609C36.597 -64.9973 33.4198 -56.0155 32.1862 -46.7697C31.4228 -41.0494 31.6907 -34.489 35.8969 -30.5428C39.0502 -27.5847 43.6965 -26.849 48.0151 -27.0081C52.3328 -27.167 56.6266 -28.0755 60.9402 -27.8215C65.2534 -27.567 69.8208 -25.8632 72.0092 -22.1337C74.0804 -18.6038 73.5644 -14.2072 73.3107 -10.1219C73.0571 -6.03656 73.3617 -1.39892 76.4421 1.29285C80.8046 5.10513 87.9117 2.74998 93.054 5.41513C97.9315 7.94302 99.9118 14.3922 104.937 16.6103C109.138 18.4641 113.973 16.7411 118.221 15.0004C122.65 13.1854 127.07 11.3481 131.48 9.48848" stroke="white" stroke-opacity="0.6" stroke-width="0.602047"/>
</g>
</g>
<path d="M50 82C67.6731 82 82 67.6731 82 50C82 32.3269 67.6731 18 50 18C32.3269 18 18 32.3269 18 50C18 67.6731 32.3269 82 50 82Z" fill="white"/>
<path d="M66.6668 50.0007C66.6668 59.2007 59.2002 66.6673 50.0002 66.6673C40.8002 66.6673 33.3335 59.2007 33.3335 50.0007C33.3335 40.8007 40.8002 33.334 50.0002 33.334C59.2002 33.334 66.6668 40.8007 66.6668 50.0007Z" stroke="#FF5E24" stroke-width="4" stroke-linecap="round" stroke-linejoin="round"/>
<path d="M56.1833 55.3009L51.0166 52.2176C50.1166 51.6842 49.3833 50.4009 49.3833 49.3509V42.5176" stroke="#FF5E24" stroke-width="4" stroke-linecap="round" stroke-linejoin="round"/>
</svg>
