<svg width="44" height="44" viewBox="0 0 44 44" fill="none" xmlns="http://www.w3.org/2000/svg">
<path d="M30.4139 7.05938V4.29688C30.4139 3.57083 29.8118 2.96875 29.0857 2.96875C28.3597 2.96875 27.7576 3.57083 27.7576 4.29688V6.95313H16.2472V4.29688C16.2472 3.57083 15.6451 2.96875 14.9191 2.96875C14.193 2.96875 13.5909 3.57083 13.5909 4.29688V7.05938C8.80969 7.50208 6.4899 10.3531 6.13573 14.5854C6.10032 15.099 6.52532 15.524 7.02115 15.524H36.9836C37.4972 15.524 37.9222 15.0813 37.8691 14.5854C37.5149 10.3531 35.1951 7.50208 30.4139 7.05938Z" fill="#E72240"/>
<path d="M36.1667 18.1562H7.83333C6.85937 18.1562 6.0625 18.9531 6.0625 19.9271V30.8354C6.0625 36.1479 8.71875 39.6896 14.9167 39.6896H23.6469C24.8687 39.6896 25.7187 38.5031 25.3292 37.3521C24.975 36.325 24.674 35.1917 24.674 34.3771C24.674 29.0115 29.0479 24.6375 34.4135 24.6375C34.9271 24.6375 35.4406 24.6729 35.9365 24.7615C36.999 24.9208 37.9552 24.0885 37.9552 23.026V19.9448C37.9375 18.9531 37.1406 18.1562 36.1667 18.1562ZM17.0594 32.0927C16.7229 32.4115 16.2625 32.6062 15.8021 32.6062C15.5719 32.6062 15.3417 32.5531 15.1292 32.4646C14.9167 32.376 14.7219 32.2521 14.5448 32.0927C14.226 31.7562 14.0312 31.3135 14.0312 30.8354C14.0312 30.6052 14.0844 30.375 14.1729 30.1625C14.2615 29.9323 14.3854 29.7552 14.5448 29.5781C14.7219 29.4188 14.9167 29.2948 15.1292 29.2063C15.7667 28.9229 16.5635 29.0823 17.0594 29.5781C17.2187 29.7552 17.3427 29.9323 17.4312 30.1625C17.5198 30.375 17.5729 30.6052 17.5729 30.8354C17.5729 31.3135 17.3781 31.7562 17.0594 32.0927ZM17.0594 25.8948C16.7229 26.2135 16.2625 26.4083 15.8021 26.4083C15.5719 26.4083 15.3417 26.3729 15.1292 26.2667C14.9167 26.1781 14.7219 26.0542 14.5448 25.8948C14.226 25.5583 14.0312 25.0979 14.0312 24.6375C14.0312 24.4073 14.0844 24.1771 14.1729 23.9646C14.2615 23.7521 14.3854 23.5573 14.5448 23.3802C14.7219 23.2208 14.9167 23.0969 15.1292 23.0083C15.7667 22.7427 16.5635 22.8844 17.0594 23.3802C17.2187 23.5573 17.3427 23.7521 17.4312 23.9646C17.5198 24.1771 17.5729 24.4073 17.5729 24.6375C17.5729 25.0979 17.3781 25.5583 17.0594 25.8948ZM23.6292 25.3104C23.5406 25.5229 23.4167 25.7177 23.2573 25.8948C23.0802 26.0542 22.8854 26.1781 22.6729 26.2667C22.4604 26.3729 22.2302 26.4083 22 26.4083C21.5396 26.4083 21.0792 26.2135 20.7427 25.8948C20.5833 25.7177 20.4594 25.5229 20.3708 25.3104C20.2823 25.0979 20.2292 24.8677 20.2292 24.6375C20.2292 24.1771 20.424 23.7167 20.7427 23.3802C21.2385 22.8844 22.0177 22.725 22.6729 23.0083C22.8854 23.0969 23.0802 23.2208 23.2573 23.3802C23.576 23.7167 23.7708 24.1771 23.7708 24.6375C23.7708 24.8677 23.7354 25.0979 23.6292 25.3104Z" fill="#E72240"/>
<path d="M34.3958 27.3125C30.4823 27.3125 27.3125 30.4823 27.3125 34.3958C27.3125 38.3094 30.4823 41.4792 34.3958 41.4792C38.3094 41.4792 41.4792 38.3094 41.4792 34.3958C41.4792 30.4823 38.3094 27.3125 34.3958 27.3125ZM37.2292 37.3C36.9635 37.5656 36.6271 37.6896 36.2906 37.6896C35.9542 37.6896 35.6177 37.5656 35.3521 37.3L34.4135 36.3615L33.4396 37.3354C33.174 37.601 32.8375 37.725 32.501 37.725C32.1646 37.725 31.8281 37.601 31.5625 37.3354C31.049 36.8219 31.049 35.9719 31.5625 35.4583L32.5365 34.4844L31.5979 33.5458C31.0844 33.0323 31.0844 32.1823 31.5979 31.6687C32.1115 31.1552 32.9615 31.1552 33.475 31.6687L34.4135 32.625L35.299 31.7396C35.8125 31.226 36.6625 31.226 37.176 31.7396C37.6896 32.2531 37.6896 33.1031 37.176 33.6167L36.2906 34.5021L37.2292 35.4406C37.7427 35.9542 37.7427 36.7865 37.2292 37.3Z" fill="#E72240"/>
</svg>
