<svg width="28" height="28" viewBox="0 0 28 28" fill="none" xmlns="http://www.w3.org/2000/svg">
<path d="M24.5 25.667H3.5C3.02167 25.667 2.625 25.2703 2.625 24.792C2.625 24.3137 3.02167 23.917 3.5 23.917H24.5C24.9783 23.917 25.375 24.3137 25.375 24.792C25.375 25.2703 24.9783 25.667 24.5 25.667Z" fill="url(#paint0_linear_1628_24430)"/>
<path d="M22.1902 4.05929C19.9268 1.79595 17.7102 1.73762 15.3885 4.05929L13.9768 5.47096C13.8602 5.58762 13.8135 5.77429 13.8602 5.93762C14.7468 9.02929 17.2202 11.5026 20.3118 12.3893C20.3585 12.401 20.4052 12.4126 20.4518 12.4126C20.5802 12.4126 20.6968 12.366 20.7902 12.2726L22.1902 10.861C23.3452 9.71762 23.9052 8.60929 23.9052 7.48929C23.9168 6.33429 23.3568 5.21429 22.1902 4.05929Z" fill="url(#paint1_linear_1628_24430)"/>
<path d="M18.2115 13.4519C17.8731 13.2886 17.5465 13.1253 17.2315 12.9386C16.9748 12.7869 16.7298 12.6236 16.4848 12.4486C16.2865 12.3203 16.0531 12.1336 15.8315 11.9469C15.8081 11.9353 15.7265 11.8653 15.6331 11.7719C15.2481 11.4453 14.8165 11.0253 14.4315 10.5586C14.3965 10.5353 14.3381 10.4536 14.2565 10.3486C14.1398 10.2086 13.9415 9.97526 13.7665 9.70693C13.6265 9.53193 13.4631 9.27526 13.3115 9.01859C13.1248 8.70359 12.9615 8.38859 12.7981 8.06193C12.6348 7.71193 12.5065 7.37359 12.3898 7.05859L5.06314 14.3853C4.91147 14.5369 4.77147 14.8286 4.73647 15.0269L4.10647 19.4953C3.9898 20.2886 4.21147 21.0353 4.70147 21.5369C5.12147 21.9453 5.7048 22.1669 6.3348 22.1669C6.4748 22.1669 6.6148 22.1553 6.7548 22.1319L11.2348 21.5019C11.4448 21.4669 11.7365 21.3269 11.8765 21.1753L19.2031 13.8486C18.8765 13.7319 18.5615 13.6036 18.2115 13.4519Z" fill="url(#paint2_linear_1628_24430)"/>
<defs>
<linearGradient id="paint0_linear_1628_24430" x1="2.625" y1="24.792" x2="25.375" y2="24.792" gradientUnits="userSpaceOnUse">
<stop stop-color="#2A1AD8"/>
<stop offset="0.25" stop-color="#4E26E2"/>
<stop offset="0.5" stop-color="#7231EC"/>
<stop offset="0.75" stop-color="#953DF5"/>
<stop offset="1" stop-color="#B948FF"/>
</linearGradient>
<linearGradient id="paint1_linear_1628_24430" x1="13.8423" y1="7.37623" x2="23.9053" y2="7.37623" gradientUnits="userSpaceOnUse">
<stop stop-color="#2A1AD8"/>
<stop offset="0.25" stop-color="#4E26E2"/>
<stop offset="0.5" stop-color="#7231EC"/>
<stop offset="0.75" stop-color="#953DF5"/>
<stop offset="1" stop-color="#B948FF"/>
</linearGradient>
<linearGradient id="paint2_linear_1628_24430" x1="4.07593" y1="14.6128" x2="19.2031" y2="14.6128" gradientUnits="userSpaceOnUse">
<stop stop-color="#2A1AD8"/>
<stop offset="0.25" stop-color="#4E26E2"/>
<stop offset="0.5" stop-color="#7231EC"/>
<stop offset="0.75" stop-color="#953DF5"/>
<stop offset="1" stop-color="#B948FF"/>
</linearGradient>
</defs>
</svg>
