<svg width="18" height="18" viewBox="0 0 18 18" fill="none" xmlns="http://www.w3.org/2000/svg">
<path d="M7.6875 1.875H10.3125C10.6739 1.875 11.0001 2.01962 11.2402 2.25977C11.4804 2.49991 11.625 2.82608 11.625 3.1875C11.625 3.91039 11.0354 4.5 10.3125 4.5H7.6875C7.32608 4.5 6.99991 4.35538 6.75977 4.11523C6.51962 3.87509 6.375 3.54892 6.375 3.1875C6.375 2.46461 6.96461 1.875 7.6875 1.875Z" fill="#F5F5F5" stroke="#F5F5F5" stroke-width="0.75"/>
<path d="M14.1225 3.77253C13.95 3.63003 13.755 3.51753 13.545 3.43503C13.3275 3.35253 13.11 3.52503 13.065 3.75003C12.81 5.03253 11.6775 6.00003 10.3125 6.00003H7.6875C6.9375 6.00003 6.2325 5.70753 5.7 5.17503C5.31 4.78503 5.04 4.29003 4.935 3.75753C4.89 3.53253 4.665 3.35253 4.4475 3.44253C3.5775 3.79503 3 4.59003 3 6.18753V13.5C3 15.75 4.3425 16.5 6 16.5H12C13.6575 16.5 15 15.75 15 13.5V6.18753C15 4.96503 14.6625 4.21503 14.1225 3.77253ZM6 9.18753H9C9.3075 9.18753 9.5625 9.44253 9.5625 9.75003C9.5625 10.0575 9.3075 10.3125 9 10.3125H6C5.6925 10.3125 5.4375 10.0575 5.4375 9.75003C5.4375 9.44253 5.6925 9.18753 6 9.18753ZM12 13.3125H6C5.6925 13.3125 5.4375 13.0575 5.4375 12.75C5.4375 12.4425 5.6925 12.1875 6 12.1875H12C12.3075 12.1875 12.5625 12.4425 12.5625 12.75C12.5625 13.0575 12.3075 13.3125 12 13.3125Z" fill="#F5F5F5"/>
</svg>
