<svg width="8" height="8" viewBox="0 0 8 8" fill="none" xmlns="http://www.w3.org/2000/svg">
<path d="M3.61295 7.98786C2.81983 7.81082 2.16303 7.4001 1.64254 6.75569C1.12206 6.11128 0.861816 5.37127 0.861816 4.53566C0.861816 4.06828 0.953875 3.6257 1.13799 3.20789C1.32211 2.79009 1.58412 2.42893 1.92403 2.12443C1.98068 2.03945 2.06389 1.99519 2.17365 1.99165C2.28341 1.98811 2.38078 2.02529 2.46576 2.10319C2.52949 2.174 2.56313 2.25721 2.56667 2.35281C2.57021 2.44841 2.53658 2.53515 2.46576 2.61305C2.20375 2.8609 2.00016 3.15124 1.85499 3.48407C1.70982 3.81689 1.63723 4.16743 1.63723 4.53566C1.63723 5.18715 1.83197 5.75721 2.22145 6.24583C2.61093 6.73445 3.11371 7.05665 3.7298 7.21244C3.81478 7.24077 3.88913 7.29211 3.95286 7.36646C4.0166 7.44082 4.04846 7.52403 4.04846 7.61608C4.04846 7.75063 4.00243 7.85331 3.91037 7.92413C3.81832 7.99494 3.71918 8.01619 3.61295 7.98786ZM5.25939 7.98786C5.14609 8.01619 5.04517 7.99494 4.95666 7.92413C4.86814 7.85331 4.82388 7.75417 4.82388 7.62671C4.82388 7.54173 4.85398 7.45852 4.91417 7.37709C4.97436 7.29565 5.05049 7.24077 5.14254 7.21244C5.75863 7.06373 6.25964 6.7433 6.64558 6.25114C7.03152 5.75898 7.22449 5.18715 7.22449 4.53566C7.22449 3.76378 6.96247 3.10521 6.43845 2.55994C5.91442 2.01467 5.26647 1.74203 4.49459 1.74203H4.30339L4.63268 2.07132C4.7035 2.14922 4.73182 2.2395 4.71766 2.34219C4.7035 2.44487 4.66455 2.52807 4.60081 2.59181C4.52292 2.6697 4.42909 2.70865 4.31933 2.70865C4.20957 2.70865 4.11928 2.6697 4.04846 2.59181L3.07122 1.62519C3.03582 1.58978 3.00749 1.54906 2.98625 1.50303C2.965 1.45701 2.95438 1.40921 2.95438 1.35964C2.95438 1.31007 2.965 1.26227 2.98625 1.21624C3.00749 1.17021 3.03582 1.12595 3.07122 1.08346L4.04846 0.106222C4.11928 0.0354072 4.2078 0 4.31402 0C4.42024 0 4.51584 0.0389479 4.60081 0.116844C4.67871 0.201821 4.71943 0.29388 4.72297 0.39302C4.72651 0.49216 4.69641 0.573596 4.63268 0.637329L4.30339 0.966616H4.49459C5.47183 0.966616 6.30036 1.31715 6.98018 2.01821C7.66 2.71927 7.9999 3.55842 7.9999 4.53566C7.9999 5.37835 7.74143 6.12013 7.22449 6.761C6.70754 7.40187 6.05251 7.81082 5.25939 7.98786Z" fill="white"/>
</svg>
