<svg width="20" height="20" viewBox="0 0 20 20" fill="none" xmlns="http://www.w3.org/2000/svg">
<mask id="mask0_3067_31330" style="mask-type:alpha" maskUnits="userSpaceOnUse" x="0" y="0" width="20" height="20">
<rect width="20" height="20" fill="#D9D9D9"/>
</mask>
<g mask="url(#mask0_3067_31330)">
<path d="M10 18.4656C9.82403 18.4656 9.65174 18.4312 9.48312 18.3624C9.31451 18.2936 9.16042 18.196 9.02083 18.0697L1.93062 10.9795C1.80437 10.8399 1.7068 10.6859 1.63792 10.5172C1.56917 10.3486 1.53479 10.1763 1.53479 10.0004C1.53479 9.82439 1.56917 9.64918 1.63792 9.47474C1.7068 9.3003 1.80437 9.14912 1.93062 9.0212L9.02083 1.93099C9.16042 1.79321 9.31451 1.6928 9.48312 1.62974C9.65174 1.56668 9.82403 1.53516 10 1.53516C10.176 1.53516 10.3512 1.56668 10.5256 1.62974C10.7001 1.6928 10.8512 1.79321 10.9792 1.93099L18.0694 9.0212C18.2072 9.14912 18.3076 9.3003 18.3706 9.47474C18.4337 9.64918 18.4652 9.82439 18.4652 10.0004C18.4652 10.1763 18.4337 10.3486 18.3706 10.5172C18.3076 10.6859 18.2072 10.8399 18.0694 10.9795L10.9792 18.0697C10.8512 18.196 10.7001 18.2936 10.5256 18.3624C10.3512 18.4312 10.176 18.4656 10 18.4656ZM10.0025 10.8337C10.1999 10.8337 10.3645 10.7672 10.4965 10.6341C10.6284 10.5009 10.6944 10.336 10.6944 10.1393V6.52807C10.6944 6.33141 10.6276 6.16648 10.4942 6.03328C10.3606 5.90023 10.195 5.8337 9.9975 5.8337C9.80014 5.8337 9.63548 5.90023 9.50354 6.03328C9.3716 6.16648 9.30562 6.33141 9.30562 6.52807V10.1393C9.30562 10.336 9.37236 10.5009 9.50583 10.6341C9.63944 10.7672 9.805 10.8337 10.0025 10.8337ZM10 13.1947C10.1899 13.1947 10.3531 13.1265 10.4896 12.9899C10.6261 12.8534 10.6944 12.6902 10.6944 12.5004C10.6944 12.3105 10.6261 12.1473 10.4896 12.0108C10.3531 11.8743 10.1899 11.806 10 11.806C9.81014 11.806 9.64694 11.8743 9.51042 12.0108C9.37389 12.1473 9.30562 12.3105 9.30562 12.5004C9.30562 12.6902 9.37389 12.8534 9.51042 12.9899C9.64694 13.1265 9.81014 13.1947 10 13.1947Z" fill="#898B94"/>
</g>
</svg>
