<svg width="28" height="28" viewBox="0 0 28 28" fill="none" xmlns="http://www.w3.org/2000/svg">
<path d="M14 2.33301C7.57168 2.33301 2.33334 7.57134 2.33334 13.9997C2.33334 20.428 7.57168 25.6663 14 25.6663C20.4283 25.6663 25.6667 20.428 25.6667 13.9997C25.6667 7.57134 20.4283 2.33301 14 2.33301ZM19.5767 11.3163L12.9617 17.9313C12.7983 18.0947 12.5767 18.188 12.3433 18.188C12.11 18.188 11.8883 18.0947 11.725 17.9313L8.42334 14.6297C8.08501 14.2913 8.08501 13.7313 8.42334 13.393C8.76168 13.0547 9.32168 13.0547 9.66001 13.393L12.3433 16.0763L18.34 10.0797C18.6783 9.74134 19.2383 9.74134 19.5767 10.0797C19.915 10.418 19.915 10.9663 19.5767 11.3163Z" fill="#B948FF"/>
</svg>
