<svg width="16" height="17" viewBox="0 0 16 17" fill="none" xmlns="http://www.w3.org/2000/svg">
<path d="M14.0466 3.98659C12.9733 3.87992 11.8999 3.79992 10.8199 3.73992V3.73325L10.6733 2.86659C10.5733 2.25325 10.4266 1.33325 8.86661 1.33325H7.11994C5.56661 1.33325 5.41994 2.21325 5.31328 2.85992L5.17328 3.71325C4.55328 3.75325 3.93328 3.79325 3.31328 3.85325L1.95328 3.98659C1.67328 4.01325 1.47328 4.25992 1.49994 4.53325C1.52661 4.80659 1.76661 5.00659 2.04661 4.97992L3.40661 4.84659C6.89994 4.49992 10.4199 4.63325 13.9533 4.98659C13.9733 4.98659 13.9866 4.98659 14.0066 4.98659C14.2599 4.98659 14.4799 4.79325 14.5066 4.53325C14.5266 4.25992 14.3266 4.01325 14.0466 3.98659Z" fill="#FF0026"/>
<path d="M12.82 5.92675C12.66 5.76008 12.44 5.66675 12.2134 5.66675H3.7867C3.56004 5.66675 3.33337 5.76008 3.18004 5.92675C3.0267 6.09341 2.94004 6.32008 2.95337 6.55341L3.3667 13.3934C3.44004 14.4067 3.53337 15.6734 5.86004 15.6734H10.14C12.4667 15.6734 12.56 14.4134 12.6334 13.3934L13.0467 6.56008C13.06 6.32008 12.9734 6.09341 12.82 5.92675ZM9.1067 12.3334H6.8867C6.61337 12.3334 6.3867 12.1067 6.3867 11.8334C6.3867 11.5601 6.61337 11.3334 6.8867 11.3334H9.1067C9.38004 11.3334 9.6067 11.5601 9.6067 11.8334C9.6067 12.1067 9.38004 12.3334 9.1067 12.3334ZM9.6667 9.66675H6.33337C6.06004 9.66675 5.83337 9.44008 5.83337 9.16675C5.83337 8.89341 6.06004 8.66675 6.33337 8.66675H9.6667C9.94004 8.66675 10.1667 8.89341 10.1667 9.16675C10.1667 9.44008 9.94004 9.66675 9.6667 9.66675Z" fill="#FF0026"/>
</svg>
