<svg width="20" height="24" viewBox="0 0 20 24" fill="none" xmlns="http://www.w3.org/2000/svg">
<path d="M0.929304 0.000734329C0.575218 0.000734329 0.285713 0.290007 0.285713 0.644549V23.3555C0.285713 23.71 0.575218 23.9993 0.929304 23.9993H19.0823C19.4371 23.9993 19.7266 23.7098 19.7266 23.3555V7.79155C19.7266 7.43701 19.5219 6.94261 19.2718 6.69222L13.0351 0.456021C12.7845 0.205181 12.2901 0.000734329 11.9358 0.000734329H0.929304Z" fill="#898B94"/>
<path d="M1.46657 0.429411C1.1118 0.429411 0.8223 0.719594 0.8223 1.07323V23.141C0.8223 23.4949 1.1118 23.785 1.46657 23.785H18.8687C19.2223 23.785 19.5125 23.4951 19.5125 23.141V7.89844C19.5125 7.54458 19.3071 7.04995 19.057 6.79888L13.1423 0.884926C12.8917 0.634768 12.3976 0.429411 12.0432 0.429411H1.46657Z" fill="url(#paint0_linear_1078_25296)"/>
<path d="M13.0316 2.13937V5.35776C13.0316 6.03592 13.5824 6.58581 14.2592 6.58581H17.604L13.0316 2.13937Z" fill="url(#paint1_linear_1078_25296)"/>
<path d="M12.7791 6.11073L12.4827 0.814211L12.0275 6.86211C12.0275 7.21597 12.317 7.50593 12.6717 7.50593H18.5302L13.4227 6.75455C13.0688 6.75477 12.7791 6.46459 12.7791 6.11073Z" fill="url(#paint2_radial_1078_25296)"/>
<path d="M19.5507 17.558C19.5507 17.8662 19.2907 18.1184 18.9733 18.1184H1.43788C1.12041 18.1184 0.860474 17.8664 0.860474 17.558V11.0226C0.860474 10.7144 1.12041 10.4624 1.43788 10.4624H18.9733C19.2907 10.4624 19.5507 10.7144 19.5507 11.0226V17.558Z" fill="#D78B08"/>
<path d="M13.4777 16.2818V12.4613H14.1054V16.2818H13.4777ZM12.337 13.0616V12.4613H15.2461V13.0616H12.337Z" fill="white"/>
<path d="M11.5215 16.2818L9.18005 12.5049V12.4613H9.88959L12.2311 16.2382V16.2818H11.5215ZM9.1091 16.2818V16.2382L10.4354 14.0986L10.8065 14.6499L9.80226 16.2818H9.1091ZM10.8666 14.6663L10.5009 14.115L11.467 12.4613H12.1601V12.5049L10.8666 14.6663Z" fill="white"/>
<path d="M7.2362 16.2818V12.4613H7.86387V16.2818H7.2362ZM6.09548 13.0616V12.4613H9.00459V13.0616H6.09548Z" fill="white"/>
<path d="M5.70954 16.331C5.5931 16.331 5.49304 16.2909 5.40935 16.2109C5.3293 16.1308 5.28928 16.0326 5.28928 15.9162C5.28928 15.8034 5.3293 15.7069 5.40935 15.6269C5.49304 15.5468 5.5931 15.5068 5.70954 15.5068C5.82234 15.5068 5.91876 15.5468 5.99881 15.6269C6.07886 15.7069 6.11889 15.8034 6.11889 15.9162C6.11889 16.0326 6.07886 16.1308 5.99881 16.2109C5.91876 16.2909 5.82234 16.331 5.70954 16.331Z" fill="white"/>
<defs>
<linearGradient id="paint0_linear_1078_25296" x1="10.1674" y1="0.52953" x2="10.1674" y2="23.885" gradientUnits="userSpaceOnUse">
<stop stop-color="white"/>
<stop offset="0.4837" stop-color="#FDFDFD"/>
<stop offset="0.7117" stop-color="#F5F6F6"/>
<stop offset="0.8856" stop-color="#E9E9EA"/>
<stop offset="1" stop-color="#DBDCDD"/>
</linearGradient>
<linearGradient id="paint1_linear_1078_25296" x1="15.3492" y1="4.33118" x2="13.2991" y2="6.38131" gradientUnits="userSpaceOnUse">
<stop stop-color="white"/>
<stop offset="0.3511" stop-color="#F2F3F3"/>
<stop offset="0.998" stop-color="#D0D2D3"/>
<stop offset="1" stop-color="#D0D2D3"/>
</linearGradient>
<radialGradient id="paint2_radial_1078_25296" cx="0" cy="0" r="1" gradientUnits="userSpaceOnUse" gradientTransform="translate(15.4179 4.05731) scale(3.74661 3.74662)">
<stop stop-color="white"/>
<stop offset="0.486" stop-color="#FDFDFD"/>
<stop offset="0.661" stop-color="#F6F7F7"/>
<stop offset="0.7858" stop-color="#EBEBEC"/>
<stop offset="0.8866" stop-color="#DADBDC"/>
<stop offset="0.972" stop-color="#C4C6C7"/>
<stop offset="1" stop-color="#BBBDBF"/>
</radialGradient>
</defs>
</svg>
