<svg width="17" height="16" viewBox="0 0 17 16" fill="none" xmlns="http://www.w3.org/2000/svg">
<path d="M7.11841 0.203655C7.10891 0.194125 7.09917 0.184871 7.08915 0.175928C7.03286 0.125481 6.97029 0.0859097 6.90416 0.0571466C6.82007 0.0205108 6.72724 0.000172648 6.62965 0H6.62865C6.62758 0 6.62651 3.49057e-05 6.62544 3.49057e-05C6.45035 0.000829085 6.27554 0.0677816 6.14162 0.200893L3.30526 3.02082C3.03476 3.28973 3.03351 3.72698 3.30246 3.99745C3.57144 4.26792 4.00875 4.26916 4.27925 4.00021L5.93797 2.35112V8.25601C5.93797 8.63743 6.24719 8.9466 6.62865 8.9466C7.01007 8.9466 7.31932 8.63743 7.31932 8.25601V2.35115L8.97801 4.00021C9.24848 4.26916 9.68582 4.26792 9.95477 3.99745C10.2237 3.72698 10.2225 3.28973 9.95197 3.02082L7.11841 0.203655Z" fill="#E72240"/>
<path d="M1.38135 7.19401C1.38135 6.8126 1.07213 6.50342 0.690675 6.50342C0.309215 6.50342 0 6.8126 0 7.19401V12.0281L6.91613e-05 12.0382C0.00476575 12.3604 0.134854 12.668 0.362708 12.8959C0.590562 13.1237 0.898257 13.2538 1.22046 13.2585L1.23054 13.2585H6.025C6.40642 13.2585 6.71567 12.9494 6.71567 12.5679C6.71567 12.1866 6.40642 11.8774 6.025 11.8774H1.38135V7.19401Z" fill="#E72240"/>
<path fill-rule="evenodd" clip-rule="evenodd" d="M7.74219 11.5687C7.74219 9.15166 9.75665 7.13745 12.174 7.13745C14.5914 7.13745 16.6059 9.15166 16.6059 11.5687C16.6059 13.9858 14.5914 16 12.174 16C9.75665 16 7.74219 13.9858 7.74219 11.5687ZM11.6905 14.0664C11.6905 14.3081 11.9323 14.5498 12.174 14.5498C12.4157 14.5498 12.6575 14.3081 12.6575 14.0664C12.6575 13.8247 12.4157 13.583 12.174 13.583C11.9323 13.583 11.6905 13.8247 11.6905 14.0664ZM12.174 12.8579C12.4157 12.8579 12.6575 12.6161 12.6575 12.3744V8.99055C12.6575 8.74884 12.4157 8.50713 12.174 8.50713C11.9323 8.50713 11.6905 8.74884 11.6905 8.99055V12.3744C11.6905 12.6161 11.9323 12.8579 12.174 12.8579Z" fill="#E72240"/>
</svg>
