<svg width="11" height="10" viewBox="0 0 11 10" fill="none" xmlns="http://www.w3.org/2000/svg">
<path d="M4.78644 0.395115C4.78072 0.389375 4.77485 0.383802 4.76882 0.378416C4.73492 0.348033 4.69723 0.324201 4.6574 0.306878C4.60675 0.284814 4.55085 0.272565 4.49207 0.272461H4.49147C4.49082 0.272461 4.49018 0.272482 4.48953 0.272482C4.38408 0.27296 4.2788 0.313283 4.19814 0.393451L2.48987 2.09178C2.32695 2.25374 2.3262 2.51708 2.48818 2.67997C2.65019 2.84286 2.91356 2.84361 3.07648 2.68163L4.07549 1.68845V5.24474C4.07549 5.47445 4.26172 5.66065 4.49147 5.66065C4.72119 5.66065 4.90744 5.47445 4.90744 5.24474V1.68847L5.90643 2.68163C6.06933 2.84361 6.33273 2.84286 6.49471 2.67997C6.65669 2.51708 6.65594 2.25374 6.49302 2.09178L4.78644 0.395115Z" fill="#E72240"/>
<path d="M1.33195 4.60537C1.33195 4.37566 1.14572 4.18945 0.915977 4.18945C0.686233 4.18945 0.5 4.37566 0.5 4.60537V7.51678L0.500042 7.52285C0.50287 7.71688 0.58122 7.90217 0.71845 8.03938C0.855681 8.17659 1.041 8.25493 1.23505 8.25776L1.24113 8.2578H4.12871C4.35844 8.2578 4.54469 8.07159 4.54469 7.84188C4.54469 7.61219 4.35844 7.42597 4.12871 7.42597H1.33195V4.60537Z" fill="#E72240"/>
<path fill-rule="evenodd" clip-rule="evenodd" d="M5.16211 7.23959C5.16211 5.78388 6.37537 4.5708 7.83129 4.5708C9.28721 4.5708 10.5005 5.78388 10.5005 7.23959C10.5005 8.6953 9.28721 9.9084 7.83129 9.9084C6.37537 9.9084 5.16211 8.6953 5.16211 7.23959ZM7.5401 8.74383C7.5401 8.8894 7.6857 9.03497 7.83129 9.03497C7.97688 9.03497 8.12247 8.8894 8.12247 8.74383C8.12247 8.59826 7.97688 8.45269 7.83129 8.45269C7.6857 8.45269 7.5401 8.59826 7.5401 8.74383ZM7.83129 8.01598C7.97688 8.01598 8.12247 7.87041 8.12247 7.72484V5.68685C8.12247 5.54128 7.97688 5.39571 7.83129 5.39571C7.6857 5.39571 7.5401 5.54128 7.5401 5.68685V7.72484C7.5401 7.87041 7.6857 8.01598 7.83129 8.01598Z" fill="#E72240"/>
</svg>
