<?xml version="1.0" encoding="UTF-8"?>
<svg version="1.1" xmlns="http://www.w3.org/2000/svg" width="1024" height="1024">
<path d="M0 0 C337.92 0 675.84 0 1024 0 C1024 337.92 1024 675.84 1024 1024 C686.08 1024 348.16 1024 0 1024 C0 686.08 0 348.16 0 0 Z " fill="#FEFEFE" transform="translate(0,0)"/>
<path d="M0 0 C1.90281413 -0.00668677 1.90281413 -0.00668677 3.84406894 -0.01350862 C5.23912999 -0.01341934 6.63419103 -0.01322952 8.02925205 -0.01294994 C9.52119386 -0.01625234 11.01313477 -0.01997869 12.50507456 -0.02409142 C16.59714196 -0.03407682 20.68919468 -0.03782262 24.78127253 -0.04048073 C29.19799933 -0.04439408 33.61471463 -0.05397166 38.03143406 -0.0626936 C48.69386762 -0.08242868 59.35630208 -0.09252034 70.01874933 -0.10142139 C75.044982 -0.10580902 80.07121364 -0.11117459 85.09744549 -0.11641026 C101.81434345 -0.13341938 118.53124077 -0.14791249 135.24814606 -0.155159 C139.58334892 -0.15706876 143.91855177 -0.15898911 148.25375462 -0.16094494 C149.3311923 -0.16142868 150.40862999 -0.16191242 151.5187173 -0.16241082 C168.96388427 -0.17070724 186.40898258 -0.19603904 203.85411959 -0.22852562 C221.78093656 -0.26163595 239.70771867 -0.27961134 257.63456637 -0.28280324 C267.69322378 -0.28496462 277.75178106 -0.29365883 287.81040859 -0.31926441 C296.37845812 -0.34102572 304.94638319 -0.34899518 313.51445722 -0.33929763 C317.88103493 -0.33476867 322.24735614 -0.33655682 326.61389828 -0.35605907 C330.62200083 -0.37380476 334.6296619 -0.37260187 338.63776989 -0.35716178 C340.07727596 -0.35480287 341.51681354 -0.35901867 342.95627176 -0.37099043 C363.4628886 -0.53078935 380.99499984 5.54453787 396.51425266 19.13422108 C397.22968235 19.71816639 397.94511204 20.3021117 398.68222141 20.90375233 C400.33730478 22.26151533 401.93333799 23.69077724 403.51425266 25.13422108 C403.51425266 25.79422108 403.51425266 26.45422108 403.51425266 27.13422108 C404.38050266 27.47453358 404.38050266 27.47453358 405.26425266 27.82172108 C408.10397574 29.47822621 409.46649802 31.55990096 411.51425266 34.13422108 C413.18011389 35.64864037 414.89181217 37.08526735 416.63534641 38.50922108 C421.87080591 43.03718605 426.42893743 48.27076825 431.05331516 53.40570545 C434.01365217 56.65069025 437.04312449 59.42184209 440.51425266 62.13422108 C441.71219724 63.5911807 442.90901288 65.04917049 444.08995152 66.51994801 C445.64920226 68.28717012 447.31583294 69.75385612 449.11557102 71.27509022 C453.81234219 75.33757503 458.19671736 79.67263777 462.58065891 84.06781483 C463.8372456 85.32296642 463.8372456 85.32296642 465.11921787 86.60347462 C466.87932201 88.36290211 468.63817943 90.12357761 470.39584446 91.88544178 C473.06896238 94.56391519 475.74737517 97.23700981 478.42636204 99.9096117 C480.14478169 101.62869223 481.86289108 103.34808297 483.58065891 105.06781483 C484.37251087 105.85764256 485.16436283 106.64747028 485.9802103 107.46123219 C490.17108379 111.66961531 494.20532142 115.95592078 498.07238865 120.46454334 C499.92275898 122.60727116 501.87877732 124.6428364 503.82675266 126.69672108 C516.08144444 140.31304527 525.86325427 156.41774744 525.77494907 175.14218616 C525.77877462 176.01458482 525.78260017 176.88698348 525.78654164 177.78581846 C525.79680839 180.6905893 525.79289162 183.59516014 525.78891087 186.49994373 C525.79326072 188.58988597 525.79844478 190.67982662 525.80439854 192.7697649 C525.81776714 198.4327546 525.81836981 204.09567747 525.81583524 209.75867987 C525.81476455 214.48810085 525.81965115 219.21750838 525.82444066 223.94692647 C525.83552743 235.10181621 525.83597724 246.25667226 525.82992649 257.41156483 C525.82388003 268.92009431 525.83621672 280.42850174 525.85749656 291.93701041 C525.8751019 301.82169265 525.88111579 311.70633599 525.87785882 321.59103334 C525.87604487 327.49326643 525.87869378 333.39541236 525.89257336 339.29763126 C525.90513043 344.84462364 525.90322764 350.3914252 525.89016247 355.93841457 C525.88779291 357.9741742 525.89054491 360.00994717 525.89878559 362.04569149 C525.90922204 364.82409119 525.90117741 367.60184687 525.88847446 370.38022327 C525.89584875 371.18606125 525.90322303 371.99189924 525.91082078 372.82215655 C525.85667723 378.44929524 524.62875143 382.41974056 521.09628391 386.95453358 C517.99371514 389.26805399 514.27638102 389.24354788 510.51425266 389.13422108 C506.28566369 387.64638422 503.8085718 385.99833752 501.51425266 382.13422108 C500.28569172 378.44853826 500.37939826 375.05582525 500.39399815 371.21864796 C500.39314372 370.40345776 500.3922893 369.58826757 500.39140898 368.74837464 C500.38975743 366.00758324 500.39527027 363.26685258 500.40072727 360.52606678 C500.40100924 358.56505809 500.40085122 356.60404929 500.40028477 354.64304066 C500.39999717 349.31073454 500.4058879 343.97845078 500.41285872 338.64614987 C500.41909845 333.07676032 500.41969655 327.5073703 500.42088413 321.93797779 C500.42399562 311.38765608 500.43220655 300.8373447 500.44223362 290.28702754 C500.45340042 278.27751433 500.45890664 266.26800063 500.46392906 254.25848353 C500.47438931 229.55039031 500.49198523 204.84230627 500.51425266 180.13422108 C499.6213997 180.13975183 499.6213997 180.13975183 498.7105093 180.14539433 C484.16832148 180.23406994 469.62614973 180.30008756 455.08375454 180.34146976 C448.05088506 180.36201836 441.01819702 180.38998965 433.98544407 180.43597889 C427.19028236 180.48039293 420.39530869 180.50340216 413.60001087 180.51373005 C411.01584132 180.52108417 408.43168129 180.53544443 405.84759235 180.5571413 C386.84795619 180.71023113 369.03468259 180.3705467 354.13925266 166.92328358 C343.76619691 155.50294815 340.18018311 140.88925454 340.28720188 125.92303944 C340.28690983 124.83907887 340.28661777 123.75511829 340.28631687 122.63831043 C340.28770146 119.08347823 340.30322165 115.52886006 340.31894016 111.97406483 C340.32267338 109.49828169 340.3255189 107.02249707 340.3275156 104.54671192 C340.33512768 98.05138491 340.35475533 91.55614828 340.37692356 85.06085682 C340.3974343 78.42451503 340.40652848 71.78816434 340.41659641 65.1517992 C340.43800352 52.14590142 340.47172207 39.14006607 340.51425266 26.13422108 C295.71431202 26.17021634 250.91444046 26.22714886 206.11456455 26.31214203 C200.82494263 26.32215943 195.53532041 26.33200357 190.24569798 26.34174061 C188.66610211 26.34465267 188.66610211 26.34465267 187.05459522 26.34762356 C170.00589049 26.37864052 152.95719922 26.39562337 135.9084716 26.4074153 C118.41353293 26.41982842 100.91866488 26.4473335 83.42377079 26.48883414 C72.62939361 26.51396487 61.83513355 26.52733866 51.04072671 26.52565065 C43.63753927 26.52562088 36.23447109 26.54025705 28.83133014 26.56638536 C24.56075478 26.58102591 20.290424 26.58923889 16.01982784 26.58002377 C12.10608905 26.5717217 8.19284112 26.58193279 4.27917503 26.6065577 C2.8671734 26.61222982 1.45512506 26.61124368 0.04313768 26.60273352 C-8.10452906 26.55785409 -15.31002568 26.94008442 -22.48574734 31.13422108 C-23.48802777 32.13193544 -24.48849838 33.13147758 -25.48574734 34.13422108 C-26.14574734 34.13422108 -26.80574734 34.13422108 -27.48574734 34.13422108 C-27.76289577 34.7039867 -28.04004421 35.27375233 -28.32559109 35.86078358 C-29.87278152 38.89265169 -31.62364516 41.796091 -33.36465359 44.72015858 C-36.04419013 50.4900317 -35.62903807 56.84077115 -35.6171751 63.06885433 C-35.61922774 64.07001109 -35.62128037 65.07116784 -35.6233952 66.10266268 C-35.62906966 69.47233547 -35.6276074 72.84196744 -35.62618923 76.21164417 C-35.62877261 78.64602769 -35.63178569 81.08041078 -35.63519263 83.51479328 C-35.64242163 89.51322403 -35.64496542 95.51164103 -35.64552169 101.5100748 C-35.64643586 108.69488866 -35.653105 115.87969431 -35.65986851 123.06450463 C-35.67592517 140.42948584 -35.68183136 157.79446617 -35.68661726 175.15945347 C-35.68895348 183.37471763 -35.69255616 191.58998109 -35.69631264 199.8052447 C-35.70914767 227.92874811 -35.71986704 256.05225113 -35.72331524 284.17575741 C-35.72353687 285.941039 -35.72375866 287.7063206 -35.72398059 289.47160219 C-35.72420123 291.2411377 -35.72442171 293.0106732 -35.72464204 294.78020871 C-35.72508459 298.33017898 -35.72553171 301.88014925 -35.72598171 305.43011951 C-35.7260911 306.31030512 -35.72620049 307.19049072 -35.7263132 308.09734862 C-35.7299439 336.63795405 -35.7458647 365.17853409 -35.76917208 393.7191298 C-35.7937709 423.89632281 -35.8074881 454.07350131 -35.80868316 484.25070465 C-35.80885461 487.56372285 -35.80907004 490.87674105 -35.80931759 494.18975925 C-35.80937336 495.00551311 -35.80942913 495.82126697 -35.80948658 496.66174064 C-35.81063696 509.78643673 -35.82165782 522.91110674 -35.83620464 536.03579403 C-35.85057459 549.22908204 -35.8538038 562.42233665 -35.84576467 575.61563034 C-35.84131082 583.45163589 -35.84515922 591.28753354 -35.86100317 599.1235249 C-35.87191189 604.97773883 -35.86710451 610.83187189 -35.8562313 616.68608819 C-35.85427007 619.0521916 -35.85737233 621.41830582 -35.86607566 623.78439404 C-36.59788751 644.33344207 -36.59788751 644.33344207 -28.22012234 662.45062733 C-21.39655208 669.07440837 -13.56186006 671.38393764 -4.12872887 671.38476086 C-3.41839771 671.38755853 -2.70806655 671.39035621 -1.97621021 671.39323866 C0.39814511 671.40018369 2.77224066 671.39294717 5.14659214 671.38577747 C6.86840041 671.38791667 8.59020776 671.39094256 10.31201309 671.39477789 C15.03909669 671.40281512 19.76610113 671.39851246 24.49318445 671.39225912 C29.59275273 671.38772543 34.69230593 671.3947654 39.79187107 671.40056324 C48.62714332 671.40919611 57.46239554 671.41100444 66.29767132 671.40861607 C79.07853756 671.40551981 91.85935947 671.41715206 104.64021455 671.43316586 C125.38492577 671.45912845 146.12963702 671.4791477 166.87436008 671.49261951 C168.73669106 671.49383507 168.73669106 671.49383507 170.63664489 671.49507518 C188.26486754 671.50630217 205.89308703 671.5115791 223.52131277 671.51446231 C224.76316994 671.51466629 226.00502712 671.51487028 227.28451633 671.51508045 C229.14503484 671.51538036 229.14503484 671.51538036 231.04313958 671.51568632 C251.71134103 671.51941656 272.37949437 671.5384821 293.04767174 671.57017481 C305.79949454 671.58911003 318.55119413 671.59503823 331.30302715 671.58435763 C340.03626732 671.57804866 348.76941897 671.58605041 357.50263972 671.60541175 C362.54439212 671.61611606 367.58592968 671.62020744 372.62768078 671.60694027 C377.240966 671.59492211 381.85384766 671.60118812 386.46709763 671.62213226 C388.13790934 671.62644775 389.80875495 671.62396868 391.47954304 671.61409108 C393.74787731 671.60165197 396.01481042 671.61374559 398.28307533 671.63199902 C400.17408662 671.63265112 400.17408662 671.63265112 402.10330015 671.6333164 C406.18157474 672.23221856 408.32657348 673.56300584 411.51425266 676.13422108 C414.21669516 680.18788483 414.04162084 683.37953658 413.51425266 688.13422108 C412.14134135 691.64277221 411.07147262 692.7975819 407.85089451 694.74326378 C404.05418309 696.32601185 401.35743738 696.51120272 397.25298309 696.51453781 C396.54083783 696.51919773 395.82869258 696.52385765 395.09496716 696.52865878 C392.70825002 696.54061125 390.32210189 696.53121258 387.93537998 696.52190113 C386.20704698 696.52607398 384.47871671 696.53155123 382.75039154 696.53822094 C378.00033013 696.55270147 373.25044185 696.54842262 368.50037086 696.54105413 C363.37746376 696.53633101 358.25459458 696.54882496 353.13169956 696.55907154 C343.09367621 696.57628373 333.05571539 696.57709425 323.01768111 696.57185864 C314.85669666 696.56781895 306.6957307 696.56925812 298.53474712 696.5746069 C296.79311905 696.57572953 296.79311905 696.57572953 295.01630657 696.57687484 C292.65757027 696.57840632 290.29883398 696.57994466 287.9400977 696.58148981 C265.80896849 696.59522448 243.67787461 696.58977115 221.5467462 696.5783046 C201.30918046 696.56837894 181.07170623 696.58129965 160.8341546 696.60523879 C140.05183429 696.62963687 119.26955659 696.63923543 98.48722225 696.63258606 C86.82066759 696.62909443 75.15418326 696.63132185 63.48763943 696.64883709 C53.5521786 696.66356822 43.61683757 696.66418291 33.68137907 696.64676618 C28.61446013 696.63825994 23.54775509 696.63609737 18.48084736 696.65141773 C13.83632194 696.66528665 9.19219324 696.66047326 4.54769064 696.6411785 C2.87335751 696.63742482 1.19899243 696.64032209 -0.47531218 696.65079015 C-17.62800723 696.75034915 -31.30546099 692.90568528 -44.17324734 681.07172108 C-55.55419249 669.13909636 -60.64785217 654.36609187 -60.6171751 638.12150097 C-60.61922774 637.11190234 -60.62128037 636.10230372 -60.6233952 635.0621112 C-60.62907006 631.6637215 -60.62760735 628.26537226 -60.62618923 624.86697865 C-60.62877259 622.41197113 -60.63178566 619.95696404 -60.63519263 617.50195754 C-60.64242186 611.45251439 -60.64496543 605.40308488 -60.64552169 599.35363875 C-60.64643584 592.10776916 -60.65310489 584.86190772 -60.65986851 577.61604164 C-60.67592543 560.10346909 -60.68183138 542.59089742 -60.68661726 525.07831884 C-60.68895345 516.79329356 -60.69255612 508.50826898 -60.69631264 500.22324425 C-60.70914769 471.86113952 -60.71986706 443.49903518 -60.72331524 415.1369276 C-60.72353687 413.35665807 -60.72375866 411.57638854 -60.72398059 409.79611901 C-60.72420123 408.01155852 -60.72442171 406.22699802 -60.72464204 404.44243753 C-60.72508459 400.86232241 -60.72553171 397.28220729 -60.72598171 393.70209217 C-60.7260911 392.81443235 -60.72620049 391.92677253 -60.7263132 391.01221393 C-60.72994392 362.22909955 -60.74586478 333.44601035 -60.76917208 304.66290562 C-60.79377059 274.22956978 -60.80748808 243.79624835 -60.80868316 213.36290228 C-60.80885461 210.02179916 -60.80907004 206.68069605 -60.80931759 203.33959293 C-60.80937336 202.51692333 -60.80942913 201.69425372 -60.80948658 200.84665473 C-60.81063699 187.61037876 -60.82165807 174.37412865 -60.83620464 161.13786141 C-60.8505742 147.83255273 -60.85380403 134.52727717 -60.84576467 121.22196285 C-60.84131063 113.3193041 -60.84515996 105.41675233 -60.86100317 97.51410765 C-60.87191111 91.6102768 -60.86710509 85.70652615 -60.8562313 79.80269296 C-60.85426993 77.41640127 -60.857373 75.03009887 -60.86607566 72.64382224 C-60.942817 50.17745759 -57.65743318 32.95398713 -41.73574734 16.00922108 C-30.5743868 5.24798478 -15.35771135 0.02516853 0 0 Z " fill="#56658A" transform="translate(245.4857473373413,141.86577892303467)"/>
<path d="M0 0 C1.26070312 -0.05607422 1.26070312 -0.05607422 2.546875 -0.11328125 C9.96545106 1.05525168 15.03873694 7.94312561 20 13.0625 C25.49638668 18.6567683 30.88650359 24.04434691 37.20703125 28.70703125 C39.77659424 30.72632454 41.96453422 32.97261836 44.25 35.3125 C47.18288543 38.27542123 50.1230672 41.23107626 53.0625 44.1875 C53.83142578 44.96480469 54.60035156 45.74210938 55.39257812 46.54296875 C59.63258149 50.80086242 63.95460952 54.87581123 68.51049805 58.79345703 C70.69609516 60.70205847 72.73004874 62.73039639 74.75 64.8125 C77.39730434 67.49576093 80.06096943 70.06506901 82.9375 72.5 C86.91559417 75.90410062 90.56999589 79.59377429 94.25 83.3125 C99.59464761 88.72745401 99.59464761 88.72745401 105.25 93.8125 C109.80150513 97.65773709 113.91319097 101.94256889 118.09301758 106.18164062 C121.26460656 109.38288669 124.46293634 112.43522732 127.9375 115.3125 C131.59284303 118.45124209 133.78131247 121.36392148 134.55859375 126.25390625 C134.8790397 131.37133105 133.66006758 134.34944849 130.25 138.3125 C126.56504098 141.56393443 122.76546198 142.03824586 117.9855957 141.82568359 C109.92433097 140.31343206 103.18184619 131.47395533 97.6875 125.8125 C92.97235296 120.98066279 88.2124603 116.33077566 83.09155273 111.92919922 C80.4506596 109.61075903 78.01877713 107.13865002 75.5625 104.625 C72.92919199 101.93071814 70.39086184 99.42227509 67.41796875 97.10546875 C66.34482422 96.21794922 66.34482422 96.21794922 65.25 95.3125 C65.25 94.6525 65.25 93.9925 65.25 93.3125 C64.38181641 92.93738281 64.38181641 92.93738281 63.49609375 92.5546875 C60.95129381 91.14730249 59.31551169 89.53967069 57.3125 87.4375 C55.02011459 85.07227243 52.84100929 82.98871569 50.25 80.9375 C49.59 80.40125 48.93 79.865 48.25 79.3125 C48.25 78.6525 48.25 77.9925 48.25 77.3125 C47.68796875 77.07917969 47.1259375 76.84585938 46.546875 76.60546875 C43.68265858 74.99312924 41.77747979 72.9931438 39.5 70.625 C34.68088167 65.70681023 29.67858716 61.1482273 24.375 56.76171875 C23.776875 56.26285156 23.17875 55.76398437 22.5625 55.25 C22.04300781 54.82589844 21.52351562 54.40179687 20.98828125 53.96484375 C18.5038753 51.60326236 16.43223248 48.95590872 14.25 46.3125 C14.24641747 48.13000779 14.24641747 48.13000779 14.24276257 49.9842329 C14.1854154 78.7402702 14.11269389 107.49624135 14.02101372 136.25218914 C14.00974542 139.79076571 13.99860699 143.32934269 13.98754883 146.86791992 C13.98534514 147.57239346 13.98314146 148.27686699 13.980871 149.00268821 C13.94548875 160.41271808 13.92062986 171.82274789 13.89965298 183.23281231 C13.8778983 194.93867886 13.84485108 206.64447416 13.80129844 218.35028011 C13.7773238 224.92606946 13.75862281 231.50177983 13.75238609 238.07761192 C13.74635446 244.26390724 13.72642416 250.45000035 13.69572449 256.63622093 C13.68691341 258.90942483 13.68322799 261.18265511 13.68499184 263.4558754 C13.68663747 266.55473742 13.67000555 269.65297781 13.64872742 272.75175476 C13.65599878 274.10730415 13.65599878 274.10730415 13.66341704 275.49023837 C13.60917592 280.26266014 13.33755982 283.43041761 10.25 287.3125 C6.95327528 290.19713413 4.33650547 291.20999948 -0.0625 291.625 C-4.48267921 291.25040854 -6.37729281 290.14864013 -9.75 287.3125 C-13.43510178 282.72701176 -13.17899741 278.40844456 -13.14872742 272.78971863 C-13.15537424 271.8258117 -13.16202107 270.86190477 -13.16886932 269.86878854 C-13.18753233 266.63662105 -13.18489176 263.40482268 -13.18237305 260.17260742 C-13.19138817 257.85662308 -13.20171477 255.54064353 -13.21325684 253.22467041 C-13.24088216 246.93383228 -13.25011891 240.64308454 -13.25611091 234.35219359 C-13.26548014 227.77913679 -13.29168236 221.20614789 -13.31611633 214.63313293 C-13.35535287 203.59959198 -13.38319303 192.56606172 -13.40356445 181.5324707 C-13.42457432 170.16851184 -13.45184947 158.80459645 -13.48754883 147.44067383 C-13.48974765 146.74004348 -13.49194648 146.03941314 -13.49421193 145.31755158 C-13.50528159 141.80264767 -13.5164744 138.28774417 -13.52772844 134.77284086 C-13.6209127 105.61943487 -13.69228943 76.46599734 -13.75 47.3125 C-14.2440332 47.78671387 -14.73806641 48.26092773 -15.24707031 48.74951172 C-17.49338959 50.90043358 -19.74658823 53.04401075 -22 55.1875 C-22.77730469 55.93386719 -23.55460938 56.68023438 -24.35546875 57.44921875 C-25.10957031 58.16464844 -25.86367188 58.88007812 -26.640625 59.6171875 C-27.33188477 60.27702637 -28.02314453 60.93686523 -28.73535156 61.61669922 C-30.67132211 63.24627404 -32.49559949 64.20391528 -34.75 65.3125 C-35.83456982 67.24104307 -35.83456982 67.24104307 -36.75 69.3125 C-38.1953125 70.90893555 -38.1953125 70.90893555 -39.875 72.44921875 C-40.4942334 73.02196533 -41.1134668 73.59471191 -41.75146484 74.18481445 C-42.74073975 75.0833313 -42.74073975 75.0833313 -43.75 76 C-44.42627441 76.62285889 -45.10254883 77.24571777 -45.79931641 77.88745117 C-50.32285411 82.04452098 -54.90063206 86.14000941 -59.484375 90.23046875 C-62.6323138 93.12331596 -65.61568798 96.16760523 -68.6171875 99.2109375 C-70.51999288 101.08586295 -72.46504804 102.834068 -74.5 104.5625 C-78.27732365 107.79588904 -81.75683001 111.27949911 -85.25 114.8125 C-89.32069492 118.92961105 -93.42837632 122.89150822 -97.85546875 126.62890625 C-100.12632982 128.64692918 -102.20391231 130.81344772 -104.3125 133 C-109.39134289 138.07884289 -113.36572265 141.43041628 -120.8125 141.875 C-124.31993251 141.73085894 -126.48252898 141.2480578 -129.25 139.0625 C-132.52345532 135.46169915 -134.03918622 132.82888567 -134.125 127.9375 C-134.15335938 127.20789063 -134.18171875 126.47828125 -134.2109375 125.7265625 C-133.02022265 119.49044574 -127.97791169 115.39194586 -123.4375 111.375 C-122.26981448 110.32144062 -121.10313852 109.2667612 -119.9375 108.2109375 C-119.38320313 107.71045898 -118.82890625 107.20998047 -118.2578125 106.69433594 C-116.42723608 105.01670275 -114.67291529 103.27558694 -112.9375 101.5 C-110.73283828 99.25232049 -108.45778376 97.1683237 -106.0625 95.125 C-102.44860287 92.01634674 -99.09713174 88.70135354 -95.75 85.3125 C-91.8987936 81.4135267 -87.98578249 77.70425684 -83.80859375 74.15234375 C-81.18501191 71.80754859 -78.72010776 69.31618612 -76.25 66.8125 C-73.25821919 63.78021446 -70.25848037 60.81095735 -67 58.0625 C-62.14137206 53.92664316 -57.74062451 49.32750356 -53.25463867 44.79760742 C-49.46216509 40.98229621 -45.61586109 37.32017103 -41.50390625 33.84765625 C-38.78189547 31.46513902 -36.29070656 28.86167163 -33.75390625 26.28515625 C-31.17582317 23.74727719 -28.45423174 21.40633447 -25.70703125 19.0546875 C-23.06289491 16.70082561 -20.62588523 14.16954135 -18.1953125 11.59765625 C-16.75 10.3125 -16.75 10.3125 -14.75 10.3125 C-14.54375 9.755625 -14.3375 9.19875 -14.125 8.625 C-10.93581247 3.26136643 -6.2058385 0.17865293 0 0 Z " fill="#794AEB" transform="translate(758.75,575.6875)"/>
<path d="M0 0 C14.25179623 4.64144534 24.12064347 16.22909763 33.56640625 27.41796875 C35.49787299 29.54942387 37.74585813 31.22400944 40 33 C40 33.66 40 34.32 40 35 C40.66 35 41.32 35 42 35 C43.72598387 36.62922544 45.36314767 38.28484237 47 40 C48.02976301 41.03315758 49.06249804 42.06335902 50.0977478 43.09101868 C50.93850609 43.92960922 50.93850609 43.92960922 51.79624939 44.78514099 C52.69253807 45.6790731 52.69253807 45.6790731 53.60693359 46.59106445 C60.15852021 53.12628378 66.70753773 59.66407149 73.25511742 66.20330524 C77.20911766 70.15208579 81.16404814 74.09992531 85.12109375 78.0456543 C88.96106293 81.87471606 92.79854602 85.70625354 96.63435745 89.53948021 C98.09021221 90.99349727 99.54694203 92.44663874 101.00458908 93.89885902 C103.05018386 95.93713695 105.0925688 97.97858223 107.13427734 100.02075195 C107.72775467 100.610634 108.32123199 101.20051605 108.93269348 101.80827332 C112.61387323 105.49839138 116.09517723 109.31926759 119.50069618 113.26533794 C120.69471184 114.64678821 121.91526446 116.00529047 123.14453125 117.35546875 C123.97017578 118.26232422 123.97017578 118.26232422 124.8125 119.1875 C125.65748047 120.10595703 125.65748047 120.10595703 126.51953125 121.04296875 C128.18964226 123.25068805 129.01692704 125.42422719 130 128 C116.05673114 128.04680311 102.11347453 128.08189635 88.17014313 128.10362434 C81.69543225 128.1140536 75.22077422 128.1281973 68.74609375 128.15087891 C62.49561545 128.17263764 56.24518793 128.18457508 49.99467468 128.18975449 C47.61210837 128.19344478 45.22954478 128.20065098 42.84700012 128.21146011 C39.50536125 128.22601511 36.16393119 128.22797624 32.82226562 128.22705078 C31.84114807 128.23424133 30.86003052 128.24143188 29.84918213 128.24884033 C19.90934668 128.21912727 12.72526303 126.50548336 5.3125 119.4375 C-0.18206728 112.4084206 -0.43837158 102.65622447 -0.34057617 94.11254883 C-0.34101425 93.08681763 -0.34145233 92.06108643 -0.34190369 91.00427246 C-0.33983401 87.65499008 -0.31658948 84.30622486 -0.29296875 80.95703125 C-0.28736632 78.61862969 -0.28309928 76.28022459 -0.28010559 73.94181824 C-0.26870785 67.81800437 -0.23928457 61.69440747 -0.20599365 55.57067871 C-0.17518306 49.30951878 -0.16157684 43.04832344 -0.14648438 36.78710938 C-0.1144098 24.5246448 -0.06327524 12.26234052 0 0 Z " fill="#FDFDFE" transform="translate(609,169)"/>
<path d="M0 0 C1.08051097 -0.00724325 2.16102194 -0.01448649 3.27427566 -0.02194923 C6.88977629 -0.03883795 10.50368129 -0.0128921 14.11911011 0.01295471 C16.71298656 0.00973549 19.3068609 0.00391831 21.90072632 -0.00430298 C28.21092949 -0.01940405 34.52065984 -0.00253707 40.83080424 0.02524792 C48.18018112 0.05644278 55.52945653 0.05618825 62.87888716 0.05473018 C75.99128772 0.0532293 89.10346852 0.08068786 102.21578979 0.12428284 C114.93848676 0.16656048 127.66099037 0.18779433 140.38375854 0.18580627 C141.1676593 0.18568641 141.95156005 0.18556654 142.75921537 0.18544304 C143.54176383 0.18532197 144.32431229 0.18520091 145.13057435 0.18507618 C159.61856434 0.18300658 174.10647223 0.2006749 188.59443561 0.22753583 C193.7172884 0.23658321 198.8401261 0.23977429 203.96298599 0.24113274 C210.85606124 0.243393 217.74892888 0.26242639 224.64193726 0.29263115 C227.17477039 0.30140654 229.70762696 0.30508217 232.2404747 0.30334854 C235.6914587 0.3018801 239.14186921 0.31880631 242.59277344 0.34057617 C244.10458039 0.33360746 244.10458039 0.33360746 245.64692891 0.32649797 C250.65858668 0.37889377 254.08794268 0.49649099 258.16940308 3.74171448 C258.74690308 4.13358948 259.32440308 4.52546448 259.91940308 4.92921448 C262.02036842 7.97561422 262.38049516 11.14035554 262.16940308 14.74171448 C261.04024132 18.55681129 259.81189603 21.81388463 256.24388123 23.82942486 C251.69399933 25.1795109 247.30136592 25.02009374 242.57931519 25.00241089 C241.50051307 25.00623644 240.42171095 25.01006198 239.31021786 25.01400346 C235.68901153 25.02433671 232.06796367 25.02034065 228.44674683 25.01637268 C225.85316826 25.02071893 223.25959099 25.02590178 220.66601562 25.03186035 C214.34902061 25.04460993 208.0320681 25.04640077 201.71506238 25.04406009 C196.58125666 25.04227728 191.44746384 25.04402577 186.31365967 25.04828453 C185.58308536 25.04887972 184.85251106 25.04947491 184.09979814 25.05008813 C182.61566647 25.05129988 181.13153479 25.05251401 179.64740312 25.05373051 C165.72957648 25.06460677 151.81177406 25.06244298 137.89394605 25.05634566 C125.15855411 25.05117481 112.42323862 25.06243623 99.6878618 25.08144388 C86.61229863 25.10080977 73.53677165 25.10908059 60.46119404 25.10532063 C53.11975399 25.10340689 45.77837904 25.10591305 38.43695068 25.12003517 C31.53573356 25.13317616 24.63467225 25.130706 17.73345566 25.11762428 C15.19738591 25.11525065 12.66130548 25.11802115 10.12524796 25.12624741 C6.66981546 25.13664969 3.21490428 25.12866634 -0.24050903 25.11593628 C-1.24974458 25.12331056 -2.25898012 25.13068485 -3.29879856 25.1382826 C-11.86204741 25.07167471 -11.86204741 25.07167471 -15.83059692 21.74171448 C-18.86528096 17.49315683 -19.11099381 14.1010172 -18.83840942 9.08546448 C-15.26193925 0.76809198 -8.15044096 -0.12533953 0 0 Z " fill="#546389" transform="translate(337.8305969238281,419.25828552246094)"/>
<path d="M0 0 C0.92549078 -0.00384115 1.85098155 -0.00768229 2.80451751 -0.01163983 C3.83318631 -0.01077335 4.86185512 -0.00990687 5.92169571 -0.00901413 C7.00524723 -0.01198525 8.08879876 -0.01495637 9.20518517 -0.01801753 C12.86641329 -0.02674709 16.52760887 -0.02821636 20.18884659 -0.02970505 C22.80153855 -0.03433024 25.41422983 -0.03935449 28.02692032 -0.04475021 C35.14680275 -0.05835407 42.26667957 -0.06436169 49.38657284 -0.06876087 C53.83014865 -0.07152034 58.27372227 -0.07575719 62.7172966 -0.08026505 C75.01354587 -0.09246134 87.30979339 -0.10275932 99.60604858 -0.10614014 C100.39364025 -0.1063597 101.18123191 -0.10657927 101.99268998 -0.10680549 C102.78220075 -0.10702377 103.57171152 -0.10724204 104.38514686 -0.10746694 C105.98507802 -0.10791041 107.58500918 -0.10835697 109.18494034 -0.10880661 C109.97856681 -0.10902804 110.77219329 -0.10924947 111.58986905 -0.10947761 C124.44837497 -0.11342527 137.30682419 -0.13087669 150.16530821 -0.15416613 C163.35826105 -0.17786896 176.55118545 -0.19034153 189.74415994 -0.19150805 C197.15497054 -0.19242552 204.56570735 -0.19819559 211.97649765 -0.21632767 C218.94659741 -0.23332093 225.91655478 -0.23498922 232.88666916 -0.22618866 C235.44853973 -0.22541546 238.01041768 -0.22979794 240.57226944 -0.23964691 C244.06293747 -0.25228212 247.5531021 -0.24653519 251.04376602 -0.23606491 C252.06351194 -0.24412132 253.08325786 -0.25217772 254.13390517 -0.26047826 C262.81716701 -0.19933923 262.81716701 -0.19933923 266.73669815 3.13142776 C269.35195144 7.18957942 270.43794563 10.32287363 269.73669815 15.13142776 C267.21219847 20.08333098 264.88653863 22.15710787 259.73669815 24.13142776 C256.18965302 24.55879792 252.671524 24.53629954 249.10228348 24.51237869 C248.03079404 24.51705866 246.9593046 24.52173864 245.85534579 24.52656043 C242.26480806 24.53852687 238.67465083 24.52904647 235.08411026 24.51961136 C232.51008761 24.52367629 229.9360667 24.52901772 227.3620491 24.53554153 C221.09663629 24.54887483 214.83133135 24.54600309 208.56591433 24.53730361 C203.47408105 24.53052648 198.382278 24.52961047 193.29044151 24.53287506 C192.56555342 24.53333476 191.84066533 24.53379446 191.09381093 24.53426809 C189.62119479 24.53522727 188.14857865 24.53619991 186.67596252 24.53718586 C172.87066263 24.54573842 159.06542252 24.53590743 145.26013244 24.51978476 C133.41431908 24.50637886 121.56859391 24.50871216 109.72278214 24.52254105 C95.96509094 24.53859436 82.20745212 24.54491744 68.44975287 24.53570426 C66.98288159 24.53474861 65.51601031 24.5338055 64.04913902 24.53287506 C63.32741562 24.53241223 62.60569222 24.53194941 61.86209841 24.53147256 C56.7758157 24.52888213 51.68956621 24.53325473 46.60328865 24.54031372 C39.75868192 24.54960427 32.91424473 24.54299314 26.06965446 24.52563095 C23.55455045 24.52165698 21.03943244 24.52281563 18.52433395 24.52941895 C15.097408 24.53758819 11.6710206 24.52736824 8.24412918 24.51237869 C6.74297189 24.52241694 6.74297189 24.52241694 5.21148819 24.53265798 C0.24462316 24.49037178 -3.26558672 24.42368492 -7.26330185 21.13142776 C-9.6566111 18.48619122 -11.13739041 16.53126668 -11.4625206 12.91658401 C-11.20831756 8.5515547 -10.62421992 6.56452945 -7.76330185 3.13142776 C-6.93830185 2.47142776 -6.11330185 1.81142776 -5.26330185 1.13142776 C-3.69827773 -0.43359635 -2.17633379 0.00337012 0 0 Z " fill="#536388" transform="translate(330.26330184936523,526.8685722351074)"/>
<path d="M0 0 C1.24778732 -0.0071553 2.49557465 -0.01431061 3.78117371 -0.02168274 C5.17172216 -0.02452314 6.56227089 -0.02723486 7.95281982 -0.02983093 C9.411343 -0.03609465 10.86986458 -0.04274136 12.3283844 -0.04974365 C16.29754495 -0.06716301 20.26669345 -0.07770817 24.23588276 -0.08594918 C26.71542127 -0.09109787 29.19495602 -0.09717369 31.67449188 -0.10346031 C39.43151614 -0.12251589 47.18853087 -0.13674566 54.94557405 -0.14507228 C63.9012058 -0.15484396 72.85659034 -0.18116001 81.81213498 -0.22157317 C88.73280843 -0.2517323 95.65341101 -0.26654099 102.57414889 -0.26985329 C106.70814648 -0.27220422 110.84188007 -0.28116976 114.97580719 -0.30631447 C118.86645855 -0.32959654 122.75667214 -0.33382811 126.64737511 -0.32355309 C128.07359714 -0.32305762 129.49984073 -0.32938123 130.92599678 -0.34310913 C144.32178182 -0.46481523 144.32178182 -0.46481523 149.14324951 4.14717102 C151.87158321 8.12927656 151.82598469 12.48458934 151.14324951 17.14717102 C148.99850702 20.74727449 147.00225461 22.61726752 143.14324951 24.14717102 C140.34082985 24.40723324 140.34082985 24.40723324 137.04598999 24.42132568 C135.17018501 24.43628838 135.17018501 24.43628838 133.25648499 24.45155334 C131.87319959 24.4524491 130.48991403 24.4531127 129.10662842 24.4535675 C127.64780758 24.46119017 126.18899075 24.46961786 124.73017883 24.47879028 C120.76938759 24.50073076 116.80867354 24.50953348 112.84782839 24.51461673 C110.37262717 24.51826063 107.89744617 24.52450084 105.42225266 24.53161812 C96.78529726 24.55611038 88.14840192 24.56916417 79.51141357 24.57270813 C71.46333208 24.57634396 63.41563181 24.60624305 55.36766684 24.64811271 C48.45543442 24.68281175 41.54332839 24.69825649 34.63100946 24.69895416 C30.50370058 24.69974707 26.37678012 24.70849175 22.24956131 24.73695183 C18.36699903 24.76312647 14.48514739 24.7653417 10.60253716 24.74929619 C9.17953759 24.74748121 7.75649721 24.75417706 6.33358574 24.7701149 C-5.75310379 24.89721749 -5.75310379 24.89721749 -9.66036987 21.75814819 C-12.90000583 17.90698711 -13.88624622 15.76943629 -13.79425049 10.70967102 C-12.6186804 6.2425047 -11.06010452 4.42865563 -7.85675049 1.14717102 C-5.14998099 -0.20621373 -3.03176964 0.01189581 0 0 Z " fill="#536388" transform="translate(332.85675048828125,632.8528289794922)"/>
<path d="M0 0 C130.68 0.495 130.68 0.495 264 1 C264 1.33 264 1.66 264 2 C133.32 2.495 133.32 2.495 0 3 C0 2.01 0 1.02 0 0 Z " fill="#626F92" transform="translate(326,527)"/>
</svg>
