<svg width="18" height="19" viewBox="0 0 18 19" fill="none" xmlns="http://www.w3.org/2000/svg">
<path d="M15.375 8.1425H13.2075C11.43 8.1425 9.9825 6.695 9.9825 4.9175V2.75C9.9825 2.3375 9.645 2 9.2325 2H6.0525C3.7425 2 1.875 3.5 1.875 6.1775V12.8225C1.875 15.5 3.7425 17 6.0525 17H11.9475C14.2575 17 16.125 15.5 16.125 12.8225V8.8925C16.125 8.48 15.7875 8.1425 15.375 8.1425ZM8.6475 10.6475C8.535 10.76 8.3925 10.8125 8.25 10.8125C8.1075 10.8125 7.965 10.76 7.8525 10.6475L7.3125 10.1075V13.25C7.3125 13.5575 7.0575 13.8125 6.75 13.8125C6.4425 13.8125 6.1875 13.5575 6.1875 13.25V10.1075L5.6475 10.6475C5.43 10.865 5.07 10.865 4.8525 10.6475C4.635 10.43 4.635 10.07 4.8525 9.8525L6.3525 8.3525C6.405 8.3075 6.4575 8.27 6.5175 8.24C6.5325 8.2325 6.555 8.225 6.57 8.2175C6.615 8.2025 6.66 8.195 6.7125 8.1875C6.735 8.1875 6.75 8.1875 6.7725 8.1875C6.8325 8.1875 6.8925 8.2025 6.9525 8.225C6.96 8.225 6.96 8.225 6.9675 8.225C7.0275 8.2475 7.0875 8.2925 7.1325 8.3375C7.14 8.345 7.1475 8.345 7.1475 8.3525L8.6475 9.8525C8.865 10.07 8.865 10.43 8.6475 10.6475Z" fill="url(#paint0_linear_331_30227)"/>
<path d="M13.0742 7.10762C13.7867 7.11512 14.7767 7.11512 15.6242 7.11512C16.0517 7.11512 16.2767 6.61262 15.9767 6.31262C14.8967 5.22512 12.9617 3.26762 11.8517 2.15762C11.5442 1.85012 11.0117 2.06012 11.0117 2.48762V5.10512C11.0117 6.20012 11.9417 7.10762 13.0742 7.10762Z" fill="url(#paint1_linear_331_30227)"/>
<defs>
<linearGradient id="paint0_linear_331_30227" x1="1.875" y1="9.5" x2="16.125" y2="9.5" gradientUnits="userSpaceOnUse">
<stop stop-color="#2A1AD8"/>
<stop offset="0.25" stop-color="#4E26E2"/>
<stop offset="0.5" stop-color="#7231EC"/>
<stop offset="0.75" stop-color="#953DF5"/>
<stop offset="1" stop-color="#B948FF"/>
</linearGradient>
<linearGradient id="paint1_linear_331_30227" x1="11.0117" y1="4.5633" x2="16.114" y2="4.5633" gradientUnits="userSpaceOnUse">
<stop stop-color="#2A1AD8"/>
<stop offset="0.25" stop-color="#4E26E2"/>
<stop offset="0.5" stop-color="#7231EC"/>
<stop offset="0.75" stop-color="#953DF5"/>
<stop offset="1" stop-color="#B948FF"/>
</linearGradient>
</defs>
</svg>
