<svg width="1024" height="1024" viewBox="0 0 1024 1024" fill="none" xmlns="http://www.w3.org/2000/svg">
<path d="M767.375 576.844C770.782 578.813 773.327 581.262 775.824 584.277C781.065 590.352 786.8 595.949 792.479 601.609C794.433 603.558 796.382 605.512 798.33 607.467C806.551 615.692 806.551 615.692 815.204 623.458C818.722 626.479 822.067 629.691 825.438 632.875C826.182 633.577 826.927 634.278 827.695 635.001C832.246 639.301 836.708 643.672 841.102 648.133C843.598 650.588 846.244 652.843 848.902 655.121C852.262 658.13 855.382 661.374 858.551 664.582C861.31 667.306 864.192 669.835 867.137 672.355C869.618 674.545 871.909 676.898 874.227 679.258C876.048 681.047 877.937 682.713 879.875 684.375C893.781 696.376 893.781 696.376 894.312 702.75C894.248 707.172 892.872 709.585 890 713C885.282 717.157 882.492 718.39 876.293 718.261C869.523 717.489 864.997 711.101 860.516 706.519C857.766 703.765 854.885 701.239 851.93 698.711C849.867 696.882 847.934 694.964 846 693C843.521 690.482 841.006 688.099 838.312 685.812C833.904 682.03 829.873 677.9 825.792 673.772C822.24 670.196 818.601 666.803 814.758 663.539C812.304 661.391 810.053 659.063 807.77 656.738C805.97 654.97 804.104 653.327 802.188 651.687C798.062 648.136 794.277 644.292 790.453 640.422C787.733 637.736 784.91 635.225 781.984 632.765C780.215 631.191 778.546 629.567 776.876 627.889C776.337 627.348 775.798 626.808 775.243 626.25C774.628 625.631 774.628 625.631 774 625C773.996 626.774 773.996 626.774 773.993 628.585C773.935 656.682 773.863 684.779 773.771 712.875C773.76 716.335 773.749 719.795 773.738 723.254C773.735 723.943 773.733 724.632 773.731 725.341C773.696 736.487 773.671 747.633 773.65 758.78C773.628 770.22 773.595 781.66 773.551 793.1C773.527 799.525 773.509 805.949 773.502 812.374C773.496 818.421 773.476 824.469 773.446 830.516C773.437 832.735 773.433 834.954 773.435 837.172C773.437 840.205 773.42 843.236 773.399 846.268C773.406 847.581 773.406 847.581 773.413 848.921C773.333 855.906 772.165 861.518 767.438 866.937C763.708 870.093 761.174 870.468 756.387 870.406C752.211 869.695 749.509 867.321 747 864C744.031 858.287 743.566 853.694 743.601 847.312C743.591 845.876 743.591 845.876 743.581 844.411C743.563 841.213 743.565 838.015 743.568 834.816C743.559 832.52 743.548 830.223 743.537 827.927C743.509 821.698 743.5 815.469 743.494 809.241C743.485 802.729 743.458 796.217 743.434 789.706C743.395 778.778 743.367 767.851 743.346 756.923C743.325 745.67 743.298 734.417 743.262 723.164C743.26 722.469 743.258 721.775 743.256 721.06C743.245 717.578 743.234 714.095 743.222 710.613C743.129 681.742 743.058 652.871 743 624C742.398 624.607 741.796 625.215 741.176 625.841C740.378 626.644 739.58 627.446 738.758 628.273C737.97 629.066 737.183 629.86 736.372 630.677C733.644 633.349 730.795 635.836 727.898 638.32C726.02 639.982 724.257 641.711 722.5 643.5C720.13 645.913 717.693 648.172 715.125 650.375C712.115 652.966 709.289 655.672 706.5 658.5C703.139 661.907 699.663 665.074 696.031 668.187C692.96 670.928 690.112 673.879 687.223 676.808C684.573 679.421 681.788 681.833 678.965 684.254C676.186 686.723 673.611 689.379 671.004 692.027C668.418 694.573 665.685 696.92 662.934 699.285C661.045 700.96 659.268 702.699 657.5 704.5C653.848 708.21 650 711.668 646 715C645.359 715.55 644.719 716.101 644.059 716.668C640.271 719.118 636.325 718.791 632 718C627.528 715.88 624.145 712.965 621.937 708.5C620.877 704.541 620.587 702.848 622 699C624.061 696.064 626.495 693.56 629 691C629.454 690.532 629.908 690.064 630.376 689.582C635.73 684.081 641.158 678.749 647.008 673.773C650.261 670.877 653.275 667.745 656.312 664.625C659.085 661.917 661.967 659.39 664.894 656.852C668.365 653.8 671.709 650.617 675.062 647.437C676.557 646.026 678.052 644.614 679.547 643.203C680.291 642.5 681.036 641.797 681.803 641.072C685.13 637.934 688.469 634.809 691.812 631.687C692.425 631.115 693.037 630.542 693.668 629.952C696.545 627.268 699.433 624.599 702.355 621.965C707.202 617.593 711.827 613.228 716.031 608.23C722.546 600.849 729.716 593.904 737.234 587.554C739.14 585.876 740.872 584.086 742.625 582.25C749.381 575.539 758.174 573.575 767.375 576.844Z" fill="#6E27FD"/>
<path d="M566.75 142.468C571.307 142.478 575.863 142.482 580.419 142.469C584.596 142.457 588.772 142.463 592.949 142.484C594.454 142.489 595.959 142.487 597.464 142.478C613.705 142.38 627.604 146.838 639.642 158.024C640.162 158.507 640.682 158.989 641.217 159.486C646.657 164.562 651.953 169.783 657.225 175.032C658.286 176.085 659.347 177.138 660.409 178.19C663.842 181.598 667.272 185.011 670.7 188.425C671.892 189.612 673.084 190.799 674.276 191.986C679.238 196.926 684.198 201.868 689.155 206.813C696.204 213.847 703.263 220.871 710.333 227.884C715.336 232.849 720.33 237.823 725.317 242.805C728.281 245.766 731.25 248.723 734.229 251.669C737.032 254.441 739.822 257.226 742.604 260.02C743.617 261.032 744.633 262.041 745.655 263.045C762.386 279.501 771.858 298.862 772.125 322.536C772.154 327.032 772.159 331.529 772.162 336.025C772.166 338.055 772.171 340.085 772.176 342.114C772.189 347.604 772.196 353.093 772.201 358.582C772.204 362.014 772.207 365.445 772.211 368.877C772.225 379.621 772.235 390.366 772.239 401.11C772.243 413.502 772.261 425.894 772.29 438.285C772.311 447.876 772.321 457.467 772.323 467.058C772.324 472.782 772.33 478.506 772.348 484.229C772.365 489.608 772.367 494.987 772.358 500.365C772.357 502.338 772.361 504.311 772.371 506.283C772.383 508.978 772.378 511.672 772.368 514.366L772.392 516.725C772.346 521.865 771.405 525.432 769 529.999C766.343 532.53 764.502 533.893 760.786 534.155C755.768 533.821 752.544 532.757 749 528.999C746.404 525.216 746.726 521.185 746.759 516.773C746.757 515.519 746.757 515.519 746.754 514.239C746.751 511.432 746.762 508.625 746.773 505.818C746.774 503.808 746.773 501.797 746.772 499.787C746.771 494.325 746.783 488.863 746.797 483.4C746.81 477.694 746.811 471.987 746.813 466.28C746.819 455.471 746.836 444.662 746.856 433.854C746.878 421.549 746.889 409.244 746.899 396.939C746.92 371.626 746.956 346.312 747 320.999C746.106 321.005 746.106 321.005 745.194 321.011C730.635 321.099 716.077 321.166 701.518 321.207C694.477 321.228 687.437 321.255 680.396 321.301C673.594 321.345 666.792 321.369 659.991 321.379C657.403 321.386 654.816 321.401 652.228 321.423C632.466 321.582 616.03 320.672 600.657 306.749C589.815 295.293 585.662 281.442 585.773 265.993C585.773 264.919 585.772 263.846 585.772 262.739C585.773 259.211 585.789 255.683 585.805 252.155C585.809 249.701 585.811 247.246 585.813 244.791C585.821 238.347 585.841 231.902 585.863 225.458C585.883 218.876 585.893 212.292 585.903 205.71C585.924 192.806 585.958 179.902 586 166.999C541.965 167.058 497.929 167.133 453.893 167.229C448.694 167.24 443.495 167.251 438.295 167.262C436.743 167.265 436.742 167.265 435.159 167.269C418.401 167.304 401.643 167.329 384.885 167.35C367.689 167.371 350.492 167.405 333.295 167.448C322.685 167.475 312.075 167.493 301.465 167.499C294.188 167.504 286.911 167.52 279.634 167.545C275.437 167.559 271.239 167.568 267.042 167.564C263.194 167.561 259.347 167.572 255.5 167.593C254.113 167.598 252.725 167.598 251.337 167.593C239.529 167.552 229.122 168.961 220 176.999C212.012 185.98 209.533 195.594 209.62 207.397C209.615 208.4 209.611 209.403 209.606 210.437C209.594 213.787 209.603 217.138 209.613 220.488C209.609 222.918 209.603 225.349 209.596 227.779C209.585 233.059 209.582 238.338 209.588 243.617C209.597 251.468 209.59 259.319 209.579 267.17C209.559 281.193 209.556 295.215 209.561 309.238C209.566 321.51 209.566 333.783 209.56 346.055C209.559 347.701 209.558 349.348 209.557 350.995C209.556 353.476 209.555 355.958 209.554 358.439C209.543 381.506 209.538 404.572 209.546 427.639C209.547 428.508 209.547 429.378 209.547 430.273C209.55 437.333 209.553 444.393 209.555 451.453C209.565 478.992 209.557 506.532 209.534 534.071C209.508 565.018 209.494 595.965 209.501 626.911C209.502 630.211 209.503 633.51 209.503 636.81C209.504 638.028 209.504 638.029 209.504 639.272C209.507 651.536 209.499 663.798 209.486 676.062C209.471 690.008 209.47 703.954 209.488 717.9C209.497 725.703 209.495 733.506 209.478 741.309C209.466 747.136 209.475 752.964 209.493 758.792C209.496 761.148 209.494 763.505 209.484 765.861C209.471 769.066 209.482 772.271 209.5 775.476C209.49 776.389 209.48 777.302 209.47 778.242C209.58 787.987 212.757 796.558 219.008 804.058C225.61 810.491 234.129 813.249 243.2 813.25C243.905 813.253 244.611 813.256 245.337 813.259C247.701 813.266 250.065 813.258 252.429 813.251C254.141 813.253 255.853 813.256 257.565 813.26C262.27 813.268 266.975 813.264 271.679 813.258C276.753 813.253 281.826 813.26 286.9 813.266C295.692 813.274 304.485 813.276 313.277 813.273C325.997 813.27 338.716 813.283 351.436 813.299C372.082 813.325 392.729 813.344 413.375 813.357C415.229 813.359 415.229 813.359 417.121 813.36C434.664 813.372 452.207 813.377 469.75 813.38C470.986 813.38 472.222 813.38 473.495 813.38C474.729 813.38 475.963 813.381 477.234 813.381C497.801 813.385 518.369 813.404 538.937 813.436C551.626 813.454 564.316 813.46 577.005 813.449C585.698 813.443 594.391 813.451 603.083 813.471C608.101 813.481 613.118 813.486 618.135 813.473C622.728 813.461 627.32 813.466 631.913 813.487C633.575 813.492 635.237 813.489 636.899 813.479C639.158 813.467 641.415 813.479 643.674 813.497C644.929 813.498 646.183 813.499 647.476 813.499C651.913 814.13 654.286 815.519 658 817.999C660.986 822.098 660.638 827.143 660 831.999C657.665 836.152 655.456 837.579 651 838.999C647.736 839.252 647.735 839.253 643.946 839.257C643.244 839.26 642.542 839.264 641.819 839.268C639.461 839.277 637.103 839.271 634.745 839.267C633.039 839.27 631.334 839.275 629.628 839.28C624.937 839.293 620.246 839.292 615.554 839.29C610.496 839.29 605.438 839.301 600.379 839.311C590.466 839.327 580.552 839.333 570.638 839.334C562.577 839.335 554.516 839.338 546.455 839.345C523.595 839.362 500.735 839.372 477.875 839.37H470.399C450.412 839.369 430.424 839.388 410.437 839.416C389.91 839.445 369.384 839.459 348.857 839.457C337.335 839.456 325.812 839.462 314.29 839.483C304.475 839.502 294.659 839.506 284.844 839.492C279.84 839.486 274.836 839.486 269.832 839.503C265.242 839.519 260.653 839.516 256.063 839.499C254.411 839.496 252.758 839.5 251.106 839.511C232.271 839.63 216.251 835.559 202.215 822.21L200 819.999L198.254 818.288C187.548 806.886 183.838 791.245 183.872 776.111C183.87 775.115 183.868 774.119 183.866 773.093C183.861 769.741 183.864 766.388 183.867 763.036C183.865 760.614 183.863 758.192 183.86 755.77C183.855 750.496 183.853 745.223 183.854 739.949C183.856 732.107 183.851 724.264 183.846 716.422C183.837 701.6 183.833 686.778 183.833 671.956C183.832 660.509 183.831 649.061 183.828 637.614C183.827 634.32 183.826 631.026 183.825 627.731C183.824 626.503 183.824 626.503 183.824 625.25C183.818 602.211 183.814 579.171 183.814 556.132C183.814 555.263 183.814 554.394 183.814 553.499C183.814 549.096 183.815 544.692 183.815 540.288V532.332C183.816 504.82 183.808 477.308 183.794 449.796C183.779 418.889 183.77 387.983 183.771 357.076V344.728C183.771 331.67 183.765 318.612 183.756 305.555C183.748 292.429 183.747 279.303 183.753 266.177C183.757 258.381 183.755 250.585 183.746 242.789C183.739 236.965 183.743 231.14 183.75 225.315C183.752 222.962 183.75 220.608 183.745 218.254C183.697 196.754 184.911 176.893 200.543 160.3C214.59 147.046 228.734 142.367 247.871 142.491C249.437 142.487 251.003 142.481 252.569 142.473C256.838 142.456 261.106 142.464 265.375 142.477C269.991 142.486 274.609 142.472 279.226 142.461C288.257 142.443 297.287 142.446 306.318 142.458C313.66 142.467 321.001 142.468 328.343 142.464C329.39 142.463 330.437 142.463 331.515 142.462C333.641 142.461 335.768 142.46 337.894 142.459C357.813 142.448 377.732 142.46 397.651 142.481C414.728 142.499 431.805 142.496 448.882 142.478C468.733 142.456 488.585 142.449 508.436 142.461C510.554 142.462 512.672 142.463 514.791 142.464C515.833 142.464 516.875 142.465 517.949 142.466C525.279 142.469 532.609 142.464 539.939 142.454C548.876 142.443 557.814 142.447 566.75 142.468ZM609.125 171C609.103 183.478 609.086 195.957 609.076 208.436C609.071 214.797 609.066 221.158 609.056 227.519C609.045 233.751 609.035 239.984 609.031 246.216C609.03 248.585 609.029 250.955 609.027 253.324C609.019 256.738 609.011 260.152 609.01 263.566C609.01 264.632 609.011 265.667 609.011 266.701C609.008 267.704 609.004 268.677 609 269.65C609.002 270.576 609.003 271.475 609.004 272.374C608.997 279.026 610.617 284.371 614.125 290C620.112 295.987 626.823 298.448 635.164 298.497C636.203 298.482 637.213 298.468 638.222 298.454C641.657 298.456 645.092 298.452 648.527 298.423C650.976 298.401 653.426 298.386 655.875 298.379C662.301 298.369 668.726 298.345 675.152 298.302C681.808 298.256 688.465 298.228 695.122 298.207C709.456 298.164 723.79 298.094 738.125 298C737.703 297.359 737.294 296.736 736.884 296.114C736.33 295.276 735.791 294.462 735.252 293.648C733.611 291.162 732.018 288.876 730.07 286.617L728.25 284.875C726.363 283.038 724.435 281.267 722.439 279.549C718.147 275.855 714.037 272.032 710.025 268.036C708.917 266.925 708.917 266.925 707.832 265.836C705.342 263.352 702.853 260.867 700.368 258.379C698.592 256.6 696.814 254.823 695.037 253.046C690.83 248.842 686.625 244.638 682.422 240.431C678.083 236.086 673.743 231.742 669.398 227.403C665.623 223.634 661.85 219.863 658.079 216.09C656.272 214.282 654.466 212.475 652.66 210.668C644.541 202.56 636.313 194.552 628.644 186.013C626.575 183.646 624.52 181.32 622.269 179.125L619.937 177C616.458 173.769 613.635 172.405 609.125 171Z" fill="#979DA9"/>
<path d="M330.507 525.743C331.9 525.733 331.9 525.733 333.321 525.723C334.855 525.728 334.855 525.728 336.419 525.733C338.046 525.726 338.046 525.726 339.705 525.719C343.358 525.706 347.011 525.708 350.663 525.71C353.275 525.704 355.886 525.697 358.497 525.689C364.866 525.673 371.234 525.667 377.603 525.666C382.779 525.665 387.955 525.661 393.131 525.655C407.803 525.637 422.475 525.628 437.146 525.629C438.333 525.63 438.333 525.63 439.544 525.63C440.336 525.63 441.129 525.63 441.945 525.63C454.783 525.631 467.621 525.612 480.46 525.583C493.638 525.555 506.816 525.541 519.995 525.543C527.395 525.543 534.795 525.538 542.195 525.516C549.155 525.496 556.114 525.497 563.073 525.511C565.63 525.513 568.187 525.509 570.743 525.497C574.229 525.481 577.714 525.49 581.2 525.506C582.723 525.49 582.723 525.49 584.277 525.475C590.167 525.532 593.494 526.109 598 530C600.591 533.415 600.359 536.832 600 541C598.377 545.221 596.833 547.624 593 550C590.797 550.377 590.797 550.377 588.352 550.381C587.417 550.389 586.482 550.397 585.519 550.406C583.983 550.397 583.983 550.397 582.416 550.388C580.781 550.396 580.781 550.396 579.113 550.404C575.447 550.419 571.781 550.411 568.115 550.404C565.492 550.41 562.869 550.417 560.247 550.425C553.854 550.442 547.461 550.443 541.069 550.438C535.873 550.434 530.678 550.435 525.483 550.441C524.374 550.442 524.374 550.442 523.243 550.443C521.742 550.444 520.241 550.446 518.739 550.448C504.656 550.461 490.573 550.456 476.489 550.444C463.602 550.434 450.715 550.447 437.827 550.471C424.598 550.496 411.369 550.505 398.14 550.499C390.711 550.495 383.282 550.497 375.854 550.515C368.87 550.531 361.886 550.526 354.902 550.508C352.335 550.504 349.768 550.507 347.201 550.517C343.704 550.531 340.208 550.519 336.711 550.501C335.689 550.511 334.668 550.521 333.615 550.531C329.278 550.485 326.724 550.439 322.956 548.156C319.244 544.064 318.563 541.622 318.676 536.289C319.172 532.785 320.736 530.652 323 528C326.16 525.893 326.899 525.749 330.507 525.743Z" fill="#989EAA"/>
<path d="M330.402 420.865C331.333 420.861 332.264 420.856 333.223 420.852C334.253 420.852 335.282 420.852 336.343 420.852C337.976 420.847 337.976 420.847 339.642 420.841C343.314 420.83 346.986 420.826 350.658 420.823C353.28 420.816 355.903 420.81 358.526 420.803C366.414 420.783 374.302 420.773 382.19 420.764C385.902 420.759 389.615 420.754 393.328 420.749C405.666 420.732 418.004 420.717 430.343 420.71C433.545 420.708 436.748 420.706 439.951 420.704C441.145 420.704 441.145 420.704 442.363 420.703C455.264 420.695 468.164 420.669 481.065 420.637C494.303 420.604 507.541 420.586 520.779 420.582C528.215 420.58 535.65 420.572 543.085 420.546C550.077 420.522 557.07 420.518 564.062 420.529C566.632 420.529 569.202 420.523 571.772 420.509C575.273 420.492 578.774 420.499 582.276 420.512C583.299 420.501 584.322 420.49 585.376 420.479C589.774 420.519 592.282 420.556 596.088 422.906C598.548 425.599 599.892 427.472 600.152 431.148C599.587 437.009 598.228 439.874 594 444C591.651 445.174 590.266 445.127 587.648 445.131C586.728 445.135 585.808 445.139 584.86 445.143C583.334 445.141 583.334 445.141 581.777 445.14C580.702 445.143 579.626 445.146 578.518 445.149C574.89 445.158 571.262 445.159 567.634 445.161C565.042 445.165 562.451 445.17 559.859 445.176C552.801 445.189 545.743 445.195 538.686 445.2C534.28 445.202 529.874 445.207 525.468 445.211C513.273 445.223 501.078 445.234 488.883 445.237C488.102 445.237 487.321 445.238 486.516 445.238C485.734 445.238 484.951 445.238 484.144 445.238C482.558 445.239 480.972 445.239 479.386 445.24C478.206 445.24 478.206 445.24 477.001 445.24C464.254 445.244 451.506 445.262 438.758 445.285C425.675 445.309 412.591 445.321 399.508 445.322C392.16 445.323 384.813 445.329 377.465 445.347C370.554 445.364 363.643 445.366 356.732 445.357C354.193 445.356 351.654 445.361 349.115 445.371C345.654 445.383 342.192 445.377 338.731 445.367C337.218 445.379 337.218 445.379 335.675 445.391C330.362 445.354 326.579 445.013 322 442C318.819 438.395 318.43 434.876 318.57 430.222C319.306 426.416 321.225 424.643 324 422C326.36 420.819 327.77 420.871 330.402 420.865Z" fill="#989EAA"/>
<path d="M331.774 633.846C333.029 633.838 334.284 633.829 335.577 633.82C336.981 633.816 338.384 633.811 339.788 633.807C341.256 633.799 342.724 633.791 344.192 633.782C349.028 633.756 353.864 633.741 358.699 633.727C360.362 633.721 362.025 633.716 363.689 633.711C370.607 633.689 377.525 633.67 384.444 633.659C394.365 633.643 404.286 633.61 414.206 633.553C421.178 633.514 428.149 633.494 435.121 633.489C439.287 633.485 443.451 633.473 447.617 633.441C451.538 633.411 455.458 633.405 459.379 633.416C460.817 633.417 462.254 633.408 463.692 633.391C475.905 633.25 475.905 633.25 479.84 636.412C483.276 640.53 483.338 643.277 483.285 648.52C482.881 652.032 481.612 653.678 479 656C475.636 658.111 472.953 658.253 469.017 658.261C467.791 658.268 466.566 658.275 465.304 658.282C463.949 658.28 462.594 658.277 461.239 658.275C459.809 658.279 458.38 658.284 456.951 658.29C453.071 658.304 449.191 658.304 445.31 658.302C442.07 658.301 438.829 658.306 435.589 658.31C427.942 658.321 420.296 658.322 412.65 658.316C404.765 658.31 396.881 658.322 388.997 658.343C382.225 658.361 375.453 658.367 368.681 658.364C364.637 658.362 360.594 658.365 356.551 658.378C352.747 658.391 348.944 658.389 345.14 658.376C343.746 658.374 342.352 658.376 340.958 658.385C339.051 658.395 337.144 658.385 335.237 658.374C334.171 658.375 333.105 658.375 332.007 658.375C327.103 657.764 323.902 655.971 320.562 652.375C318.509 647.939 318.488 644.639 320 640C322.5 637 322.5 637 325 635C326.777 633.223 329.369 633.858 331.774 633.846Z" fill="#979EA9"/>
<path d="M773 624C775.31 625.98 777.62 627.96 780 630C779.01 630 778.02 630 777 630C776.67 629.67 776.34 629.34 776 629C775.233 637.663 774.839 646.255 774.795 654.95C774.785 656.172 774.775 657.393 774.765 658.651C774.739 661.954 774.717 665.256 774.697 668.559C774.675 672.028 774.647 675.497 774.621 678.965C774.571 685.513 774.526 692.061 774.483 698.609C774.433 706.072 774.378 713.536 774.323 720.999C774.21 736.333 774.103 751.666 774 767C773.67 767 773.34 767 773 767C773 719.81 773 672.62 773 624Z" fill="#010A08"/>
<path d="M700 624C700.66 624.33 701.32 624.66 702 625C687.832 639.347 687.832 639.347 681.555 644.668C679.598 646.345 677.784 648.142 676 650C675.34 649.67 674.68 649.34 674 649C688.168 634.653 688.168 634.653 694.445 629.332C696.402 627.655 698.216 625.858 700 624Z" fill="#7C2BF9"/>
<path d="M731 595C729.054 599.777 725.856 603.134 721.188 605.312C720.105 605.653 720.105 605.653 719 606C728.27 595 728.27 595 731 595Z" fill="#6D26E6"/>
<path d="M809 620C813.104 620.518 814.957 622.646 817.75 625.562C818.949 626.802 818.949 626.802 820.172 628.066C820.775 628.704 821.378 629.343 822 630C818.242 630 817.63 629.064 814.938 626.562C812.182 623.973 812.182 623.973 809 622C809 621.34 809 620.68 809 620Z" fill="#792AF7"/>
<path d="M885 690C886.175 690.927 887.34 691.867 888.5 692.812C889.15 693.335 889.799 693.857 890.469 694.395C892 696 892 696 892 699C890.125 698.812 890.125 698.812 888 698C886.812 695.625 886.812 695.625 886 693C885.67 692.01 885.34 691.02 885 690Z" fill="#762CF6"/>
<path d="M865 710C868.777 711.813 872.373 713.907 876 716C876 716.66 876 717.32 876 718C870.333 716.682 868.336 714.513 865 710Z" fill="#7629ED"/>
<path d="M864 671C868.274 672.583 870.265 675.506 873 679C870.506 677.796 868.319 676.546 866 675C866 674.34 866 673.68 866 673C865.34 673 864.68 673 864 673C864 672.34 864 671.68 864 671Z" fill="#7A2AFB"/>
<path d="M771 853C771.33 853 771.66 853 772 853C772.286 860.429 772.286 860.429 770 864C769.34 863.67 768.68 863.34 768 863C768.33 862.01 768.66 861.02 769 860C769.672 857.668 770.339 855.335 771 853Z" fill="#752DF3"/>
<path d="M892 710C892.66 710.99 893.32 711.98 894 713C889.375 716 889.375 716 886 716C887.98 714.02 889.96 712.04 892 710Z" fill="#040B0E"/>
</svg>
