<svg width="10" height="10" viewBox="0 0 10 10" fill="none" xmlns="http://www.w3.org/2000/svg">
<path d="M4.28741 0.304538C4.28169 0.298799 4.27583 0.293226 4.2698 0.287839C4.23589 0.257457 4.19821 0.233625 4.15838 0.216302C4.10773 0.194238 4.05182 0.181989 3.99305 0.181885H3.99244C3.9918 0.181885 3.99115 0.181906 3.99051 0.181906C3.88506 0.182384 3.77977 0.222707 3.69912 0.302875L1.99085 2.00121C1.82793 2.16316 1.82718 2.4265 1.98916 2.58939C2.15116 2.75229 2.41454 2.75304 2.57746 2.59106L3.57647 1.59787V5.15416C3.57647 5.38387 3.7627 5.57008 3.99244 5.57008C4.22217 5.57008 4.40842 5.38387 4.40842 5.15416V1.59789L5.40741 2.59106C5.57031 2.75304 5.8337 2.75229 5.99568 2.58939C6.15767 2.4265 6.15692 2.16316 5.994 2.00121L4.28741 0.304538Z" fill="#E72240"/>
<path d="M0.831954 4.51455C0.831954 4.28484 0.645721 4.09863 0.415977 4.09863C0.186233 4.09863 0 4.28484 0 4.51455V7.42596L4.16542e-05 7.43203C0.0028703 7.62606 0.0812196 7.81135 0.21845 7.94856C0.355681 8.08577 0.540999 8.16411 0.735052 8.16694L0.741125 8.16698H3.62871C3.85844 8.16698 4.04469 7.98077 4.04469 7.75106C4.04469 7.52137 3.85844 7.33515 3.62871 7.33515H0.831954V4.51455Z" fill="#E72240"/>
<path fill-rule="evenodd" clip-rule="evenodd" d="M4.66162 7.14926C4.66162 5.69355 5.87488 4.48047 7.3308 4.48047C8.78672 4.48047 10 5.69355 10 7.14926C10 8.60496 8.78672 9.81807 7.3308 9.81807C5.87488 9.81807 4.66162 8.60496 4.66162 7.14926ZM7.03962 8.6535C7.03962 8.79907 7.18521 8.94464 7.3308 8.94464C7.47639 8.94464 7.62198 8.79907 7.62198 8.6535C7.62198 8.50793 7.47639 8.36236 7.3308 8.36236C7.18521 8.36236 7.03962 8.50793 7.03962 8.6535ZM7.3308 7.92565C7.47639 7.92565 7.62198 7.78008 7.62198 7.63451V5.59652C7.62198 5.45095 7.47639 5.30538 7.3308 5.30538C7.18521 5.30538 7.03962 5.45095 7.03962 5.59652V7.63451C7.03962 7.78008 7.18521 7.92565 7.3308 7.92565Z" fill="#E72240"/>
</svg>
