<svg width="28" height="34" viewBox="0 0 28 34" fill="none" xmlns="http://www.w3.org/2000/svg">
<path d="M1.19376 0.0598145C0.693868 0.0598145 0.285156 0.468199 0.285156 0.968729V33.0312C0.285156 33.5317 0.693868 33.9401 1.19376 33.9401H26.8216C27.3224 33.9401 27.7311 33.5314 27.7311 33.0312V11.0586C27.7311 10.5581 27.4422 9.86011 27.089 9.50662L18.2843 0.702572C17.9305 0.348445 17.2325 0.0598145 16.7323 0.0598145H1.19376Z" fill="#898B94"/>
<path d="M1.95253 0.665039C1.45168 0.665039 1.04297 1.07471 1.04297 1.57395V32.7285C1.04297 33.228 1.45168 33.6377 1.95253 33.6377H26.5202C27.0194 33.6377 27.4291 33.2283 27.4291 32.7285V11.2095C27.4291 10.71 27.1392 10.0117 26.786 9.65723L18.436 1.30812C18.0822 0.954955 17.3845 0.665039 16.8843 0.665039H1.95253Z" fill="url(#paint0_linear_406_26427)"/>
<path d="M18.2812 3.0791V7.62271C18.2812 8.58011 19.0588 9.35643 20.0143 9.35643H24.7364L18.2812 3.0791Z" fill="url(#paint1_linear_406_26427)"/>
<path d="M17.9244 8.68569L17.506 1.20825L16.8633 9.74647C16.8633 10.246 17.272 10.6554 17.7728 10.6554H26.0436L18.833 9.59461C18.3334 9.59493 17.9244 9.18526 17.9244 8.68569Z" fill="url(#paint2_radial_406_26427)"/>
<path d="M27.4799 24.8466C27.4799 25.2816 27.1129 25.6376 26.6647 25.6376H1.90892C1.46072 25.6376 1.09375 25.2819 1.09375 24.8466V15.62C1.09375 15.185 1.46072 14.8292 1.90892 14.8292H26.6647C27.1129 14.8292 27.4799 15.185 27.4799 15.62V24.8466Z" fill="#B948FF"/>
<path d="M19.9152 23.1606C19.5402 23.1606 19.2012 23.0938 18.8981 22.9602C18.6002 22.8267 18.351 22.6392 18.1507 22.3977C17.9503 22.1512 17.8168 21.8686 17.75 21.5502L18.5591 21.3421L18.6438 21.3575C18.7106 21.5476 18.8056 21.7171 18.9289 21.8661C19.0573 22.0099 19.2089 22.1229 19.3835 22.2051C19.5582 22.2873 19.7457 22.3284 19.946 22.3284C20.1515 22.3284 20.3313 22.2976 20.4854 22.2359C20.6395 22.1692 20.7602 22.0793 20.8476 21.9662C20.94 21.8481 20.9863 21.7145 20.9863 21.5656C20.9863 21.3806 20.9272 21.2342 20.809 21.1264C20.696 21.0133 20.5265 20.926 20.3005 20.8644L19.3296 20.6101C18.8724 20.4868 18.5231 20.289 18.2817 20.0168C18.0454 19.7445 17.9272 19.4286 17.9272 19.069C17.9272 18.7659 18.0043 18.5014 18.1584 18.2754C18.3125 18.0442 18.5282 17.8644 18.8056 17.736C19.083 17.6024 19.4041 17.5356 19.7688 17.5356C20.1181 17.5356 20.4315 17.5999 20.7089 17.7283C20.9914 17.8516 21.2251 18.0262 21.4101 18.2522C21.595 18.4783 21.7157 18.748 21.7722 19.0613L21.0094 19.2308L20.9246 19.2154C20.863 18.9483 20.7294 18.7403 20.5239 18.5913C20.3185 18.4423 20.0642 18.3678 19.7611 18.3678C19.4837 18.3678 19.2628 18.4346 19.0984 18.5682C18.9341 18.6966 18.8519 18.8635 18.8519 19.069C18.8519 19.2385 18.9109 19.3824 19.0291 19.5005C19.1524 19.6187 19.3322 19.7086 19.5685 19.7702L20.5394 20.0245C20.9863 20.1426 21.3253 20.3301 21.5565 20.587C21.7928 20.8387 21.9109 21.152 21.9109 21.527C21.9109 21.8558 21.8287 22.1435 21.6643 22.39C21.5 22.6315 21.2662 22.8215 20.9631 22.9602C20.6652 23.0938 20.3159 23.1606 19.9152 23.1606Z" fill="white"/>
<path d="M13.8594 23.045V17.6512H14.7455V23.045H13.8594ZM14.314 23.045V22.1974H17.3499V23.045H14.314Z" fill="white"/>
<path d="M12.3159 23.045L9.01033 17.7129V17.6512H10.012L13.3176 22.9834V23.045H12.3159ZM8.91016 23.045V22.9834L10.7826 19.9629L11.3065 20.7411L9.88874 23.045H8.91016ZM11.3913 20.7642L10.875 19.986L12.2389 17.6512H13.2175V17.7129L11.3913 20.7642Z" fill="white"/>
<path d="M7.94097 23.1143C7.77659 23.1143 7.63532 23.0578 7.51717 22.9448C7.40416 22.8318 7.34766 22.6931 7.34766 22.5287C7.34766 22.3695 7.40416 22.2333 7.51717 22.1203C7.63532 22.0073 7.77659 21.9508 7.94097 21.9508C8.10022 21.9508 8.23634 22.0073 8.34936 22.1203C8.46237 22.2333 8.51888 22.3695 8.51888 22.5287C8.51888 22.6931 8.46237 22.8318 8.34936 22.9448C8.23634 23.0578 8.10022 23.1143 7.94097 23.1143Z" fill="white"/>
<defs>
<linearGradient id="paint0_linear_406_26427" x1="14.236" y1="0.806384" x2="14.236" y2="33.7788" gradientUnits="userSpaceOnUse">
<stop stop-color="white"/>
<stop offset="0.4837" stop-color="#FDFDFD"/>
<stop offset="0.7117" stop-color="#F5F6F6"/>
<stop offset="0.8856" stop-color="#E9E9EA"/>
<stop offset="1" stop-color="#DBDCDD"/>
</linearGradient>
<linearGradient id="paint1_linear_406_26427" x1="21.5532" y1="6.17342" x2="18.6589" y2="9.06772" gradientUnits="userSpaceOnUse">
<stop stop-color="white"/>
<stop offset="0.3511" stop-color="#F2F3F3"/>
<stop offset="0.998" stop-color="#D0D2D3"/>
<stop offset="1" stop-color="#D0D2D3"/>
</linearGradient>
<radialGradient id="paint2_radial_406_26427" cx="0" cy="0" r="1" gradientUnits="userSpaceOnUse" gradientTransform="translate(21.6497 5.78674) scale(5.28934 5.28934)">
<stop stop-color="white"/>
<stop offset="0.486" stop-color="#FDFDFD"/>
<stop offset="0.661" stop-color="#F6F7F7"/>
<stop offset="0.7858" stop-color="#EBEBEC"/>
<stop offset="0.8866" stop-color="#DADBDC"/>
<stop offset="0.972" stop-color="#C4C6C7"/>
<stop offset="1" stop-color="#BBBDBF"/>
</radialGradient>
</defs>
</svg>
